<svg width="43" height="44" viewBox="0 0 43 44" fill="none" xmlns="http://www.w3.org/2000/svg">
<path fill-rule="evenodd" clip-rule="evenodd" d="M8.95841 23.7918H30.2165L23.7074 31.6035C23.0732 32.3632 23.1771 33.4937 23.9367 34.1262C24.6982 34.7604 25.827 34.6565 26.4612 33.8968L35.4195 23.1468C35.4894 23.0626 35.5235 22.9641 35.5754 22.8709C35.6184 22.7957 35.6704 22.7312 35.7026 22.6487C35.7832 22.4427 35.8316 22.2259 35.8316 22.0073C35.8316 22.0055 35.8334 22.002 35.8334 22.0002C35.8334 21.9984 35.8316 21.9948 35.8316 21.993C35.8316 21.7744 35.7832 21.5576 35.7026 21.3516C35.6704 21.2692 35.6184 21.2047 35.5754 21.1294C35.5235 21.0362 35.4894 20.9377 35.4195 20.8535L26.4612 10.1035C26.1047 9.67887 25.5958 9.4585 25.0834 9.4585C24.6785 9.4585 24.2718 9.59466 23.9367 9.87416C23.1771 10.5066 23.0732 11.6372 23.7074 12.3968L30.2165 20.2085H8.95841C7.96941 20.2085 7.16675 21.0112 7.16675 22.0002C7.16675 22.9892 7.96941 23.7918 8.95841 23.7918Z" fill="#DB3731"/>
</svg>
