<svg width="22" height="22" viewBox="0 0 22 22" fill="none" xmlns="http://www.w3.org/2000/svg">
<path fill-rule="evenodd" clip-rule="evenodd" d="M13.4747 10.9999L20.9874 3.4872C21.6717 2.80295 21.6717 1.69695 20.9874 1.0127C20.3032 0.328449 19.1972 0.328449 18.5129 1.0127L11.0002 8.52545L3.48744 1.0127C2.80319 0.328449 1.69719 0.328449 1.01294 1.0127C0.328693 1.69695 0.328693 2.80295 1.01294 3.4872L8.52569 10.9999L1.01294 18.5127C0.328693 19.197 0.328693 20.3029 1.01294 20.9872C1.35419 21.3284 1.80219 21.5 2.25019 21.5C2.69819 21.5 3.14619 21.3284 3.48744 20.9872L11.0002 13.4744L18.5129 20.9872C18.8542 21.3284 19.3022 21.5 19.7502 21.5C20.1982 21.5 20.6462 21.3284 20.9874 20.9872C21.6717 20.3029 21.6717 19.197 20.9874 18.5127L13.4747 10.9999Z" fill="#222B45"/>
</svg>
