<svg width="39" height="40" viewBox="0 0 39 40" fill="none" xmlns="http://www.w3.org/2000/svg">
<path fill-rule="evenodd" clip-rule="evenodd" d="M7.22636 19.7479C6.7567 20.2495 6.46588 20.9045 6.4317 21.608L5.96009 31.3574C5.92105 32.1363 6.21754 32.8816 6.77144 33.4003C7.32534 33.919 8.08849 34.1659 8.86214 34.0769L18.5595 32.9643C19.7175 32.8335 20.6926 32.0137 21.0469 30.8785C21.358 29.8747 21.0944 28.8245 20.3577 28.1346L11.1341 19.4977C10.3974 18.8079 9.33205 18.6138 8.35092 18.9902C7.91386 19.1585 7.53249 19.421 7.22636 19.7479Z" fill="#EDEFF3"/>
<path fill-rule="evenodd" clip-rule="evenodd" d="M31.4516 20.341C31.9213 19.8394 32.2121 19.1844 32.2463 18.4809L32.7179 8.73143C32.7569 7.95253 32.4604 7.20723 31.9065 6.68857C31.3526 6.1699 30.5895 5.92297 29.8158 6.01198L20.1185 7.12454C18.9605 7.25538 17.9854 8.07513 17.6311 9.2104C17.3199 10.2141 17.5835 11.2644 18.3202 11.9543L27.5439 20.5912C28.2806 21.281 29.3459 21.4751 30.3271 21.0987C30.7641 20.9304 31.1455 20.6679 31.4516 20.341Z" fill="#EDEFF3"/>
</svg>
