<svg width="19" height="18" viewBox="0 0 19 18" fill="none" xmlns="http://www.w3.org/2000/svg">
<path fill-rule="evenodd" clip-rule="evenodd" d="M9.78843 5.49126L5.57568 9.70401L5.37768 11.921L7.61043 11.7178L11.8104 7.51326L9.78843 5.49126ZM14.2757 5.04576L12.2544 3.02526L10.7934 4.48626L12.8147 6.50826L14.2757 5.04576ZM4.61943 13.496C4.59618 13.4983 4.57368 13.499 4.55118 13.499C4.35318 13.499 4.16193 13.421 4.02093 13.2793C3.86343 13.1218 3.78393 12.9028 3.80418 12.6815L4.08843 9.55325C4.11993 9.2105 4.27143 8.88725 4.51518 8.64351L11.2622 1.89576C11.7887 1.36776 12.7442 1.39401 13.2992 1.94826L15.3527 4.00176H15.3534C15.9279 4.57701 15.9504 5.48976 15.4044 6.03725L8.65667 12.785C8.41292 13.0295 8.09043 13.1803 7.74693 13.2118L4.61943 13.496ZM4.55103 14.9991H15.051C15.4635 14.9991 15.801 15.3366 15.801 15.7491C15.801 16.1616 15.4635 16.4991 15.051 16.4991H4.55103C4.13853 16.4991 3.80103 16.1616 3.80103 15.7491C3.80103 15.3366 4.13853 14.9991 4.55103 14.9991Z" fill="#788392"/>
</svg>
