<svg width="22" height="22" viewBox="0 0 22 22" fill="none" xmlns="http://www.w3.org/2000/svg">
<path fill-rule="evenodd" clip-rule="evenodd" d="M14.6837 9.7885L12.2133 7.31808L13.999 5.5315L16.4685 8.001L14.6837 9.7885ZM8.32295 16.1557L5.59404 16.4041L5.83604 13.6944L10.985 8.5455L13.4563 11.0168L8.32295 16.1557ZM17.7866 6.72592L17.7857 6.725L15.2759 4.21517C14.5966 3.53775 13.4297 3.50567 12.7862 4.15192L4.53987 12.3983C4.24104 12.6962 4.05587 13.0922 4.01737 13.5111L3.66995 17.3336C3.64612 17.604 3.74237 17.8717 3.93487 18.0642C4.10812 18.2374 4.34187 18.3328 4.58295 18.3328C4.61137 18.3328 4.63887 18.3318 4.66637 18.3291L8.48887 17.9817C8.9087 17.9432 9.30379 17.7589 9.6017 17.461L17.849 9.21375C18.5163 8.54458 18.4879 7.42808 17.7866 6.72592V6.72592Z" fill="#74798A"/>
</svg>
