<svg width="28" height="29" viewBox="0 0 28 29" fill="none" xmlns="http://www.w3.org/2000/svg">
<path fill-rule="evenodd" clip-rule="evenodd" d="M22.1667 21.5799H5.83337C5.19054 21.5799 4.66671 21.0572 4.66671 20.4132V9.03825L13.3 15.5132C13.5077 15.6696 13.7539 15.7466 14 15.7466C14.2462 15.7466 14.4924 15.6696 14.7 15.5132L23.3334 9.03825V20.4132C23.3334 21.0572 22.8095 21.5799 22.1667 21.5799V21.5799ZM21.3885 7.57992L14 13.1216L6.61154 7.57992H21.3885ZM22.1667 5.24658H5.83337C3.90371 5.24658 2.33337 6.81692 2.33337 8.74658V20.4132C2.33337 22.3429 3.90371 23.9132 5.83337 23.9132H22.1667C24.0964 23.9132 25.6667 22.3429 25.6667 20.4132V8.74658C25.6667 6.81692 24.0964 5.24658 22.1667 5.24658V5.24658Z" fill="#222B45"/>
</svg>
