<svg width="14" height="14" viewBox="0 0 14 14" fill="none" xmlns="http://www.w3.org/2000/svg">
<path fill-rule="evenodd" clip-rule="evenodd" d="M7.00046 7.87236C6.51804 7.87236 6.12546 7.47977 6.12546 6.99736C6.12546 6.51494 6.51804 6.12236 7.00046 6.12236C7.48287 6.12236 7.87545 6.51494 7.87545 6.99736C7.87545 7.47977 7.48287 7.87236 7.00046 7.87236ZM7.00108 4.95631C5.87524 4.95631 4.95941 5.87215 4.95941 6.99798C4.95941 8.12381 5.87524 9.03965 7.00108 9.03965C8.12691 9.03965 9.04274 8.12381 9.04274 6.99798C9.04274 5.87215 8.12691 4.95631 7.00108 4.95631ZM7.12916 9.91272C4.61733 9.97105 2.97874 7.82263 2.43508 6.99488C3.03358 6.05863 4.54091 4.1418 6.87308 4.0823C9.37499 4.01872 11.0229 6.17238 11.5666 7.00013C10.9687 7.93638 9.46074 9.85322 7.12916 9.91272M12.7575 6.70783C12.3853 6.05916 10.3297 2.80766 6.84366 2.91674C3.61899 2.99841 1.74357 5.83924 1.24541 6.70783C1.14216 6.88749 1.14216 7.10858 1.24541 7.28824C1.61232 7.92816 3.59566 11.0811 7.01574 11.0811C7.06357 11.0811 7.11141 11.0805 7.15924 11.0793C10.3833 10.9971 12.2593 8.15683 12.7575 7.28824C12.8602 7.10858 12.8602 6.88749 12.7575 6.70783Z" fill="#222B45"/>
</svg>
