<svg width="36" height="36" viewBox="0 0 36 36" fill="none" xmlns="http://www.w3.org/2000/svg">
<g clip-path="url(#clip0_1801_23173)">
<path d="M18 12.2063C14.8035 12.2063 12.2064 14.8035 12.2064 17.9999C12.2064 21.1964 14.8035 23.7935 18 23.7935C21.1965 23.7935 23.7936 21.1964 23.7936 17.9999C23.7936 14.8035 21.1965 12.2063 18 12.2063ZM17.5605 16.2818C16.8413 16.2818 16.2419 16.8812 16.2419 17.6004H14.3241C14.364 15.8024 15.8024 14.364 17.5605 14.364V16.2818Z" fill="#F7F9FC"/>
<path d="M35.5805 16.8018C33.6226 14.3645 26.6304 6.41331 18 6.41331C9.36959 6.41331 2.37736 14.3645 0.419534 16.8018C-0.139845 17.481 -0.139845 18.4799 0.419534 19.1991C2.37736 21.6364 9.36959 29.5876 18 29.5876C26.6304 29.5876 33.6226 21.6364 35.5805 19.1991C36.1398 18.5199 36.1398 17.521 35.5805 16.8018ZM18 26.3911C13.3652 26.3911 9.60932 22.6353 9.60932 18.0004C9.60932 13.3656 13.3652 9.60976 18 9.60976C22.6349 9.60976 26.3907 13.3656 26.3907 18.0004C26.3907 22.6353 22.6349 26.3911 18 26.3911Z" fill="#F7F9FC"/>
</g>
<defs>
<clipPath id="clip0_1801_23173">
<rect width="36" height="36" fill="white"/>
</clipPath>
</defs>
</svg>
