<svg width="36" height="36" viewBox="0 0 36 36" fill="none" xmlns="http://www.w3.org/2000/svg">
<path d="M33.056 4.41866C31.1939 2.4172 28.5847 1.2784 25.851 1.27418C23.1151 1.27735 20.5032 2.41554 18.6382 4.41738L18.0026 5.089L17.3671 4.41738C13.6665 0.434592 7.43786 0.205867 3.45515 3.9064C3.27867 4.07045 3.10822 4.24082 2.94418 4.41738C-0.981392 8.65158 -0.981392 15.1954 2.94418 19.4296L17.0686 34.3247C17.5573 34.8405 18.3716 34.8626 18.8875 34.374C18.9043 34.358 18.9208 34.3415 18.9368 34.3247L33.0561 19.4296C36.9813 15.1958 36.9813 8.65241 33.056 4.41866ZM31.1943 17.6579H31.193L18.0026 31.57L4.81107 17.6579C1.81216 14.4226 1.81216 9.4231 4.81107 6.18778C7.53443 3.23606 12.1351 3.05098 15.0868 5.77435C15.2301 5.90658 15.368 6.04446 15.5002 6.18778L17.0686 7.84238C17.5854 8.35591 18.4199 8.35591 18.9368 7.84238L20.5051 6.18906C23.2285 3.23734 27.8291 3.05227 30.7809 5.77563C30.9242 5.90786 31.0621 6.04575 31.1943 6.18906C34.2193 9.42951 34.2414 14.4381 31.1943 17.6579Z" fill="#F7F9FC"/>
</svg>
