<svg width="25" height="24" viewBox="0 0 25 24" fill="none" xmlns="http://www.w3.org/2000/svg">
<path fill-rule="evenodd" clip-rule="evenodd" d="M19.7813 20H16.6667V13C16.6667 12.447 16.2 12 15.625 12H9.375C8.79896 12 8.33333 12.447 8.33333 13V20H5.20833L5.21458 11.583L12.4979 4.43196L19.7917 11.624L19.7813 20ZM10.4167 20H14.5833V14H10.4167V20ZM21.275 10.185L13.2448 2.30096C12.8521 1.91596 12.1479 1.91596 11.7552 2.30096L3.72396 10.186C3.34375 10.561 3.125 11.085 3.125 11.624V20C3.125 21.103 4.00729 22 5.09167 22H9.375H15.625H19.9073C20.9917 22 21.875 21.103 21.875 20V11.624C21.875 11.085 21.6562 10.561 21.275 10.185V10.185Z" fill="#222B45"/>
</svg>
