<svg width="19" height="20" viewBox="0 0 19 20" fill="none" xmlns="http://www.w3.org/2000/svg">
<path fill-rule="evenodd" clip-rule="evenodd" d="M16.7813 18H13.6667V11C13.6667 10.447 13.2 9.99996 12.625 9.99996H6.375C5.79896 9.99996 5.33333 10.447 5.33333 11V18H2.20833L2.21458 9.58296L9.49792 2.43196L16.7917 9.62396L16.7813 18ZM7.41667 18H11.5833V12H7.41667V18ZM18.275 8.18496L10.2448 0.300957C9.85208 -0.084043 9.14792 -0.084043 8.75521 0.300957L0.723958 8.18596C0.34375 8.56096 0.125 9.08496 0.125 9.62396V18C0.125 19.103 1.00729 20 2.09167 20H6.375H12.625H16.9073C17.9917 20 18.875 19.103 18.875 18V9.62396C18.875 9.08496 18.6562 8.56096 18.275 8.18496V8.18496Z" fill="#222B45"/>
</svg>
