<svg width="19" height="20" viewBox="0 0 19 20" fill="none" xmlns="http://www.w3.org/2000/svg">
<path d="M9.25488 0.9C4.22494 0.9 0.154883 4.97041 0.154883 10C0.154883 15.0299 4.22529 19.1 9.25488 19.1C14.2848 19.1 18.3549 15.0296 18.3549 10C18.3549 4.97005 14.2844 0.9 9.25488 0.9ZM9.25488 17.4937C5.1127 17.4937 1.76113 14.1419 1.76113 10C1.76113 5.85782 5.11298 2.50625 9.25488 2.50625C13.3971 2.50625 16.7486 5.8581 16.7486 10C16.7486 14.1422 13.3968 17.4937 9.25488 17.4937Z" fill="#222B45" stroke="#00608E" stroke-width="0.2"/>
<path d="M9.25488 8.43467C8.81132 8.43467 8.45176 8.79423 8.45176 9.23779V13.7657C8.45176 14.2092 8.81132 14.5688 9.25488 14.5688C9.69845 14.5688 10.058 14.2092 10.058 13.7656V9.23779C10.058 8.79423 9.69845 8.43467 9.25488 8.43467Z" fill="#222B45" stroke="#00608E" stroke-width="0.2"/>
<path d="M9.25488 7.77407C9.83435 7.77407 10.3041 7.30432 10.3041 6.72485C10.3041 6.14539 9.83435 5.67563 9.25488 5.67563C8.67542 5.67563 8.20566 6.14539 8.20566 6.72485C8.20566 7.30432 8.67542 7.77407 9.25488 7.77407Z" fill="#222B45" stroke="#00608E" stroke-width="0.2"/>
</svg>
