<svg width="28" height="29" viewBox="0 0 28 29" fill="none" xmlns="http://www.w3.org/2000/svg">
<path fill-rule="evenodd" clip-rule="evenodd" d="M14 9.91357C13.0351 9.91357 12.25 10.6987 12.25 11.6636C12.25 12.6284 13.0351 13.4136 14 13.4136C14.9648 13.4136 15.75 12.6284 15.75 11.6636C15.75 10.6987 14.9648 9.91357 14 9.91357M14 15.7469C11.7483 15.7469 9.91663 13.9152 9.91663 11.6636C9.91663 9.41191 11.7483 7.58024 14 7.58024C16.2516 7.58024 18.0833 9.41191 18.0833 11.6636C18.0833 13.9152 16.2516 15.7469 14 15.7469M14 2.91357C8.85379 2.91357 4.66663 7.05991 4.66663 12.1571C4.66663 18.5434 12.8905 25.6659 13.2405 25.9657C13.4598 26.1536 13.7293 26.2469 14 26.2469C14.2706 26.2469 14.5401 26.1536 14.7595 25.9657C15.1095 25.6659 23.3333 18.5434 23.3333 12.1571C23.3333 7.05991 19.1461 2.91357 14 2.91357" fill="#222B45"/>
</svg>
