<svg width="35" height="36" viewBox="0 0 35 36" fill="none" xmlns="http://www.w3.org/2000/svg">
<path fill-rule="evenodd" clip-rule="evenodd" d="M23.5117 17.6508C22.7215 17.6508 22.0801 17.001 22.0801 16.2004C22.0801 15.3997 22.7215 14.7499 23.5117 14.7499C24.302 14.7499 24.9434 15.3997 24.9434 16.2004C24.9434 17.001 24.302 17.6508 23.5117 17.6508M17.7852 17.6508C16.995 17.6508 16.3536 17.001 16.3536 16.2004C16.3536 15.3997 16.995 14.7499 17.7852 14.7499C18.5755 14.7499 19.2169 15.3997 19.2169 16.2004C19.2169 17.001 18.5755 17.6508 17.7852 17.6508M12.0587 17.6508C11.2685 17.6508 10.6271 17.001 10.6271 16.2004C10.6271 15.3997 11.2685 14.7499 12.0587 14.7499C12.849 14.7499 13.4904 15.3997 13.4904 16.2004C13.4904 17.001 12.849 17.6508 12.0587 17.6508M27.8066 4.59668H7.76387C5.39596 4.59668 3.46899 6.549 3.46899 8.94806V30.705C3.46899 31.2271 3.74673 31.7102 4.19483 31.9669C4.41387 32.0931 4.65724 32.1554 4.90062 32.1554C5.15545 32.1554 5.41028 32.0873 5.6379 31.948L12.1146 28.0115C12.3379 27.8751 12.5927 27.8041 12.8519 27.8041H27.8066C30.1745 27.8041 32.1015 25.8517 32.1015 23.4527V8.94806C32.1015 6.549 30.1745 4.59668 27.8066 4.59668" fill="#DB3731"/>
</svg>
