<svg width="36" height="36" viewBox="0 0 36 36" fill="none" xmlns="http://www.w3.org/2000/svg">
<path d="M30.8642 1.36943H5.13584C2.30386 1.36943 0 3.67336 0 6.50527V23.8697C0 26.7016 2.30386 29.0055 5.13584 29.0055H7.1512L7.19065 33.5395C7.19416 33.9574 7.43414 34.3371 7.81003 34.5198C7.96282 34.5941 8.12728 34.6305 8.29097 34.6305C8.52996 34.6305 8.7672 34.5528 8.96351 34.4012L15.9543 29.0055H30.8642C33.6961 29.0055 36 26.7016 36 23.8697V6.50527C36 3.67336 33.6961 1.36943 30.8642 1.36943ZM33.7989 23.8698C33.7989 25.488 32.4824 26.8046 30.8642 26.8046H15.5791C15.3358 26.8046 15.0993 26.8852 14.9067 27.0338L9.3723 31.3053L9.34263 27.8955C9.33743 27.2915 8.84623 26.8046 8.24217 26.8046H5.13584C3.51759 26.8046 2.20106 25.488 2.20106 23.8698V6.50527C2.20106 4.88702 3.51759 3.57049 5.13584 3.57049H30.8642C32.4825 3.57049 33.799 4.88702 33.799 6.50527V23.8698H33.7989Z" fill="#F7F9FC"/>
</svg>
