<svg width="28" height="28" viewBox="0 0 28 28" fill="none" xmlns="http://www.w3.org/2000/svg">
<path d="M24.2782 17.3277L19.1553 15.1322C18.8878 15.017 18.5958 14.9707 18.3058 14.9973C18.0158 15.0239 17.7371 15.1227 17.4951 15.2847L14.756 17.1105C13.082 16.2963 11.7271 14.9474 10.9055 13.277L10.9057 13.2767L12.7251 10.4967C12.8835 10.2553 12.9796 9.97846 13.0048 9.69089C13.03 9.40332 12.9835 9.11399 12.8695 8.84877L10.672 3.7215C10.5224 3.37346 10.2641 3.08324 9.93574 2.89429C9.6074 2.70534 9.22669 2.62782 8.85062 2.67336C7.37281 2.86336 6.01473 3.58487 5.03006 4.7031C4.0454 5.82133 3.50151 7.25979 3.5 8.74976C3.5 17.4344 10.5654 24.4998 19.25 24.4998C20.74 24.4982 22.1785 23.9543 23.2967 22.9697C24.4149 21.985 25.1364 20.6269 25.3264 19.149C25.3718 18.773 25.2942 18.3923 25.1053 18.064C24.9163 17.7357 24.6261 17.4773 24.2782 17.3277V17.3277Z" fill="#222B45"/>
<path d="M17.2103 5.22029C18.5452 5.57923 19.7623 6.28267 20.7398 7.26013C21.7173 8.23758 22.4207 9.45474 22.7796 10.7897C22.8399 11.0134 22.9865 11.2041 23.1873 11.3199C23.388 11.4357 23.6265 11.4671 23.8504 11.4073C24.0743 11.3474 24.2653 11.2012 24.3815 11.0007C24.4977 10.8003 24.5296 10.5619 24.4702 10.3378C24.0315 8.70601 23.1716 7.21812 21.9767 6.02325C20.7818 4.82838 19.2939 3.96847 17.6621 3.52968C17.4381 3.47032 17.1997 3.50225 16.9992 3.61846C16.7987 3.73468 16.6525 3.92568 16.5927 4.14956C16.5328 4.37344 16.5643 4.61191 16.68 4.81264C16.7958 5.01338 16.9865 5.15998 17.2103 5.22029L17.2103 5.22029Z" fill="#222B45"/>
<path d="M16.3043 8.60164C17.0458 8.80106 17.722 9.19183 18.265 9.73483C18.808 10.2778 19.1988 10.954 19.3982 11.6955C19.4585 11.9193 19.6051 12.11 19.8058 12.2258C20.0066 12.3416 20.245 12.373 20.4689 12.3132C20.6928 12.2533 20.8838 12.1071 21 11.9066C21.1162 11.7061 21.1481 11.4677 21.0888 11.2437C20.8095 10.2052 20.2623 9.25833 19.5019 8.49791C18.7415 7.7375 17.7946 7.19026 16.7561 6.91103C16.5321 6.85167 16.2937 6.8836 16.0932 6.99981C15.8927 7.11602 15.7465 7.30702 15.6867 7.5309C15.6268 7.75478 15.6582 7.99325 15.774 8.19399C15.8898 8.39473 16.0805 8.54133 16.3043 8.60164L16.3043 8.60164Z" fill="#222B45"/>
</svg>
