<svg width="35" height="36" viewBox="0 0 35 36" fill="none" xmlns="http://www.w3.org/2000/svg">
<path fill-rule="evenodd" clip-rule="evenodd" d="M16.3542 6.04692C10.8295 6.04692 6.33282 10.6028 6.33282 16.2001C6.33282 17.0023 5.69288 17.6506 4.9012 17.6506C4.10951 17.6506 3.46957 17.0023 3.46957 16.2001C3.46957 9.00151 9.24904 3.146 16.3542 3.146C17.1444 3.146 17.7858 3.79435 17.7858 4.59646C17.7858 5.39856 17.1444 6.04692 16.3542 6.04692ZM16.3542 11.8488C13.9863 11.8488 12.0593 13.8011 12.0593 16.2001C12.0593 17.0023 11.4194 17.6506 10.6277 17.6506C9.836 17.6506 9.19607 17.0023 9.19607 16.2001C9.19607 12.2012 12.4072 8.94784 16.3542 8.94784C17.1444 8.94784 17.7858 9.5962 17.7858 10.3983C17.7858 11.2004 17.1444 11.8488 16.3542 11.8488ZM4.85824 22.3822C4.37722 22.4939 3.98639 22.8478 3.82604 23.3192C3.70865 23.6601 3.61846 24.0154 3.56119 24.378C3.50106 24.7392 3.46957 25.1076 3.46957 25.4833C3.46957 29.1617 6.42301 32.1554 10.055 32.1554C22.211 32.1554 32.1021 22.1356 32.1021 9.81687C32.1021 6.1385 29.1472 3.1462 25.5166 3.1462C25.1444 3.1462 24.7764 3.17811 24.42 3.24048C24.0721 3.29704 23.7213 3.38697 23.382 3.50591C22.9153 3.66981 22.566 4.06579 22.4558 4.55314L20.4959 13.2022C20.3871 13.6794 20.5231 14.1784 20.8566 14.5309C21.0528 14.7383 21.0571 14.7426 22.8323 15.6825C21.3949 18.8373 18.8968 21.3582 15.846 22.7666C14.9154 20.9666 14.9111 20.9608 14.7078 20.762C14.3585 20.4241 13.8675 20.2892 13.3965 20.3951L4.85824 22.3822Z" fill="#DB3731"/>
</svg>
