<svg width="36" height="36" viewBox="0 0 36 36" fill="none" xmlns="http://www.w3.org/2000/svg">
<path fill-rule="evenodd" clip-rule="evenodd" d="M7.5 16.5C7.5 11.5365 11.5365 7.5 16.5 7.5C21.4635 7.5 25.5 11.5365 25.5 16.5C25.5 21.4635 21.4635 25.5 16.5 25.5C11.5365 25.5 7.5 21.4635 7.5 16.5ZM31.0605 28.9395L25.968 23.8455C27.5475 21.8145 28.5 19.269 28.5 16.5C28.5 9.8835 23.1165 4.5 16.5 4.5C9.8835 4.5 4.5 9.8835 4.5 16.5C4.5 23.1165 9.8835 28.5 16.5 28.5C19.269 28.5 21.8145 27.5475 23.8455 25.968L28.9395 31.0605C29.232 31.353 29.616 31.5 30 31.5C30.384 31.5 30.768 31.353 31.0605 31.0605C31.647 30.474 31.647 29.526 31.0605 28.9395Z" fill="#74798A"/>
</svg>
