<svg width="16" height="17" viewBox="0 0 16 17" fill="none" xmlns="http://www.w3.org/2000/svg">
<path fill-rule="evenodd" clip-rule="evenodd" d="M9.33398 3.16732C8.96598 3.16732 8.66732 3.46665 8.66732 3.83398V9.52732C8.66732 9.76598 8.53998 9.98665 8.33265 10.1053C7.71665 10.4593 7.33398 11.122 7.33398 11.834C7.33398 12.9367 8.23132 13.834 9.33398 13.834C10.4367 13.834 11.334 12.9367 11.334 11.834C11.334 11.122 10.9513 10.4593 10.3353 10.1053C10.128 9.98665 10.0007 9.76598 10.0007 9.52732V3.83398C10.0007 3.65598 9.93198 3.49198 9.80932 3.37132C9.67665 3.23532 9.51198 3.16732 9.33398 3.16732ZM9.33398 15.1673C7.49598 15.1673 6.00065 13.672 6.00065 11.834C6.00065 10.7807 6.50332 9.79265 7.33398 9.16932V3.83398C7.33398 2.73132 8.23132 1.83398 9.33398 1.83398C9.87532 1.83398 10.378 2.04532 10.752 2.42865C11.1233 2.78998 11.334 3.29332 11.334 3.83398V9.16932C12.1647 9.79265 12.6673 10.7807 12.6673 11.834C12.6673 13.672 11.172 15.1673 9.33398 15.1673ZM2.66732 5.16732H2.00065C1.63398 5.16732 1.33398 4.86732 1.33398 4.50065C1.33398 4.13398 1.63398 3.83398 2.00065 3.83398H2.66732V3.16732C2.66732 2.80065 2.96732 2.50065 3.33398 2.50065C3.70065 2.50065 4.00065 2.80065 4.00065 3.16732V3.83398H4.66732C5.03398 3.83398 5.33398 4.13398 5.33398 4.50065C5.33398 4.86732 5.03398 5.16732 4.66732 5.16732H4.00065V5.83398C4.00065 6.20065 3.70065 6.50065 3.33398 6.50065C2.96732 6.50065 2.66732 6.20065 2.66732 5.83398V5.16732Z" fill="#74798A"/>
</svg>
