<svg width="16" height="17" viewBox="0 0 16 17" fill="none" xmlns="http://www.w3.org/2000/svg">
<path fill-rule="evenodd" clip-rule="evenodd" d="M8.66732 3.83398C8.66732 3.46665 8.96598 3.16732 9.33398 3.16732C9.51198 3.16732 9.67665 3.23532 9.80932 3.37132C9.93198 3.49198 10.0007 3.65598 10.0007 3.83398V9.52732C10.0007 9.76598 10.128 9.98665 10.3353 10.1053C10.9513 10.4593 11.334 11.122 11.334 11.834C11.334 12.9367 10.4367 13.834 9.33398 13.834C8.23132 13.834 7.33398 12.9367 7.33398 11.834C7.33398 11.122 7.71665 10.4593 8.33265 10.1053C8.53998 9.98665 8.66732 9.76598 8.66732 9.52732V3.83398ZM6.00065 11.834C6.00065 13.672 7.49598 15.1673 9.33398 15.1673C11.172 15.1673 12.6673 13.672 12.6673 11.834C12.6673 10.7807 12.1647 9.79265 11.334 9.16932V3.83398C11.334 3.29332 11.1233 2.78998 10.752 2.42865C10.378 2.04532 9.87532 1.83398 9.33398 1.83398C8.23132 1.83398 7.33398 2.73132 7.33398 3.83398V9.16932C6.50332 9.79265 6.00065 10.7807 6.00065 11.834ZM2.00065 5.16732H4.66732C5.03398 5.16732 5.33398 4.86732 5.33398 4.50065C5.33398 4.13398 5.03398 3.83398 4.66732 3.83398H2.00065C1.63398 3.83398 1.33398 4.13398 1.33398 4.50065C1.33398 4.86732 1.63398 5.16732 2.00065 5.16732Z" fill="#74798A"/>
</svg>
