<svg width="15" height="14" viewBox="0 0 15 14" fill="none" xmlns="http://www.w3.org/2000/svg">
<path fill-rule="evenodd" clip-rule="evenodd" d="M9.49749 7.00006H8.33082V5.8334C8.33082 5.51081 8.06949 5.25006 7.74749 5.25006C7.42549 5.25006 7.16416 5.51081 7.16416 5.8334V7.5834C7.16416 7.90598 7.42549 8.16673 7.74749 8.16673H9.49749C9.81949 8.16673 10.0808 7.90598 10.0808 7.5834C10.0808 7.26081 9.81949 7.00006 9.49749 7.00006ZM7.7477 11.5208C5.57654 11.5208 3.8102 9.75442 3.8102 7.58325C3.8102 5.41208 5.57654 3.64575 7.7477 3.64575C9.91887 3.64575 11.6852 5.41208 11.6852 7.58325C11.6852 9.75442 9.91887 11.5208 7.7477 11.5208M8.32438 2.36782C8.32555 2.35557 8.33138 2.34623 8.33138 2.33398V1.75065H8.91471C9.23671 1.75065 9.49805 1.4899 9.49805 1.16732C9.49805 0.844734 9.23671 0.583984 8.91471 0.583984H6.58138C6.25938 0.583984 5.99805 0.844734 5.99805 1.16732C5.99805 1.4899 6.25938 1.75065 6.58138 1.75065H7.16471V2.33398C7.16471 2.34623 7.17055 2.35557 7.17171 2.36782C4.5473 2.65598 2.49805 4.88432 2.49805 7.58398C2.49805 10.4791 4.85355 12.834 7.74805 12.834C10.6425 12.834 12.998 10.4791 12.998 7.58398C12.998 4.88432 10.9488 2.65598 8.32438 2.36782" fill="#222B45"/>
</svg>
