<svg width="19" height="18" viewBox="0 0 19 18" fill="none" xmlns="http://www.w3.org/2000/svg">
<path fill-rule="evenodd" clip-rule="evenodd" d="M8.30103 12C8.30103 12.4125 7.96353 12.75 7.55103 12.75C7.13853 12.75 6.80103 12.4125 6.80103 12V9C6.80103 8.5875 7.13853 8.25 7.55103 8.25C7.96353 8.25 8.30103 8.5875 8.30103 9V12ZM12.801 12C12.801 12.4125 12.4635 12.75 12.051 12.75C11.6385 12.75 11.301 12.4125 11.301 12V9C11.301 8.5875 11.6385 8.25 12.051 8.25C12.4635 8.25 12.801 8.5875 12.801 9V12ZM14.301 14.25C14.301 14.6632 13.965 15 13.551 15H6.05103C5.63703 15 5.30103 14.6632 5.30103 14.25V6H14.301V14.25ZM8.30103 3.246C8.30103 3.12975 8.46153 3 8.67603 3H10.926C11.1405 3 11.301 3.12975 11.301 3.246V4.5H8.30103V3.246ZM16.551 4.5H15.801H12.801V3.246C12.801 2.283 11.9603 1.5 10.926 1.5H8.67603C7.64178 1.5 6.80103 2.283 6.80103 3.246V4.5H3.80103H3.05103C2.63853 4.5 2.30103 4.8375 2.30103 5.25C2.30103 5.6625 2.63853 6 3.05103 6H3.80103V14.25C3.80103 15.4905 4.81053 16.5 6.05103 16.5H13.551C14.7915 16.5 15.801 15.4905 15.801 14.25V6H16.551C16.9635 6 17.301 5.6625 17.301 5.25C17.301 4.8375 16.9635 4.5 16.551 4.5Z" fill="#788392"/>
</svg>
