<svg width="70" height="30" fill="none" xmlns="http://www.w3.org/2000/svg"><path d="M57.46 29.19c3.169 0 4.66-1.209 5.963-4.874L69.13 8.31h-3.304l-3.827 12.383h-.067L58.105 8.326h-3.398l5.505 15.236-.295.926a2.583 2.583 0 01-2.739 2.175c-.256 0-.752-.026-.953-.053v2.516c.41.056.823.082 1.235.081v-.017zm-11.01-8.016c-1.733 0-2.833-.838-2.833-2.107 0-1.316 1.06-2.082 3.089-2.203l3.611-.228v1.182a3.533 3.533 0 01-3.673 3.386c-.065-.003-.13-.009-.194-.014v-.016zm-.872 2.484a5.376 5.376 0 004.794-2.672h.067v2.516h3.008v-10.42c0-3.022-2.417-4.97-6.137-4.97-3.451 0-6.004 1.974-6.097 4.687h2.928a2.853 2.853 0 013.075-2.135c1.987 0 3.101.926 3.101 2.631v1.155l-4.053.242c-3.774.227-5.814 1.772-5.814 4.458-.003 2.725 2.105 4.524 5.127 4.524v-.016zM28.146 5.302h3.746c2.82 0 4.432 1.504 4.432 4.15 0 2.646-1.612 4.162-4.445 4.162h-3.733V5.302zm-3.25-2.74v20.935h3.25v-7.136h4.5a6.644 6.644 0 006.995-6.902 6.57 6.57 0 00-6.888-6.876l-7.857-.02zM14.11 6.47c-1.867-.108-3.465 1.06-4.351 1.06-.886 0-2.256-1.006-3.734-.978A5.515 5.515 0 001.34 9.4c-2.014 3.465-.524 8.594 1.423 11.413.953 1.398 2.096 2.929 3.599 2.874 1.423-.053 1.987-.927 3.707-.927 1.719 0 2.23.927 3.733.9 1.557-.027 2.538-1.399 3.494-2.796a12.237 12.237 0 001.557-3.215 5.06 5.06 0 01-3.034-4.613 5.172 5.172 0 012.457-4.323 5.32 5.32 0 00-4.162-2.256l-.003.013zm-1.166-1.85A4.224 4.224 0 019.56 6.218a4.79 4.79 0 011.21-3.504A5.049 5.049 0 0114.123.981a5.092 5.092 0 01-1.183 3.635" fill="#222B45"/></svg>