<svg width="64" height="64" fill="none" xmlns="http://www.w3.org/2000/svg"><path d="M61.669 31.454a2.869 2.869 0 00-2.166.437c-.53.356-.92.866-1.121 1.46l-3.29-1.436a22.968 22.968 0 00-.71-6.377l1.476-1a3.305 3.305 0 003.484.546c1.601-.695 2.368-2.548 1.746-4.218l-.694-1.864c-.63-1.69-2.441-2.58-4.124-2.028a3.262 3.262 0 00-1.929 1.68 3.276 3.276 0 00-.336 1.439l-1.674.233c-.229-.42-.48-.846-.747-1.27a.94.94 0 00-1.59 1.002c.316.5.606 1.002.86 1.492.257.49.796.768 1.342.692l3.019-.421a.94.94 0 00.754-1.248 1.4 1.4 0 01.06-1.095 1.4 1.4 0 01.827-.72c.71-.232 1.506.172 1.777.9l.694 1.864c.27.722-.06 1.547-.734 1.84-.644.28-1.404.04-1.767-.559a.94.94 0 00-1.33-.29l-2.503 1.698c-.465.315-.676.89-.526 1.433a21.07 21.07 0 01.734 6.576c-.025.539.29 1.046.783 1.261l4.693 2.05a.94.94 0 001.298-.68l.149-.758c.052-.264.203-.492.427-.643a1.01 1.01 0 011.551 1.03l-.77 3.924a1 1 0 01-.447.655c-.234.15-.513.195-.785.129-.513-.126-.843-.676-.735-1.226l.02-.105a.94.94 0 00-.964-1.12l-5.077.232a1.317 1.317 0 00-1.183.898 20.95 20.95 0 01-1.856 4.078 1.31 1.31 0 00.124 1.51l2.246 2.668a.94.94 0 001.366.076 1.397 1.397 0 011.82-.098 1.4 1.4 0 01.262 1.971l-.65.85c-.468.611-1.341.768-1.947.35a1.413 1.413 0 01-.536-1.607.939.939 0 00-.512-1.16l-3.235-1.422a1.308 1.308 0 00-1.495.319 21.095 21.095 0 01-4.952 4.011c-.466.272-.72.811-.633 1.342l.829 5.05a.94.94 0 001.276.72l.716-.286a1 1 0 01.794.02.997.997 0 01.534.588c.173.5-.11 1.076-.63 1.284l-3.66 1.465a1 1 0 01-.794-.02 1.002 1.002 0 01-.534-.589c-.173-.5.11-1.075.63-1.284l.099-.04a.94.94 0 00.416-1.417l-2.953-4.137a1.317 1.317 0 00-1.395-.506 21.092 21.092 0 01-9.51.247 1.318 1.318 0 00-1.366.578l-2.956 4.636a.939.939 0 00.47 1.387l.105.038a1.431 1.431 0 01.854 1.834.937.937 0 00-.057.322c0 .355-.105.624-.295.757s-.48.14-.813.018l-3.631-1.324a1.437 1.437 0 01-.863-1.807c.12-.349.378-.632.727-.799a1.53 1.53 0 011.174-.06l.083.03a.939.939 0 001.256-.778l.601-5.433a1.317 1.317 0 00-.701-1.307 21.03 21.03 0 01-5.84-4.458 1.314 1.314 0 00-1.46-.326l-4.431 1.817a.94.94 0 00-.472 1.311c.28.526.116 1.17-.383 1.5-.515.338-1.236.18-1.607-.354l-1.135-1.634c-.364-.524-.277-1.227.197-1.6a1.14 1.14 0 01.857-.24c.31.04.583.199.77.447a.94.94 0 001.454.056l3.12-3.527a1.312 1.312 0 00.163-1.503 21.04 21.04 0 01-.927-1.894.94.94 0 00-1.726.741c.25.584.525 1.158.818 1.71l-2.235 2.527a3.021 3.021 0 00-1.197-.42 3.005 3.005 0 00-2.26.626c-1.253.988-1.507 2.81-.577 4.15l1.135 1.633c.947 1.363 2.823 1.745 4.182.85a3.012 3.012 0 001.335-2.97l3.267-1.34a22.898 22.898 0 005.743 4.385l-.447 4.035a3.419 3.419 0 00-1.566.33 3.25 3.25 0 00-1.695 1.884 3.325 3.325 0 001.996 4.183l3.631 1.324c.365.133.73.198 1.083.198a2.51 2.51 0 001.451-.442c.657-.46 1.05-1.23 1.093-2.132a3.285 3.285 0 00-.162-2.373 3.294 3.294 0 00-.96-1.21l2.206-3.46c3.168.589 6.47.502 9.592-.25l2.144 3.003a2.884 2.884 0 00-.807 3.083 2.865 2.865 0 001.53 1.683 2.9 2.9 0 002.27.055l3.66-1.464c1.463-.585 2.214-2.186 1.709-3.644a2.865 2.865 0 00-1.53-1.683 2.902 2.902 0 00-1.897-.175l-.58-3.54a22.961 22.961 0 004.778-3.867l2.185.96a3.304 3.304 0 001.416 2.893c1.441.993 3.42.661 4.505-.756l.65-.85a3.26 3.26 0 00.648-2.43 3.264 3.264 0 00-1.26-2.175 3.265 3.265 0 00-3.437-.345l-1.441-1.712a22.848 22.848 0 001.693-3.724l3.685-.168a2.884 2.884 0 002.15 2.352c.775.19 1.572.06 2.243-.37a2.9 2.9 0 001.28-1.877l.77-3.922a2.89 2.89 0 00-2.277-3.389zM6.052 33.991l3.521.813c.077.49.172.987.283 1.483a.94.94 0 101.833-.412 21.012 21.012 0 01-.312-1.716 1.317 1.317 0 00-1.001-1.098L5.389 31.91a.94.94 0 00-1.15.906l-.006.584a1.2 1.2 0 01-1.196 1.186 1.15 1.15 0 01-.822-.343 1.15 1.15 0 01-.336-.826l.033-3.622c.002-.333.144-.658.387-.892a1.13 1.13 0 01.822-.33 1.183 1.183 0 011.144 1.183.939.939 0 001.154.92l4.952-1.161c.525-.123.925-.566.998-1.1a20.801 20.801 0 012.613-7.657 1.312 1.312 0 00-.136-1.503l-2.362-2.773a.937.937 0 00-1.464.042l-.205.27a.91.91 0 01-.628.359.913.913 0 01-.694-.208c-.37-.309-.42-.892-.11-1.3l1.572-2.08a.919.919 0 011.286-.178.92.92 0 01.22 1.223.94.94 0 00.42 1.366l3.302 1.428a1.31 1.31 0 001.487-.32 21.079 21.079 0 015.18-4.134c.468-.266.73-.801.65-1.333l-.76-5.061a.94.94 0 00-1.267-.738l-.72.278a1 1 0 01-.794-.03 1.001 1.001 0 01-.526-.596c-.166-.502.124-1.074.647-1.276l3.68-1.415a1 1 0 01.793.03 1 1 0 01.526.596c.166.502-.124 1.074-.647 1.276l-.1.038a.94.94 0 00-.434 1.412l2.897 4.175c.306.442.863.653 1.387.525a21.11 21.11 0 015.02-.603h.001c.555 0 1.051-.35 1.237-.868l.959-2.684a.939.939 0 00-.604-1.213 1.522 1.522 0 01-1.057-1.63 1.48 1.48 0 01.572-.991 1.618 1.618 0 011.19-.334l1.317.165c.854.108 1.475.863 1.386 1.684a1.513 1.513 0 01-1.13 1.308.94.94 0 00-.695 1.016l.333 2.908a1.31 1.31 0 001.021 1.13 20.871 20.871 0 015.976 2.32 1.313 1.313 0 001.48-.115l3.974-3.226a.94.94 0 00-.008-1.465l-.604-.48a1 1 0 01-.377-.698 1.002 1.002 0 01.246-.756c.348-.399.988-.44 1.427-.09l3.088 2.45a1 1 0 01.377.699c.025.277-.062.545-.246.756-.348.399-.989.439-1.427.09l-.084-.065a.94.94 0 00-1.437.342l-2.129 4.62a1.317 1.317 0 00.254 1.463c.133.137.265.279.422.449a.94.94 0 101.382-1.273 30.8 30.8 0 00-.19-.204l1.547-3.356a2.883 2.883 0 003.077-.83c.525-.6.774-1.369.702-2.162a2.9 2.9 0 00-1.08-2l-3.087-2.45c-1.234-.98-2.996-.837-4.01.325a2.864 2.864 0 00-.703 2.163c.059.65.342 1.265.79 1.734l-2.785 2.26a22.741 22.741 0 00-5.775-2.246l-.206-1.802a3.425 3.425 0 001.746-2.612c.2-1.833-1.155-3.516-3.02-3.75L34.735.643a3.511 3.511 0 00-2.582.718 3.344 3.344 0 00-1.28 2.249 3.402 3.402 0 001.476 3.22l-.544 1.522a23.007 23.007 0 00-4.688.563l-2.102-3.03a2.884 2.884 0 00.848-3.072 2.865 2.865 0 00-1.507-1.704 2.9 2.9 0 00-2.27-.084l-3.68 1.415c-1.47.565-2.241 2.155-1.756 3.62a2.864 2.864 0 001.507 1.703c.59.28 1.262.348 1.895.2l.533 3.547a22.94 22.94 0 00-5.025 4.008l-2.121-.917a2.812 2.812 0 00-1.064-2.713 2.776 2.776 0 00-2.072-.54 2.777 2.777 0 00-1.846 1.083l-1.573 2.08c-.92 1.216-.742 2.92.407 3.876a2.77 2.77 0 002.11.631 2.808 2.808 0 001.332-.521l1.423 1.67a22.653 22.653 0 00-2.594 7.607l-3.634.852a3.074 3.074 0 00-2.757-1.932 3.002 3.002 0 00-2.177.856 3.155 3.155 0 00-.961 2.227L0 33.4a3.016 3.016 0 00.88 2.164c.574.58 1.34.9 2.157.9a3.087 3.087 0 003.015-2.474z" fill="#222B45"/><path d="M27.55 28.862a.94.94 0 10-.88-1.66c-2.245 1.19-4.804.876-6.084-.748-.718-.91-.965-2.118-.695-3.399.282-1.343 1.09-2.596 2.275-3.53 1.185-.934 2.593-1.426 3.964-1.388 1.309.037 2.425.559 3.143 1.47 1.078 1.368 1.064 3.41-.035 5.201a.94.94 0 101.601.983c1.516-2.47 1.48-5.355-.09-7.347-1.07-1.356-2.69-2.132-4.566-2.185-1.811-.053-3.65.584-5.18 1.79-1.53 1.206-2.578 2.847-2.95 4.62-.387 1.835-.011 3.592 1.058 4.948 1.125 1.428 2.887 2.179 4.783 2.178 1.208 0 2.47-.304 3.656-.933zm18.228-8.422c0-1.947-1.813-3.532-4.04-3.532-2.228 0-4.04 1.585-4.04 3.532 0 1.948 1.812 3.532 4.04 3.532 2.227 0 4.04-1.584 4.04-3.532zm-6.202 0c0-.911.97-1.653 2.162-1.653 1.191 0 2.16.742 2.16 1.653 0 .912-.969 1.653-2.16 1.653-1.192 0-2.162-.741-2.162-1.653zm-4.7 16.143a4.334 4.334 0 00-4.329-4.33 4.333 4.333 0 00-4.328 4.33 4.333 4.333 0 004.328 4.328 4.333 4.333 0 004.329-4.328zm-6.778 0a2.453 2.453 0 012.45-2.45c1.35 0 2.45 1.099 2.45 2.45 0 1.35-1.1 2.45-2.45 2.45a2.453 2.453 0 01-2.45-2.45zm19.025-1.766a3.37 3.37 0 00-3.366-3.366 3.37 3.37 0 00-3.366 3.366 3.37 3.37 0 003.366 3.366 3.37 3.37 0 003.366-3.366zm-4.854 0a1.489 1.489 0 012.975 0 1.49 1.49 0 01-1.487 1.488 1.49 1.49 0 01-1.488-1.488zm-7.474 15.142a3.302 3.302 0 003.298-3.3 3.302 3.302 0 00-3.298-3.298 3.302 3.302 0 00-3.299 3.299 3.302 3.302 0 003.299 3.299zm0-4.719c.783 0 1.42.637 1.42 1.42 0 .783-.637 1.42-1.42 1.42-.783 0-1.42-.637-1.42-1.42 0-.783.637-1.42 1.42-1.42zm-14.761-.827a3.4 3.4 0 003.397-3.397 3.4 3.4 0 00-3.397-3.397 3.401 3.401 0 00-3.397 3.397 3.401 3.401 0 003.397 3.397zm0-4.915a1.52 1.52 0 011.518 1.518 1.52 1.52 0 01-1.518 1.519 1.52 1.52 0 01-1.518-1.519 1.52 1.52 0 011.518-1.518zM39.162 29.26a.94.94 0 00-.94-.94h-.83a.94.94 0 100 1.88h.83a.94.94 0 00.94-.94zM26.307 46.621h.853a.94.94 0 100-1.879h-.853a.94.94 0 100 1.879zM18.398 32.94a.94.94 0 100-1.88h-.822a.94.94 0 100 1.88h.822zm16.683-16.434a.94.94 0 100-1.879h-1.144a.94.94 0 100 1.879h1.144zm6.249 25.178a.94.94 0 100 1.878h1.263a.94.94 0 100-1.878H41.33z" fill="#222B45"/></svg>