<svg width="64" height="64" fill="none" xmlns="http://www.w3.org/2000/svg"><g clip-path="url(#clip0_1259_60259)" fill="#222B45"><path d="M44.5 31A16.5 16.5 0 1061 47.5 16.52 16.52 0 0044.5 31zM56 50H44a1 1 0 01-1-1V39a1 1 0 012 0v9h11a1 1 0 010 2zm-45.588 1.17l-1.41 1.42-1.41-1.42-1.42 1.42L7.592 54l-1.42 1.41 1.42 1.42 1.41-1.42 1.41 1.42 1.42-1.42-1.42-1.41 1.42-1.41-1.42-1.42zM24 43h2v2h-2v-2zm-3 0h2v2h-2v-2zm3 5h2v2h-2v-2zm-3 0h2v2h-2v-2zm-3 0h2v2h-2v-2zm-3 0h2v2h-2v-2zm10 5h2v2h-2v-2zm-3 0h2v2h-2v-2zm-3 0h2v2h-2v-2zm-3 0h2v2h-2v-2zm-1-34a1 1 0 01-.71-.29L11 15.41V23h17.8l3.59-2.79 1.23 1.58L32.06 23H51.3l-4.67-4H15zm8 3h-7v-2h7v2zm3 0h-2v-2h2v2zm11 0h-2v-2h2v2zm3 0h-2v-2h2v2zm3 0h-2v-2h2v2zm3 0h-2v-2h2v2z"/><path d="M63.999 16.19a1 1 0 00-.31-.73l-3.24-3.07 3.24-3.07a1 1 0 000-1.45l-3.24-3.07 3.24-3.07a1 1 0 00-.69-1.73h-62a1 1 0 00-.69 1.72l3.24 3.09-3.24 3.08a1 1 0 000 1.45l3.24 3.07-3.24 3.08a1 1 0 000 1.45L3.549 20l-3.24 3.08a1 1 0 000 1.45l3.24 3.07-3.24 3.08a1 1 0 000 1.45l3.24 3.07-3.24 3.07A1 1 0 00.999 40h26.6a18.48 18.48 0 0133.8 0h1.6a1 1 0 00.69-1.72l-3.24-3.08 3.24-3.08a1 1 0 000-1.45l-3.24-3.07 3.24-3.07a1 1 0 000-1.45L60.449 20l3.24-3.07a1 1 0 00.31-.74zM42.999 6h9a1 1 0 010 2h-9a1 1 0 110-2zm0 3h9a1 1 0 010 2h-9a1 1 0 110-2zm-33-3h11a1 1 0 010 2h-11a1 1 0 010-2zm9 29h-9a1 1 0 110-2h9a1 1 0 010 2zm0-3h-9a1 1 0 110-2h9a1 1 0 010 2zm35.94-7.65a1 1 0 01-.94.65h-24.51l-4.87 3.79-1.23-1.58 2.84-2.21H9.999a1 1 0 01-1-1V13a1 1 0 011.71-.71l4.7 4.71h11.72l-2.52-1.08.79-1.84 6.8 2.92h14.8a1 1 0 01.65.24l7 6a1 1 0 01.29 1.11z"/></g><defs><clipPath id="clip0_1259_60259"><path fill="#fff" d="M0 0h64v64H0z"/></clipPath></defs></svg>