<svg width="65" height="64" fill="none" xmlns="http://www.w3.org/2000/svg"><g clip-path="url(#clip0_1259_60222)" fill="#222B45"><path d="M63.326 8.419a1.069 1.069 0 00-.607-.547L40.593.062a1.067 1.067 0 00-1.36.65l-5.026 14.222h-2.199v-3.627a3.2 3.2 0 00-4.017-3.093L2.36 14.969v.02A1.051 1.051 0 001.566 16v44.8a3.2 3.2 0 003.2 3.2h29.867a3.2 3.2 0 003.2-3.2v-9.678l8.555 3.02a1.067 1.067 0 001.36-.652L63.373 9.234c.094-.268.077-.56-.046-.815zm-34.79 1.852a1.068 1.068 0 011.339 1.032v3.63H10.858l17.677-4.662zm7.164 50.53c0 .588-.478 1.066-1.067 1.066H4.766A1.067 1.067 0 013.7 60.8V17.067h30.933c.59 0 1.067.478 1.067 1.067V60.8zm8.768-39.673l1.365-.648.65 1.361-5.182 14.668a1.07 1.07 0 00.043.815l1.11 2.323-.342.974-2.116-2.19a1.066 1.066 0 00-.899-.32l-1.264.16v-1.43l.91-.435a1.07 1.07 0 00.546-.607l2.134-6.033 3.045-8.638zm2.011 7.12l2.166 3.48-.37 1.048-2.591-2.269.795-2.26zm-8.646 5.266v-2.931l1.05-.044-1.05 2.975zm1.814-5.141l-1.814.074v-1.42l2.611-.91-.797 2.256zm6.444 23.401l-8.258-2.915v-8.438l1-.125 2.947 3.049a1.067 1.067 0 00.994.295c.361-.079.655-.339.778-.687l1.067-3.018a1.06 1.06 0 00-.044-.814L43.46 36.8l1.459-4.134 3.134 2.747a1.067 1.067 0 001.709-.447l1.066-3.018a1.065 1.065 0 00-.1-.918l-3.339-5.363 1.25-3.54a1.067 1.067 0 00-.043-.817l-1.301-2.72a1.067 1.067 0 00-1.423-.503l-2.723 1.301c-.255.122-.45.34-.545.607l-1.251 3.544-3.52 1.229v-6.635a3.19 3.19 0 00-1.53-2.717l1.744-4.943.39-1.11 2.454-6.932 20.117 7.1L46.09 51.774z"/><path d="M54.508 16.285l.71-2.012 1.829.646-.71 2.012-1.83-.646zm-14.629-5.166l.71-2.012 1.829.646-.71 2.012-1.83-.646zm10.969 3.875l.71-2.012 1.829.646-.71 2.012-1.83-.646zm-7.313-2.582l.71-2.012 1.829.646-.71 2.012-1.829-.646zm3.656 1.288l.71-2.01 1.83.645-.71 2.012-1.83-.646zM19.21 21.334c-5.892 0-10.667 4.776-10.667 10.667 0 5.89 4.776 10.666 10.667 10.666 5.89 0 10.666-4.775 10.666-10.666-.006-5.888-4.778-10.66-10.666-10.667zm7.702 7.02l-1.455-.32c-.64-.141-1.28-.253-1.927-.35a31.458 31.458 0 00-.35-1.927l-.32-1.454a8.568 8.568 0 014.052 4.05zM10.676 32a8.47 8.47 0 01.107-1.302l2.638-.587c.404-.09.812-.164 1.22-.235a29.202 29.202 0 000 4.248c-.408-.07-.816-.146-1.22-.235l-2.638-.587A8.456 8.456 0 0110.676 32zm6.13-2.403a27.033 27.033 0 014.806 0 26.94 26.94 0 010 4.806 26.939 26.939 0 01-4.806 0 26.921 26.921 0 010-4.807zm6.968.28c.409.07.816.144 1.22.234l2.638.587a7.7 7.7 0 010 2.604l-2.638.587c-.404.09-.811.164-1.22.236a29.076 29.076 0 000-4.249zm-3.263-6.304l.587 2.64c.09.403.165.81.236 1.22a29.055 29.055 0 00-4.25 0c.072-.41.146-.817.237-1.22l.586-2.64a7.776 7.776 0 012.604 0zm-4.95.72l-.32 1.456c-.14.64-.252 1.28-.35 1.927a31.45 31.45 0 00-1.926.35l-1.455.32a8.573 8.573 0 014.052-4.048v-.004zm-4.053 11.35l1.455.32c.64.141 1.28.253 1.927.35.097.647.213 1.29.35 1.927l.32 1.454a8.57 8.57 0 01-4.054-4.047l.002-.004zm6.4 4.777l-.586-2.64a25.29 25.29 0 01-.236-1.218 29.18 29.18 0 002.125.086c.71 0 1.416-.035 2.124-.086-.071.407-.147.816-.236 1.219l-.587 2.639a7.78 7.78 0 01-2.604 0zm4.95-.72l.32-1.456c.142-.64.252-1.28.35-1.927.646-.096 1.29-.213 1.927-.35l1.455-.32a8.566 8.566 0 01-4.053 4.055V39.7zM10.676 51.2h17.066v2.133H10.676v-2.134zm2.133 4.267h12.8V57.6h-12.8v-2.133zm5.331-8.533h2.134v2.133h-2.133v-2.133zm-4.265 0h2.133v2.133h-2.133v-2.133zm8.535 0h2.134v2.133H22.41v-2.133z"/></g><defs><clipPath id="clip0_1259_60222"><path fill="#fff" transform="translate(.5)" d="M0 0h64v64H0z"/></clipPath></defs></svg>