<svg width="56" height="64" fill="none" xmlns="http://www.w3.org/2000/svg"><path d="M9.007 33.497a4.06 4.06 0 002.06 3.188 13.34 13.34 0 003.115 1.264c-.6 2.022-1.7 4.948-3.66 8.082-1.86 2.979-1.883 6.573-.058 9.863C13.152 60.742 19.088 64 25.237 64c4.223 0 7.977-1.945 10.57-5.477 3.707-5.049 4.529-12.5 2.196-19.93-2.161-6.885.73-10.559 2.643-12.138a8.633 8.633 0 006.012 2.43 8.678 8.678 0 000-17.354 8.676 8.676 0 00-8.676 8.676c0 .675.084 1.328.23 1.959-3.613 2.642-7.783 8.59-4.865 17.889 1.84 5.864 1.276 11.833-1.476 15.58-1.166 1.59-3.265 3.485-6.635 3.485-4.36 0-8.68-2.3-10.505-5.592-.673-1.215-1.23-3.054-.07-4.911 2.592-4.149 3.89-8.02 4.505-10.386a12.98 12.98 0 004.2-1.404 4.052 4.052 0 002.108-3.07c5.733-5.182 8.38-14.52 8.532-15.066a2.437 2.437 0 00-1.204-2.797c.792-7.01-1.803-10.543-3.368-11.982.119-.673-.15-1.394-.742-1.78L25.815.252c-.751-.49-1.696-.243-2.108.556l-1.37 2.65c-.413.8-.05 1.652.813 1.907l3.253.958c.824.243 1.812-.15 2.279-.873 1.296 1.365 3.162 4.405 2.52 10.204a2.432 2.432 0 00-1.899 1.738c-.781 2.805-3.038 8.598-6.389 12.072a4.05 4.05 0 00-3.38.187c-.709.379-1.402.57-2.113.584h-.146c-.75-.016-1.481-.227-2.23-.646a4.034 4.034 0 00-3.335-.271c-3.276-3.489-5.485-9.16-6.253-11.925a2.44 2.44 0 00-1.9-1.737c-.643-5.8 1.223-8.84 2.52-10.205.468.723 1.454 1.117 2.279.874l3.252-.959c.861-.254 1.228-1.109.814-1.907l-1.37-2.65C10.64.01 9.695-.237 8.944.254l-2.88 1.881c-.59.387-.86 1.107-.74 1.78-1.563 1.44-4.16 4.971-3.368 11.982a2.439 2.439 0 00-1.204 2.798c.15.535 2.717 9.575 8.255 14.803zm37.651-16.68a3.39 3.39 0 11-.002 6.78 3.39 3.39 0 01.002-6.78z" fill="#222B45"/></svg>