<svg width="64" height="60" fill="none" xmlns="http://www.w3.org/2000/svg"><path d="M60.025 15.871a6.162 6.162 0 002.82-8.247 6.162 6.162 0 10-11.066 5.423 6.164 6.164 0 008.246 2.824zM43.3 23.816c-.491 2.397-.275 4.543 2.113 5.2l10.991 3.02h.007a3.333 3.333 0 001.771-6.426l-.006-.002-5.603-1.54-2.215-1.477 1.028-5.004c.315-1.527-.856-3.48-1.542-4.882a5.307 5.307 0 00-7.1-2.43l-3.68 1.805 5.87 3.92c-.136.465-.454 2.075-.56 2.594L18.454 1.29a2.466 2.466 0 00-3.425.682 2.468 2.468 0 00.683 3.424L43.3 23.815z" fill="#222B45"/><path d="M63.65 52.766a2.47 2.47 0 00-3.388-.85l-3.4 2.034-22.491-7.74 10.605-8.935c2.016-1.696 1.913-4.85-.225-6.408l-5.934-4.325 2.13-1.044.246-.12-12.386-8.27h-.003c-2.068 1.015-3.383 2.937-3.728 5.049-.428 2.607.662 4.875 3.126 6.733l7.55 5.501-10.28 8.756-22.198-7.64a2.47 2.47 0 00-1.609 4.67L56.34 58.993a2.464 2.464 0 002.073-.216l4.386-2.625a2.47 2.47 0 00.85-3.387z" fill="#222B45"/></svg>