<svg width="65" height="64" fill="none" xmlns="http://www.w3.org/2000/svg"><path d="M59.678 32.973h-4.83v-3.377a3.444 3.444 0 00-3.44-3.44H34.605V18.36a3.33 3.33 0 00-3.326-3.326h-3.696V4.624A4.628 4.628 0 0022.96 0H12.458a4.628 4.628 0 00-4.623 4.623v10.41H4.139A3.33 3.33 0 00.812 18.36v12.487a1.25 1.25 0 002.5 0V18.36c0-.448.379-.826.827-.826h27.14c.448 0 .826.378.826.826v30.161H3.313v-6.446a1.25 1.25 0 00-2.5 0v12.086a3.332 3.332 0 003.326 3.33h.295v2.4A4.114 4.114 0 008.543 64a4.112 4.112 0 004.106-4.11v-2.399h10.12v2.4A4.112 4.112 0 0026.875 64h32.803a4.513 4.513 0 004.506-4.51V37.483a4.513 4.513 0 00-4.506-4.51zm-34.595-17.94H10.335V4.624c0-1.17.952-2.123 2.123-2.123H22.96c1.17 0 2.123.953 2.123 2.123v10.41zm9.522 13.623h16.803a.94.94 0 01.94.94v3.378H34.604v-4.318zM10.15 59.891A1.61 1.61 0 018.544 61.5c-.888 0-1.61-.722-1.61-1.61v-2.399h3.216v2.4zm-6.01-4.9a.84.84 0 01-.827-.83v-3.14h28.793v3.14a.84.84 0 01-.826.83H4.14zm24.345 4.9c0 .887-.722 1.609-1.609 1.609a1.61 1.61 0 01-1.606-1.61v-2.399h3.215v2.4zM55.968 61.5H30.656a4.088 4.088 0 00.328-1.61v-2.399h.295a3.332 3.332 0 003.326-3.33V35.473h21.363V61.5zm5.715-2.01c0 1.108-.9 2.01-2.006 2.01h-1.209V35.473h1.21a2.01 2.01 0 012.006 2.01V59.49z" fill="#222B45"/><path d="M9.883 30.748a1.25 1.25 0 000 2.5H25.54a1.25 1.25 0 000-2.5H9.883zm18.155-6.246a3.754 3.754 0 00-3.748-3.752H11.13a3.754 3.754 0 00-3.747 3.752 3.752 3.752 0 003.748 3.748H24.29a3.752 3.752 0 003.748-3.748zM24.29 25.75H11.13a1.25 1.25 0 010-2.5h13.16a1.25 1.25 0 010 2.5zm16.932 19.323l6.19 2.81a1.246 1.246 0 001.655-.622l2.115-4.66a1.25 1.25 0 00-.622-1.654l-6.193-2.81a1.25 1.25 0 00-1.655.622L40.6 43.42a1.25 1.25 0 00.622 1.654zm3.25-4.142l3.917 1.776-1.082 2.383-3.914-1.777 1.08-2.383zM42.93 58.819a4.178 4.178 0 004.174-4.174 4.18 4.18 0 00-4.173-4.176 4.181 4.181 0 00-4.177 4.176 4.18 4.18 0 004.177 4.174zm0-5.85a1.675 1.675 0 11-.004 3.35 1.675 1.675 0 01.005-3.35zM2.063 37.712c.69 0 1.25-.563 1.25-1.253a1.25 1.25 0 00-2.5 0v.007c0 .69.56 1.246 1.25 1.246z" fill="#222B45"/></svg>