<svg width="45" height="60" fill="none" xmlns="http://www.w3.org/2000/svg"><path d="M44.678 13.244a16.474 16.474 0 00-3.29-8.064C38.267 1.244 32.904-.606 27.392.363A8.146 8.146 0 0023.86 1.79a8.122 8.122 0 00-2.494 2.875c-.184.367-1.828 3.614-1.032 4.364a2.734 2.734 0 001.837.567 8.054 8.054 0 004.33-.977 12.382 12.382 0 013.665-1.126 6.26 6.26 0 013.403.314 6.375 6.375 0 013.587 4.268 10.284 10.284 0 01-1.164 8.308c-2.108 3.046-5.86 4.076-7.873 4.416a31.45 31.45 0 01-6.018.288v-4.712h7.374a4.107 4.107 0 002.896-1.202 4.088 4.088 0 001.198-2.892v-3.848H4.858v3.883a4.09 4.09 0 001.199 2.892 4.108 4.108 0 002.895 1.202h7.374v4.494h-.568c-4.951 0-8.66 1.073-11.678 3.386C2.33 29.634.31 32.217.406 35.063a7.16 7.16 0 002.843 5.786c3.499 2.618 9.517 2.269 13.121 1.745v9.033H8.952a4.108 4.108 0 00-2.895 1.202 4.088 4.088 0 00-1.199 2.891v3.875h28.675V55.72a4.088 4.088 0 00-1.199-2.891 4.108 4.108 0 00-2.895-1.202h-7.374v-9.783c1.89.07 3.225.602 4.006 1.597 1.671 2.155.175 5.838.158 5.873l-.306.742.787-.14c3.377-.593 5.406-2.147 6.394-4.878 1.146-3.168.403-8.474-3.411-9.914-1.81-.681-4.567-.463-7.628 0v-3.718h1.102c4.855-.096 9.876-.2 14.372-2.854a15.06 15.06 0 006.036-6.537 15.842 15.842 0 001.103-8.77zM8.952 19.537a3.232 3.232 0 01-2.277-.947 3.217 3.217 0 01-.942-2.274v-3.01h26.925v3.01c0 .853-.339 1.67-.942 2.274a3.232 3.232 0 01-2.277.947H8.952zm12.247.873v4.677l-1.461-.06c-.831 0-1.68-.08-2.528-.106V20.41h3.989zm8.24 32.09a3.232 3.232 0 012.277.946c.603.604.942 1.421.942 2.274v3.002H5.733V55.72c0-.853.339-1.67.942-2.274a3.232 3.232 0 012.277-.946H29.44zM16.318 35.918a33.86 33.86 0 01-4.243.323c-2.204 0-3.613-.681-3.77-1.824a2.283 2.283 0 011.75-2.313 15.827 15.827 0 013.498-.384l.998-.044 1.75-.07.017 4.312zm.874 15.709V31.554c1.4-.087 2.756-.087 3.998-.087v20.16h-3.998zm12.186-15.71c3.324 1.275 3.928 6.023 2.904 8.824-.796 2.208-2.388 3.543-4.986 4.163.402-1.318.962-4.067-.534-5.987-.936-1.213-2.502-1.868-4.697-1.937v-5.01c2.992-.428 5.668-.654 7.322-.026l-.01-.026zm13.401-14.295a14.133 14.133 0 01-5.686 6.153c-4.295 2.54-8.984 2.618-13.943 2.732h-1.96c-1.242 0-2.624.07-3.989.13h-.875l-1.75.088h-.988a16.494 16.494 0 00-3.709.41A3.15 3.15 0 008.07 32.33a3.136 3.136 0 00-.605 2.078c.079.61.656 2.618 4.636 2.618a35.217 35.217 0 004.243-.314v4.922c-3.438.506-9.255.873-12.562-1.553a6.348 6.348 0 01-2.484-5.114c-.088-2.357 1.61-4.74 3.333-6.048 2.852-2.191 6.394-3.212 11.144-3.212h1.444c.83 0 1.67.061 2.484.105l1.505.07h.874a31.635 31.635 0 006.124-.306c3.788-.62 6.797-2.322 8.494-4.774a11.182 11.182 0 001.286-9.05 7.254 7.254 0 00-4.068-4.721 7.17 7.17 0 00-3.884-.367 12.977 12.977 0 00-3.954 1.24 7.178 7.178 0 01-3.858.872 2.437 2.437 0 01-1.233-.262c-.14-.41.674-2.47 1.163-3.438a7.215 7.215 0 015.406-3.84c5.179-.873 10.226.82 13.122 4.503a15.741 15.741 0 013.123 7.619 15.01 15.01 0 01-1.024 8.264z" fill="#74798A"/></svg>