<svg width="31" height="69" fill="none" xmlns="http://www.w3.org/2000/svg"><path d="M23.332 65.639v1.073c0 .712-.577 1.289-1.288 1.289v0a1.289 1.289 0 01-1.289-1.289V65.64m-10.308-.216v1.073c0 .712-.577 1.289-1.288 1.289v0a1.288 1.288 0 01-1.289-1.288v-1.074M5.326 20.358l20.616.152a4.295 4.295 0 014.263 4.294v36.324a4.295 4.295 0 01-4.295 4.294H5.295A4.295 4.295 0 011 61.128V24.652a4.295 4.295 0 014.326-4.295zm15.86-.031V6.154M10.448 20.112V6.154m0 0v-.86A4.295 4.295 0 0114.743 1h2.148a4.295 4.295 0 014.295 4.295v.859m-10.738 0h10.738" stroke="#74798A"/><rect width="19.756" height=".859" rx=".429" transform="matrix(-1 0 0 1 25.48 58.98)" fill="#74798A"/><rect width="19.756" height=".859" rx=".429" transform="matrix(-1 0 0 1 25.48 56.834)" fill="#74798A"/><rect width="19.756" height=".859" rx=".429" transform="matrix(-1 0 0 1 25.48 54.685)" fill="#74798A"/><path d="M26.539 23.7l.712.724c.23.233.307.578.198.887l-.415 1.18a.86.86 0 01-.206.327l-4.101 4.056c-.344.34-.9.33-1.231-.024l-1.458-1.555a.859.859 0 01.023-1.198l4.12-4.075a.859.859 0 01.365-.214l1.14-.331a.859.859 0 01.853.222z" stroke="#74798A"/><circle r=".644" transform="matrix(-1 0 0 1 25.696 25.265)" fill="#74798A"/></svg>