<svg width="26" height="26" fill="none" xmlns="http://www.w3.org/2000/svg"><path fill-rule="evenodd" clip-rule="evenodd" d="M24.246 11.717h.004a1.25 1.25 0 011.25 1.247 12.415 12.415 0 01-3.636 8.85 12.418 12.418 0 01-8.828 3.686H13c-3.326 0-6.455-1.29-8.814-3.636A12.418 12.418 0 01.5 13.036a12.413 12.413 0 013.636-8.85A12.418 12.418 0 0112.964.5c.994.015 2.006.115 2.976.348a1.25 1.25 0 01-.586 2.43c-.776-.187-1.6-.265-2.383-.278A9.933 9.933 0 005.91 5.949 9.934 9.934 0 003 13.029a9.935 9.935 0 002.95 7.061A9.936 9.936 0 0013 23h.029a9.933 9.933 0 007.062-2.949 9.936 9.936 0 002.91-7.08 1.25 1.25 0 011.245-1.254zm-15.88.4a1.249 1.249 0 011.768 0l2.805 2.804 7.871-8.995a1.25 1.25 0 011.88 1.647l-8.75 10c-.227.26-.552.414-.899.427h-.04a1.25 1.25 0 01-.885-.366l-3.75-3.75a1.249 1.249 0 010-1.768z" fill="#2E3A59"/></svg>