<svg width="48" height="48" fill="none" xmlns="http://www.w3.org/2000/svg"><path d="M26.552 20.378c-.34-.292-.73-.487-1.167-.633a6.885 6.885 0 00-1.508-.145H21.64c-.389 0-.632.097-.826.243-.146.146-.244.438-.244.826v6.274c0 .292 0 .486.098.68.048.195.146.293.291.39.146.097.39.146.73.146h2.237c.389 0 .73-.049 1.07-.097.292-.049.583-.146.875-.244.292-.145.535-.291.73-.486.291-.292.535-.584.73-.924.194-.34.34-.73.437-1.167.097-.438.146-.875.146-1.41 0-1.508-.438-2.675-1.362-3.453zm-1.264 6.03a1.969 1.969 0 01-.438.243c-.195.049-.34.098-.486.098H22.37v-5.836h1.167c.535 0 .973.048 1.362.194.389.098.68.39.924.827.243.438.389 1.07.389 1.897-.049 1.264-.34 2.09-.924 2.577z" fill="#006FD6"/><path d="M42.017 9.58l-.05-.048v-.049l-9.24-9.24-.048-.048s-.049 0-.049-.05c0 0-.048 0-.048-.048C32.436 0 32.29 0 32.096 0H9.19c-.876 0-1.702.34-2.286.924l-.049.049a3.396 3.396 0 00-.972 2.334v41.386c0 .924.389 1.75.972 2.334A3.397 3.397 0 009.19 48h29.617c.924 0 1.75-.39 2.334-.973a3.396 3.396 0 00.973-2.334V10.067c0-.195-.049-.34-.097-.486zM33.02 3.503l5.495 5.495h-4.036c-.39 0-.779-.146-1.022-.438a1.516 1.516 0 01-.437-1.021V3.502zm7.003 41.191c0 .34-.146.632-.39.875-.243.244-.534.39-.875.39H9.19c-.34 0-.632-.146-.876-.341-.243-.243-.34-.535-.34-.875V3.258c0-.34.146-.632.39-.875l.048-.049c.243-.194.535-.34.826-.34h21.788v5.495c0 .973.389 1.848 1.07 2.53.632.631 1.556 1.02 2.529 1.02h5.398v33.654z" fill="#006FD6"/><path d="M18.332 20.28c-.243-.242-.535-.388-.924-.486-.34-.097-.875-.146-1.507-.146h-2.237c-.39 0-.681.098-.827.244-.195.146-.243.437-.243.826v6.614c0 .34.097.584.243.778.146.195.389.244.632.244s.438-.098.632-.292c.146-.195.243-.438.243-.778v-2.432h1.605c1.07 0 1.848-.243 2.383-.68.535-.439.827-1.12.827-1.995 0-.389-.049-.778-.194-1.118-.195-.292-.39-.584-.633-.778zm-1.167 2.724c-.146.195-.34.34-.632.438a3.232 3.232 0 01-1.021.146h-1.168V20.96h1.168c.778 0 1.264.146 1.556.39.243.243.34.535.34.924-.048.291-.097.535-.243.73zm13.327-3.454c-.292.05-.486.098-.632.195a.588.588 0 00-.34.34c-.098.147-.098.341-.098.633v6.565c0 .34.097.633.243.778.146.195.39.244.632.244.243 0 .438-.098.633-.244a1.24 1.24 0 00.243-.778v-2.82h2.869c.243 0 .438-.049.584-.195.145-.097.194-.292.194-.486a.624.624 0 00-.194-.486 1.043 1.043 0 00-.584-.195h-2.87v-2.188h3.405c.292 0 .486-.05.632-.195a.624.624 0 00.195-.486.624.624 0 00-.195-.487c-.146-.146-.34-.194-.632-.194h-4.085z" fill="#006FD6"/></svg>