<svg width="25" height="24" fill="none" xmlns="http://www.w3.org/2000/svg"><path fill-rule="evenodd" clip-rule="evenodd" d="M18.292 21c-.165 0-.33-.037-.483-.113l-5.31-2.664-5.311 2.664a1.08 1.08 0 01-1.096-.08.98.98 0 01-.413-.977l1.012-5.628-4.292-3.985a.974.974 0 01-.267-1.027 1.03 1.03 0 01.842-.681l5.938-.828 2.654-5.126c.352-.68 1.513-.68 1.865 0l2.655 5.126 5.937.828c.394.054.72.319.842.68a.974.974 0 01-.267 1.028l-4.292 3.985 1.012 5.628a.981.981 0 01-.413.978 1.062 1.062 0 01-.613.192z" fill="#FA0"/></svg>