<svg width="25" height="24" fill="none" xmlns="http://www.w3.org/2000/svg"><path fill-rule="evenodd" clip-rule="evenodd" d="M12.498 16.05c.166 0 .332.038.482.113l3.927 1.97-.747-4.157a.974.974 0 01.302-.889l3.162-2.936-4.378-.612a1.038 1.038 0 01-.783-.544l-1.965-3.794-1.964 3.794a1.038 1.038 0 01-.784.544l-4.378.612 3.163 2.936a.974.974 0 01.302.889l-.747 4.157 3.926-1.97c.151-.075.317-.113.482-.113m5.794 4.905a1.07 1.07 0 01-.482-.113l-5.312-2.664-5.311 2.664a1.076 1.076 0 01-1.095-.079.982.982 0 01-.414-.978l1.013-5.628-4.292-3.985a.97.97 0 01-.266-1.026c.12-.363.448-.627.84-.682l5.939-.828 2.653-5.126c.352-.68 1.514-.68 1.867 0l2.653 5.126 5.938.828c.393.055.72.319.84.682a.97.97 0 01-.266 1.026l-4.292 3.985 1.013 5.628a.982.982 0 01-.414.978c-.18.128-.395.192-.612.192" fill="#FA0"/></svg>