<svg width="21" height="16" fill="none" xmlns="http://www.w3.org/2000/svg"><mask id="mask0_1807_4495" style="mask-type:alpha" maskUnits="userSpaceOnUse" x="0" y="0" width="21" height="16"><path d="M19 .5H2a2 2 0 00-2 2v11a2 2 0 002 2h17a2 2 0 002-2v-11a2 2 0 00-2-2z" fill="#fff"/></mask><g mask="url(#mask0_1807_4495)"><path d="M19 .5H2a2 2 0 00-2 2v11a2 2 0 002 2h17a2 2 0 002-2v-11a2 2 0 00-2-2z" fill="#fff"/><path fill-rule="evenodd" clip-rule="evenodd" d="M9 9.5H0v-3h9v-6h3v6h9v3h-9v6H9v-6z" fill="red"/><path fill-rule="evenodd" clip-rule="evenodd" d="M15 11.5h-1v1h1v1h1v-1h1v-1h-1v-1h-1v1zm0-8h-1v1h1v1h1v-1h1v-1h-1v-1h-1v1zm-10 0H4v1h1v1h1v-1h1v-1H6v-1H5v1zm0 8H4v1h1v1h1v-1h1v-1H6v-1H5v1z" fill="red"/><path d="M19 1H2A1.5 1.5 0 00.5 2.5v11A1.5 1.5 0 002 15h17a1.5 1.5 0 001.5-1.5v-11A1.5 1.5 0 0019 1z" stroke="#000" stroke-opacity=".1"/></g></svg>