<svg width="21" height="16" fill="none" xmlns="http://www.w3.org/2000/svg"><g clip-path="url(#clip0_2002_19804)"><mask id="mask0_2002_19804" style="mask-type:alpha" maskUnits="userSpaceOnUse" x="0" y="0" width="34" height="16"><path d="M30.692.5H3.231C1.446.5 0 1.395 0 2.5v11c0 1.105 1.446 2 3.23 2h27.462c1.785 0 3.231-.895 3.231-2v-11c0-1.105-1.446-2-3.23-2z" fill="#fff"/></mask><g mask="url(#mask0_2002_19804)"><path fill-rule="evenodd" clip-rule="evenodd" d="M0 .5l21 8H9.692L21 15.5H0V.5z" fill="#003495"/><path fill-rule="evenodd" clip-rule="evenodd" d="M1.615 2.5l12.923 5H4.846l11.308 7H3.227c-.888 0-1.612-.456-1.612-1.002V2.5z" fill="#DF0A37"/><path fill-rule="evenodd" clip-rule="evenodd" d="M7.94 5.5c.088.078.137.162.137.25 0 .414-1.086.75-2.423.75-1.338 0-2.424-.336-2.424-.75 0-.088.049-.172.138-.25.333.146 1.23.25 2.286.25 1.054 0 1.954-.104 2.285-.25z" fill="#fff"/><path d="M5.654 13.5c1.338 0 2.423-.672 2.423-1.5s-1.085-1.5-2.423-1.5c-1.339 0-2.424.672-2.424 1.5s1.085 1.5 2.424 1.5z" fill="#fff"/><path d="M2.846 1.803C1.72 1.36.808 1.675.808 2.498v11.005C.808 14.329 1.887 15 3.236 15h16.148L8.077 8h10.5L2.847 1.802z" stroke="#000" stroke-opacity=".1"/></g></g><defs><clipPath id="clip0_2002_19804"><path fill="#fff" transform="translate(0 .5)" d="M0 0h21v15H0z"/></clipPath></defs></svg>