<svg width="21" height="16" fill="none" xmlns="http://www.w3.org/2000/svg"><mask id="mask0_2002_10916" style="mask-type:alpha" maskUnits="userSpaceOnUse" x="0" y="0" width="21" height="16"><path d="M19 .5H2a2 2 0 00-2 2v11a2 2 0 002 2h17a2 2 0 002-2v-11a2 2 0 00-2-2z" fill="#fff"/></mask><g mask="url(#mask0_2002_10916)"><path d="M19 .5H2a2 2 0 00-2 2v11a2 2 0 002 2h17a2 2 0 002-2v-11a2 2 0 00-2-2z" fill="#EA0312"/><path d="M10.5 11.5a3.5 3.5 0 100-7 3.5 3.5 0 000 7z" fill="#fff"/><path fill-rule="evenodd" clip-rule="evenodd" d="M12 7.5h1v1h-1v-1z" fill="#EA0312"/><path fill-rule="evenodd" clip-rule="evenodd" d="M12.5 9.5a2.5 2.5 0 110-3H11a1.5 1.5 0 000 3h1.5z" fill="#EA0312"/><path d="M19 1H2A1.5 1.5 0 00.5 2.5v11A1.5 1.5 0 002 15h17a1.5 1.5 0 001.5-1.5v-11A1.5 1.5 0 0019 1z" stroke="#000" stroke-opacity=".1"/></g></svg>