<svg width="21" height="16" fill="none" xmlns="http://www.w3.org/2000/svg"><mask id="mask0_1807_2163" style="mask-type:alpha" maskUnits="userSpaceOnUse" x="0" y="0" width="21" height="16"><path d="M19 .5H2a2 2 0 00-2 2v11a2 2 0 002 2h17a2 2 0 002-2v-11a2 2 0 00-2-2z" fill="#fff"/></mask><g mask="url(#mask0_1807_2163)"><path d="M19 .5H2a2 2 0 00-2 2v11a2 2 0 002 2h17a2 2 0 002-2v-11a2 2 0 00-2-2z" fill="#22438B"/><path fill-rule="evenodd" clip-rule="evenodd" d="M3 1.5l-2.026.026L1 3.5l16.982 11.028 2.037-.037-.038-1.962L3.001 1.5z" fill="#fff"/><path fill-rule="evenodd" clip-rule="evenodd" d="M2 1.5l-1 1 18 12 1-1-18-12z" fill="#C7152A"/><path fill-rule="evenodd" clip-rule="evenodd" d="M18 1.5h2v2S8.25 10.896 3.018 14.528c-.063.044-1.998.003-1.998.003L.865 12.63 18 1.5z" fill="#fff"/><path fill-rule="evenodd" clip-rule="evenodd" d="M19.043 1.472L20 2.5l-18 12-1-1L19.043 1.472z" fill="#C7152A"/><path fill-rule="evenodd" clip-rule="evenodd" d="M8 1.5h5v4h7v5h-7v4H8v-4H1v-5h7v-4z" fill="#fff"/><path fill-rule="evenodd" clip-rule="evenodd" d="M9 1.5h3v5h8v3h-8v5H9v-5H1v-3h8v-5z" fill="#C7152A"/><path d="M19 1H2A1.5 1.5 0 00.5 2.5v11A1.5 1.5 0 002 15h17a1.5 1.5 0 001.5-1.5v-11A1.5 1.5 0 0019 1z" stroke="#000" stroke-opacity=".1"/></g></svg>