<svg width="21" height="16" fill="none" xmlns="http://www.w3.org/2000/svg"><mask id="mask0_1807_2098" style="mask-type:alpha" maskUnits="userSpaceOnUse" x="0" y="0" width="21" height="16"><path d="M19 .5H2a2 2 0 00-2 2v11a2 2 0 002 2h17a2 2 0 002-2v-11a2 2 0 00-2-2z" fill="#fff"/></mask><g mask="url(#mask0_1807_2098)"><path d="M19 .5H2a2 2 0 00-2 2v11a2 2 0 002 2h17a2 2 0 002-2v-11a2 2 0 00-2-2z" fill="#D0091E"/><path fill-rule="evenodd" clip-rule="evenodd" d="M3 .5L5 2 3 3.5v-3zm0 3L5 5 3 6.5v-3zm0 3L5 8 3 9.5v-3zm0 3L5 11l-2 1.5v-3zm0 3L5 14l-2 1.5v-3zM2 .5L0 2l2 1.5v-3zm0 3L0 5l2 1.5v-3zm0 3L0 8l2 1.5v-3zm0 3L0 11l2 1.5v-3zm0 3L0 14l2 1.5v-3zm0-12h1v2H2v-2zm0 13h1v2H2v-2zm0-8h1v2H2v-2zm0-2h1v1H2v-1zm0 8h1v1H2v-1zm0-3h1v2H2v-2z" fill="#fff"/><path fill-rule="evenodd" clip-rule="evenodd" d="M5 11.5h16v4H5v-4z" fill="#46A753"/><path d="M19 1H2A1.5 1.5 0 00.5 2.5v11A1.5 1.5 0 002 15h17a1.5 1.5 0 001.5-1.5v-11A1.5 1.5 0 0019 1z" stroke="#000" stroke-opacity=".1"/></g></svg>