<svg width="21" height="16" fill="none" xmlns="http://www.w3.org/2000/svg"><mask id="mask0_2002_12492" style="mask-type:alpha" maskUnits="userSpaceOnUse" x="0" y="0" width="21" height="16"><path d="M19 .5H2a2 2 0 00-2 2v11a2 2 0 002 2h17a2 2 0 002-2v-11a2 2 0 00-2-2z" fill="#fff"/></mask><g mask="url(#mask0_2002_12492)"><path d="M19 .5H2a2 2 0 00-2 2v11a2 2 0 002 2h17a2 2 0 002-2v-11a2 2 0 00-2-2z" fill="#CD0B20"/><path fill-rule="evenodd" clip-rule="evenodd" d="M0 4.5h21v7H0v-7z" fill="#FFCB00"/><path fill-rule="evenodd" clip-rule="evenodd" d="M9 6.722v2.52c0 .7-.672 1.26-1.5 1.26h-2C4.674 10.498 4 9.937 4 9.24V6.72c0-.572.448-1.05 1.064-1.205.186-.52.758-.054 1.436-.054.682 0 1.25-.463 1.436.055C8.55 5.675 9 6.154 9 6.722z" fill="#C8B47C"/><path fill-rule="evenodd" clip-rule="evenodd" d="M9 7.5h1v3H9v-3zm-6 0h1v3H3v-3z" fill="#B5B5B5"/><path fill-rule="evenodd" clip-rule="evenodd" d="M9 9.5h1v1H9v-1zm-6 0h1v1H3v-1z" fill="#165C96"/><path fill-rule="evenodd" clip-rule="evenodd" d="M9 6.5h1v1H9v-1zm-6 0h1v1H3v-1z" fill="#A0790A"/><path fill-rule="evenodd" clip-rule="evenodd" d="M5 6.5h1V8H5V6.5zm2 2h1V10H7V8.5z" fill="#D20636"/><path fill-rule="evenodd" clip-rule="evenodd" d="M7 6.5h1V8H7V6.5z" fill="#A18793"/><path fill-rule="evenodd" clip-rule="evenodd" d="M5 8.5h1V10H5V8.5z" fill="#FFE100"/><path fill-rule="evenodd" clip-rule="evenodd" d="M6 6.5l-1-1h3l-1 1H6z" fill="#B6161A"/><path fill-rule="evenodd" clip-rule="evenodd" d="M6 4.5h1v1H6v-1z" fill="#AC9300"/><path d="M19 1H2A1.5 1.5 0 00.5 2.5v11A1.5 1.5 0 002 15h17a1.5 1.5 0 001.5-1.5v-11A1.5 1.5 0 0019 1z" stroke="#000" stroke-opacity=".1"/></g></svg>