<svg width="21" height="16" fill="none" xmlns="http://www.w3.org/2000/svg"><mask id="mask0_2002_15722" style="mask-type:alpha" maskUnits="userSpaceOnUse" x="0" y="0" width="21" height="16"><path d="M19 .5H2a2 2 0 00-2 2v11a2 2 0 002 2h17a2 2 0 002-2v-11a2 2 0 00-2-2z" fill="#fff"/></mask><g mask="url(#mask0_2002_15722)"><path d="M19 .5H2a2 2 0 00-2 2v11a2 2 0 002 2h17a2 2 0 002-2v-11a2 2 0 00-2-2z" fill="#fff"/><path fill-rule="evenodd" clip-rule="evenodd" d="M14 8a3.5 3.5 0 11-7 0c0-1.12 2.35-1.59 4.328-1.413A2.61 2.61 0 0112 6.5c1.105 0 2 .672 2 1.5z" fill="#0048AB"/><path fill-rule="evenodd" clip-rule="evenodd" d="M10 7.5s.895-1 2-1 2 .672 2 1.5a3.5 3.5 0 00-6.664-1.498C7 7.5 7 7.792 7 8c.5.5 1.056.5 1.5.5.444 0 .843-.193 1.118-.5L10 7.5z" fill="#CD0027"/><path fill-rule="evenodd" clip-rule="evenodd" d="M15 5.5h2l-2-2h-1l1 2zm-9 0H4l2-2h1l-1 2zm9 5h2l-2 2h-1l1-2zm-9 0H4l2 2h1l-1-2z" fill="#252526"/><path d="M19 1H2A1.5 1.5 0 00.5 2.5v11A1.5 1.5 0 002 15h17a1.5 1.5 0 001.5-1.5v-11A1.5 1.5 0 0019 1z" stroke="#000" stroke-opacity=".1"/></g></svg>