<svg width="21" height="16" fill="none" xmlns="http://www.w3.org/2000/svg"><mask id="mask0_2002_12651" style="mask-type:alpha" maskUnits="userSpaceOnUse" x="0" y="0" width="21" height="16"><path d="M19 .5H2a2 2 0 00-2 2v11a2 2 0 002 2h17a2 2 0 002-2v-11a2 2 0 00-2-2z" fill="#fff"/></mask><g mask="url(#mask0_2002_12651)"><path d="M19 .5H2a2 2 0 00-2 2v11a2 2 0 002 2h17a2 2 0 002-2v-11a2 2 0 00-2-2z" fill="#fff"/><path fill-rule="evenodd" clip-rule="evenodd" d="M0 10.5h21v5H0v-5z" fill="#150A99"/><path fill-rule="evenodd" clip-rule="evenodd" d="M0 .5h21v5H0v-5z" fill="red"/><path fill-rule="evenodd" clip-rule="evenodd" d="M8 4.5h1v1H8v-1zm2-1h1v2h-1v-2zm2 1h1v1h-1v-1z" fill="#0091E0"/><path fill-rule="evenodd" clip-rule="evenodd" d="M11 3.5h1v2h-1v-2zm-2 0h1v2H9v-2z" fill="#150A99"/></g><mask id="mask1_2002_12651" style="mask-type:alpha" maskUnits="userSpaceOnUse" x="8" y="5" width="5" height="7"><path d="M13 9a2.5 2.5 0 01-5 0V5.5h5V9z" fill="#fff"/></mask><g mask="url(#mask1_2002_12651)"><path d="M13 9a2.5 2.5 0 01-5 0V5.5h5V9z" fill="red"/><path fill-rule="evenodd" clip-rule="evenodd" d="M9 10.5h1v1H9v-1zm2 0h1v1h-1v-1zm-1-1h1v1h-1v-1zm-1-1h1v1H9v-1zm2 0h1v1h-1v-1zm-1-1h1v1h-1v-1zm-1-1h1v1H9v-1zm2 0h1v1h-1v-1zm-1-1h1v1h-1v-1zm2 0h1v1h-1v-1zm0 2h1v1h-1v-1zm0 2h1v1h-1v-1zm-4 0h1v1H8v-1zm0-2h1v1H8v-1zm0-2h1v1H8v-1z" fill="#fff"/><path d="M19 1H2A1.5 1.5 0 00.5 2.5v11A1.5 1.5 0 002 15h17a1.5 1.5 0 001.5-1.5v-11A1.5 1.5 0 0019 1z" stroke="#000" stroke-opacity=".1"/></g></svg>