<svg width="21" height="16" fill="none" xmlns="http://www.w3.org/2000/svg"><mask id="mask0_2002_19721" style="mask-type:alpha" maskUnits="userSpaceOnUse" x="0" y="0" width="21" height="16"><path d="M19 .5H2a2 2 0 00-2 2v11a2 2 0 002 2h17a2 2 0 002-2v-11a2 2 0 00-2-2z" fill="#fff"/></mask><g mask="url(#mask0_2002_19721)"><path d="M19 .5H2a2 2 0 00-2 2v11a2 2 0 002 2h17a2 2 0 002-2v-11a2 2 0 00-2-2z" fill="#D90D08"/><path fill-rule="evenodd" clip-rule="evenodd" d="M0 .5h21v7H0v-7z" fill="#fff"/><path fill-rule="evenodd" clip-rule="evenodd" d="M0 .5L10 8 0 15.5V.5z" fill="#0B4380"/><path d="M19 1H2A1.5 1.5 0 00.5 2.5v11A1.5 1.5 0 002 15h17a1.5 1.5 0 001.5-1.5v-11A1.5 1.5 0 0019 1z" stroke="#000" stroke-opacity=".1"/></g></svg>