<svg width="21" height="16" fill="none" xmlns="http://www.w3.org/2000/svg"><mask id="mask0_2002_944" style="mask-type:alpha" maskUnits="userSpaceOnUse" x="0" y="0" width="21" height="16"><path d="M19 .5H2a2 2 0 00-2 2v11a2 2 0 002 2h17a2 2 0 002-2v-11a2 2 0 00-2-2z" fill="#fff"/></mask><g mask="url(#mask0_2002_944)"><path d="M19 .5H2a2 2 0 00-2 2v11a2 2 0 002 2h17a2 2 0 002-2v-11a2 2 0 00-2-2z" fill="#D4062E"/><path fill-rule="evenodd" clip-rule="evenodd" d="M4 4.5h13v7H4v-7z" fill="#007F37"/><path fill-rule="evenodd" clip-rule="evenodd" d="M11.125 10.42A2.5 2.5 0 1110.5 5.5c.216 0 .425.027.625.08C10.478 5.855 10 6.834 10 8s.478 2.144 1.125 2.42z" fill="#fff"/><path d="M19 1H2A1.5 1.5 0 00.5 2.5v11A1.5 1.5 0 002 15h17a1.5 1.5 0 001.5-1.5v-11A1.5 1.5 0 0019 1z" stroke="#000" stroke-opacity=".1"/></g></svg>