<svg width="21" height="16" fill="none" xmlns="http://www.w3.org/2000/svg"><mask id="mask0_2002_10734" style="mask-type:alpha" maskUnits="userSpaceOnUse" x="0" y="0" width="21" height="16"><path d="M19 .5H2a2 2 0 00-2 2v11a2 2 0 002 2h17a2 2 0 002-2v-11a2 2 0 00-2-2z" fill="#fff"/></mask><g mask="url(#mask0_2002_10734)"><path d="M19 .5H2a2 2 0 00-2 2v11a2 2 0 002 2h17a2 2 0 002-2v-11a2 2 0 00-2-2z" fill="#fff"/><path fill-rule="evenodd" clip-rule="evenodd" d="M0 .5h21v9H0v-9z" fill="#EF2F41"/><path fill-rule="evenodd" clip-rule="evenodd" d="M6 8.363c-.29.09-.6.137-.923.137C3.377 8.5 2 7.157 2 5.5s1.378-3 3.077-3c.322 0 .632.048.923.137-1.248.383-2.154 1.52-2.154 2.863S4.752 7.98 6 8.363zM8 3.5h1v1H8v-1zm2 1h1v1h-1v-1zm-1 2h1v1H9v-1zm-3-2h1v1H6v-1zm1 2h1v1H7v-1z" fill="#fff"/><path d="M19 1H2A1.5 1.5 0 00.5 2.5v11A1.5 1.5 0 002 15h17a1.5 1.5 0 001.5-1.5v-11A1.5 1.5 0 0019 1z" stroke="#000" stroke-opacity=".1"/></g></svg>