<svg width="21" height="16" fill="none" xmlns="http://www.w3.org/2000/svg"><mask id="mask0_2002_6440" style="mask-type:alpha" maskUnits="userSpaceOnUse" x="0" y="0" width="21" height="16"><path d="M19 .5H2a2 2 0 00-2 2v11a2 2 0 002 2h17a2 2 0 002-2v-11a2 2 0 00-2-2z" fill="#fff"/></mask><g mask="url(#mask0_2002_6440)"><path d="M19 .5H2a2 2 0 00-2 2v11a2 2 0 002 2h17a2 2 0 002-2v-11a2 2 0 00-2-2z" fill="#00AFCC"/><path fill-rule="evenodd" clip-rule="evenodd" d="M2 2.995c0-.273.232-.495.5-.495.276 0 .5.216.5.495v2.01a.503.503 0 01-.5.495.494.494 0 01-.5-.495v-2.01zm1 2c0-.273.232-.495.5-.495.276 0 .5.216.5.495v2.01a.503.503 0 01-.5.495.494.494 0 01-.5-.495v-2.01zm0 4c0-.273.232-.495.5-.495.276 0 .5.216.5.495v2.01a.503.503 0 01-.5.495.494.494 0 01-.5-.495v-2.01zm-1 2c0-.273.232-.495.5-.495.276 0 .5.216.5.495v2.01a.503.503 0 01-.5.495.494.494 0 01-.5-.495v-2.01zM2 7c0-.276.232-.5.5-.5.276 0 .5.232.5.5 0 .276-.232.5-.5.5A.505.505 0 012 7zm1-4c0-.276.232-.5.5-.5.276 0 .5.232.5.5 0 .276-.232.5-.5.5A.505.505 0 013 3zM2 8c0-.276.232-.5.5-.5.276 0 .5.232.5.5 0 .276-.232.5-.5.5A.505.505 0 012 8zm1 5c0-.276.232-.5.5-.5.276 0 .5.232.5.5 0 .276-.232.5-.5.5A.505.505 0 013 13zM2 9c0-.276.232-.5.5-.5.276 0 .5.232.5.5 0 .276-.232.5-.5.5A.505.505 0 012 9z" fill="#DAC21D"/><path d="M11.5 9.5a2.5 2.5 0 100-5 2.5 2.5 0 000 5z" fill="#FFC600"/><path fill-rule="evenodd" clip-rule="evenodd" d="M8 7.5l1 2 2.5 1 2.5-1 1-2v3l-3.5 1-3.5-1v-3z" fill="#FFC600"/><path d="M19 1H2A1.5 1.5 0 00.5 2.5v11A1.5 1.5 0 002 15h17a1.5 1.5 0 001.5-1.5v-11A1.5 1.5 0 0019 1z" stroke="#000" stroke-opacity=".1"/></g></svg>