<svg width="21" height="16" fill="none" xmlns="http://www.w3.org/2000/svg"><mask id="mask0_2002_15739" style="mask-type:alpha" maskUnits="userSpaceOnUse" x="0" y="0" width="21" height="16"><path d="M19 .5H2a2 2 0 00-2 2v11a2 2 0 002 2h17a2 2 0 002-2v-11a2 2 0 00-2-2z" fill="#fff"/></mask><g mask="url(#mask0_2002_15739)"><path d="M19 .5H2a2 2 0 00-2 2v11a2 2 0 002 2h17a2 2 0 002-2v-11a2 2 0 00-2-2z" fill="#E02600"/><path fill-rule="evenodd" clip-rule="evenodd" d="M5.498 7.73l-1.47.773.28-1.637-1.188-1.16 1.643-.237.735-1.49.734 1.49 1.643.237-1.19 1.16.282 1.636-1.469-.772zM9 3.5h1v1H9v-1zm1 2h1v1h-1v-1zm0 2h1v1h-1v-1zm-1 2h1v1H9v-1z" fill="#FFE000"/><path d="M19 1H2A1.5 1.5 0 00.5 2.5v11A1.5 1.5 0 002 15h17a1.5 1.5 0 001.5-1.5v-11A1.5 1.5 0 0019 1z" stroke="#000" stroke-opacity=".1"/></g></svg>