<svg width="21" height="16" fill="none" xmlns="http://www.w3.org/2000/svg"><mask id="mask0_1807_2153" style="mask-type:alpha" maskUnits="userSpaceOnUse" x="0" y="0" width="21" height="16"><path d="M19 .5H2a2 2 0 00-2 2v11a2 2 0 002 2h17a2 2 0 002-2v-11a2 2 0 00-2-2z" fill="#fff"/></mask><g mask="url(#mask0_1807_2153)"><path d="M19 .5H2a2 2 0 00-2 2v11a2 2 0 002 2h17a2 2 0 002-2v-11a2 2 0 00-2-2z" fill="#00008E"/><path fill-rule="evenodd" clip-rule="evenodd" d="M4 12l1-.5.5-1 .5 1 1 .5-1 .5-.5 1-.5-1-1-.5zm10-8.5v1h1v-1h-1zm3 1v1h1v-1h-1zm-4 2v1h1v-1h-1zm3 1v1h1v-1h-1zm-1 3v1h1v-1h-1z" fill="#BDC4E7"/><path d="M9 1.5H2a1 1 0 00-1 1v5a1 1 0 001 1h7a1 1 0 001-1v-5a1 1 0 00-1-1z" fill="#fff"/><path fill-rule="evenodd" clip-rule="evenodd" d="M5 5.5H2v-1h3v-2h1v2h3v1H6v2H5v-2zm2.5 1v1H9v-1H7.5zm0-4v1H9v-1H7.5zM2 6.5v1h1.5v-1H2zm0-4v1h1.5v-1H2z" fill="red"/><path d="M19 1H2A1.5 1.5 0 00.5 2.5v11A1.5 1.5 0 002 15h17a1.5 1.5 0 001.5-1.5v-11A1.5 1.5 0 0019 1z" stroke="#000" stroke-opacity=".1"/></g></svg>