<svg width="21" height="16" fill="none" xmlns="http://www.w3.org/2000/svg"><mask id="mask0_1807_2080" style="mask-type:alpha" maskUnits="userSpaceOnUse" x="0" y="0" width="21" height="16"><path d="M19 .5H2a2 2 0 00-2 2v11a2 2 0 002 2h17a2 2 0 002-2v-11a2 2 0 00-2-2z" fill="#fff"/></mask><g mask="url(#mask0_1807_2080)"><path d="M19 .5H2a2 2 0 00-2 2v11a2 2 0 002 2h17a2 2 0 002-2v-11a2 2 0 00-2-2z" fill="#fff"/><path fill-rule="evenodd" clip-rule="evenodd" d="M0 .5h4v4H0v-4zm6 0h4v4H6v-4zm-6 6h4v4H0v-4zm6 0h4v4H6v-4zm4-6h11v2H10v-2zm0 4h11v2H10v-2z" fill="#005CB2"/><path fill-rule="evenodd" clip-rule="evenodd" d="M0 8.5h21v2H0v-2zm4 0h2v2H4v-2zm-4 4h21v2H0v-2z" fill="#005CB2"/><path d="M19 1H2A1.5 1.5 0 00.5 2.5v11A1.5 1.5 0 002 15h17a1.5 1.5 0 001.5-1.5v-11A1.5 1.5 0 0019 1z" stroke="#000" stroke-opacity=".1"/></g></svg>