<svg width="21" height="16" fill="none" xmlns="http://www.w3.org/2000/svg"><mask id="mask0_2002_9651" style="mask-type:alpha" maskUnits="userSpaceOnUse" x="0" y="0" width="21" height="16"><path d="M19 .5H2a2 2 0 00-2 2v11a2 2 0 002 2h17a2 2 0 002-2v-11a2 2 0 00-2-2z" fill="#fff"/></mask><g mask="url(#mask0_2002_9651)"><path d="M19 .5H2a2 2 0 00-2 2v11a2 2 0 002 2h17a2 2 0 002-2v-11a2 2 0 00-2-2z" fill="#E70B17"/><path fill-rule="evenodd" clip-rule="evenodd" d="M14.002 9.152l-1.162.61.222-1.293-.94-.917 1.3-.19.58-1.176.58 1.177 1.3.19-.94.915.222 1.293" fill="#fff"/><path fill-rule="evenodd" clip-rule="evenodd" d="M9.5 11.5a3.5 3.5 0 100-7 3.5 3.5 0 000 7zm1-1a2.5 2.5 0 000-5 2.5 2.5 0 000 5z" fill="#fff"/><path d="M19 1H2A1.5 1.5 0 00.5 2.5v11A1.5 1.5 0 002 15h17a1.5 1.5 0 001.5-1.5v-11A1.5 1.5 0 0019 1z" stroke="#000" stroke-opacity=".1"/></g></svg>