<svg width="21" height="16" fill="none" xmlns="http://www.w3.org/2000/svg"><mask id="mask0_2002_10715" style="mask-type:alpha" maskUnits="userSpaceOnUse" x="0" y="0" width="21" height="16"><path d="M19 .5H2a2 2 0 00-2 2v11a2 2 0 002 2h17a2 2 0 002-2v-11a2 2 0 00-2-2z" fill="#fff"/></mask><g mask="url(#mask0_2002_10715)"><path d="M19 .5H2a2 2 0 00-2 2v11a2 2 0 002 2h17a2 2 0 002-2v-11a2 2 0 00-2-2z" fill="#fff"/><path fill-rule="evenodd" clip-rule="evenodd" d="M10.5 9.5c1.38 0 2.5-.672 2.5-1.5s-1.12-1.5-2.5-1.5S8 7.172 8 8s1.12 1.5 2.5 1.5zm0-.75c.828 0 1.5-.504 1.5-1.125 0-.62-.672-1.125-1.5-1.125S9 7.004 9 7.625c0 .62.672 1.125 1.5 1.125z" fill="#D00"/><path d="M10.5 8.5c.276 0 .5-.448.5-1s-.224-1-.5-1-.5.448-.5 1 .224 1 .5 1z" fill="#D00"/><path fill-rule="evenodd" clip-rule="evenodd" d="M0 10.5h21v5H0v-5z" fill="#D00"/><path fill-rule="evenodd" clip-rule="evenodd" d="M0 .5h21v5H0v-5z" fill="#17A03A"/><path d="M19 1H2A1.5 1.5 0 00.5 2.5v11A1.5 1.5 0 002 15h17a1.5 1.5 0 001.5-1.5v-11A1.5 1.5 0 0019 1z" stroke="#000" stroke-opacity=".1"/></g></svg>