<svg width="21" height="16" fill="none" xmlns="http://www.w3.org/2000/svg"><mask id="mask0_2002_1213" style="mask-type:alpha" maskUnits="userSpaceOnUse" x="0" y="0" width="21" height="16"><path d="M19 .5H2a2 2 0 00-2 2v11a2 2 0 002 2h17a2 2 0 002-2v-11a2 2 0 00-2-2z" fill="#fff"/></mask><g mask="url(#mask0_2002_1213)"><path d="M19 .5H2a2 2 0 00-2 2v11a2 2 0 002 2h17a2 2 0 002-2v-11a2 2 0 00-2-2z" fill="#fff"/><path fill-rule="evenodd" clip-rule="evenodd" d="M0 .5h9v7H0v-7z" fill="#444379"/><path fill-rule="evenodd" clip-rule="evenodd" d="M1 1.5v1h1v-1H1zm2 0v1h1v-1H3zm2 0v1h1v-1H5zm2 0v1h1v-1H7zm-1 1v1h1v-1H6zm-2 0v1h1v-1H4zm-2 0v1h1v-1H2zm-1 1v1h1v-1H1zm2 0v1h1v-1H3zm2 0v1h1v-1H5zm2 0v1h1v-1H7zm-6 2v1h1v-1H1zm2 0v1h1v-1H3zm2 0v1h1v-1H5zm2 0v1h1v-1H7zm-1-1v1h1v-1H6zm-2 0v1h1v-1H4zm-2 0v1h1v-1H2z" fill="#A7B6E7"/><path fill-rule="evenodd" clip-rule="evenodd" d="M9 .5v1h12v-1H9zm0 2v1h12v-1H9zm0 2v1h12v-1H9zm0 2v1h12v-1H9zm-9 2v1h21v-1H0zm0 2v1h21v-1H0zm0 2v1h21v-1H0zm0 2v1h21v-1H0z" fill="#ED4C49"/><path d="M19 1H2A1.5 1.5 0 00.5 2.5v11A1.5 1.5 0 002 15h17a1.5 1.5 0 001.5-1.5v-11A1.5 1.5 0 0019 1z" stroke="#000" stroke-opacity=".1"/></g></svg>