<svg width="21" height="16" fill="none" xmlns="http://www.w3.org/2000/svg"><g clip-path="url(#clip0_2002_6776)"><path d="M19 .5H2a2 2 0 00-2 2v11a2 2 0 002 2h17a2 2 0 002-2v-11a2 2 0 00-2-2z" fill="#D4AF2C"/><mask id="mask0_2002_6776" style="mask-type:alpha" maskUnits="userSpaceOnUse" x="1" y="1" width="19" height="14"><path d="M19 1.5H2a1 1 0 00-1 1v11a1 1 0 001 1h17a1 1 0 001-1v-11a1 1 0 00-1-1z" fill="#fff"/></mask><g mask="url(#mask0_2002_6776)"><path d="M19 1.5H2a1 1 0 00-1 1v11a1 1 0 001 1h17a1 1 0 001-1v-11a1 1 0 00-1-1z" fill="#C60000"/><path fill-rule="evenodd" clip-rule="evenodd" d="M10.5 5.278L9.333 4.5l-.777.778h.777l-.777.778L7 5.278v3.89l2.333-.78-.777 1.556h-.778l.778.778.777-.778L10.5 11.5V5.278zm1.167-.778l.777.778h-.777l.777.778L14 5.278v3.89l-2.333-.78.777 1.556h.778l-.778.778-.777-.778L10.5 11.5V5.278l1.167-.778z" fill="#D5B02B"/><path fill-rule="evenodd" clip-rule="evenodd" d="M9 7.005a1.5 1.5 0 113 0v-.343c0 .83-.508 1.956-1.12 2.502l-.38.336-.38-.336C9.503 8.614 9 7.494 9 6.662v.343z" fill="#185D93"/><path fill-rule="evenodd" clip-rule="evenodd" d="M9 6.5h3v1H9v-1z" fill="#C58724"/><path d="M19 1H2A1.5 1.5 0 00.5 2.5v11A1.5 1.5 0 002 15h17a1.5 1.5 0 001.5-1.5v-11A1.5 1.5 0 0019 1z" stroke="#000" stroke-opacity=".1"/></g></g><defs><clipPath id="clip0_2002_6776"><path fill="#fff" transform="translate(0 .5)" d="M0 0h21v15H0z"/></clipPath></defs></svg>