<svg width="21" height="16" fill="none" xmlns="http://www.w3.org/2000/svg"><mask id="mask0_2002_10547" style="mask-type:alpha" maskUnits="userSpaceOnUse" x="0" y="0" width="21" height="16"><path d="M19 .5H2a2 2 0 00-2 2v11a2 2 0 002 2h17a2 2 0 002-2v-11a2 2 0 00-2-2z" fill="#fff"/></mask><g mask="url(#mask0_2002_10547)"><path d="M19 .5H2a2 2 0 00-2 2v11a2 2 0 002 2h17a2 2 0 002-2v-11a2 2 0 00-2-2z" fill="#0268AE"/><path fill-rule="evenodd" clip-rule="evenodd" d="M0 10.5h21v5H0v-5z" fill="#EF1F28"/><path fill-rule="evenodd" clip-rule="evenodd" d="M0 .5h21v5H0v-5z" fill="#fff"/><path d="M6.5 3.5h-2a1 1 0 00-1 1V7a1 1 0 001 1h2a1 1 0 001-1V4.5a1 1 0 00-1-1z" fill="#EF1F28"/><path d="M6 3.5H5a1 1 0 00-1 1v2a1 1 0 001 1h1a1 1 0 001-1v-2a1 1 0 00-1-1z" fill="#0268AE"/><path fill-rule="evenodd" clip-rule="evenodd" d="M5 4.5h1v1H5v-1z" fill="#FFE200"/><path fill-rule="evenodd" clip-rule="evenodd" d="M4 6.5L5.5 6l1.5.5-1 1H5l-1-1z" fill="#fff"/><path d="M19 1H2A1.5 1.5 0 00.5 2.5v11A1.5 1.5 0 002 15h17a1.5 1.5 0 001.5-1.5v-11A1.5 1.5 0 0019 1z" stroke="#000" stroke-opacity=".1"/></g></svg>