<svg width="21" height="16" fill="none" xmlns="http://www.w3.org/2000/svg"><mask id="mask0_2002_10528" style="mask-type:alpha" maskUnits="userSpaceOnUse" x="0" y="0" width="21" height="16"><path d="M19 .5H2a2 2 0 00-2 2v11a2 2 0 002 2h17a2 2 0 002-2v-11a2 2 0 00-2-2z" fill="#fff"/></mask><g mask="url(#mask0_2002_10528)"><path d="M19 .5H2a2 2 0 00-2 2v11a2 2 0 002 2h17a2 2 0 002-2v-11a2 2 0 00-2-2z" fill="red"/><path fill-rule="evenodd" clip-rule="evenodd" d="M0 .5h7v15H0V.5z" fill="#006700"/><path d="M7 10.5a3 3 0 100-6 3 3 0 000 6z" fill="#FF0"/><path fill-rule="evenodd" clip-rule="evenodd" d="M9 8.5v-3H5v3c0 .552.895 1 2 1s2-.448 2-1z" fill="red"/><path fill-rule="evenodd" clip-rule="evenodd" d="M6 6.5h2v2H6v-2z" fill="#fff"/><path fill-rule="evenodd" clip-rule="evenodd" d="M6 6.5h1v1H6v-1zm1 1h1v1H7v-1z" fill="#002E9C"/><path d="M19 1H2A1.5 1.5 0 00.5 2.5v11A1.5 1.5 0 002 15h17a1.5 1.5 0 001.5-1.5v-11A1.5 1.5 0 0019 1z" stroke="#000" stroke-opacity=".1"/></g></svg>