<svg width="70" height="28" fill="none" xmlns="http://www.w3.org/2000/svg"><path d="M32.893 13.348v7.947h-2.538V1.669h6.733a6.126 6.126 0 014.36 1.699 5.465 5.465 0 011.362 1.875 5.43 5.43 0 01.459 2.267 5.404 5.404 0 01-.452 2.28 5.437 5.437 0 01-1.37 1.885c-1.177 1.115-2.63 1.672-4.36 1.671h-4.194v.002zm0-9.263v6.851h4.258a3.376 3.376 0 002.512-1.015 3.344 3.344 0 001.02-2.398 3.326 3.326 0 00-1.02-2.398 3.312 3.312 0 00-2.512-1.042h-4.258v.002zM49.12 7.428c1.877 0 3.358.498 4.444 1.494 1.086.996 1.628 2.362 1.627 4.097v8.276h-2.428V19.43h-.11c-1.052 1.535-2.45 2.302-4.195 2.302-1.49 0-2.736-.438-3.739-1.315a4.175 4.175 0 01-1.504-3.288c0-1.39.529-2.495 1.586-3.316 1.058-.82 2.47-1.232 4.236-1.234 1.507 0 2.749.274 3.724.822v-.576a2.856 2.856 0 00-1.048-2.232 3.61 3.61 0 00-2.45-.919c-1.419 0-2.541.594-3.367 1.782L43.66 10.06c1.23-1.754 3.05-2.63 5.46-2.63zm-3.284 9.756a2.002 2.002 0 00.842 1.644 3.11 3.11 0 001.972.658 4.062 4.062 0 002.856-1.178c.841-.786 1.262-1.708 1.262-2.767-.792-.626-1.896-.94-3.312-.94-1.031 0-1.891.248-2.58.741-.695.502-1.04 1.11-1.04 1.842zM69.13 7.868l-8.476 19.347h-2.621l3.146-6.77-5.575-12.577h2.76l4.029 9.646h.055l3.919-9.646h2.764z" fill="#fff"/><path d="M22.635 11.634a13.336 13.336 0 00-.195-2.292H11.733v4.342h6.132a5.198 5.198 0 01-.78 1.944 5.238 5.238 0 01-1.487 1.482v2.82h3.66c2.143-1.963 3.377-4.865 3.377-8.296z" fill="#4285F4"/><path d="M11.732 22.654c3.064 0 5.644-1 7.525-2.722l-3.66-2.818c-1.019.686-2.33 1.077-3.865 1.077-2.961 0-5.475-1.982-6.373-4.654h-3.77v2.905a11.304 11.304 0 004.185 4.534 11.413 11.413 0 005.958 1.678z" fill="#34A853"/><path d="M5.359 13.537a6.711 6.711 0 010-4.316V6.316h-3.77a11.211 11.211 0 000 10.126l3.77-2.905z" fill="#FBBC04"/><path d="M11.732 4.567a6.188 6.188 0 014.355 1.69l3.24-3.217A10.95 10.95 0 0011.733.104a11.4 11.4 0 00-5.958 1.678 11.304 11.304 0 00-4.186 4.534l3.77 2.905c.9-2.672 3.413-4.654 6.374-4.654z" fill="#EA4335"/></svg>