<svg width="191" height="91" fill="none" xmlns="http://www.w3.org/2000/svg"><g clip-path="url(#clip0_2301_67847)" fill="#222B45"><path d="M0 15.333c0-1.62.997-2.618 2.742-2.618h26.802c1.745 0 2.618.748 2.618 2.369v2.119c0 1.62-.873 2.369-2.618 2.369H7.729v16.953h17.078c1.745 0 2.618.748 2.618 2.368v1.995c0 1.62-.873 2.368-2.618 2.368H7.729v17.951h21.69c1.745 0 2.743.748 2.743 2.369v1.994c0 1.62-.998 2.369-2.743 2.369H2.618C.998 67.939 0 67.19 0 65.57V15.333zm47.494-2.493h2.743c1.745 0 2.493.872 2.493 2.492v24.433l19.447-25.18c.872-1.122 1.62-1.746 3.24-1.746h3.616c1.62 0 2.119 1.87 1.246 2.992L63.825 36.65l16.953 28.67c.748 1.247.125 2.992-1.62 2.992h-3.242c-1.745 0-2.617-.873-3.24-2.12l-13.59-22.686-6.232 8.726V65.57c0 1.62-.873 2.742-2.618 2.742h-2.618c-1.62 0-2.618-1.122-2.618-2.742V15.208c.125-1.62.998-2.369 2.493-2.369zm54.725 6.856H91.374c-1.745 0-2.618-.748-2.618-2.369v-1.994c0-1.62.873-2.369 2.618-2.369h29.419c1.745 0 2.618.748 2.618 2.369v1.87c0 1.62-.873 2.368-2.618 2.368h-10.97v46.123c0 1.621-.872 2.618-2.493 2.618h-2.618c-1.745 0-2.617-.997-2.617-2.617v-46h.124zm29.295 9.224c0-11.344 7.853-16.08 17.826-16.08 9.972 0 17.701 4.861 17.701 16.205v36.774c0 1.62-.997 2.618-2.742 2.618h-2.618c-1.745 0-2.493-.998-2.493-2.618V50.36h-20.07v15.46c0 1.62-.873 2.618-2.618 2.618h-2.618c-1.745 0-2.618-.998-2.618-2.618v-36.9h.25zm7.728 14.585h20.07V29.668c0-8.103-4.861-9.973-10.222-9.973-5.609 0-9.848 1.746-9.848 9.973v13.837zM180.753 0a9.79 9.79 0 00-9.848 9.848 9.79 9.79 0 009.848 9.848 9.79 9.79 0 009.848-9.848A9.79 9.79 0 00180.753 0zm0 14.46a4.601 4.601 0 01-4.612-4.612c0-2.493 2.119-4.612 4.612-4.612s4.613 2.119 4.613 4.612a4.602 4.602 0 01-4.613 4.612zM1.62 90.501H.5V78.783h1.12v11.718zm3.242 0H3.74V78.783h1.122l6.856 9.848v-9.847h1.122V90.5h-1.122l-6.98-9.848V90.5h.124zm9.723-3.24h1.122c0 .747.374 1.246.997 1.744a4.305 4.305 0 002.244.624c.873 0 1.62-.25 2.12-.624.622-.374.872-.997.872-1.62 0-.499-.25-.997-.623-1.371-.374-.374-.998-.624-1.87-.873l-1.496-.374c-1.122-.25-1.87-.623-2.369-1.122-.498-.498-.748-1.122-.748-1.87 0-.997.374-1.745 1.122-2.368.748-.623 1.745-.873 2.867-.873 1.122 0 2.12.25 2.867.873.748.623 1.122 1.371 1.247 2.368h-1.122c0-.623-.374-1.246-.872-1.62-.499-.374-1.247-.624-2.12-.624-.872 0-1.495.25-1.994.624-.499.374-.748.997-.748 1.62 0 .499.25.873.623 1.247.374.374.997.623 1.87.748l1.247.374c1.246.25 1.994.748 2.617 1.122.5.498.748 1.122.748 1.994 0 .997-.374 1.87-1.122 2.493-.747.624-1.87.873-3.116.873-1.247 0-2.244-.25-2.992-.873-.872-.623-1.246-1.496-1.37-2.493zm11.344-8.477v7.604c0 .997.25 1.745.873 2.368.623.623 1.495.873 2.493.873 1.122 0 1.87-.25 2.493-.873.623-.623.872-1.371.872-2.368v-7.605h1.122v7.605c0 1.246-.374 2.368-1.246 3.116-.873.748-1.87 1.122-3.366 1.122-1.371 0-2.493-.374-3.366-1.122-.872-.748-1.246-1.87-1.246-3.116v-7.605h1.37zm11.344.872v4.986h2.991c.873 0 1.496-.249 1.995-.623.499-.374.748-.997.748-1.87 0-.748-.25-1.371-.748-1.87-.499-.498-1.122-.623-1.995-.623h-2.991zm0 5.984v4.86H36.15V78.783h4.238c1.122 0 2.12.374 2.743.998.748.623.997 1.496.997 2.493 0 .873-.25 1.496-.623 2.12-.499.622-1.122.996-1.87 1.246l2.867 4.986h-1.247l-2.742-4.862h-3.241v-.124zm16.454 4.86l-1.246-3.615h-4.986L46.248 90.5h-1.246l4.362-11.718h1.122L54.849 90.5h-1.121zm-3.74-10.346l-2.118 5.859h4.238l-2.12-5.86zM57.344 90.5H56.22V78.783h1.122l6.856 9.848v-9.847h1.122V90.5h-1.122l-6.981-9.848V90.5h.125zm15.083.25c-1.62 0-2.867-.499-3.864-1.62-.998-1.123-1.371-2.619-1.371-4.489 0-1.87.498-3.365 1.37-4.363.998-1.121 2.245-1.62 3.865-1.62.873 0 1.62.124 2.244.498.748.374 1.247.748 1.745 1.372.499.623.748 1.246.873 1.994h-1.122c-.125-.872-.623-1.496-1.247-2.119-.872-.623-1.62-.873-2.493-.873-1.246 0-2.244.5-2.992 1.372-.748.872-1.122 2.119-1.122 3.615s.374 2.742 1.122 3.74c.748.872 1.746 1.37 2.992 1.37.997 0 1.745-.249 2.369-.747.623-.499 1.122-1.122 1.246-1.87h1.122c-.25 1.122-.748 1.994-1.62 2.742a5.17 5.17 0 01-3.117.998zm13.463-1.247v.997h-7.105V78.783h7.105v.998h-5.983v4.238h5.734v.997h-5.734v4.488h5.983zm10.347 1.247c-1.62 0-2.867-.499-3.865-1.62-.997-1.123-1.37-2.619-1.37-4.489 0-1.87.498-3.365 1.37-4.363.998-1.121 2.244-1.62 3.865-1.62.872 0 1.62.124 2.244.498.748.374 1.246.748 1.745 1.372.498.623.748 1.246.872 1.994h-1.121c-.125-.872-.624-1.496-1.247-2.119-.623-.623-1.496-.873-2.493-.873-1.247 0-2.244.5-2.992 1.372-.748.872-1.122 2.119-1.122 3.615s.374 2.742 1.122 3.74c.748.872 1.745 1.37 2.992 1.37.997 0 1.745-.249 2.368-.747.624-.499 1.122-1.122 1.247-1.87h1.122c-.25 1.122-.748 1.994-1.62 2.742-.749.624-1.746.998-3.117.998zm11.344-12.217c1.62 0 2.991.499 3.864 1.62.997 1.123 1.496 2.618 1.496 4.488 0 1.87-.499 3.366-1.496 4.488-.997 1.122-2.244 1.62-3.864 1.62-1.621 0-2.992-.498-3.865-1.62-.997-1.122-1.496-2.618-1.496-4.488 0-1.87.499-3.365 1.496-4.487.997-1.122 2.244-1.62 3.865-1.62zm3.116 2.369c-.748-.873-1.745-1.372-3.116-1.372-1.372 0-2.369.5-3.117 1.372-.748.872-1.122 2.119-1.122 3.74 0 1.495.374 2.742 1.122 3.614.748.873 1.745 1.372 3.117 1.372 1.246 0 2.368-.499 3.116-1.372.748-.872 1.122-2.119 1.122-3.615 0-1.62-.374-2.742-1.122-3.74zm15.333-2.12V90.5h-.997v-9.723l-4.114 9.599h-.997l-4.114-9.599V90.5h-.997V78.783h1.246l4.363 10.347 4.363-10.346h1.247zm2.244 0h4.238c1.122 0 1.995.374 2.743.998.747.623.997 1.62.997 2.618 0 1.121-.374 1.994-.997 2.617-.748.624-1.621.998-2.743.998h-3.116V90.5h-1.122V78.783zm1.122.873v5.36h2.867c.872 0 1.62-.249 2.119-.748.499-.498.748-1.121.748-1.994s-.249-1.496-.748-1.995c-.499-.498-1.247-.748-2.119-.748h-2.867v.125zM144.604 90.5l-1.247-3.615h-4.986l-1.247 3.615h-1.122l4.364-11.718h1.121L145.85 90.5h-1.246zm-3.865-10.346l-2.119 5.859h4.239l-2.12-5.86zm7.355 10.346h-1.122V78.783h1.122l6.856 9.848v-9.847h1.122V90.5h-1.122l-6.98-9.848V90.5h.124zm14.71 0h-1.122v-5.11l-4.238-6.732h1.246l3.491 5.61 3.49-5.61h1.247l-4.239 6.731V90.5h.125z"/></g><defs><clipPath id="clip0_2301_67847"><path fill="#fff" d="M0 0h190.726v91H0z"/></clipPath></defs></svg>