<svg width="303" height="45" fill="none" xmlns="http://www.w3.org/2000/svg"><path d="M16.573 26.522c0 1.239-1.11 2.134-2.642 2.134-1.822 0-3.118-1.279-3.118-3.075v-7.575h10.81v-6.632h-10.81v-4.74H3.609v4.74H0v6.632h3.609v7.575c0 5.78 4.317 9.95 10.234 9.95 5.672 0 9.7-3.787 9.7-8.998V24.87h-6.957v1.652h-.013zM33.62 15.347v-3.986h-7.204v23.69h7.204V23.447c0-3.176 2.499-5.451 5.906-5.451h4.419v-6.864H41.78c-3.398 0-6.272 1.586-8.16 4.215zm12.493-3.975v6.622h5.76V35.05h7.215V11.372H46.114zM54.76 0c-2.786 0-4.807 1.894-4.807 4.5 0 2.604 2.019 4.498 4.807 4.498 2.785 0 4.806-1.894 4.806-4.5C59.566 1.894 57.546 0 54.76 0zm23.92 10.892c-3.021 0-5.64 1.127-7.594 3.043v-2.563h-7.202V44.53h7.204V32.488c1.952 1.916 4.573 3.043 7.592 3.043 6.483 0 11.143-5.165 11.143-12.313 0-7.16-4.66-12.326-11.143-12.326zm-1.82 17.764c-3.364 0-5.76-2.275-5.76-5.449 0-3.176 2.398-5.451 5.76-5.451 3.364 0 5.762 2.275 5.762 5.449 0 3.176-2.4 5.451-5.762 5.451zm42.313-17.764c-3.343 0-6.161 1.423-7.972 3.754-1.808-2.342-4.628-3.754-7.969-3.754-5.816 0-10.035 4.17-10.035 9.95v14.207h7.204V21.17c0-2.078 1.488-3.6 3.508-3.6 2.165 0 3.697 1.565 3.697 3.744V35.05h7.204V21.315c0-2.18 1.532-3.744 3.696-3.744 2.021 0 3.508 1.511 3.508 3.6v13.882h7.205V20.846c-.011-5.782-4.23-9.952-10.046-9.952v-.002zm29.494 13.978c0 2.32-1.731 3.973-4.129 3.973-2.353 0-4.029-1.607-4.029-3.842V11.372h-7.204v13.98c0 5.92 3.941 10.179 9.414 10.179a8.364 8.364 0 005.961-2.42v1.94c0 1.937-1.877 3.315-4.419 3.315-2.164 0-3.752-.997-3.752-2.364h-6.97c0 5.212 4.562 8.998 10.9 8.998 6.583 0 11.432-4.17 11.432-9.95V11.373h-7.204V24.87zm29.304-10.956c-1.942-1.895-4.539-3.011-7.537-3.011-6.482 0-11.19 5.164-11.19 12.315 0 7.146 4.708 12.313 11.19 12.313 2.998 0 5.606-1.115 7.537-3.009v2.54h7.204V1.893h-7.204v12.02zM172.2 28.656c-3.364 0-5.762-2.275-5.762-5.449 0-3.176 2.4-5.451 5.762-5.451 3.364 0 5.76 2.275 5.76 5.449.011 3.176-2.398 5.451-5.76 5.451zm24.501-13.309v-3.986h-7.204v23.69h7.204V23.447c0-3.176 2.497-5.451 5.904-5.451h4.419v-6.864h-2.165c-3.396 0-6.272 1.586-8.158 4.215zm24.309-4.455c-7.104 0-12.3 5.11-12.3 12.358 0 7.29 5.284 12.27 13.067 12.27 6.814 0 11.677-3.786 11.677-8.998h-7.205c0 1.37-1.875 2.366-4.517 2.366-3.263 0-5.672-1.51-5.861-3.789h17.771c.045-.613.045-1.225.045-1.225 0-7.53-5.329-12.982-12.677-12.982zm-5.184 10.19c.245-2.178 2.542-3.787 5.428-3.787 2.831 0 5.096 1.607 5.33 3.786h-10.758zm38.996-7.168c-1.943-1.895-4.541-3.011-7.538-3.011-6.483 0-11.188 5.164-11.188 12.315 0 7.146 4.705 12.313 11.188 12.313 2.997 0 5.605-1.115 7.538-3.009v2.54h7.204v-23.69h-7.204v2.542zm-5.762 14.742c-3.362 0-5.76-2.275-5.76-5.449 0-3.176 2.398-5.451 5.76-5.451 3.364 0 5.762 2.275 5.762 5.449 0 3.176-2.398 5.451-5.762 5.451zm43.037-17.764c-3.341 0-6.161 1.423-7.969 3.754-1.809-2.342-4.629-3.754-7.969-3.754-5.818 0-10.046 4.17-10.046 9.95v14.207h7.202V21.17c0-2.078 1.489-3.6 3.508-3.6 2.166 0 3.696 1.565 3.696 3.744V35.05h7.205V21.315c0-2.18 1.532-3.744 3.696-3.744 2.021 0 3.508 1.511 3.508 3.6v13.882h7.204V20.846c.011-5.782-4.217-9.952-10.035-9.952v-.002z" fill="#8F9BB3"/></svg>