<svg width="228" height="90" fill="none" xmlns="http://www.w3.org/2000/svg"><path d="M0 23.576c0-1.982 1.094-2.972 2.983-2.972h31.933c1.99 0 2.983.99 2.981 2.972v2.49c0 1.986-.992 3.074-2.98 3.074H9.057v21.302h20.389c1.986 0 2.98.99 2.983 2.975v2.479c0 1.983-.997 3.074-2.983 3.074H9.058v22.504h25.858c1.998 0 2.981 1.089 2.981 3.072v2.477c0 1.984-.992 2.975-2.98 2.975H2.99c-1.889 0-2.983-.99-2.983-2.973L0 23.576zm56.491-2.972h2.983c1.997 0 3.084.99 3.084 2.972V54.31L85.83 22.687c.895-1.292 1.89-2.083 3.878-2.083h4.282c1.891 0 2.488 2.29 1.492 3.57L75.79 49.552 95.982 86.53c.794 1.486.097 3.468-1.893 3.468h-3.885c-2.09 0-3.082-.593-3.977-2.378L70.014 57.085l-7.456 9.718v20.222c0 1.982-1.093 2.973-3.084 2.973h-2.983c-1.89 0-2.983-.99-2.983-2.973V23.576c0-1.982 1.094-2.972 2.983-2.972zm63.745 8.523h-12.928c-1.997 0-2.985-1.088-2.985-3.072v-2.477c0-1.983.994-2.974 2.985-2.974h35.007c1.991 0 2.985.99 2.983 2.972v2.49c0 1.986-.992 3.074-2.983 3.074h-13.031v57.885c0 1.982-.994 2.973-2.985 2.973h-2.979c-1.999 0-3.082-.99-3.082-2.973l-.002-57.898zm36.791 11.701c0-14.176 8.951-21.315 20.887-21.315 11.933 0 20.884 7.14 20.884 21.315v46.2c0 1.981-.992 2.972-2.983 2.972h-2.985c-1.988 0-2.983-.99-2.983-2.972V66.604h-23.869v20.421c0 1.982-.992 2.973-2.983 2.973h-2.981c-1.988 0-2.985-.99-2.987-2.973V40.828zm8.951 17.25h23.869V41.722c0-10.211-5.37-13.681-11.933-13.681-6.566 0-11.936 3.47-11.936 13.68v16.357zM215.355 0a12.529 12.529 0 00-6.955 2.167 12.583 12.583 0 00-4.584 5.675 12.634 12.634 0 004.18 14.905 12.513 12.513 0 0012.274 1.494 12.555 12.555 0 005.619-4.645A12.634 12.634 0 00228 12.603a12.678 12.678 0 00-3.724-8.928A12.587 12.587 0 00215.355 0zm0 20.091a7.438 7.438 0 01-4.131-1.285 7.473 7.473 0 01-2.724-3.37 7.523 7.523 0 01-.402-4.32 7.5 7.5 0 012.051-3.818 7.434 7.434 0 019.099-1.107 7.472 7.472 0 012.36 2.26 7.517 7.517 0 011.256 4.152 7.545 7.545 0 01-1.276 4.17 7.51 7.51 0 01-3.368 2.757 7.43 7.43 0 01-2.865.561z" fill="#fff"/></svg>