<svg width="209" height="74" fill="none" xmlns="http://www.w3.org/2000/svg"><path d="M38.215 44.58c5.02 0 9.09-4.054 9.09-9.053 0-5-4.07-9.052-9.09-9.052s-9.09 4.052-9.09 9.052 4.07 9.052 9.09 9.052zm12.893-15.661c3.099 0 5.611-2.502 5.611-5.589 0-3.086-2.512-5.588-5.611-5.588-3.1 0-5.612 2.502-5.612 5.588 0 3.087 2.512 5.589 5.612 5.589zm-12.893-5.253c3.1 0 5.612-2.501 5.612-5.588 0-3.086-2.513-5.588-5.612-5.588-3.1 0-5.612 2.502-5.612 5.588 0 3.087 2.513 5.588 5.612 5.588zm-12.689 5.251c3.15 0 5.703-2.542 5.703-5.678s-2.553-5.678-5.703-5.678c-3.149 0-5.702 2.542-5.702 5.678s2.553 5.678 5.702 5.678zm-5.703 12.199c3.099 0 5.611-2.502 5.611-5.588 0-3.087-2.512-5.588-5.611-5.588-3.1 0-5.612 2.501-5.612 5.588 0 3.086 2.512 5.588 5.612 5.588zm5.331 13.312c3.13 0 5.667-2.527 5.667-5.644s-2.537-5.643-5.667-5.643-5.668 2.526-5.668 5.643 2.538 5.644 5.668 5.644zM38.215 59.4c3.1 0 5.612-2.501 5.612-5.587 0-3.087-2.513-5.588-5.612-5.588-3.1 0-5.612 2.502-5.612 5.588 0 3.086 2.513 5.588 5.612 5.588zM50.8 54.149c3.098 0 5.61-2.502 5.61-5.588 0-3.086-2.512-5.588-5.61-5.588-3.1 0-5.612 2.502-5.612 5.588 0 3.086 2.512 5.588 5.611 5.588zm9.165 8.593c2.429 0 4.398-1.96 4.398-4.38 0-2.419-1.97-4.38-4.398-4.38-2.43 0-4.399 1.961-4.399 4.38 0 2.42 1.97 4.38 4.399 4.38zm-21.75 8.862c2.457 0 4.45-1.984 4.45-4.431s-1.993-4.43-4.45-4.43-4.45 1.983-4.45 4.43c0 2.447 1.993 4.43 4.45 4.43zm-22.617-8.817c2.457 0 4.45-1.983 4.45-4.43 0-2.447-1.993-4.431-4.45-4.431-2.458 0-4.45 1.983-4.45 4.43 0 2.448 1.992 4.431 4.45 4.431zm-9.09-22.83c2.457 0 4.45-1.983 4.45-4.43 0-2.448-1.993-4.431-4.45-4.431s-4.45 1.983-4.45 4.43c0 2.447 1.993 4.431 4.45 4.431zm8.898-21.484c2.458 0 4.45-1.984 4.45-4.43 0-2.448-1.992-4.432-4.45-4.432-2.457 0-4.449 1.984-4.449 4.431s1.992 4.43 4.45 4.43zm22.809-9.612c2.457 0 4.45-1.983 4.45-4.43 0-2.447-1.993-4.431-4.45-4.431s-4.45 1.984-4.45 4.43c0 2.448 1.993 4.431 4.45 4.431zm22.422 9.278c2.457 0 4.45-1.984 4.45-4.43 0-2.448-1.993-4.432-4.45-4.432s-4.45 1.984-4.45 4.431 1.993 4.43 4.45 4.43zm14.644 32.239V21.031h5.574v29.347H75.28zm19.906 0V25.563h-9.62V21.03h24.812v4.532h-9.619v24.815h-5.573zm15.098-8.667V37.75h11.43v3.961h-11.43zm17.097 3.738V33.173h-3.81v-4.047h3.81v-5.808h5.001v5.808h4.667v4.047h-4.667v11.131c0 1.453.761 2.508 2.191 2.508.952 0 1.858-.347 2.238-.748l1.191 3.476c-.905.792-2.382 1.364-4.716 1.364-3.857.001-5.905-1.935-5.905-5.455zm12.763-5.719c0-6.07 4.528-11.13 11.81-11.13 7.383 0 11.859 5.06 11.859 11.13 0 6.116-4.477 11.176-11.859 11.176-7.286.001-11.81-5.06-11.81-11.175zm18.479 0c0-3.738-2.382-7.038-6.667-7.038-4.239 0-6.619 3.3-6.619 7.039 0 3.784 2.382 7.083 6.619 7.083 4.285.001 6.667-3.299 6.667-7.083zm25.766 10.647v-2.815c-1.668 1.716-4.529 3.344-8.144 3.344-4.954 0-7.383-2.377-7.383-6.732V29.127h5.001v13.375c0 3.3 1.81 4.312 4.62 4.312 2.525 0 4.716-1.32 5.906-2.775V29.123h5.001v21.254h-5.001zm11.477.002v-21.25h5.001v3.121c1.715-2.023 4.477-3.607 7.478-3.607v4.575a7.965 7.965 0 00-1.572-.132c-2.09 0-4.906 1.32-5.906 2.816v14.477h-5.001zM75.49 65.157v-6.944h5.067v6.944h-.419V58.61H75.91v6.547h-.419zM82 62.646a2.493 2.493 0 01.737-1.825 2.513 2.513 0 011.788-.745 2.523 2.523 0 011.788.745 2.504 2.504 0 01.736 1.825 2.585 2.585 0 01-.736 1.865 2.467 2.467 0 01-1.788.764 2.475 2.475 0 01-1.788-.764A2.593 2.593 0 0182 62.646zm.43 0a2.204 2.204 0 00.609 1.583 2.039 2.039 0 001.486.64 2.046 2.046 0 001.486-.64 2.21 2.21 0 00.61-1.583 2.116 2.116 0 00-1.29-2 2.08 2.08 0 00-2.292.462 2.121 2.121 0 00-.61 1.538zm5.963 2.512v-4.96h.41v3.53l-.03.81h.02c.228-.33.413-.6.555-.81l2.66-3.53h.38v4.96h-.409v-3.543l.03-.774h-.02c-.228.309-.413.566-.556.774l-2.66 3.541-.38.002zm6.075-.602c-.484-.48-.726-1.103-.726-1.87 0-.767.246-1.394.736-1.88a2.428 2.428 0 011.78-.73c.328 0 .653.061.96.179.3.109.57.29.784.526l-.253.337a1.913 1.913 0 00-.667-.462 2.07 2.07 0 00-.824-.174 2.007 2.007 0 00-1.481.61c-.403.408-.604.939-.604 1.593s.201 1.18.604 1.577a2.008 2.008 0 001.481.605c.309 0 .614-.065.897-.189.28-.117.53-.297.73-.526l.215.347a2.17 2.17 0 01-.804.566 2.64 2.64 0 01-1.038.208 2.449 2.449 0 01-1.79-.717zm4.876.602v-4.96h.41v2.196h.847l1.598-2.197h.517l-1.761 2.361v.02l1.959 2.58h-.536l-1.773-2.381h-.848v2.38h-.413zm7.027 0v-4.96h.41v3.53l-.029.81h.02l.555-.81 2.66-3.53h.375v4.96h-.409v-3.543l.029-.774h-.02c-.227.309-.412.566-.555.774l-2.656 3.543h-.38zm7.911-2.768a7.79 7.79 0 01.068-1.111c.047-.316.133-.625.258-.919.128-.302.319-.575.561-.798.28-.255.595-.468.936-.635l1.857-.943.185.367-1.89.953c-.579.291-.983.638-1.214 1.04a3.575 3.575 0 00-.414 1.533h.028c.387-.8 1.03-1.2 1.929-1.2a1.928 1.928 0 011.472.615c.387.41.58.97.58 1.677 0 .681-.2 1.237-.599 1.666a2.014 2.014 0 01-1.544.645c-.741 0-1.293-.264-1.657-.793-.364-.529-.549-1.228-.556-2.097zm.487.555c0 .595.164 1.066.493 1.414a1.694 1.694 0 001.222.518 1.704 1.704 0 001.223-.518c.328-.344.492-.806.492-1.388 0-.58-.16-1.043-.482-1.387a1.547 1.547 0 00-1.184-.516 1.643 1.643 0 00-1.277.541c-.327.367-.5.845-.483 1.336h-.004zm5.252 4.195v-6.944h.41v.593l-.029.397h.02c.137-.334.375-.617.682-.81.32-.2.693-.303 1.071-.296a1.867 1.867 0 011.539.71c.38.476.57 1.104.57 1.884 0 .78-.201 1.408-.604 1.885a1.949 1.949 0 01-1.559.715 1.858 1.858 0 01-1.711-1.12h-.019c.028.143.041.29.039.436v2.55h-.409zm.4-4.453a2.595 2.595 0 00.457 1.533 1.441 1.441 0 001.238.65 1.556 1.556 0 001.238-.59c.331-.394.497-.928.497-1.604 0-.66-.158-1.192-.473-1.592a1.48 1.48 0 00-1.222-.6 1.6 1.6 0 00-1.238.55c-.331.368-.497.918-.497 1.652zm4.882-.041a2.495 2.495 0 01.737-1.825 2.505 2.505 0 011.788-.745 2.526 2.526 0 012.524 2.57 2.585 2.585 0 01-.736 1.865 2.475 2.475 0 01-3.576 0 2.601 2.601 0 01-.557-.859 2.603 2.603 0 01-.18-1.006zm.429 0a2.213 2.213 0 00.609 1.583 2.04 2.04 0 001.487.64 2.043 2.043 0 001.486-.64 2.22 2.22 0 00.609-1.583 2.106 2.106 0 00-.609-1.538 2.066 2.066 0 00-1.486-.625 2.081 2.081 0 00-1.487.625 2.107 2.107 0 00-.609 1.538zm5.963 2.512v-4.96h.41v2.211h3.186v-2.212h.409v4.96h-.409v-2.362h-3.186v2.361l-.41.002zm5.7 0v-4.96h.409v3.53l-.029.81h.02c.228-.33.413-.6.555-.81l2.664-3.53h.379v4.96h-.408v-3.543l.029-.774h-.02c-.228.309-.413.566-.555.774l-2.66 3.541-.384.002zm5.691 1.982v-6.944h.41v.593l-.029.397h.02c.136-.334.375-.617.681-.81.321-.2.693-.303 1.072-.297a1.867 1.867 0 011.535.715c.38.476.57 1.105.57 1.885s-.201 1.408-.604 1.884a1.947 1.947 0 01-1.559.715 1.858 1.858 0 01-1.711-1.12h-.018c.028.143.042.29.039.436v2.55l-.406-.003zm.399-4.453a2.59 2.59 0 00.458 1.533 1.443 1.443 0 001.238.65 1.557 1.557 0 001.237-.591c.332-.393.497-.927.497-1.603 0-.661-.157-1.192-.472-1.592a1.49 1.49 0 00-1.223-.6 1.597 1.597 0 00-1.238.55c-.33.367-.495.918-.495 1.651l-.002.002zm4.883-.041a2.494 2.494 0 01.736-1.825 2.515 2.515 0 012.757-.551c.307.127.585.315.819.55a2.498 2.498 0 01.736 1.826 2.583 2.583 0 01-.736 1.865 2.465 2.465 0 01-1.788.764 2.48 2.48 0 01-1.788-.764 2.583 2.583 0 01-.736-1.865zm.428 0a2.195 2.195 0 00.61 1.583 2.046 2.046 0 002.972 0 2.204 2.204 0 00.61-1.583 2.124 2.124 0 00-.61-1.538 2.072 2.072 0 00-2.293-.462 2.123 2.123 0 00-1.291 2h.002zm5.964 2.512v-4.96h1.53c.5 0 .891.107 1.174.322.283.215.424.527.424.938 0 .548-.26.912-.779 1.091v.02c.295.047.565.196.76.422.189.223.289.507.282.799a1.225 1.225 0 01-.457.992c-.305.251-.731.377-1.277.377l-1.657-.001zm.41-2.758h1.14c.76 0 1.14-.314 1.14-.942 0-.59-.393-.884-1.178-.884h-1.101l-.001 1.826zm0 2.371h1.208c.897 0 1.345-.327 1.345-.981a.863.863 0 00-.348-.75c-.233-.168-.567-.253-1.004-.253h-1.198l-.003 1.984zm3.887-.935a1.48 1.48 0 01.439-1.077 1.67 1.67 0 01.482-.303c.174-.078.355-.14.541-.188.191-.045.385-.077.58-.095.228-.023.403-.036.526-.04.123-.003.273-.003.448 0h.322v-.168c0-.985-.445-1.478-1.335-1.478a2.213 2.213 0 00-1.394.477l-.232-.338c.214-.18.463-.315.731-.397.295-.099.604-.149.916-.149.565 0 .994.159 1.286.477.293.317.439.783.439 1.398v3.204h-.409V64.5l.039-.446h-.02c-.13.344-.355.645-.648.868a1.675 1.675 0 01-1.058.347 1.882 1.882 0 01-1.161-.372c-.328-.244-.492-.598-.492-1.061zm.428-.03a1.04 1.04 0 00.331.753 1.242 1.242 0 00.916.328 1.411 1.411 0 001.209-.65c.302-.425.462-.933.457-1.454v-.268h-.804c-.127 0-.309.013-.546.04a2.406 2.406 0 00-.58.115 3.758 3.758 0 00-.478.219.906.906 0 00-.375.366c-.089.17-.134.36-.129.552l-.001-.002zm4.97 1.352v-4.96h.41v2.211h3.186v-2.212h.409v4.96h-.409v-2.362h-3.186v2.361l-.41.002zm5.703 0v-4.96h.41v3.53l-.029.81h.02l.555-.81 2.66-3.53h.38v4.96h-.409v-3.543l.029-.774h-.02c-.227.309-.412.566-.555.774l-2.66 3.541-.381.002zm5.348-2.472c0-.807.232-1.444.697-1.91a2.265 2.265 0 011.675-.694c.63 0 1.119.217 1.466.65.357.46.541 1.03.522 1.612 0 .06-.007.149-.02.268h-3.907c0 .694.2 1.245.599 1.653a2 2 0 001.486.61 2.038 2.038 0 001.51-.626l.224.347c-.23.215-.5.384-.794.496a2.528 2.528 0 01-.941.189 2.444 2.444 0 01-1.788-.72c-.486-.483-.729-1.108-.729-1.875zm.457-.462h3.47c-.027-.575-.186-1.012-.478-1.31a1.453 1.453 0 00-1.091-.447 1.834 1.834 0 00-1.242.463c-.354.304-.573.734-.658 1.29l-.001.004zm8.916 2.933v-4.574h-1.852v-.388h4.113v.388h-1.852v4.573h-.409zm2.904 1.448c.164.152.38.237.604.238.387 0 .705-.297.954-.892l.349-.823-2.017-4.93h.439l1.608 3.957.175.463h.02c.045-.155.101-.309.166-.463l1.608-3.958h.439l-2.505 6.121c-.253.617-.665.925-1.237.925a1.22 1.22 0 01-.404-.069 1.034 1.034 0 01-.291-.14l-.097-.07.189-.359zm5.481.535v-6.944h.41v.593l-.029.397h.019c.137-.334.375-.617.682-.81.32-.2.693-.303 1.072-.297a1.867 1.867 0 011.535.715c.38.476.57 1.105.57 1.885s-.202 1.408-.604 1.884a1.947 1.947 0 01-1.56.715 1.852 1.852 0 01-1.71-1.12h-.02c.029.143.042.29.04.436v2.55l-.405-.003zm.399-4.453a2.59 2.59 0 00.458 1.533 1.436 1.436 0 001.237.65 1.554 1.554 0 001.238-.591c.331-.393.497-.927.497-1.603 0-.661-.157-1.192-.473-1.592a1.486 1.486 0 00-1.222-.6 1.605 1.605 0 00-1.238.55c-.328.367-.492.918-.492 1.651l-.005.002zm4.888-.041a2.495 2.495 0 01.737-1.825 2.505 2.505 0 011.788-.745 2.526 2.526 0 012.524 2.57 2.585 2.585 0 01-.736 1.865 2.475 2.475 0 01-3.576 0 2.601 2.601 0 01-.557-.859 2.603 2.603 0 01-.18-1.006zm.429 0a2.213 2.213 0 00.609 1.583 2.04 2.04 0 001.487.64 2.043 2.043 0 001.486-.64 2.22 2.22 0 00.609-1.583 2.106 2.106 0 00-.609-1.538 2.066 2.066 0 00-1.486-.625 2.081 2.081 0 00-1.487.625 2.107 2.107 0 00-.609 1.538zm5.963 2.512v-4.96h1.531c.5 0 .891.107 1.174.322.282.215.423.527.423.938 0 .548-.259.912-.779 1.091v.02c.296.047.565.196.761.422.189.223.289.507.282.799a1.225 1.225 0 01-.457.992c-.305.251-.731.377-1.278.377l-1.657-.001zm.41-2.758h1.14c.761 0 1.141-.314 1.141-.942 0-.59-.393-.884-1.179-.884h-1.101l-.001 1.826zm0 2.371h1.209c.896 0 1.345-.327 1.345-.981a.863.863 0 00-.349-.75c-.232-.168-.566-.253-1.003-.253h-1.203l.001 1.984z" fill="#314E81"/></svg>