<svg width="318" height="40" fill="none" xmlns="http://www.w3.org/2000/svg"><path fill-rule="evenodd" clip-rule="evenodd" d="M149.338 2.225l-9.729 26.637-8.852-25.55c-3.024 1.096-7.309 1.097-10.071.29l13.739 35.28h9.85l15.121-36.283c-2.777-.712-6.718-1.044-10.058-.374zm103.235 29.116l.007-4.055h13.611l3.036-8.165h-26.141v19.761h29.186v-7.54h-19.699zM11.63 4.212C7.079 6.02 2.905 5.68 0 5.13v8.27c5.115.9 10.178-.303 14.553-1.82 9.117-3.158 14.774-.526 16.666 0V3.116C27.304 1.922 20.723.602 11.631 4.212zM0 38.882h9.288l.022-9.864H27.7v-8.034H0v17.898zM178.722 2.548c-4.042 1.46-7.573 2.061-11.131 1.403v7.978c5.209 2.001 10.888-2.188 14.167-1.486 1.034 2.807 4.113 10.55 4.113 10.55H161.1l-.004 8.026h5.453l-4.245 9.864h9.747l3.89-9.864h13.036l3.809 9.864h10.109L186.953 1.057c-1.499.136-4.292.07-8.231 1.491zm40.942 1.108c-5.353 1.88-10.446 2.473-17.693-.61v8.601c4.034 1.545 9.587 1.994 12.28 1.549v25.687h9.486v-27.7c3.61-1.268 7.131-1.69 11.248-.375v-8.62a27.55 27.55 0 00-5.455-.526c-2.19 0-5.932.612-9.866 1.994zm35.792.311c-6.17 2.085-9.557 1.028-12.37.26v8.18c5.332.902 7.899.987 15.232-1.116 6.427-1.842 9.59-1.697 13.954-.68V2.455c-3.692-.35-7.486-1.642-16.816 1.513zM116.97 15.9c0-4.956-3.143-10.247-9.157-12.763-6.339-2.654-12.193-1.053-17.723.65-5.373 1.654-9.392 1.075-11.656.621v7.83c7.037 1.313 13.019-.643 17.903-2.06 7.263-2.105 11.602 1.91 11.602 5.645 0 4.144-4.13 5.301-6.064 5.301h-22.55l2.785 8.025h3.383v9.864h9.487V29.15h7.126l5.212 9.864h10.73l-7.263-11.98c2.796-1.704 6.185-4.905 6.185-11.133zm193.249 9.43c5.193-2.369 6.59-7.434 6.59-11.002 0-4.393-2.915-13.101-14.686-13.101-8.456 0-11.886 4.386-22.266 2.894v8.158c6.418 1.17 10.769.09 15.182-1.402 2.858-.966 12.966-2.721 12.966 3.972 0 3.37-3.498 4.272-6.281 4.272l-21.492-.007v8.173h4.07v11.595h9.486V27.287h7.465l5.914 11.595h10.731l-7.679-13.552zM50.25 3.14c-5.023 2.066-10.236 2.321-10.236 2.321v8.25c7.924 0 15.863-4.852 16.847-2.798l3.845 10.08H36.885v8.025h4.551l-4.25 9.866h9.745l3.895-9.866h13.03l3.81 9.866h10.11L62.002 1.316C57.91.735 55.4 1.02 50.25 3.14z" fill="#00AEEF"/></svg>