<svg width="96" height="96" fill="none" xmlns="http://www.w3.org/2000/svg"><path d="M48 96c-26.88 0-34.117-1.359-40.38-7.62C1.33 82.072 0 74.88 0 48 0 21.12 1.359 13.927 7.62 7.62 13.884 1.36 21.12 0 48 0c26.88 0 34.117 1.359 40.38 7.62C94.67 13.928 96 21.12 96 48c0 26.88-1.33 34.073-7.62 40.38C82.116 94.64 74.88 96 48 96z" fill="#000"/><path d="M66.832 47.955c-1.832 0-3.028-1.212-3.028-2.999 0-1.757 1.211-2.953 3.028-2.953h4.785v5.952h-4.785zm8.788-9.408h-9.26c-3.93 0-6.617 2.57-6.617 6.262 0 2.924 1.668 5.14 4.312 5.907l-5.05 7.695h4.474l4.55-7h3.573v7h4.017V38.547zM25.522 43.76v-5.996h7.784v17h-9.763c1.049-1.832 1.98-6.071 1.98-11.004zm11.904-9.836H21.55v9.999c0 5.095-.9 9.068-2.097 10.855h-1.905v9.068h3.928v-5.361h14.858v5.361h3.929v-9.068h-2.836V33.924zm11.978 21.12l-.354-.236 4.637-16.261H44.31l-1.005 3.618 5.45-.044-3.544 12.406c-.62 2.26.9 4.357 3.382 4.357.783 0 1.55-.192 2.407-.739l6.38-4.312-1.949-2.88-6.026 4.09zm2.718-20.234c1.979 0 2.806-.739 2.806-2.496 0-1.831-.857-2.57-2.806-2.57-1.95 0-2.806.739-2.806 2.57.014 1.758.827 2.496 2.806 2.496z" fill="#fff"/></svg>