<svg width="248" height="72" fill="none" xmlns="http://www.w3.org/2000/svg"><path d="M84.972 21.456v5.202c1.955-3.258 4.96-5.58 9.43-5.58.544 0 .978.036 1.413.126v8.766h-1.412c-6.1 0-9.431 3.132-9.431 10.188v8.514h-8.726V21.456h8.726zm-68.626 27.27l4.96-14.742 4.906 14.742h7.567l8.78-27.252h-8.563l-4.471 14.688-5.178-14.688h-6.154l-5.16 14.616-4.47-14.634H0l8.78 27.252h7.566v.018zM118.044 32.85l10.083-11.376h-10.191l-9.866 10.89V6.93h-8.725v41.724h8.725v-4.608l4.145-4.662 7.296 9.27h10.734L118.044 32.85zm-45.328 2.214c0 8.622-6.86 14.364-14.988 14.364-8.29 0-15.152-5.742-15.152-14.364 0-8.568 6.861-14.31 15.152-14.31 8.128 0 14.988 5.742 14.988 14.31zm-8.399 0c0-4.23-3.222-7.038-6.59-7.038-3.547 0-6.751 2.808-6.751 7.038 0 4.284 3.222 7.038 6.752 7.038 3.385 0 6.59-2.754 6.59-7.038zM57.656 7.992c7.005 0 13.612 2.7 18.59 7.596L81.894 9.9C75.396 3.51 66.78 0 57.655 0c-9.123 0-17.74 3.51-24.238 9.918l5.648 5.688c4.978-4.914 11.585-7.614 18.59-7.614zm152.293 18.576v-5.202h-8.725v27.198h8.725V40.05c0-7.038 3.331-10.188 9.431-10.188h1.412v-8.766a8.22 8.22 0 00-1.412-.126c-4.489.018-7.476 2.358-9.431 5.598zm35.77 13.986c-1.14.648-2.77 1.08-3.982 1.08-2.281 0-3.657-1.134-3.657-3.96v-9.432h8.074v-6.876h-8.074v-9.108h-8.725v9.108h-4.96v6.876h4.96v10.296c0 7.146 4.091 10.836 10.897 10.836 3.114 0 5.34-.864 7.458-1.998l-1.991-6.822zm-80.917-5.58c0-8.568-6.1-14.418-13.359-14.418-3.548 0-6.372 1.08-8.508 2.988v-2.178h-8.725v40.212h8.725V46.404c2.118 1.908 4.96 2.988 8.508 2.988 7.259-.018 13.359-5.814 13.359-14.418zm-21.849 0c0-4.176 3.168-7.038 6.698-7.038 3.819 0 6.589 2.88 6.589 7.038 0 4.23-2.77 7.038-6.589 7.038-3.53 0-6.698-2.808-6.698-7.038zm39.716-14.31c-8.291 0-15.151 5.742-15.151 14.31 0 8.622 6.86 14.364 15.151 14.364 8.128 0 14.989-5.742 14.989-14.364 0-8.568-6.879-14.31-14.989-14.31zm0 21.348c-3.548 0-6.752-2.754-6.752-7.038 0-4.23 3.222-7.038 6.752-7.038 3.385 0 6.589 2.808 6.589 7.038 0 4.284-3.222 7.038-6.589 7.038zm-16.726 20.43c-4.653 0-9.051-1.8-12.364-5.058l-5.648 5.688c4.833 4.752 11.223 7.38 18.012 7.38 6.788 0 13.196-2.61 18.03-7.38l-5.648-5.688a17.621 17.621 0 01-12.382 5.058z" fill="url(#paint0_radial_939_31850)"/><defs><radialGradient id="paint0_radial_939_31850" cx="0" cy="0" r="1" gradientUnits="userSpaceOnUse" gradientTransform="matrix(197.837 0 0 196.72 21.096 -28.8)"><stop stop-color="#1595FF"/><stop offset="1" stop-color="#0057FF"/></radialGradient></defs></svg>