<svg width="251" height="88" fill="none" xmlns="http://www.w3.org/2000/svg"><path d="M44.397 54.218c6.096 0 11.037-4.93 11.037-11.01s-4.941-11.01-11.037-11.01c-6.095 0-11.036 4.93-11.036 11.01s4.94 11.01 11.036 11.01zm15.655-19.046c3.763 0 6.814-3.043 6.814-6.796 0-3.754-3.05-6.797-6.814-6.797-3.762 0-6.813 3.043-6.813 6.796 0 3.754 3.05 6.797 6.813 6.797zm-15.655-6.389c3.763 0 6.813-3.043 6.813-6.796 0-3.754-3.05-6.797-6.813-6.797s-6.813 3.043-6.813 6.797c0 3.753 3.05 6.796 6.813 6.796zM28.993 35.17c3.824 0 6.923-3.092 6.923-6.906 0-3.814-3.1-6.906-6.923-6.906s-6.923 3.092-6.923 6.906c0 3.814 3.1 6.906 6.923 6.906zm-6.924 14.835c3.763 0 6.813-3.043 6.813-6.797 0-3.753-3.05-6.796-6.813-6.796s-6.813 3.043-6.813 6.796c0 3.754 3.05 6.797 6.813 6.797zm6.471 16.191c3.801 0 6.882-3.073 6.882-6.863 0-3.791-3.081-6.864-6.881-6.864-3.8 0-6.881 3.073-6.881 6.864 0 3.79 3.08 6.863 6.88 6.863zm15.857 6.049c3.763 0 6.813-3.043 6.813-6.797 0-3.753-3.05-6.796-6.813-6.796s-6.813 3.043-6.813 6.796c0 3.754 3.05 6.797 6.813 6.797zm15.28-6.389c3.763 0 6.814-3.043 6.814-6.796 0-3.754-3.05-6.797-6.814-6.797-3.762 0-6.813 3.043-6.813 6.797 0 3.753 3.05 6.796 6.813 6.796zm11.127 10.451c2.95 0 5.34-2.385 5.34-5.327a5.333 5.333 0 00-5.34-5.327 5.333 5.333 0 00-5.34 5.327 5.334 5.334 0 005.34 5.327zM44.397 87.085a5.395 5.395 0 005.402-5.389 5.395 5.395 0 00-5.402-5.389 5.395 5.395 0 00-5.402 5.39c0 2.975 2.419 5.388 5.402 5.388zM16.939 76.362a5.395 5.395 0 005.402-5.388 5.395 5.395 0 00-5.402-5.39 5.395 5.395 0 00-5.402 5.39c0 2.976 2.418 5.388 5.402 5.388zM5.902 48.597a5.395 5.395 0 005.402-5.388 5.395 5.395 0 00-5.402-5.39A5.395 5.395 0 00.5 43.21a5.395 5.395 0 005.402 5.388zm10.804-26.129a5.395 5.395 0 005.402-5.389 5.395 5.395 0 00-5.402-5.389 5.395 5.395 0 00-5.402 5.389c0 2.976 2.419 5.389 5.402 5.389zm27.691-11.691A5.395 5.395 0 0049.8 5.39 5.395 5.395 0 0044.397 0a5.395 5.395 0 00-5.402 5.389 5.395 5.395 0 005.402 5.388zM71.62 22.06a5.395 5.395 0 005.402-5.389c0-2.976-2.418-5.388-5.402-5.388a5.395 5.395 0 00-5.402 5.388 5.395 5.395 0 005.402 5.389zM89.4 61.27V25.578h6.766V61.27H89.4zm24.17 0V31.09h-11.681v-5.512h30.125v5.511h-11.679V61.27h-6.765zm18.329-10.54v-4.817h13.877v4.818h-13.877zm20.758 4.547v-14.93h-4.625v-4.922h4.625V28.36h6.072v7.064h5.667v4.922h-5.667v13.538c0 1.766.924 3.05 2.66 3.05 1.156 0 2.255-.422 2.718-.91l1.445 4.227c-1.098.963-2.892 1.66-5.725 1.66-4.683 0-7.17-2.355-7.17-6.635zm15.495-6.957c0-7.384 5.498-13.538 14.34-13.538 8.963 0 14.398 6.154 14.398 13.538 0 7.438-5.436 13.592-14.398 13.592-8.846.001-14.34-6.154-14.34-13.592zm22.436 0c0-4.547-2.891-8.56-8.095-8.56-5.145 0-8.035 4.013-8.035 8.56 0 4.603 2.891 8.615 8.035 8.615 5.204.002 8.095-4.012 8.095-8.615zm31.282 12.95v-3.424c-2.024 2.087-5.498 4.067-9.887 4.067-6.014 0-8.963-2.89-8.963-8.187V35.425h6.071v16.267c0 4.014 2.198 5.244 5.609 5.244 3.065 0 5.725-1.606 7.17-3.375v-18.14h6.072v25.85h-6.072zm13.935 0V35.425h6.072v3.797c2.082-2.461 5.436-4.388 9.079-4.388V40.4a9.672 9.672 0 00-1.909-.16c-2.538 0-5.956 1.605-7.17 3.424V61.27h-6.072zM89.655 79.245V70.8h6.152v8.446h-.509v-7.963h-5.134v7.963h-.509zm7.903-3.053a3.036 3.036 0 01.894-2.22 3.052 3.052 0 013.347-.67c.373.155.711.383.995.67a3.041 3.041 0 01.893 2.22 3.142 3.142 0 01-.893 2.268 3.001 3.001 0 01-4.342 0 3.153 3.153 0 01-.894-2.268zm.52 0a2.684 2.684 0 00.74 1.925 2.478 2.478 0 003.609 0 2.691 2.691 0 00.74-1.925 2.584 2.584 0 00-.74-1.87 2.511 2.511 0 00-1.804-.76 2.522 2.522 0 00-1.805.76 2.58 2.58 0 00-.74 1.87zm7.24 3.053v-6.033h.498v4.295l-.035.984h.024l.674-.984 3.229-4.295h.461v6.033h-.496v-4.309l.035-.94h-.024c-.276.374-.501.688-.674.94l-3.229 4.307-.463.002zm7.378-.731c-.588-.583-.882-1.341-.882-2.274s.298-1.695.894-2.287a2.96 2.96 0 012.16-.887c.399 0 .794.074 1.166.216.365.133.692.353.953.64l-.308.41a2.32 2.32 0 00-.81-.562 2.514 2.514 0 00-1-.21 2.432 2.432 0 00-1.798.742c-.489.495-.734 1.14-.734 1.936s.245 1.436.734 1.918a2.436 2.436 0 001.798.736c.375 0 .746-.079 1.089-.23.34-.142.644-.36.886-.64l.261.423a2.65 2.65 0 01-.975.688 3.202 3.202 0 01-1.261.253 2.97 2.97 0 01-2.173-.872zm5.92.731v-6.033h.498v2.672h1.029l1.94-2.672h.627l-2.137 2.872v.024l2.378 3.137h-.651l-2.153-2.896h-1.029v2.896h-.502zm8.53 0v-6.033h.498v4.295l-.035.984h.024l.674-.984 3.229-4.295h.456v6.033h-.497v-4.309l.036-.94h-.024c-.277.374-.501.688-.674.94l-3.226 4.309h-.461zm9.606-3.367a9.542 9.542 0 01.084-1.351 4.52 4.52 0 01.313-1.117c.155-.368.387-.7.68-.971.341-.31.723-.57 1.137-.772l2.255-1.147.224.446-2.295 1.159c-.702.354-1.193.776-1.473 1.266a4.358 4.358 0 00-.503 1.864h.034c.47-.973 1.251-1.46 2.343-1.46a2.335 2.335 0 011.786.749c.47.499.705 1.178.705 2.039 0 .829-.243 1.504-.728 2.026a2.437 2.437 0 01-1.875.785c-.899 0-1.57-.322-2.011-.965-.442-.643-.667-1.493-.676-2.55zm.592.675c0 .724.2 1.297.598 1.72a2.06 2.06 0 002.291.466 2.06 2.06 0 00.678-.466c.399-.418.598-.98.598-1.687 0-.707-.195-1.27-.585-1.688a1.895 1.895 0 00-1.438-.627 1.994 1.994 0 00-1.551.658 2.321 2.321 0 00-.586 1.624h-.005zm6.377 5.105v-8.446h.497v.721l-.035.483h.024c.166-.406.455-.75.828-.985.389-.244.841-.37 1.301-.361a2.26 2.26 0 011.868.864c.461.579.692 1.343.692 2.292 0 .948-.245 1.713-.733 2.292a2.359 2.359 0 01-1.894.869 2.252 2.252 0 01-2.076-1.363h-.024c.035.175.051.353.048.532v3.1l-.496.002zm.485-5.417a3.155 3.155 0 00.555 1.865 1.74 1.74 0 001.503.79 1.883 1.883 0 001.503-.719c.402-.478.603-1.127.603-1.949 0-.804-.191-1.45-.574-1.936a1.8 1.8 0 00-1.484-.73 1.937 1.937 0 00-1.503.67c-.402.446-.603 1.115-.603 2.008v.001zm5.928-.049a3.041 3.041 0 01.893-2.22 3.053 3.053 0 013.348-.67c.373.155.711.383.994.67a3.03 3.03 0 01.894 2.22 3.16 3.16 0 01-.894 2.268 2.997 2.997 0 01-4.342 0 3.152 3.152 0 01-.893-2.268zm.52 0a2.677 2.677 0 00.74 1.925 2.473 2.473 0 001.804.778 2.482 2.482 0 001.805-.778 2.692 2.692 0 00.74-1.925 2.584 2.584 0 00-.74-1.87 2.522 2.522 0 00-3.609 0 2.57 2.57 0 00-.74 1.87zm7.24 3.053v-6.033h.498v2.69h3.868v-2.69h.496v6.033h-.496v-2.873h-3.868v2.871l-.498.002zm6.92 0v-6.033h.498v4.295l-.035.984h.024l.674-.984 3.234-4.295h.461v6.033h-.497v-4.309l.036-.94h-.024c-.277.374-.501.688-.674.94l-3.23 4.307-.467.002zm6.91 2.413v-8.446h.497v.722l-.035.482h.024c.166-.406.455-.75.828-.984.389-.245.841-.37 1.301-.362a2.26 2.26 0 011.863.87c.462.579.693 1.343.693 2.291 0 .95-.245 1.713-.734 2.293a2.354 2.354 0 01-1.893.869 2.206 2.206 0 01-1.23-.362 2.246 2.246 0 01-.846-1.001h-.023c.035.175.051.353.048.532v3.1l-.493-.004zm.485-5.417a3.155 3.155 0 00.555 1.865 1.74 1.74 0 001.503.79 1.885 1.885 0 001.503-.718c.402-.478.603-1.128.603-1.95 0-.804-.191-1.45-.574-1.936a1.803 1.803 0 00-1.484-.73 1.935 1.935 0 00-1.503.67c-.401.446-.602 1.115-.602 2.008l-.001.001zm5.927-.049a3.033 3.033 0 01.894-2.22 3.06 3.06 0 013.347-.67c.373.155.711.383.995.67a3.05 3.05 0 01.894 2.22 3.143 3.143 0 01-.894 2.268 3.001 3.001 0 01-4.342 0 3.155 3.155 0 01-.894-2.268zm.52 0a2.696 2.696 0 00.74 1.925 2.487 2.487 0 002.788.576c.31-.134.59-.33.821-.576a2.692 2.692 0 00.74-1.925 2.566 2.566 0 00-.74-1.87 2.511 2.511 0 00-1.804-.76 2.523 2.523 0 00-1.805.76 2.57 2.57 0 00-.743 1.87h.003zm7.241 3.053v-6.033h1.858c.607 0 1.082.13 1.425.392.343.262.515.642.515 1.14 0 .668-.316 1.11-.946 1.328v.024c.359.057.686.24.923.514.229.271.351.617.343.971a1.482 1.482 0 01-.556 1.207c-.37.306-.887.458-1.55.458l-2.012-.001zm.498-3.354h1.384c.923 0 1.384-.382 1.384-1.146 0-.716-.477-1.075-1.431-1.075h-1.336l-.001 2.221zm0 2.884h1.467c1.088 0 1.633-.398 1.633-1.194a1.051 1.051 0 00-.423-.91c-.282-.206-.688-.309-1.218-.309h-1.455l-.004 2.413zm4.719-1.136a1.811 1.811 0 01.154-.76c.089-.207.218-.393.379-.55.172-.155.37-.28.585-.368.212-.094.432-.171.657-.229.232-.054.467-.093.705-.115a9.26 9.26 0 01.638-.048c.15-.004.331-.004.544 0h.391v-.205c0-1.199-.54-1.798-1.621-1.798a2.684 2.684 0 00-1.692.58l-.282-.41a2.54 2.54 0 01.887-.483 3.53 3.53 0 011.112-.182c.686 0 1.207.194 1.562.58.355.386.533.953.533 1.701v3.897h-.496v-.801l.046-.543h-.024a2.39 2.39 0 01-.786 1.056 2.032 2.032 0 01-1.285.422 2.28 2.28 0 01-1.409-.453c-.399-.297-.598-.728-.598-1.291zm.52-.037a1.25 1.25 0 00.402.917 1.51 1.51 0 001.112.398 1.718 1.718 0 001.468-.79 3.001 3.001 0 00.555-1.768v-.326h-.977c-.154 0-.375.016-.662.048-.24.017-.477.065-.705.14a4.555 4.555 0 00-.58.266c-.192.1-.351.256-.455.446a1.35 1.35 0 00-.156.67h-.002zm6.034 1.643v-6.033h.498v2.69h3.868v-2.69h.496v6.033h-.496v-2.873h-3.868v2.871l-.498.002zm6.924 0v-6.033h.498v4.295l-.035.984h.024c.276-.402.501-.73.673-.984l3.23-4.295h.461v6.033h-.496v-4.309l.035-.94h-.024c-.276.374-.501.688-.674.94l-3.229 4.307-.463.002zm6.492-3.005c0-.982.282-1.756.846-2.323a2.758 2.758 0 012.034-.844c.765 0 1.359.263 1.781.79.433.56.657 1.254.633 1.96 0 .073-.008.181-.024.327h-4.744c0 .843.243 1.513.728 2.01a2.412 2.412 0 001.804.742 2.472 2.472 0 001.833-.761l.272.422a2.963 2.963 0 01-.964.603c-.363.149-.75.227-1.142.23a2.965 2.965 0 01-2.171-.875c-.59-.588-.886-1.348-.886-2.281zm.556-.563h4.212c-.032-.7-.225-1.23-.579-1.593a1.78 1.78 0 00-1.325-.543 2.228 2.228 0 00-1.509.563c-.429.37-.695.893-.798 1.57l-.001.003zm10.826 3.568v-5.563h-2.248v-.471h4.993v.47h-2.248v5.563h-.497zm3.525 1.76c.199.185.461.288.733.29.469 0 .856-.362 1.158-1.085l.423-1.002-2.448-5.996h.532l1.953 4.814.213.562h.024c.055-.187.122-.375.201-.562l1.953-4.814h.533l-3.041 7.445c-.307.75-.808 1.125-1.503 1.125-.167 0-.333-.03-.49-.085a1.252 1.252 0 01-.353-.17l-.118-.084.23-.438zm6.655.653v-8.446h.498v.722l-.036.482h.024c.166-.406.456-.75.828-.984.389-.245.841-.37 1.301-.362a2.258 2.258 0 011.864.87c.461.579.692 1.343.692 2.291 0 .95-.244 1.713-.733 2.293a2.358 2.358 0 01-1.893.869 2.252 2.252 0 01-2.077-1.363h-.024c.035.175.051.353.048.532v3.1l-.492-.004zm.485-5.417a3.155 3.155 0 00.555 1.865 1.75 1.75 0 001.503.79 1.892 1.892 0 001.503-.718c.402-.478.603-1.128.603-1.95 0-.804-.191-1.45-.573-1.936a1.798 1.798 0 00-1.485-.73 1.941 1.941 0 00-1.503.67c-.398.446-.597 1.115-.597 2.008l-.006.001zm5.933-.049a3.05 3.05 0 01.894-2.22 3.06 3.06 0 013.347-.67c.373.155.711.383.995.67a3.044 3.044 0 01.894 2.22 3.143 3.143 0 01-.894 2.268 3.001 3.001 0 01-4.342 0 3.152 3.152 0 01-.894-2.268zm.52 0a2.696 2.696 0 00.741 1.925 2.473 2.473 0 001.804.778 2.482 2.482 0 001.804-.778 2.68 2.68 0 00.741-1.925 2.585 2.585 0 00-1.566-2.433 2.522 2.522 0 00-2.783.563 2.589 2.589 0 00-.741 1.87zm7.241 3.053v-6.033h1.858c.607 0 1.082.13 1.425.392.344.262.515.642.515 1.14 0 .668-.315 1.11-.946 1.328v.024c.359.057.686.24.923.514.23.271.352.617.343.971a1.495 1.495 0 01-.555 1.207c-.371.306-.888.458-1.551.458l-2.012-.001zm.498-3.354h1.384c.923 0 1.385-.382 1.385-1.146 0-.716-.477-1.075-1.431-1.075h-1.337l-.001 2.221zm0 2.884h1.467c1.089 0 1.633-.398 1.633-1.194a1.051 1.051 0 00-.423-.91c-.282-.206-.688-.309-1.218-.309h-1.461l.002 2.413z" fill="#8F9BB3"/></svg>