<svg width="261" height="62" fill="none" xmlns="http://www.w3.org/2000/svg"><path d="M15.458 9.28c0 16.37-13.63 19.433-13.63 35.168 0 6.142 3.848 11.462 8.39 12.098-.332-1.12-.44-1.985-.44-3.194 0-11.358 18.145-14.88 18.145-34.251 0-9.264-6.494-17.095-14.07-18.955 0 0 1.6 5.028 1.6 9.129l.005.005z" fill="#FF2F2B"/><path d="M14.309 54.039c0 3.214 2.263 6.637 5.214 7.752-.155-.474-.227-.89-.227-1.589 0-6.33 18.611-8.346 18.611-24.889 0-4.574-1.9-9.54-5.665-12.795-2.548 18.803-17.933 21.392-17.933 31.52z" fill="#6EC248"/><path d="M4.557 5.398s.896 1.62.896 3.429C5.453 14.636 0 16.85 0 22.753c0 2.788 1.507 5.075 3.635 6.403.057-.505.11-.98.239-1.375 1.273-4.1 7.25-8.638 7.25-15.073 0-3.855-3.18-7.028-6.567-7.31z" fill="#33ADE1"/><path d="M63.759 39.138c3.526 3.2 6.872 5.08 11.698 5.08 2.678 0 7.556-1.136 7.556-4.679 0-2.047-1.533-3.084-4.531-3.595l-8.416-1.375c-7.488-1.193-11.584-5.195-11.584-11.191 0-9.816 7.897-13.88 16.53-13.88 6.701 0 13.293 2.74 17.83 7.826l-7.67 5.538c-2.672-3.256-6.592-5.148-10.849-5.148-2.315 0-5.732 1.485-5.732 4.116 0 2.168 1.765 3.257 5.618 3.887l3.874.625C86.14 27.655 92.79 30.167 92.79 37.93c0 12.228-10.968 14.521-18.514 14.521-6.866 0-13.314-2.235-18.829-8.284l8.312-5.028zm53.893 13.317c-12.9 0-20.45-10.06-20.45-21.491 0-11.41 7.55-21.466 20.45-21.466 12.885 0 20.43 10.056 20.43 21.466 0 11.425-7.551 21.491-20.43 21.491zm0-34.397c-5.914 0-10.336 3.777-10.336 12.906 0 5.95 2.387 12.92 10.336 12.92 7.488 0 10.332-6.632 10.332-12.92 0-6.393-2.844-12.906-10.332-12.906zm53.485 6.122c-1.425-3.777-4.889-6.127-8.421-6.127-5.551 0-9.974 3.788-9.974 12.916 0 5.944 2.382 12.916 10.337 12.916 2.724 0 6.701-2.053 8.285-5.716l8.006 3.887c-3.464 6.34-9.481 10.394-16.291 10.394-12.9 0-20.456-10.056-20.456-21.481 0-11.41 7.048-21.466 19.653-21.466 7.944 0 13.164 3.882 16.918 10.613l-8.057 4.064zm23.966-13.53h10.445l15.277 40.654h-10.854l-2.041-6.393h-14.924l-2.051 6.393h-10.777l14.925-40.655zm10.383 26.717l-4.987-16.787h-.109l-5.002 16.787h10.098zm19.347-26.723h20.212c9.089 0 14.661 4.23 14.661 13.359 0 5.262-3.299 9.477-8.359 10.967l9.27 16.334h-11.31l-7.949-14.62h-6.411v14.62h-10.114v-40.66zm10.114 18.486h9.254c3.237-.047 5.396-1.694 5.396-5.47 0-3.778-2.159-5.43-5.396-5.487h-9.254V29.13z" fill="#0C0C0C"/></svg>