<svg width="339" height="33" fill="none" xmlns="http://www.w3.org/2000/svg"><path fill-rule="evenodd" clip-rule="evenodd" d="M53.897 5.46v21.85h14.651v-4.328h-9.203V5.46h-5.448zm30.297 21.85V11.585h-5.121v9.106c0 2.13-.849 3.24-2.541 3.24-1.6 0-2.248-.949-2.253-3.24v-9.106h-5.121v9.302c0 2.59.097 3.177.78 4.357.917 1.572 2.712 2.492 4.93 2.492 1.796 0 3.225-.627 4.498-1.968l.165 1.542h4.663zM95.406 5.46h-2.804c-4.014-.005-5.55 1.537-5.55 5.664v.46h-2.22v3.472h2.22V27.31h5.126V15.056h3.033v-3.471h-3.033v-.46c0-1.739.488-2.194 2.38-2.194h.848V5.46zm2.741 1.21v4.915h-2.155v3.47h2.155v7.633c.005 3.212 1.376 4.617 4.405 4.622h3.852v-3.603h-1.009c-1.961-.005-2.088-.133-2.122-2.424v-6.227h2.902v-3.471h-2.902V6.668h-5.126zm9.404-1.21v21.85h5.121v-8.915c0-2.16.848-3.276 2.545-3.276 1.566 0 2.249 1.019 2.249 3.276v8.915h5.096v-9.106c0-2.625-.097-3.28-.785-4.49-.946-1.67-2.677-2.59-4.828-2.59-1.995 0-3.331.69-4.277 2.233V5.46h-5.121zm33.267 6.125V27.31h5.125v-8.915c0-2.16.844-3.276 2.507-3.276 1.6 0 2.253.95 2.253 3.276v8.915h5.126v-9.106c0-2.59-.131-3.28-.785-4.49-.912-1.64-2.677-2.59-4.862-2.59-1.893 0-3.327.69-4.536 2.233l-.161-1.772h-4.667zm30.662 4.91c-.132-1.733-.2-1.998-.653-2.78-1.044-1.9-3.068-2.787-6.336-2.787-4.662 0-7.506 2.062-7.506 5.47 0 2.491 1.605 3.833 5.321 4.489l1.634.264c1.99.357 2.838.881 2.838 1.802 0 .88-.912 1.44-2.414 1.44-1.731 0-2.809-.819-2.809-2.13v-.197h-4.989c0 3.8 2.872 5.895 8.125 5.895 4.438 0 7.277-2.13 7.277-5.468 0-2.723-1.727-4.29-5.448-4.916l-1.761-.328c-1.702-.26-2.453-.72-2.453-1.474 0-.817.785-1.307 2.058-1.307 1.566 0 2.185.558 2.317 2.027h4.799zm-42.48.103h-4.662c0-3.57 2.775-5.67 7.408-5.67 4.858 0 7.277 2.032 7.277 6.16v8.024c0 1.376 0 1.376.424 2.198h-4.736l-.292-1.312c-1.629 1.44-3.034 1.963-5.092 1.963-3.453 0-5.965-2.061-5.97-4.91.005-2.36 1.537-4.035 4.536-4.882.459-.132 1.956-.425 4.536-.92 1.107-.23 1.531-.587 1.531-1.341 0-.882-.912-1.474-2.282-1.474-1.663 0-2.644.788-2.678 2.164zm5.092 4.289v-1.112c-.654.196-.849.26-1.371.426a27.81 27.81 0 01-1.858.426c-1.663.426-2.482 1.077-2.482 2.096 0 1.013.785 1.605 2.058 1.605 2.478 0 3.653-1.116 3.653-3.441zm44.431-4.29h-4.697c.039-3.539 2.804-5.669 7.472-5.669 4.862 0 7.242 2.032 7.242 6.16v8.024c0 1.341 0 1.341.425 2.198H184.2l-.259-1.312c-1.892 1.537-3.004 1.963-5.092 1.963-3.487 0-5.998-2.061-5.998-4.91 0-2.36 1.531-4.035 4.53-4.882.454-.132 1.961-.46 4.531-.92 1.083-.23 1.541-.587 1.541-1.341 0-.882-.917-1.474-2.253-1.474-1.663 0-2.677.818-2.677 2.164zm5.091 4.29v-1.112c-.653.196-.882.26-1.404.426-.551.098-1.176.225-1.858.426-1.664.426-2.483 1.077-2.483 2.096 0 1.013.785 1.605 2.087 1.605 2.483 0 3.658-1.116 3.658-3.441zM5.462 12.637l-.39.881c-.844-.293-1.756-.558-2.18-.621l-.23.817c1.762.524 3.942 1.567 6.605 3.104 6.735 4.015 8.037 4.534 15.387 6.463l1.336-1.342c-.585.04-.717.04-.946.04-2.765 0-5.852-1.278-7.71-3.139 2.018-1.14 4.038-1.6 7.125-1.6.424 0 .785 0 1.887.068l.44-.524a17.51 17.51 0 00-1.771-.073c-1.82 0-3.01.019-4.672.186l.414-.803c.912-.133 2.643-.191 4.043-.191.883 0 2.039.044 2.624.078l.434-.548c-.844-.04-2.165-.103-3.37-.103-1.263 0-2.565.034-3.443.103l.414-.847c1.01-.03 1.58-.054 2.424-.054 1.532 0 2.532.044 4.58.112l.415-.519c-1.132-.098-2.493-.137-4.253-.137-1.04 0-1.6-.005-2.931.064l.365-.822c.522-.03 1.546-.074 3.141-.074 1.332 0 3.22.162 4.233.294l.459-.553c-2.185-.26-3.872-.358-5.823-.358-2.273 0-4.195.127-5.692.426-.844 2.414-2.668 3.785-5.072 3.785-1.205 0-1.888-.23-3.97-1.308l-.585-.323.287-.582a58.657 58.657 0 003.492 1.469l.156-.3-7.223-3.069zM16.524.001C25.307 0 32.52 7.413 32.52 16.358a16.23 16.23 0 01-16.29 16.289C7.286 32.647 0 25.37 0 16.392 0 7.217 7.286.001 16.524.001zm-.39 1.6c-7.97 0-14.544 6.66-14.544 14.757 0 8.098 6.574 14.688 14.641 14.688 8.13 0 14.705-6.556 14.705-14.654 0-8.293-6.506-14.79-14.802-14.79z" fill="#FDB813"/><path fill-rule="evenodd" clip-rule="evenodd" d="M219.336 19.45h-2.137s-.239 1.567-.663 2.467a6.431 6.431 0 01-.868 1.39c-.341.442-.551.686-.98 1.044-.751.636-1.283.896-2.219 1.19-.605.19-.961.24-1.59.288-.786.064-1.244.064-2.019-.083a6.264 6.264 0 01-1.215-.352c-.649-.24-1.019-.407-1.585-.808-.658-.465-.98-.813-1.473-1.454-.683-.901-.912-1.533-1.268-2.605-.395-1.204-.468-1.934-.551-3.197-.083-1.322-.059-2.09.176-3.393.126-.69.204-1.082.429-1.738.229-.666.37-1.048.726-1.655.508-.876.873-1.346 1.644-2.002.746-.637 1.244-.945 2.165-1.278a5.69 5.69 0 011.064-.289c.722-.137 1.146-.132 1.877-.088.693.044 1.093.103 1.761.289.498.142.78.23 1.239.465.727.372 1.102.676 1.643 1.278.517.563.766.95 1.073 1.65.156.362.317.964.317.964l2.137.01s-.235-1.043-.493-1.665c-.283-.695-.478-1.086-.922-1.684-.414-.558-.707-.837-1.243-1.278a6.555 6.555 0 00-1.244-.842c-.737-.401-1.2-.548-2.019-.754-.625-.156-.995-.205-1.644-.259a9.427 9.427 0 00-1.931 0c-.844.073-1.327.157-2.136.406-.747.23-1.171.387-1.849.784-.453.264-.687.445-1.092.778-.985.813-1.473 1.38-2.141 2.473a8.468 8.468 0 00-.747 1.507c-.297.74-.409 1.185-.58 1.969-.166.783-.215 1.233-.288 2.031-.087.99-.112 1.557-.058 2.556.053.827.102 1.302.263 2.115.137.7.225 1.102.459 1.772.224.632.375.98.697 1.567a8.7 8.7 0 00.946 1.45 7.6 7.6 0 00.956 1.017c.541.485.893.715 1.532 1.073a7.84 7.84 0 001.843.783c.62.181.98.245 1.614.318a9.36 9.36 0 001.737.059c.726-.034 1.136-.073 1.843-.235a7.744 7.744 0 001.678-.548 7.427 7.427 0 001.668-.99 6.795 6.795 0 001.014-.895c.595-.637.864-1.063 1.268-1.826.405-.764.561-1.24.81-2.062.185-.626.366-.979.376-1.625v-.088zm13.417 5.944s-.947.372-1.532.235c-.239-.06-.409-.06-.58-.236-.205-.215-.161-.753-.166-.753l-.005-11.662h2.453V11.47h-2.453V6.828h-1.99v4.642h-2.253v1.508h2.253l.005 11.162s-.229 2.228.717 2.908c.434.314.771.353 1.297.436.868.142 1.883-.015 2.244-.26-.059 0 .01-1.83.01-1.83zm3.516 7.285s1.005.254 1.644.2c.668-.049 1.073-.142 1.648-.49.541-.332.776-.646 1.151-1.16.517-.705.927-2.031.927-2.031l6.916-17.728h-2.015l-4.097 10.878-.663 1.89-.141 1.273-1.751-5.175-3.102-8.866h-2.161l5.941 15.319-.546 1.478s-.342 1.077-.752 1.655c-.248.357-.37.612-.751.842-.253.157-.424.201-.721.26-.527.107-1.381-.088-1.381-.088l-.146 1.742zm36.013-13.23s-.239 1.568-.664 2.468a6.41 6.41 0 01-.863 1.39c-.346.442-.556.686-.98 1.044-.756.636-1.283.896-2.224 1.19-.6.19-.961.24-1.59.288-.785.064-1.244.064-2.019-.083a6.137 6.137 0 01-1.21-.352c-.653-.24-1.019-.407-1.585-.808-.658-.465-.985-.813-1.473-1.454-.687-.901-.917-1.533-1.273-2.605-.395-1.204-.468-1.934-.551-3.197-.078-1.322-.053-2.09.181-3.393.122-.69.205-1.082.429-1.738.229-.666.371-1.048.722-1.655.507-.876.878-1.346 1.643-2.002.751-.637 1.244-.945 2.166-1.278a5.75 5.75 0 011.068-.289c.722-.137 1.146-.132 1.873-.088.697.044 1.092.103 1.76.289.498.142.786.23 1.244.465.722.372 1.097.676 1.644 1.278.517.563.765.95 1.068 1.65.156.362.317.964.317.964l2.19-.044s-.278-1.003-.542-1.61c-.297-.69-.478-1.087-.926-1.685-.415-.558-.703-.837-1.244-1.278a6.518 6.518 0 00-1.239-.842c-.736-.401-1.2-.548-2.019-.754a8.84 8.84 0 00-1.644-.259 9.427 9.427 0 00-1.931 0c-.849.073-1.327.157-2.141.406-.741.23-1.171.387-1.844.784a7.224 7.224 0 00-1.097.778c-.98.813-1.473 1.38-2.136 2.473a8.837 8.837 0 00-.751 1.507c-.298.74-.405 1.185-.576 1.969-.17.783-.219 1.233-.287 2.031-.088.99-.118 1.557-.059 2.556.049.827.098 1.302.263 2.115.132.7.22 1.102.459 1.772.219.632.375.98.692 1.567.322.592.532.92.951 1.45.342.42.547.655.956 1.017.542.485.893.715 1.527 1.073a7.894 7.894 0 001.848.783c.615.181.976.245 1.615.318a9.31 9.31 0 001.731.059c.727-.034 1.141-.073 1.848-.235a7.774 7.774 0 001.673-.548 7.573 7.573 0 001.673-.99c.42-.318.649-.513 1.01-.895.595-.637.863-1.063 1.273-1.826.404-.764.556-1.24.804-2.062.2-.67.405-1.747.405-1.747l-2.165.034zm32.238 7.76v-9.6c0-.005.068-1.576-.117-2.556-.122-.636-.161-1.023-.464-1.596-.302-.582-.561-.89-1.063-1.302-.424-.348-.707-.494-1.219-.7-.717-.294-1.181-.323-1.961-.377-.673-.049-1.063-.064-1.731.059-.41.073-.644.137-1.039.289-.673.264-1.058.46-1.585.96-.517.489-1.039 1.507-1.039 1.507l-.029-2.467H292.4V27.21h1.961v-8.588l.082-2.178c.005 0 .313-1.2.752-1.826.448-.627.799-.94 1.472-1.308.503-.269.83-.357 1.386-.46.668-.127 1.073-.166 1.731-.03.717.143 1.17.28 1.702.784.395.372.541.666.751 1.16.381.887.263 2.463.263 2.463v9.983h2.02zm8.744-.043v-1.773s-.941.373-1.531.235c-.234-.058-.395-.068-.576-.235-.156-.146-.18-.288-.258-.49-.215-.572-.029-1.566-.029-1.566l.117-10.36h2.453V11.47h-2.453V6.828h-1.995v4.642h-2.248v1.508h2.248l-.112 11.201.141 1.915s.332.675.693.954c.424.328.775.358 1.302.436.829.127 2.136-.26 2.136-.26l.142-.029-.03-.03zm20.689.044v-7.08l.171-2.903s.283-1.346.751-2.056c.473-.705.849-1.077 1.59-1.483a3.87 3.87 0 01.922-.378c.556-.151 1.473-.142 1.473-.142l.141-1.914s-1.083-.117-1.761.03c-.643.137-1.004.298-1.555.665-.425.284-.659.47-.981.872-.483.592-.834 1.767-.839 1.767v-3.162h-1.819V27.21h1.907zm-45.791-4.891h1.941s-.527 1.713-1.195 2.61c-.585.793-1.015 1.199-1.849 1.713-.814.514-1.36.71-2.306.9-1.093.221-1.766.23-2.858 0-.795-.17-1.249-.342-1.961-.753-.834-.485-1.283-.862-1.878-1.626-.487-.631-.683-1.057-.98-1.796-.449-1.127-.512-1.841-.605-3.046-.102-1.38-.088-2.193.234-3.54.166-.695.273-1.096.576-1.742.239-.51.39-.793.717-1.249a6.03 6.03 0 01.985-1.072 5.61 5.61 0 011.185-.842 5.318 5.318 0 011.439-.578c.488-.132.77-.166 1.273-.205a6.45 6.45 0 011.268 0c.746.068 1.18.161 1.878.44.546.216.848.372 1.326.72.429.313.663.519 1.01.93.346.411.502.68.751 1.16.288.549.4.887.575 1.48.195.65.259 1.037.347 1.713.117.89.097 2.3.097 2.306l-11.759-.015c.005 0 .049 1.297.264 2.09.2.72.336 1.141.751 1.768.39.587.673.89 1.239 1.307.575.416.955.612 1.643.778.668.167 1.083.167 1.761.093.761-.093 1.209-.215 1.877-.582.693-.387 1.069-.69 1.532-1.337.405-.563.722-1.625.722-1.625zm-9.759-4.206l9.837.01s-.166-1.557-.571-2.443c-.312-.69-.527-1.097-1.068-1.625-.419-.416-.707-.622-1.244-.872-.707-.333-1.175-.416-1.96-.406-.761.01-1.215.112-1.907.436-.746.347-1.132.67-1.668 1.302-.532.622-.732 1.062-1.015 1.83-.243.662-.404 1.768-.404 1.768zm48.498 4.206h1.98s-.556 1.713-1.229 2.61c-.59.788-1.015 1.199-1.849 1.713-.819.514-1.36.71-2.306.9-1.093.221-1.766.23-2.858 0-.8-.17-1.254-.342-1.966-.753-.834-.485-1.278-.862-1.873-1.626-.487-.631-.683-1.057-.98-1.796-.449-1.127-.517-1.841-.605-3.046-.102-1.38-.092-2.193.229-3.54.166-.695.278-1.096.576-1.742.239-.51.395-.793.722-1.249.336-.455.561-.695.98-1.072a5.742 5.742 0 011.185-.842 5.35 5.35 0 011.444-.578c.483-.132.77-.166 1.268-.205a6.45 6.45 0 011.268 0c.751.068 1.18.161 1.878.44a5.06 5.06 0 011.326.72c.434.313.668.519 1.015.93.346.411.502.68.746 1.16.288.549.4.887.575 1.48a8.45 8.45 0 01.347 1.713c.112.886.043 2.296.043 2.296l-11.7-.005s.044 1.297.259 2.09c.2.72.341 1.141.751 1.768.39.587.673.89 1.243 1.307.576.416.956.612 1.644.778.668.167 1.078.167 1.761.093.761-.093 1.204-.215 1.873-.582.692-.387 1.073-.69 1.531-1.337.405-.563.722-1.625.722-1.625zm-9.754-4.206l9.788.005c0-.005-.127-1.552-.527-2.438-.307-.695-.522-1.097-1.068-1.625-.419-.416-.702-.622-1.239-.872-.712-.333-1.18-.416-1.96-.406-.766.01-1.215.112-1.907.436-.751.347-1.137.67-1.673 1.302-.527.622-.727 1.062-1.01 1.83-.244.662-.404 1.768-.404 1.768zM221.76 5.38h1.96v2.668h-1.96V5.379zm-.03 6.09h1.99v15.778h-1.99V11.47z" fill="#005AAA"/></svg>