<svg width="180" height="79" fill="none" xmlns="http://www.w3.org/2000/svg"><g clip-path="url(#clip0_949_32130)" fill="#D40E14"><path d="M179.495 68.295c.164-.13.295-.298.383-.49a2.16 2.16 0 00.121-.82V40.109a2.262 2.262 0 00-.121-.836 1.157 1.157 0 00-.383-.467c-.406-.311-1.348-.467-2.826-.467s-2.436.156-2.872.467c-.166.12-.298.28-.383.467-.084.27-.118.554-.098.836V67a1.621 1.621 0 00.466 1.304c.406.311 1.363.467 2.872.467 1.508 0 2.455-.158 2.841-.475zm-20.009.15a10.21 10.21 0 003.758-2.198 8.475 8.475 0 002.195-3.3 12.29 12.29 0 00.692-4.18V40.109a1.574 1.574 0 00-.466-1.318c-.441-.311-1.383-.467-2.827-.467-1.443 0-2.4.156-2.871.467a1.04 1.04 0 00-.391.467 2.45 2.45 0 00-.15.851v18.575a7.12 7.12 0 01-.383 2.26 3.53 3.53 0 01-1.677 1.913 6.75 6.75 0 01-3.42.753 7.887 7.887 0 01-2.51-.354 4.368 4.368 0 01-1.699-1.002 3.906 3.906 0 01-.977-1.566 6.241 6.241 0 01-.308-2.012V40.11a1.574 1.574 0 00-.466-1.318c-.441-.311-1.383-.467-2.826-.467-1.444 0-2.401.156-2.872.467a1.04 1.04 0 00-.391.467c-.08.276-.11.564-.09.851v18.65a12.29 12.29 0 00.692 4.18 8.484 8.484 0 002.164 3.33 10.227 10.227 0 003.759 2.17 19.69 19.69 0 0011.049 0l.015.007zm-32.787-.15c.162-.13.288-.298.368-.49a2.31 2.31 0 00.113-.82V44.049h6.69c.405.01.811-.037 1.202-.143a1.217 1.217 0 00.714-.625 5.484 5.484 0 00.466-1.65c.097-.558.152-1.122.166-1.687a2.807 2.807 0 00-.09-.806.846.846 0 00-.354-.467 1.387 1.387 0 00-.466-.166 5.307 5.307 0 00-.879-.053h-20.828a4.164 4.164 0 00-1.203.143 1.23 1.23 0 00-.752.626 4.753 4.753 0 00-.466 1.446 10.363 10.363 0 00-.165 1.86c.001.284.044.566.128.836a.812.812 0 00.368.467c.421.183.881.258 1.338.219h7.449v22.92a1.505 1.505 0 00.503 1.319c.406.311 1.363.467 2.872.467 1.508 0 2.448-.15 2.818-.452l.008-.008zM4.653 22.002h23.444c2.315 0 4.029.753 4.705 4 .752 3.638.466 6.169-3.638 6.455l-7.366.527c5.427 34.272 37.072 45.45 54.307 8.52 2.856-6.11 3.758-7.224 6.908-6.449 4.231 1.055 4.81 3.254 2.78 9.393C70.92 89.973 20.844 94.538 11.02 33.76l-5.96.43C.196 34.535 0 30.422 0 28.162c-.015-4.542 1.661-6.161 4.653-6.161zm85.192-4.587c4.8 0 8.69-3.899 8.69-8.708S94.644 0 89.844 0c-4.799 0-8.689 3.898-8.689 8.707 0 4.81 3.89 8.708 8.69 8.708z"/></g><defs><clipPath id="clip0_949_32130"><path fill="#fff" d="M0 0h180v79H0z"/></clipPath></defs></svg>