<svg width="284" height="42" fill="none" xmlns="http://www.w3.org/2000/svg"><path d="M15.578 24.754c0 1.156-1.044 1.992-2.484 1.992-1.712 0-2.93-1.194-2.93-2.87v-7.07h10.161v-6.19H10.164V6.192H3.392v4.424H0v6.19h3.392v7.07c0 5.394 4.058 9.286 9.62 9.286 5.331 0 9.118-3.534 9.118-8.398v-1.552h-6.54v1.542h-.012zm16.025-10.43v-3.72H24.83v22.11h6.772v-10.83c0-2.964 2.348-5.088 5.55-5.088h4.154V10.39h-2.034c-3.195 0-5.896 1.48-7.67 3.934zm11.742-3.71v6.18h5.414v15.92h6.782v-22.1H43.345zM51.471 0c-2.619 0-4.518 1.768-4.518 4.2 0 2.43 1.897 4.198 4.517 4.198 2.619 0 4.518-1.768 4.518-4.2 0-2.43-1.9-4.198-4.517-4.198zm22.486 10.166c-2.84 0-5.301 1.052-7.138 2.84v-2.392h-6.77V41.56h6.772V30.322c1.835 1.788 4.298 2.84 7.136 2.84 6.093 0 10.474-4.82 10.474-11.492 0-6.682-4.381-11.504-10.474-11.504zm-1.712 16.58c-3.163 0-5.414-2.124-5.414-5.086 0-2.964 2.254-5.088 5.414-5.088 3.162 0 5.416 2.124 5.416 5.086 0 2.964-2.256 5.088-5.416 5.088zm39.772-16.58c-3.142 0-5.791 1.328-7.493 3.504-1.7-2.186-4.351-3.504-7.49-3.504-5.467 0-9.433 3.892-9.433 9.286v13.26h6.772V19.76c0-1.94 1.397-3.36 3.297-3.36 2.034 0 3.474 1.46 3.474 3.494v12.82h6.772v-12.82c0-2.034 1.44-3.494 3.474-3.494 1.9 0 3.298 1.41 3.298 3.36v12.956h6.771v-13.26c-.01-5.396-3.976-9.288-9.442-9.288v-.002zm27.723 13.046c0 2.166-1.627 3.708-3.881 3.708-2.212 0-3.787-1.5-3.787-3.586v-12.72H125.3v13.048c0 5.526 3.704 9.5 8.849 9.5a7.912 7.912 0 003.029-.573 7.867 7.867 0 002.574-1.685v1.81c0 1.808-1.764 3.094-4.153 3.094-2.034 0-3.527-.93-3.527-2.206h-6.552c0 4.864 4.288 8.398 10.246 8.398 6.188 0 10.746-3.892 10.746-9.286v-22.1h-6.772v12.598zm27.544-10.226c-1.825-1.768-4.266-2.81-7.084-2.81-6.093 0-10.518 4.82-10.518 11.494 0 6.67 4.425 11.492 10.518 11.492 2.818 0 5.269-1.04 7.084-2.808v2.37h6.772V1.768h-6.772v11.218zm-5.424 13.76c-3.162 0-5.416-2.124-5.416-5.086 0-2.964 2.256-5.088 5.416-5.088 3.162 0 5.414 2.124 5.414 5.086.01 2.964-2.254 5.088-5.414 5.088zm23.03-12.422v-3.72h-6.772v22.11h6.772v-10.83c0-2.964 2.347-5.088 5.549-5.088h4.153V10.39h-2.034c-3.192 0-5.895 1.48-7.668 3.934zm22.849-4.158c-6.677 0-11.561 4.77-11.561 11.534 0 6.804 4.967 11.452 12.282 11.452 6.405 0 10.975-3.534 10.975-8.398h-6.771c0 1.278-1.763 2.208-4.246 2.208-3.068 0-5.332-1.41-5.509-3.536h16.704c.042-.572.042-1.144.042-1.144 0-7.028-5.009-12.116-11.916-12.116zm-4.872 9.51c.229-2.032 2.388-3.534 5.102-3.534 2.66 0 4.789 1.5 5.009 3.534h-10.111zm36.654-6.69c-1.827-1.768-4.268-2.81-7.086-2.81-6.093 0-10.516 4.82-10.516 11.494 0 6.67 4.423 11.492 10.516 11.492 2.818 0 5.269-1.04 7.086-2.808v2.37h6.771v-22.11h-6.771v2.372zm-5.416 13.76c-3.161 0-5.415-2.124-5.415-5.086 0-2.964 2.254-5.088 5.415-5.088 3.162 0 5.416 2.124 5.416 5.086 0 2.964-2.254 5.088-5.416 5.088zm40.452-16.58c-3.14 0-5.79 1.328-7.49 3.504-1.7-2.186-4.351-3.504-7.491-3.504-5.469 0-9.443 3.892-9.443 9.286v13.26h6.77V19.76c0-1.94 1.4-3.36 3.297-3.36 2.037 0 3.475 1.46 3.475 3.494v12.82h6.772v-12.82c0-2.034 1.44-3.494 3.474-3.494 1.899 0 3.297 1.41 3.297 3.36v12.956h6.772v-13.26c.01-5.396-3.964-9.288-9.433-9.288v-.002z" fill="#2050A7"/></svg>