<svg width="308" height="89" fill="none" xmlns="http://www.w3.org/2000/svg"><path d="M105.615 26.82v6.502c2.43-4.072 6.165-6.975 11.723-6.975.675 0 1.214.045 1.754.158v10.957h-1.754c-7.583 0-11.723 3.915-11.723 12.735V60.84H94.77V26.82h10.845zM20.318 60.907l6.165-18.427 6.097 18.428h9.405l10.913-34.066H42.255l-5.558 18.36-6.435-18.36h-7.65L16.2 45.112 10.643 26.82H0l10.912 34.065h9.405v.023zm126.405-19.844l12.532-14.22h-12.667l-12.263 13.612V8.663H123.48v52.154h10.845v-5.76l5.153-5.827 9.067 11.588h13.342l-15.164-19.755zm-56.34 2.767c0 10.778-8.528 17.955-18.63 17.955-10.306 0-18.833-7.177-18.833-17.955 0-10.71 8.527-17.887 18.832-17.887 10.103 0 18.63 7.177 18.63 17.887zm-10.44 0c0-5.288-4.005-8.797-8.19-8.797-4.41 0-8.393 3.51-8.393 8.797 0 5.355 4.005 8.797 8.392 8.797 4.208 0 8.19-3.442 8.19-8.797zm-8.28-33.84c8.707 0 16.92 3.375 23.107 9.495l7.02-7.11C93.712 4.388 83.002 0 71.662 0s-22.05 4.388-30.127 12.398l7.02 7.11c6.188-6.143 14.4-9.518 23.107-9.518zm189.292 23.22v-6.503H250.11v33.998h10.845V50.063c0-8.798 4.14-12.736 11.722-12.736h1.755V26.37a10.147 10.147 0 00-1.755-.158c-5.579.023-9.292 2.948-11.722 6.998zm44.46 17.483c-1.418.81-3.443 1.35-4.95 1.35-2.835 0-4.545-1.418-4.545-4.95v-11.79h10.035v-8.595H295.92V15.322h-10.845v11.384h-6.165v8.596h6.165v12.87c0 8.932 5.085 13.544 13.545 13.544 3.87 0 6.637-1.08 9.27-2.497l-2.475-8.527zM204.84 43.718c0-10.71-7.582-18.023-16.605-18.023-4.41 0-7.92 1.35-10.575 3.735v-2.723h-10.845v50.266h10.845V58.004c2.632 2.385 6.165 3.735 10.575 3.735 9.023-.023 16.605-7.268 16.605-18.023zm-27.158 0c0-5.22 3.938-8.798 8.325-8.798 4.748 0 8.19 3.6 8.19 8.797 0 5.288-3.442 8.798-8.19 8.798-4.387 0-8.325-3.51-8.325-8.797zm49.366-17.888c-10.305 0-18.833 7.178-18.833 17.888 0 10.777 8.528 17.954 18.833 17.954 10.102 0 18.63-7.177 18.63-17.954 0-10.71-8.55-17.888-18.63-17.888zm0 26.685c-4.41 0-8.393-3.443-8.393-8.797 0-5.288 4.005-8.798 8.393-8.798 4.207 0 8.19 3.51 8.19 8.797 0 5.355-4.005 8.798-8.19 8.798zm-20.791 25.537c-5.782 0-11.25-2.25-15.367-6.322l-7.02 7.11c6.008 5.94 13.95 9.225 22.387 9.225 8.438 0 16.403-3.263 22.41-9.225l-7.019-7.11c-4.14 4.072-9.608 6.322-15.391 6.322z" fill="#8F9BB3"/></svg>