<svg width="385" height="49" fill="none" xmlns="http://www.w3.org/2000/svg"><path fill-rule="evenodd" clip-rule="evenodd" d="M180.802 2.726l-11.779 32.63-10.717-31.3c-3.66 1.344-8.848 1.345-12.193.356l16.634 43.218h11.925l18.307-44.446c-3.362-.872-8.133-1.278-12.177-.458zm124.986 35.668l.008-4.967h16.479l3.675-10.003h-31.648v24.207h35.335v-9.237h-23.849zM14.081 5.16C8.57 7.374 3.516 6.956 0 6.285v10.13c6.193 1.102 12.323-.372 17.62-2.229 11.038-3.87 17.886-.644 20.177 0V3.816C33.057 2.354 25.089.737 14.08 5.16zM0 47.632h11.245l.027-12.084h22.264v-9.841H0v21.925zM216.376 3.121c-4.893 1.787-9.168 2.525-13.476 1.719v9.773c6.307 2.451 13.183-2.68 17.152-1.82 1.253 3.438 4.979 12.922 4.979 12.922h-29.989l-.005 9.832h6.602L196.5 47.631h11.801l4.708-12.084h15.783l4.611 12.084h12.24L226.342 1.294c-1.815.168-5.197.086-9.966 1.827zm49.57 1.356c-6.482 2.305-12.648 3.03-21.422-.746v10.536c4.884 1.892 11.607 2.442 14.868 1.897V47.63h11.484V13.697c4.371-1.552 8.634-2.07 13.618-.458V2.68c-1.817-.373-4.04-.644-6.605-.644-2.65 0-7.181.75-11.943 2.442zm43.332.383c-7.47 2.554-11.571 1.26-14.976.32v10.019c6.455 1.105 9.563 1.21 18.441-1.367 7.781-2.257 11.61-2.079 16.894-.832V3.007c-4.469-.43-9.064-2.012-20.359 1.853zM141.615 19.478c0-6.07-3.805-12.552-11.086-15.635-7.674-3.25-14.762-1.29-21.457.797-6.505 2.026-11.371 1.317-14.112.76v9.592c8.519 1.61 15.762-.787 21.675-2.522 8.793-2.58 14.046 2.337 14.046 6.914 0 5.076-5 6.494-7.341 6.494H96.039l3.372 9.83h4.095v12.084h11.486V35.71h8.628l6.309 12.083h12.992l-8.794-14.677c3.385-2.086 7.488-6.007 7.488-13.637zm233.964 11.55c6.288-2.9 7.979-9.106 7.979-13.477 0-5.381-3.529-16.049-17.78-16.049-10.238 0-14.39 5.373-26.957 3.546v9.994c7.77 1.432 13.037.11 18.38-1.718 3.461-1.184 15.698-3.333 15.698 4.865 0 4.129-4.235 5.234-7.604 5.234l-26.021-.009v10.012h4.929V47.63h11.484V33.426h9.038l7.159 14.204h12.993l-9.298-16.602zM60.835 3.847C54.755 6.378 48.443 6.69 48.443 6.69v10.106c9.593 0 19.205-5.944 20.396-3.428l4.656 12.348h-28.84v9.831h5.51l-5.146 12.086h11.798l4.716-12.086H77.31l4.613 12.086h12.24l-19.1-46.02C70.108.9 67.07 1.25 60.835 3.846z" fill="#8F9BB3"/></svg>