<svg width="352" height="45" fill="none" xmlns="http://www.w3.org/2000/svg"><g clip-path="url(#clip0_826_43093)" fill-rule="evenodd" clip-rule="evenodd" fill="#8F9BB3"><path d="M58.557 44.257V11.725h9.116v5.515h.37c.575-1.694 1.58-3.16 3.018-4.4 1.437-1.239 3.429-1.858 5.975-1.858 3.326 0 5.841 1.115 7.545 3.346 1.705 2.23 2.557 5.411 2.557 9.542v20.387H78.02V24.614c0-2.107-.328-3.666-.985-4.678s-1.827-1.518-3.511-1.518c-.74 0-1.458.092-2.156.278a5.464 5.464 0 00-1.879.899 4.68 4.68 0 00-1.324 1.518c-.328.599-.493 1.29-.493 2.076v21.068h-9.116zm81.389.743c-2.382 0-4.507-.392-6.375-1.177-1.869-.785-3.45-1.921-4.743-3.408-1.294-1.487-2.29-3.284-2.988-5.391s-1.047-4.462-1.047-7.064c0-2.603.349-4.957 1.047-7.064s1.694-3.893 2.988-5.36c1.293-1.466 2.874-2.592 4.743-3.377 1.868-.785 3.993-1.177 6.375-1.177s4.507.392 6.375 1.177c1.868.785 3.449 1.91 4.743 3.377 1.293 1.467 2.289 3.253 2.987 5.36s1.047 4.461 1.047 7.064c0 2.602-.349 4.957-1.047 7.064s-1.694 3.904-2.987 5.39c-1.294 1.488-2.875 2.624-4.743 3.409-1.868.785-3.993 1.177-6.375 1.177zm0-7.25c1.807 0 3.203-.557 4.188-1.673.986-1.115 1.479-2.706 1.479-4.771v-6.63c0-2.066-.493-3.656-1.479-4.771-.985-1.116-2.381-1.674-4.188-1.674s-3.203.558-4.189 1.673c-.985 1.116-1.478 2.706-1.478 4.772v6.63c0 2.065.493 3.656 1.478 4.771.986 1.116 2.382 1.673 4.189 1.673zm30.408 6.507c-3.121 0-5.41-.764-6.868-2.291-1.458-1.528-2.187-3.737-2.187-6.627V.455h9.116v36.681h4.066v7.122h-4.127zm16.836-34.39c-1.755 0-3.032-.401-3.831-1.204-.8-.803-1.199-1.83-1.199-3.083V4.287c0-1.253.399-2.28 1.199-3.083C184.158.401 185.435 0 187.19 0s3.032.401 3.831 1.204c.8.803 1.199 1.83 1.199 3.083V5.58c0 1.252-.399 2.28-1.199 3.083-.799.803-2.076 1.204-3.831 1.204zm-4.538 2.477h9.117v31.913h-9.117V12.344zm37.779 26.463h-.308a8.108 8.108 0 01-1.17 2.446 8.458 8.458 0 01-1.94 1.982 8.99 8.99 0 01-2.587 1.3 9.721 9.721 0 01-2.988.465c-4.106 0-7.207-1.455-9.301-4.366-2.094-2.91-3.141-7.132-3.141-12.664s1.047-9.743 3.141-12.633c2.094-2.89 5.195-4.335 9.301-4.335 2.094 0 3.953.578 5.575 1.734 1.622 1.156 2.658 2.642 3.11 4.459h.308V.455h9.116v43.802h-9.116v-5.45zm-5.975-1.238c1.725 0 3.152-.423 4.281-1.27 1.13-.846 1.694-2.012 1.694-3.498v-9.6c0-1.485-.564-2.652-1.694-3.498-1.129-.846-2.556-1.27-4.281-1.27-1.724 0-3.151.61-4.281 1.827-1.129 1.218-1.693 2.86-1.693 4.923v5.636c0 2.064.564 3.705 1.693 4.923 1.13 1.218 2.557 1.827 4.281 1.827zm70.446 6.688c-3.162 0-5.554-.805-7.176-2.415-1.622-1.61-2.433-3.963-2.433-7.06V18.867h-4.559v-7.122h5.483V.455h8.192v11.29h6.406v7.122h-6.406v18.268h5.913v7.122h-5.42zm26.28.743c-2.381 0-4.506-.392-6.375-1.177-1.868-.785-3.449-1.921-4.743-3.408-1.293-1.487-2.289-3.284-2.987-5.391s-1.047-4.462-1.047-7.064c0-2.603.349-4.957 1.047-7.064s1.694-3.893 2.987-5.36c1.294-1.466 2.875-2.592 4.743-3.377 1.869-.785 3.994-1.177 6.375-1.177 2.382 0 4.507.392 6.376 1.177 1.868.785 3.449 1.91 4.743 3.377 1.293 1.467 2.289 3.253 2.987 5.36s1.047 4.461 1.047 7.064c0 2.602-.349 4.957-1.047 7.064s-1.694 3.904-2.987 5.39c-1.294 1.488-2.875 2.624-4.743 3.409-1.869.785-3.994 1.177-6.376 1.177zm0-7.25c1.807 0 3.203-.557 4.189-1.673.986-1.115 1.478-2.706 1.478-4.771v-6.63c0-2.066-.492-3.656-1.478-4.771-.986-1.116-2.382-1.674-4.189-1.674-1.806 0-3.203.558-4.188 1.673-.986 1.116-1.478 2.706-1.478 4.772v6.63c0 2.065.492 3.656 1.478 4.771.985 1.116 2.382 1.673 4.188 1.673zm21.518 6.507V11.725h9.126v7.064h.308c.165-.909.452-1.787.863-2.634a8.04 8.04 0 011.634-2.261 7.662 7.662 0 012.436-1.58c.946-.393 2.055-.59 3.33-.59H352v8.552h-2.281c-2.672 0-4.656.351-5.951 1.053-1.295.703-1.942 2.004-1.942 3.904v19.024H332.7zM106.182 45c-3.119 0-5.745-.506-7.879-1.518a17.797 17.797 0 01-4.452-3.021l4.083-6.739c1.149 1.281 2.421 2.293 3.816 3.037 1.395.743 2.975 1.115 4.739 1.115 1.806 0 3.057-.279 3.755-.836.697-.558 1.046-1.312 1.046-2.262 0-1.529-1.087-2.437-3.262-2.727l-3.508-.433c-7.263-.91-10.894-4.255-10.894-10.038 0-1.57.297-3.006.892-4.307a9.604 9.604 0 012.524-3.346c1.087-.93 2.4-1.652 3.939-2.169 1.538-.516 3.272-.774 5.201-.774 1.682 0 3.169.113 4.462.34 1.292.228 2.441.558 3.446.992 1.006.434 1.929.97 2.77 1.611.426.324.85.667 1.271 1.029l-4.01 6.5a11.964 11.964 0 00-3.477-2.448c-1.293-.599-2.616-.898-3.97-.898-1.559 0-2.667.247-3.324.743-.656.496-.984 1.157-.984 1.983 0 .867.235 1.539.707 2.014.472.475 1.365.816 2.678 1.022l3.631.496c7.099.95 10.648 4.213 10.648 9.79 0 1.57-.328 3.016-.985 4.338-.656 1.322-1.59 2.468-2.8 3.439-1.211.97-2.667 1.724-4.37 2.261-1.703.537-3.601.806-5.693.806zm155.433-.744c-1.644 0-3.01-.516-4.099-1.549-1.089-1.032-1.777-2.416-2.065-4.151h-.37c-.493 2.107-1.582 3.707-3.266 4.802-1.685 1.095-3.76 1.642-6.226 1.642-3.246 0-5.732-.867-7.458-2.602-1.725-1.736-2.588-4.028-2.588-6.879 0-3.428 1.243-5.98 3.729-7.652 2.486-1.673 5.865-2.51 10.139-2.51h5.116v-2.044c0-1.57-.411-2.82-1.233-3.75-.822-.929-2.198-1.393-4.13-1.393-1.808 0-3.246.392-4.314 1.177-1.069.785-1.952 1.673-2.651 2.664l-4.335-6.255a13.995 13.995 0 013.873-3.132c1.993-1.095 4.695-1.642 8.105-1.642 4.603 0 8.054 1.012 10.355 3.036s3.452 4.978 3.452 8.86V37.13h3.02v7.126h-5.054zm-12.636-5.638c1.521 0 2.825-.33 3.914-.992 1.089-.66 1.634-1.735 1.634-3.222v-3.842h-4.438c-3.575 0-5.362 1.219-5.362 3.656v.93c0 1.198.369 2.075 1.109 2.633.74.558 1.787.837 3.143.837zM18.971 19.41c-.944-.538-2.279-1.178-3.88-1.178-1.848 0-3.244.61-4.188 1.828-.945 1.219-1.417 2.86-1.417 4.926v6.072c0 2.066.472 3.708 1.416 4.927.945 1.218 2.218 1.828 4.066 1.828 4.476 0 5.063-4.235 7.279-10.54 2.45-6.975 4.24-16.29 15.244-16.29 2.382 0 3.85.392 5.718 1.176 1.869.785 3.45 1.911 4.743 3.377 1.294 1.467 2.29 3.254 2.988 5.36.698 2.107 1.047 4.462 1.047 7.064 0 2.603-.35 4.957-1.047 7.064-.698 2.107-1.694 3.904-2.988 5.391-1.293 1.487-2.874 2.623-4.742 3.408-1.869.785-3.994 1.178-6.376 1.178-3.3 0-4.93-.827-6.775-1.53l3.163-6.707c.89.513 2.116.987 3.612.987 3.854 0 5.75-2.685 5.75-6.445l-.083-6.63c0-2.065-.493-3.656-1.478-4.771-.986-1.115-2.135-1.673-3.942-1.673-4.558 0-5.35 5.822-7.62 12.145-2.419 6.738-3.817 14.624-14.206 14.624-2.423 0-4.743-.403-6.632-1.209-1.889-.805-3.47-1.941-4.742-3.408-1.273-1.466-2.238-3.253-2.895-5.36S0 30.563 0 27.96c0-2.602.329-4.947.986-7.033.657-2.086 1.622-3.872 2.895-5.36 1.273-1.487 2.853-2.623 4.742-3.408 1.89-.784 3.722-1.177 6.468-1.177s5.393.706 7.243 1.704L18.97 19.41z"/></g><defs><clipPath id="clip0_826_43093"><path fill="#fff" d="M0 0h352v45H0z"/></clipPath></defs></svg>