<svg width="283" height="36" fill="none" xmlns="http://www.w3.org/2000/svg"><g clip-path="url(#clip0_949_32145)" fill-rule="evenodd" clip-rule="evenodd"><path d="M47.078 35.406V9.38h7.33v4.412h.297c.462-1.355 1.27-2.528 2.426-3.52 1.155-.991 2.757-1.487 4.804-1.487 2.674 0 4.696.893 6.066 2.677 1.37 1.785 2.055 4.33 2.055 7.634v16.31h-7.329V19.69c0-1.685-.264-2.933-.792-3.742-.529-.81-1.47-1.215-2.823-1.215a6.74 6.74 0 00-1.733.223 4.406 4.406 0 00-1.51.719c-.447.33-.801.735-1.066 1.214-.264.48-.396 1.033-.396 1.661v16.855h-7.329zm65.435.594c-1.915 0-3.624-.314-5.126-.942a10.228 10.228 0 01-3.813-2.726c-1.04-1.19-1.84-2.628-2.402-4.313-.561-1.685-.842-3.57-.842-5.651 0-2.082.281-3.966.842-5.651.562-1.686 1.362-3.115 2.402-4.288s2.311-2.074 3.813-2.702c1.502-.628 3.211-.942 5.126-.942 1.915 0 3.623.314 5.125.942 1.502.628 2.774 1.529 3.813 2.702 1.04 1.173 1.841 2.602 2.402 4.288.562 1.685.842 3.569.842 5.65 0 2.083-.28 3.967-.842 5.652-.561 1.685-1.362 3.123-2.402 4.313a10.22 10.22 0 01-3.813 2.726c-1.502.628-3.21.942-5.125.942zm0-5.8c1.452 0 2.575-.446 3.367-1.338.793-.893 1.189-2.165 1.189-3.817V19.74c0-1.653-.396-2.925-1.189-3.817-.792-.893-1.915-1.339-3.367-1.339-1.453 0-2.575.446-3.368 1.339-.792.892-1.188 2.164-1.188 3.817v5.304c0 1.652.396 2.924 1.188 3.817.793.892 1.915 1.338 3.368 1.338zm24.447 5.206c-2.509 0-4.35-.611-5.522-1.834-1.172-1.222-1.758-2.989-1.758-5.3V.363h7.33v29.345h3.268v5.698h-3.318zm13.536-27.512c-1.411 0-2.438-.321-3.08-.964-.643-.642-.964-1.464-.964-2.466V3.43c0-1.002.321-1.825.964-2.467.642-.642 1.669-.963 3.08-.963s2.437.321 3.08.963c.643.642.964 1.465.964 2.467v1.034c0 1.002-.321 1.824-.964 2.466-.643.643-1.669.964-3.08.964zm-3.648 1.981h7.329v25.53h-7.329V9.876zm30.373 21.17h-.247a6.512 6.512 0 01-.941 1.958 6.8 6.8 0 01-1.56 1.585 7.228 7.228 0 01-2.08 1.04 7.853 7.853 0 01-2.402.372c-3.301 0-5.794-1.164-7.478-3.493-1.684-2.328-2.525-5.705-2.525-10.13 0-4.427.841-7.795 2.525-10.107 1.684-2.312 4.177-3.468 7.478-3.468 1.684 0 3.178.462 4.482 1.387 1.304.925 2.137 2.114 2.501 3.567h.247V.363h7.329v35.043h-7.329v-4.36zm-4.803-.99c1.386 0 2.533-.338 3.441-1.016.908-.677 1.362-1.61 1.362-2.799v-7.678c0-1.19-.454-2.123-1.362-2.8-.908-.677-2.055-1.015-3.441-1.015-1.387 0-2.534.487-3.442 1.461-.908.975-1.362 2.287-1.362 3.939v4.508c0 1.651.454 2.964 1.362 3.939.908.974 2.055 1.461 3.442 1.461zm56.636 5.35c-2.542 0-4.465-.644-5.769-1.932-1.304-1.288-1.956-3.17-1.956-5.647V15.094h-3.665V9.396h4.407V.363h6.587v9.033h5.15v5.698h-5.15v14.614h4.754v5.698h-4.358zm21.129.595c-1.915 0-3.623-.314-5.125-.942a10.223 10.223 0 01-3.814-2.726c-1.039-1.19-1.84-2.628-2.401-4.313-.562-1.685-.842-3.57-.842-5.651 0-2.082.28-3.966.842-5.651.561-1.686 1.362-3.115 2.401-4.288 1.04-1.173 2.311-2.074 3.814-2.702 1.502-.628 3.21-.942 5.125-.942s3.623.314 5.126.942c1.502.628 2.773 1.529 3.813 2.702s1.84 2.602 2.402 4.288c.561 1.685.841 3.569.841 5.65 0 2.083-.28 3.967-.841 5.652-.562 1.685-1.362 3.123-2.402 4.313a10.228 10.228 0 01-3.813 2.726c-1.503.628-3.211.942-5.126.942zm0-5.8c1.453 0 2.575-.446 3.368-1.338.792-.893 1.188-2.165 1.188-3.817V19.74c0-1.653-.396-2.925-1.188-3.817-.793-.893-1.915-1.339-3.368-1.339-1.452 0-2.575.446-3.367 1.339-.793.892-1.189 2.164-1.189 3.817v5.304c0 1.652.396 2.924 1.189 3.817.792.892 1.915 1.338 3.367 1.338zm17.3 5.206V9.38h7.337v5.651h.248c.132-.727.363-1.43.694-2.107a6.45 6.45 0 011.313-1.81 6.152 6.152 0 011.959-1.263c.76-.314 1.652-.471 2.677-.471H283v6.84h-1.835c-2.148 0-3.743.282-4.784.844-1.041.561-1.561 1.602-1.561 3.123v15.219h-7.337zM85.367 36c-2.507 0-4.618-.405-6.334-1.215a14.313 14.313 0 01-3.58-2.416l3.283-5.391c.924 1.024 1.947 1.834 3.068 2.429 1.122.595 2.392.892 3.81.892 1.452 0 2.458-.223 3.019-.669.56-.446.841-1.05.841-1.81 0-1.222-.874-1.95-2.622-2.18l-2.821-.347c-5.839-.727-8.759-3.404-8.759-8.031 0-1.256.24-2.404.718-3.445a7.686 7.686 0 012.029-2.677c.874-.744 1.93-1.322 3.167-1.735 1.237-.413 2.63-.62 4.181-.62 1.353 0 2.548.091 3.588.273 1.039.182 1.962.446 2.77.793.809.347 1.551.777 2.227 1.289.343.26.684.534 1.022.823l-3.224 5.2a9.612 9.612 0 00-2.795-1.958 7.547 7.547 0 00-3.192-.719c-1.254 0-2.144.198-2.672.595a1.886 1.886 0 00-.792 1.586c0 .694.19 1.231.57 1.611.379.38 1.096.653 2.152.818l2.92.397c5.706.76 8.56 3.37 8.56 7.832 0 1.256-.264 2.413-.792 3.47a8.16 8.16 0 01-2.251 2.751c-.974.777-2.145 1.38-3.514 1.81-1.369.43-2.895.644-4.577.644zm124.965-.595c-1.321 0-2.42-.413-3.295-1.24-.876-.825-1.429-1.932-1.66-3.32h-.298c-.396 1.685-1.272 2.966-2.626 3.841-1.355.876-3.023 1.314-5.005 1.314-2.61 0-4.609-.694-5.996-2.082-1.388-1.388-2.082-3.222-2.082-5.502 0-2.743 1-4.784 2.999-6.122 1.998-1.339 4.715-2.008 8.151-2.008h4.113V18.65c0-1.256-.33-2.255-.991-2.999-.661-.744-1.767-1.115-3.32-1.115-1.454 0-2.61.314-3.469.941a9.321 9.321 0 00-2.131 2.132l-3.485-5.004a11.229 11.229 0 013.114-2.506c1.602-.876 3.774-1.314 6.516-1.314 3.7 0 6.475.81 8.325 2.43 1.85 1.619 2.775 3.982 2.775 7.088v11.401h2.428v5.701h-4.063zm-10.159-4.51c1.223 0 2.272-.265 3.147-.794.876-.529 1.313-1.388 1.313-2.578V24.45h-3.568c-2.874 0-4.311.975-4.311 2.925v.743c0 .959.297 1.66.892 2.107.595.446 1.437.67 2.527.67z" fill="#000"/><path d="M15.253 15.527c-.76-.43-1.833-.942-3.12-.942-1.486 0-2.608.487-3.368 1.462-.759.975-1.139 2.289-1.139 3.941v4.858c0 1.653.38 2.966 1.14 3.941.759.975 1.782 1.463 3.268 1.463 3.598 0 4.07-3.388 5.852-8.432 1.97-5.58 3.408-13.033 12.256-13.033 1.915 0 3.095.314 4.598.942 1.502.628 2.773 1.528 3.813 2.702 1.04 1.173 1.84 2.602 2.401 4.288.562 1.685.842 3.569.842 5.65 0 2.083-.28 3.966-.842 5.652-.56 1.685-1.361 3.123-2.401 4.313a10.226 10.226 0 01-3.813 2.726c-1.503.628-3.211.942-5.126.942-2.653 0-3.963-.661-5.447-1.224l2.543-5.365c.715.41 1.7.789 2.904.789 3.098 0 4.622-2.148 4.622-5.155l-.066-5.305c0-1.652-.396-2.924-1.189-3.817-.792-.892-1.716-1.338-3.169-1.338-3.665 0-4.301 4.657-6.126 9.716C21.74 29.691 20.617 36 12.265 36c-1.948 0-3.813-.322-5.332-.967-1.519-.644-2.79-1.553-3.813-2.726-1.024-1.173-1.8-2.603-2.328-4.288C.264 26.333 0 24.449 0 22.368c0-2.082.264-3.958.792-5.627.529-1.669 1.304-3.098 2.328-4.288 1.023-1.19 2.294-2.098 3.813-2.726 1.519-.628 2.992-.942 5.2-.942s4.336.565 5.823 1.364l-2.703 5.378z" fill="url(#paint0_linear_949_32145)"/></g><defs><linearGradient id="paint0_linear_949_32145" x1="0" y1="8.785" x2="28.928" y2="39.782" gradientUnits="userSpaceOnUse"><stop stop-color="#C60FE9"/><stop offset=".52" stop-color="#0C6AF7"/><stop offset="1" stop-color="#2BE4FC"/></linearGradient><clipPath id="clip0_949_32145"><path fill="#fff" d="M0 0h283v36H0z"/></clipPath></defs></svg>