<svg width="165" height="60" fill="none" xmlns="http://www.w3.org/2000/svg"><path d="M75.891 33.373s-1.101.33-2.644 0c-1.432-.33-2.864-.88-2.864-2.313V17.843H76l-1.322-6.939h-4.296V.66L59.92 2.202v16.742C57.717 12.776 51.769 8.26 44.83 8.26c-6.829 0-12.667 4.296-14.98 10.354v-4.846s-2.203-4.846-12.557-4.846c-2.423 0-4.736.33-6.829.771V.66L0 2.202v37.67h10.464v-22.47c2.313-.44 3.855-.55 5.948-.11 1.542.22 2.864.881 2.864 2.974v19.716H29.74V30.07c2.313 6.058 8.151 10.354 14.98 10.354 6.939 0 12.887-4.406 15.09-10.574v7.27s3.965 2.864 10.244 2.864 7.6-.99 7.6-.99l-1.763-5.62zM44.83 31.721c-4.516 0-6.499-3.745-6.499-7.38s1.983-7.38 6.499-7.38 6.499 3.745 6.499 7.38c-.001 3.635-1.983 7.38-6.499 7.38z" fill="#FFA726"/><path d="M96.38 0a5.406 5.406 0 00-5.398 5.397 5.406 5.406 0 005.397 5.397 5.405 5.405 0 005.397-5.397A5.406 5.406 0 0096.379 0zm-5.29 39.322h10.464V13.218H91.091v26.104zm-13.107-.11h10.464V.661L77.984 2.203v37.009zm71.045-6.058c-3.084-.771-4.736-2.313-5.397-4.516H165v-3.084c0-10.794-7.38-17.293-15.861-17.293-6.719 0-12.557 4.186-14.87 10.134v-4.626s-3.855-4.626-12.887-5.067c-9.032-.441-16.963 1.432-16.963 1.432v29.63h10.464v-22.36c2.423-.441 3.855-.551 5.948-.22 1.542.22 2.864.881 2.864 3.084v19.496h10.464V30.18c2.313 5.948 8.151 10.134 14.87 10.134 5.948 0 10.244-1.652 13.218-5.397l-3.635-3.525c-3.525 2.313-7.601 2.203-9.583 1.762zm.11-16.852c4.186 0 5.948 3.084 6.168 5.728H142.75c.221-2.754 2.203-5.728 6.389-5.728z" fill="#6F9FEC"/><path d="M.098 53.89l1.217-.191c.068.488.259.86.57 1.12.313.26.75.39 1.31.39.565 0 .984-.114 1.258-.344.274-.23.41-.5.41-.81a.747.747 0 00-.362-.656c-.168-.11-.588-.25-1.258-.417-.902-.228-1.528-.425-1.876-.591a1.818 1.818 0 01-.793-.69 1.83 1.83 0 01-.27-.974c0-.324.074-.623.222-.9.148-.275.35-.504.605-.686.19-.141.452-.261.783-.36a3.726 3.726 0 011.063-.146c.57 0 1.07.082 1.5.246.43.164.749.386.954.667.205.28.346.655.424 1.125l-1.204.162c-.055-.374-.213-.666-.475-.875-.262-.21-.632-.314-1.111-.314-.565 0-.968.093-1.21.28-.242.187-.362.406-.362.656 0 .16.05.303.15.43.1.133.257.243.472.329.123.045.485.15 1.087.314.87.232 1.478.423 1.822.57.344.149.614.364.81.647.196.283.294.633.294 1.053 0 .41-.12.796-.36 1.159-.238.363-.583.643-1.035.84a3.774 3.774 0 01-1.531.298c-.943 0-1.662-.196-2.157-.588-.495-.392-.81-.974-.947-1.744zm12.812 2.167v-7.26h1.101v1.019a2.559 2.559 0 012.201-1.183c.538 0 .98.112 1.323.335.344.223.587.536.728.937.574-.848 1.322-1.271 2.242-1.271.72 0 1.274.199 1.661.598.387.399.581 1.013.581 1.842v4.983h-1.224v-4.573c0-.492-.04-.847-.12-1.063a1.035 1.035 0 00-.434-.523 1.353 1.353 0 00-.738-.198c-.51 0-.934.17-1.27.509-.338.339-.507.883-.507 1.63v4.218h-1.23V51.34c0-.547-.1-.957-.3-1.23-.202-.273-.53-.41-.985-.41-.346 0-.667.09-.96.273a1.554 1.554 0 00-.639.8c-.132.35-.198.857-.198 1.518v3.767H12.91v-.001zm21.72-.895c-.456.387-.895.66-1.316.82a3.812 3.812 0 01-1.357.239c-.797 0-1.411-.195-1.84-.584-.427-.39-.642-.888-.642-1.494 0-.355.08-.68.243-.974.162-.294.374-.53.636-.708.262-.178.557-.312.885-.403a8.892 8.892 0 011.094-.185c.994-.12 1.725-.26 2.194-.424l.007-.321c0-.501-.116-.854-.35-1.06-.313-.278-.781-.417-1.4-.417-.58 0-1.006.102-1.282.304s-.48.562-.612 1.077l-1.203-.164c.109-.515.29-.931.54-1.248.25-.317.613-.561 1.087-.731.474-.17 1.023-.256 1.647-.256.62 0 1.124.073 1.51.219.388.146.673.329.855.55.182.22.31.5.383.837.04.209.062.588.062 1.135v1.64c0 1.145.026 1.868.079 2.17.053.304.156.595.31.873h-1.284a2.63 2.63 0 01-.246-.895zm-.103-2.748c-.447.182-1.117.337-2.01.465-.506.073-.864.155-1.073.246a1.056 1.056 0 00-.656.984c0 .328.124.602.373.82.249.218.612.328 1.09.328.474 0 .896-.104 1.265-.311.369-.207.64-.491.813-.851.132-.278.198-.688.198-1.23v-.451zm8.457 3.643v-7.26h1.107v1.1c.283-.514.543-.853.783-1.018a1.36 1.36 0 01.79-.246c.415 0 .836.132 1.265.396l-.424 1.142a1.76 1.76 0 00-.902-.267c-.269 0-.51.08-.725.243a1.31 1.31 0 00-.458.673 4.787 4.787 0 00-.205 1.436v3.8h-1.23zm12.682-1.1l.178 1.087a4.551 4.551 0 01-.93.109c-.447 0-.793-.071-1.04-.212a1.19 1.19 0 01-.52-.557c-.1-.23-.15-.714-.15-1.453v-4.177h-.901v-.957h.902V47l1.224-.738v2.536h1.237v.957h-1.237V54c0 .35.02.577.065.677.044.1.114.18.212.239.098.059.238.089.42.089.137 0 .317-.016.54-.048zm15.242-1.067l1.217-.191c.068.488.26.86.571 1.12.312.26.75.39 1.31.39.564 0 .983-.114 1.257-.344.274-.23.41-.5.41-.81a.747.747 0 00-.362-.656c-.168-.11-.588-.25-1.258-.417-.902-.228-1.528-.425-1.876-.591a1.818 1.818 0 01-.793-.69 1.83 1.83 0 01-.27-.974c0-.324.074-.623.222-.9.148-.275.35-.504.605-.686.191-.141.452-.261.783-.36a3.726 3.726 0 011.063-.146c.57 0 1.07.082 1.5.246.43.164.75.386.954.667.205.28.346.655.424 1.125l-1.203.164c-.055-.374-.213-.666-.475-.875-.262-.21-.632-.314-1.11-.314-.566 0-.969.093-1.21.28-.243.187-.363.406-.363.656 0 .16.05.303.15.43.1.133.257.243.472.329.123.045.485.15 1.087.314.871.232 1.478.423 1.822.57.344.149.614.364.81.647.196.283.294.633.294 1.053 0 .41-.12.796-.359 1.159s-.584.643-1.036.84a3.774 3.774 0 01-1.53.298c-.944 0-1.663-.196-2.158-.588-.495-.392-.812-.976-.948-1.746zm12.811 2.166v-10.02h1.23v3.595c.574-.666 1.299-.998 2.174-.998.538 0 1.005.106 1.4.318.397.212.68.505.852.878.17.373.256.916.256 1.627v4.601H88.4v-4.6c0-.616-.133-1.064-.4-1.344s-.644-.42-1.131-.42c-.365 0-.708.095-1.03.284-.32.19-.55.445-.686.77-.137.323-.205.77-.205 1.34v3.971h-1.23v-.002zm12.648-3.629c0-1.344.374-2.34 1.121-2.987.625-.538 1.385-.807 2.283-.807.998 0 1.814.327 2.447.98.633.655.95 1.559.95 2.71 0 .935-.14 1.67-.42 2.206a2.98 2.98 0 01-1.224 1.248 3.555 3.555 0 01-1.753.444c-1.016 0-1.838-.326-2.464-.978-.626-.652-.94-1.59-.94-2.816zm1.265 0c0 .93.203 1.626.608 2.088.405.462.916.694 1.531.694.611 0 1.119-.232 1.524-.697.405-.465.608-1.173.608-2.126 0-.898-.204-1.578-.612-2.041a1.945 1.945 0 00-1.52-.694c-.616 0-1.126.23-1.532.69-.406.46-.607 1.156-.607 2.086zm12.3 6.413V48.798h1.121v.943c.264-.37.563-.646.896-.831.333-.185.736-.277 1.21-.277.62 0 1.167.16 1.641.479.474.319.832.769 1.073 1.35a4.94 4.94 0 01.362 1.91c0 .744-.133 1.413-.4 2.007-.267.594-.654 1.05-1.162 1.367a2.98 2.98 0 01-1.603.475c-.41 0-.778-.086-1.104-.26a2.52 2.52 0 01-.803-.656v3.534h-1.231zm1.114-6.371c0 .934.189 1.625.567 2.07.378.447.836.67 1.374.67.547 0 1.015-.23 1.405-.693.39-.463.584-1.18.584-2.15 0-.925-.19-1.618-.571-2.078-.381-.46-.835-.69-1.364-.69-.524 0-.988.245-1.391.735s-.604 1.2-.604 2.136zm11.993 6.371V48.798h1.121v.943c.264-.37.563-.646.896-.831.333-.185.736-.277 1.21-.277.62 0 1.167.16 1.641.479.474.319.832.769 1.073 1.35a4.94 4.94 0 01.362 1.91c0 .744-.133 1.413-.4 2.007-.267.594-.654 1.05-1.162 1.367a2.98 2.98 0 01-1.603.475c-.41 0-.778-.086-1.104-.26a2.52 2.52 0 01-.803-.656v3.534h-1.231zm1.114-6.371c0 .934.189 1.625.567 2.07.378.447.836.67 1.374.67.547 0 1.015-.23 1.405-.693.39-.463.584-1.18.584-2.15 0-.925-.19-1.618-.571-2.078-.381-.46-.835-.69-1.364-.69-.524 0-.988.245-1.391.735s-.604 1.2-.604 2.136zm11.997-5.019v-1.415h1.23v1.415h-1.23zm0 8.606v-7.26h1.23v7.26h-1.23zm8.424.001v-7.26h1.107v1.032c.533-.797 1.303-1.196 2.311-1.196.438 0 .84.079 1.207.236.367.157.642.363.824.619.182.256.31.558.383.909.045.228.068.626.068 1.196v4.464h-1.23V51.64c0-.501-.048-.876-.144-1.125a1.185 1.185 0 00-.509-.595 1.62 1.62 0 00-.858-.222c-.524 0-.977.167-1.357.499-.38.332-.571.964-.571 1.894v3.965h-1.231zm12.881.601l1.196.178c.05.369.189.638.417.807.305.228.722.342 1.251.342.57 0 1.009-.114 1.319-.342.31-.228.52-.547.629-.957.064-.25.093-.777.089-1.58-.538.634-1.208.95-2.01.95-.998 0-1.771-.36-2.317-1.08-.546-.72-.82-1.582-.82-2.59 0-.693.125-1.332.376-1.917s.614-1.038 1.09-1.357c.476-.32 1.036-.48 1.678-.48.857 0 1.563.347 2.119 1.04v-.875h1.135v6.275c0 1.13-.115 1.93-.345 2.403-.23.472-.595.844-1.094 1.118-.499.274-1.113.41-1.842.41-.866 0-1.565-.195-2.099-.584-.534-.39-.79-.977-.772-1.761zm1.018-4.361c0 .953.189 1.647.567 2.085a1.8 1.8 0 001.422.656c.565 0 1.039-.218 1.422-.653.383-.435.574-1.118.574-2.047 0-.89-.197-1.56-.591-2.01-.394-.451-.869-.677-1.425-.677-.547 0-1.012.222-1.395.667-.383.445-.574 1.104-.574 1.979z" fill="#FFA726"/></svg>