<svg width="110" height="85" fill="none" xmlns="http://www.w3.org/2000/svg"><path d="M8.997 30.32c-.054.136-.134.271-.188.406a27.354 27.354 0 00-2.202 10.78c0 2.432.403 4.837 1.208 7.214.35 1.054 1.263 3.162 2.767 6.35 1.047 2.134 1.826 4.053 2.336 5.728.752 2.431 1.128 4.863 1.128 7.295 0 1.432-.16 2.972-.483 4.593H6.66c.51-1.892.752-3.702.752-5.377 0-1.621-.296-3.323-.86-5.133-.295-.92-.967-2.621-2.068-5.053-1.611-3.54-2.659-6.052-3.115-7.565A28.44 28.44 0 010 40.777c0-3.242.537-6.485 1.638-9.7 1.101-3.215 2.66-6.322 4.673-9.348h5.023c3.894-9.483 11.763-16.887 21.54-20.075v7.214A28.407 28.407 0 0015.442 35.13c0 9.024 4.19 17.076 10.716 22.263v-7.24h6.714v22.533H26.16V65.58A35.166 35.166 0 018.73 35.157c-.081-1.648.026-3.27.268-4.836zm68.594 38.583c0-.972-.188-1.702-.591-2.188-.403-.487-.833-.784-1.29-.892-.08-.027-.134-.027-.188-.027h-.376c-.053 0-.134.027-.188.027-.483.108-.913.405-1.289.892-.403.486-.59 1.216-.59 2.188 0 1 .214 1.756.617 2.243.403.486.86.783 1.343.864.054 0 .107.027.161.027h.322c.054 0 .108 0 .162-.027.483-.08.94-.378 1.343-.864.376-.487.564-1.243.564-2.243zm0 3.702v-1.27c-.162.324-.35.567-.564.756-.189.19-.403.352-.618.46a1.675 1.675 0 01-.591.189 4.016 4.016 0 01-.537.054c-.887 0-1.639-.351-2.283-1.027-.645-.675-.967-1.648-.967-2.89 0-1.27.322-2.243.967-2.919.644-.648 1.45-1 2.363-1 .564 0 1.02.163 1.397.514.376.324.671.73.833 1.189h.053v-1.567h.886l-.053 1.459v6.106c0 .189 0 .378-.027.621s-.08.486-.134.73c-.135.486-.457.945-.913 1.35-.484.406-1.236.622-2.31.622-.323 0-.699-.027-1.101-.081a6.426 6.426 0 01-1.29-.324l.054-.892c.054.027.135.054.242.108.107.054.242.081.376.135.215.081.483.135.752.216.295.054.618.081.94.081.832 0 1.423-.189 1.772-.567.35-.378.565-.783.645-1.216.027-.135.054-.297.054-.432.053-.162.053-.297.053-.405zm4.136.108h-.914v-6.187l-.053-1.378h.885v1.54h.028c.16-.73 1.557-1.675 2.282-1.675.135 0 .27 0 .404.026.134 0 .268.028.402.082v.891a1.33 1.33 0 00-.43-.08h-.321c-1.021 0-2.257 1.215-2.257 2.458v4.323h-.026zm3.652-3.783c0-1.08.296-2 .913-2.756.618-.756 1.504-1.161 2.686-1.161 1.181 0 2.095.378 2.686 1.161.617.757.913 1.702.913 2.756 0 1.054-.296 1.973-.913 2.756-.618.757-1.505 1.135-2.686 1.135-1.182 0-2.068-.378-2.686-1.135a4.471 4.471 0 01-.913-2.756zm.967 0c0 .135 0 .297.027.486.026.163.053.325.08.514.135.54.403 1.027.806 1.459.403.46.967.675 1.72.675.75 0 1.342-.216 1.718-.675.403-.46.672-.946.805-1.46a1.59 1.59 0 00.081-.513c.027-.162.027-.324.027-.486 0-.135 0-.297-.027-.46l-.08-.486a3.455 3.455 0 00-.78-1.485c-.402-.46-.966-.676-1.745-.676-.752 0-1.343.216-1.746.676-.403.459-.672.945-.778 1.486a1.5 1.5 0 00-.08.486c0 .162-.028.297-.028.46zm13.053-3.81h.913v5.945l.053 1.648h-.886v-1.567h-.027c-.295.81-1.665 1.837-2.9 1.675-.135-.027-.296 0-.484-.027-.16-.027-.349-.027-.51-.081-.43-.135-.806-.405-1.155-.838-.349-.405-.51-1.08-.51-2.026V65.12h.913v4.674c0 .108 0 .27.027.46 0 .188.027.377.08.567.08.297.269.594.51.837.243.27.672.405 1.236.405h.215c.08 0 .134-.027.215-.027 1.074-.243 2.282-1.324 2.282-2.837v-4.08h.028zm3.437 3.783c0 1.054.242 1.837.699 2.35.456.514.993.784 1.584.784h.161c.054 0 .108 0 .161-.027.483-.08.94-.378 1.344-.864.402-.487.617-1.243.617-2.243 0-.972-.188-1.702-.591-2.188-.403-.487-.832-.784-1.289-.892-.081-.027-.134-.027-.188-.027h-.349c-.054 0-.108 0-.161.027-.483.081-.94.378-1.343.865-.456.486-.645 1.243-.645 2.215zm0 7.052h-.913v-9.348l-.053-1.46h.886v1.568h.053c.216-.54.538-.946.994-1.243.456-.297.94-.432 1.423-.432h.054c.833 0 1.558.324 2.176.972.617.649.913 1.621.913 2.945 0 1.27-.268 2.216-.833 2.81-.537.595-1.155.946-1.799 1.054-.108.027-.188.027-.296.054-.107 0-.215.027-.322.027-.537 0-.994-.135-1.37-.432-.375-.297-.671-.622-.886-1.027h-.054l.027 1.324v3.188zM38.379 61.987l.35-2.919c.294.136.644.27.993.406.349.108.725.216 1.074.324.35.081.698.135 1.074.216.35.054.699.081.994.081.833 0 1.477-.216 1.96-.621.484-.405.726-.865.726-1.405 0-.622-.188-1.08-.537-1.405-.35-.324-.806-.622-1.37-.892a17.438 17.438 0 00-.698-.324c-.242-.108-.51-.243-.752-.351-.08-.054-.161-.081-.242-.135a1.083 1.083 0 01-.242-.135c-1.02-.54-1.826-1.108-2.444-1.73-.617-.621-.913-1.513-.913-2.674 0-.244.027-.568.108-.946.053-.378.188-.757.322-1.135.295-.675.832-1.297 1.558-1.837.725-.54 1.826-.838 3.276-.838a17.3 17.3 0 012.149.135c.644.108 1.208.19 1.692.325.188.054.376.108.537.135.161.054.295.08.403.108l-.35 2.702a8.076 8.076 0 00-.966-.352c-.323-.108-.672-.189-.994-.27-.296-.054-.59-.108-.86-.135a8.615 8.615 0 00-.832-.054c-.725 0-1.262.108-1.612.324a2.39 2.39 0 00-.751.703c-.054.135-.108.27-.135.405-.027.135-.027.243-.027.324 0 .54.162.973.484 1.297.322.324.671.595 1.047.784.134.054.242.108.35.162.107.054.214.108.322.135.027.027.027.027.053.027h.08c.028.027.055.027.108.054.027.027.054.027.108.054a17.229 17.229 0 013.25 1.837c.966.703 1.477 1.892 1.477 3.567v.189c0 .054 0 .135-.027.189-.08 1.135-.618 2.161-1.612 3.107-.993.919-2.578 1.405-4.753 1.405-.887 0-1.665-.081-2.39-.243a19.871 19.871 0 01-1.988-.595zm19.847-4.999h-1.423c-.269 0-.537.027-.806.054a4.952 4.952 0 00-1.826.513c-.564.27-.833.757-.833 1.46v.054c.027.378.161.729.43 1.053.269.324.806.486 1.531.486.779 0 1.477-.243 2.068-.729.59-.486.886-1.35.886-2.594v-.297h-.027zm-6.768-3.593v-2.567c.484-.19.94-.351 1.397-.46.457-.108.886-.189 1.343-.27.295-.027.618-.054.913-.08.295-.028.618-.028.913-.028 1.746 0 2.981.297 3.733.865.752.594 1.236 1.243 1.477 1.945.108.352.188.703.215 1.054.027.351.054.648.054.919v7.862h-3.17v-1.837h-.053c-.215.459-.51.81-.832 1.08-.323.27-.699.46-1.048.595-.376.135-.752.243-1.101.27-.35.027-.645.054-.86.054-1.423 0-2.47-.324-3.115-.946-.644-.621-1.047-1.323-1.182-2.08-.027-.135-.053-.243-.053-.378v-.595c.053-.972.483-1.864 1.316-2.702.832-.81 2.444-1.215 4.807-1.215h.913c.161.027.323.027.457.027h.725l-.027-.54c-.027-.757-.322-1.298-.86-1.622a3.654 3.654 0 00-1.906-.513 8.56 8.56 0 00-1.826.216c-.726.19-1.45.486-2.23.946zm10.18-3.189h3.571l2.605 7.7.51 1.838h.081l.457-1.837 2.498-7.7h3.33l-4.566 12.455H66.31l-4.673-12.456zm13.697 0h3.25v12.456h-3.25V50.206zm3.303-4.566v3.378h-3.33V45.64h3.33zm3.303 6.944h-2.444v-2.405h2.444v-2.485l3.25-1.027v3.512h2.874v2.405H85.19v5.647c0 .621.08 1.135.242 1.54.16.432.617.648 1.37.648h.214l.565-.08c.188-.028.349-.082.51-.136V62.5c-.242.054-.51.08-.78.135-.295.027-.563.081-.858.108-.135.027-.296.027-.43.027h-.43c-1.101 0-1.907-.216-2.39-.676-.484-.459-.833-.972-.994-1.513a3.328 3.328 0 01-.188-.864c-.027-.297-.027-.54-.027-.757v-6.376h-.054zm15.175 4.404h-1.424c-.269 0-.537.027-.806.054a4.953 4.953 0 00-1.826.513c-.564.27-.832.757-.832 1.46v.054c.026.378.16.729.43 1.053.268.324.778.486 1.53.486.779 0 1.478-.243 2.068-.729.591-.486.887-1.35.887-2.594v-.297h-.027zm-6.741-3.593v-2.567c.483-.19.94-.351 1.396-.46.457-.108.886-.189 1.343-.27.295-.027.618-.054.913-.08.296-.028.618-.028.913-.028 1.746 0 2.981.297 3.733.865.753.594 1.236 1.243 1.477 1.945.108.352.188.703.215 1.054.028.351.054.648.054.919v7.862h-3.17v-1.837h-.053c-.214.459-.51.81-.832 1.08a3.39 3.39 0 01-1.048.595c-.376.135-.752.243-1.101.27-.35.027-.645.054-.86.054-1.423 0-2.47-.324-3.141-.946-.645-.621-1.048-1.323-1.183-2.08-.026-.135-.053-.243-.053-.378v-.595c.053-.972.483-1.864 1.316-2.702.832-.81 2.444-1.215 4.807-1.215h.914c.16.027.322.027.456.027h.725l-.027-.54c-.026-.757-.322-1.298-.86-1.622a3.653 3.653 0 00-1.906-.513c-.59 0-1.208.08-1.826.216-.725.19-1.424.486-2.202.946zm11.467-3.189h2.955v2.702h.08c.188-.837.564-1.54 1.129-2.08.59-.54 1.316-.81 2.175-.81h.242c.08 0 .161.026.241.026.108 0 .215 0 .323.027.107.027.187.054.268.054l-.107 2.378c-.081-.027-.161-.027-.269-.027h-.295c-.108-.027-.189-.027-.269-.027h-.242c-.161 0-.349.027-.564.054a2.167 2.167 0 00-.671.216c-.457.216-.859.621-1.208 1.216-.377.594-.538 1.486-.538 2.702v5.97h-3.25v-12.4z" fill="#000"/><path fill-rule="evenodd" clip-rule="evenodd" d="M9.749 74.895c2.766 0 5.022 2.27 5.022 5.053S12.515 85 9.75 85c-2.766 0-5.022-2.27-5.022-5.052 0-2.783 2.256-5.053 5.022-5.053zM43.616 0c19.31 0 34.941 15.752 34.941 35.15h-6.714c0-15.67-12.65-28.395-28.227-28.395-3.814 0-7.467.756-10.797 2.161V1.702A34.627 34.627 0 0143.616 0z" fill="#F85B51"/></svg>