<svg width="191" height="72" fill="none" xmlns="http://www.w3.org/2000/svg"><path d="M188.135 35.783l-.043-.029a491.93 491.93 0 01-6.793-4.486l-.029-.019c-3.357-1.878-6.27-2.843-8.655-2.862h-.038c-5.414.46-9.717 2.574-12.798 6.272-1.731 2.109-2.621 4.231-2.635 6.31a5.926 5.926 0 001.072 3.483c.029.518.26.936.668 1.22 1.145 1.354 2.823 2.641 4.986 3.827 1.067.577 3 1.47 5.745 2.651 1.957.846 3.928 1.686 5.851 2.483 2.163 1.052 3.885 2.113 5.135 3.156v.062c0 .072-.011.115-.014.13l-.173.115a1.68 1.68 0 00-.712.216c-.149.087-.366.14-.635.168l-.067.01c-1.188.307-2.971.389-5.313.245a45.769 45.769 0 01-6.322-.793c-4.736-.912-8.236-2.022-10.409-3.29l-.124-.153.139-.067.062-.087c.058-.081.231-.264.77-.566l.202-.116v-.235c.004-.322.081-.59.235-.821l.024-.044a.723.723 0 00.029-.629c-.135-.307-.461-.538-1.058-.73-.096-.168-.288-.331-.673-.422l-.043-.01a6.797 6.797 0 00-1.231-.01c-.985.092-1.683.25-2.12.48-.885.025-2.24.428-2.26 2.676-.004.432.039.7.135.879.264.663.707 1.301 1.308 1.906-3.712 2.195-7.289 2.637-13.058 2.594-3.99-1.45-5.779-4.174-5.356-8.17.202-.773.592-1.157 1.173-1.152 5.092.946 7.736 1.45 7.928 1.513 2.712.216 4.976-.51 6.794-2.171 3.12-2.877 4.692-5.701 4.716-8.477.029-3.482-2.462-6.853-7.471-10.119-1.221-.72-3.217-1.48-5.986-2.272-1.226-.331-2.384-.504-3.481-.514a11.577 11.577 0 00-3.004.365c-2.794 1.85-5.198 4.15-7.222 6.907-2.937 4.106-4.423 8.284-4.456 12.54-.019 2.333.389 4.447 1.221 6.353-4.856 3.338-10.553 4.985-17.096 4.933-3.991-1.45-5.779-4.174-5.356-8.17.202-.773.591-1.157 1.173-1.152 5.091.946 7.736 1.45 7.928 1.513 2.711.216 4.976-.51 6.798-2.171 3.12-2.877 4.692-5.701 4.716-8.477.029-3.482-2.461-6.853-7.471-10.12-1.221-.72-3.216-1.479-5.985-2.27-1.226-.332-2.385-.505-3.481-.515a11.57 11.57 0 00-3.005.365c-2.793 1.85-5.197 4.15-7.221 6.907-2.457 3.433-3.894 6.92-4.322 10.46-1.736-2.046-5.053-3.698-9.957-4.966-1.61-.399-4.51-.97-8.702-1.715-3.673-.672-6.543-1.31-8.6-1.907v-.287c1.095-.183 4.75-.899 10.96-2.138 4.395-.87 8.02-1.676 10.866-2.43 8.99-2.507 13.245-5.6 12.76-9.279-1.9-4.529-4.587-7.809-8.053-9.836-2.442-1.503-6.755-3.212-12.933-5.134-6.89-2.185-15.404-3.313-25.538-3.395-15.818-.13-31.842 2.065-48.082 6.58-.39-.005-.923.25-1.606.758-.682.514-1.024.899-1.024 1.153C.327 14.027.02 16.025 0 18.796c.38.716 1.284 1.33 2.697 1.858l.48.197c.775.005 1.486-.052 2.13-.177l.395-.577c0-.13.327-.542.976-1.248.014-1.61 1.187-3.055 3.52-4.323a16.51 16.51 0 015.725-1.791c.582.005 1.774-.178 3.587-.552 6.72-1.172 15.086-1.652 25.09-1.441 9.746.144 17.808 1.273 24.184 3.386 1.158.528 2.634 1.248 4.437 2.166 3.986 2.099 6.322 4.212 7.02 6.344.379 1.1-.246 2.128-1.866 3.079-1.947 1.402-4.538 2.574-7.774 3.515-8.606 2.445-18.591 3.722-29.952 3.823-1.808.053-2.707-.346-2.702-1.181l.005-.773c.01-1.417.053-2.805.13-4.16.077-1.354-.236-2.708-.938-4.068l-.428-7.16.005-.774-2.702-1.277-.49.48c-1.558.894-2.534 2.272-2.938 4.135-.269 1.033-.38 2.786-.331 5.269.043 2.483-.068 4.24-.332 5.268-.466 1.869-1.48 3.247-3.034 4.135l-5.23-.043c-.91.25-1.361.504-1.361.764-.452-.005-.712.057-.774.187 0 .067.062.13.192.197l.577.394c-.005.71.442 1.292 1.341 1.753l.385.581c.13.13.385.293.77.49.13.13.83.523 2.12 1.176.966.524 1.446.947 1.442 1.268l-.034 3.967-2.312 10.72-.015 2.031c-.26.322-.875.476-1.846.471-.837-.264-1.514-.432-2.029-.5l-1.644-.014c-.452.125-.683.543-.688 1.254a5.83 5.83 0 001.822 1.95c.063.067.803.49 2.217 1.277.836.264 1.255.687 1.25 1.268l-.043 5.321c-.01 1.095.726 2.099 2.202 3.016 1.283.846 2.538 1.34 3.764 1.48 1.029.134 1.938-.049 2.716-.558.322.005.486-.22.49-.672l.005-.581.5-2.123c.01-1.032.145-1.806.404-2.32l1.842-.47 1.836.206c6.385.951 14.385 1.34 24.005 1.163 8.135-.193 15.798-1.518 22.98-3.977 2.53-1.335 4.41-2.512 5.645-3.535 1.538-1.378 2.5-2.843 2.885-4.394 1.014 1.95 2.5 3.66 4.47 5.129 1.347 1.042 3.89 2.065 7.626 3.06 3.995 1.06 7.024 1.44 9.091 1.138 4.716-.61 8.375-1.902 10.971-3.876.957-.687 1.678-1.427 2.168-2.214a16.672 16.672 0 002.38 2.151c1.346 1.043 3.89 2.066 7.625 3.06 3.995 1.061 7.024 1.44 9.091 1.138 4.717-.61 8.375-1.902 10.972-3.876.303-.216.557-.418.783-.615 4.64 1.98 10.082 3.204 16.212 3.64 1.274.087 2.457.126 3.548.126 1.856 0 3.443-.12 4.746-.365 1.133-.23 2.306-.692 3.47-1.364 1.798-1.023 2.712-2.258 2.726-3.665.009-1.133-.697-2.204-2.101-3.194-4.859-3.294-11.154-6.493-18.706-9.509-2.303-.912-3.467-1.983-3.457-3.189.014-1.729 1.735-3.54 5.125-5.388 2.067-1.124 3.889-1.902 5.437-2.32l.39-.125.404.005c.081.087.182.168.293.24a.95.95 0 00.312.581c.375.74.938 1.576 1.683 2.498 1.529 1.834 3.951 2.69 7.197 2.54 2.832-.158 4.331-.888 4.582-2.238.135-.72-.26-1.47-1.211-2.281zm-46.707-1.225l.678-.187 1.74.206.385.486c.961.974 1.533 1.752 1.725 2.334-.033 4.385-1.124 7.31-3.264 8.774l-.293.48c-.842.25-1.616.245-2.322-.019-1.803-.595-2.697-1.796-2.683-3.602.019-2.699 1.361-5.523 4.034-8.472zm-32.241-.26l.678-.186 1.741.206.384.485c.962.975 1.534 1.753 1.726 2.334-.034 4.385-1.125 7.31-3.264 8.775l-.293.48c-.842.25-1.616.245-2.323-.02-1.803-.595-2.697-1.795-2.682-3.601.014-2.7 1.36-5.523 4.033-8.472zM78.543 51.662c-2.404 1.657-5.288 3.02-8.649 4.091-6.471 1.945-13.966 3.016-22.49 3.204-2.972.105-6.65.077-11.039-.087-2-.081-2.966-.509-2.894-1.282.14-1.225.212-2.156.217-2.805.437-6.123 1.086-10.503 1.947-13.14l.389-.288 1.36-.47 4.452.033 17.332.14c8.125 1.291 14.048 2.79 17.78 4.495 2.187.984 3.273 2.089 3.263 3.313-.004.908-.562 1.835-1.668 2.796z" fill="#000"/><path d="M122.53 19.412c.019.14.029.26.029.36 0 .644-.472 1.114-1.419 1.417-.48.14-.985.192-1.504.149a2.515 2.515 0 01-1.356-.514c-.543-.404-.875-.802-.995-1.206l-.212-.21c0-.102-.11-.15-.332-.15 0 .02-.033.044-.105.077-.072.029-.106.058-.106.077-.322.24-.654.49-.995.754-.342.26-.693.432-1.053.514-.26.062-.625.091-1.087.091-1.086-.14-2-.59-2.74-1.354-.644-.783-1.005-1.585-1.087-2.406-.139-1.523.553-3.002 2.077-4.424a13.189 13.189 0 012.409-1.748 3.818 3.818 0 011.356-.269c.764 0 1.466.24 2.11.72.923.721 1.467 1.538 1.625 2.44 0 .082.039.12.12.12 0 .164.169.24.515.24.24.101.601.231 1.086.39 0 .038.101.13.303.269l.12.09v.212l-.12.15c-.101.08-.24.22-.423.422a.94.94 0 00-.409.451c-.091.202-.177.404-.254.6-.039.38-.14.855-.303 1.417-.082.221-.12.432-.12.634 0 .26.072.49.211.692.14.5.38.783.721.84.279.063.611 0 .996-.182.379-.183.572-.413.572-.692 0-.14-.111-.22-.332-.24a.79.79 0 01.269-.062c.289 0 .433.11.433.331zm-5.457-3.645a.477.477 0 00-.12-.303l-.12-.062-.635-.663c-.019-.062-.082-.163-.183-.317-.1-.149-.149-.264-.149-.346.039-.019.082-.125.121-.317.038-.192.11-.288.211-.288 0-.062-.048-.091-.149-.091a1.62 1.62 0 01-.303.029c-2.211 1.743-3.312 3.251-3.312 4.514 0 .322.101.61.303.874.139.063.221.091.24.091.039 0 .111-.01.211-.028.102-.02.169-.03.212-.03.644-.22 1.264-.619 1.87-1.205.159-.182.654-.744 1.476-1.685l.327-.173zm10.045-7.312c.159.12.24.25.24.389 0 .26-.173.571-.509.931-.563.625-1.068 1.004-1.505 1.143l-.212.063c-.221.082-.461.12-.721.12-.163 0-.322-.01-.481-.029-.966-.442-1.476-.855-1.538-1.234-.063-.38.072-.913.389-1.595.241-.302.553-.49.933-.571h.841c.967 0 1.678.091 2.14.269.283.1.423.269.423.514zm2.139 10.834c.101.202.149.39.149.572 0 .524-.312.994-.932 1.417a3.8 3.8 0 01-1.356.509c-.443.062-.967.01-1.567-.15-2.068-.542-3.063-1.757-2.981-3.64.038-.782.149-1.594.332-2.44.081-.422.12-.81.12-1.171 0-.38-.048-.744-.149-1.085v-.15c0-.018.019-.038.062-.062.039-.019.063-.062.063-.12.259-.12.471-.182.634-.182.082 0 .149.019.212.062h.303c.601.063 1.485.211 2.649.452l.211.149c.183.12.25.259.212.422a.454.454 0 01-.303.36 5.733 5.733 0 00-.966 3.012c-.02 1.104.192 2.108.634 3.01l.332.212c0 .063.029.091.091.091.14 0 .481-.148 1.024-.451.673-.408 1.087-.677 1.226-.817z" fill="#FAC212"/><path d="M139.745 19.774c.019.1.029.201.029.302 0 .62-.332 1.095-.995 1.417a2.997 2.997 0 01-1.808.27c-1.87-.284-3.024-1.096-3.466-2.44a4.898 4.898 0 01-.27-1.806c.02-.62.029-1.206.029-1.749l-.423.12v.572c-.461 2.065-1.447 3.674-2.952 4.817-.221.202-.591.34-1.115.423-.524.081-.865-.039-1.024-.36 0-.284.029-.572.091-.875 1.707-1.825 2.693-3.429 2.952-4.817.082-.422.01-.912-.211-1.474-.26-.682-.39-1.225-.39-1.623-.019-.6.092-1.134.332-1.595.303-.581.731-.874 1.293-.874.404 0 .914.202 1.539.6l.211.303c0 .802-.202 1.647-.601 2.526v.063c0 .259.159.331.481.21h.12c.904-.379 1.486-.57 1.75-.57.885 0 1.558.259 2.019.782.241.26.361.543.361.84 0 .222-.12.534-.361.932-.201.303-.389.6-.572.903-.38.745-.572 1.427-.572 2.046 0 .625.192 1.124.572 1.503v.15c.14.062.241.1.303.12.063.019.12.028.183.028a.187.187 0 00.149-.062h.211c.477-.37 1.193-.6 2.135-.682z" fill="#FAC212"/><path d="M148.202 3.43c0 .24-.058.499-.183.782-1.284 3.03-3.414 7.151-6.389 12.372-.164.259-.212.58-.15.965.14 1.042.731 1.988 1.779 2.829l.092.148c.101.02.221.039.36.063.14.02.303.02.481 0 .644-.02 1.173-.159 1.596-.423.241-.158.664-.542 1.265-1.143.202.303.302.61.302.932 0 .48-.249.941-.754 1.383-.765.701-1.52 1.052-2.26 1.052-.625 0-1.293-.211-2.019-.634-.442-.26-.904-.514-1.385-.754-1.706-.663-2.654-2.027-2.832-4.092a22.773 22.773 0 01-.062-1.503c0-3.011.563-6.69 1.687-11.046l1.025-3.823c.019-.039.081-.091.182-.149 0-.1.029-.154.092-.163a.451.451 0 00.197-.092.69.69 0 01.226-.105 1.81 1.81 0 01.389-.029c1.726.038 3.567.692 5.514 1.955.361.442.544.682.544.72.062.163.163.413.303.754zm-2.712-.332c-.163-.12-.322-.183-.481-.183-.259 0-.524.15-.783.452-.322.36-.573.792-.755 1.292-.14.782-.467 1.93-.981 3.448s-.836 2.665-.981 3.448a.462.462 0 00-.062.452c.038.163.062.293.062.389l.121.12c.139.1.745-.822 1.807-2.771.404-.72.765-1.374 1.087-1.955l.423-.812c.36-.5.61-1.143.755-1.926.081-.36.11-.71.091-1.051a2.247 2.247 0 00-.303-.903z" fill="#FAC212"/><path d="M150.937 8.457c.158.12.24.25.24.389 0 .259-.173.571-.51.931-.562.625-1.067 1.004-1.505 1.143l-.211.063a2.06 2.06 0 01-.721.12 3.98 3.98 0 01-.481-.029c-.966-.442-1.476-.855-1.538-1.234-.058-.38.072-.913.389-1.595.24-.302.553-.49.933-.571h.841c.966 0 1.678.091 2.139.269.284.1.424.269.424.514zm2.139 10.834c.101.202.149.39.149.572 0 .524-.312.994-.933 1.417a3.79 3.79 0 01-1.355.509c-.443.062-.967.01-1.568-.15-2.067-.542-3.062-1.757-2.981-3.64.039-.782.149-1.594.332-2.44.082-.422.12-.81.12-1.171 0-.38-.048-.745-.149-1.085v-.15c0-.019.02-.038.058-.062.039-.019.063-.062.063-.12.259-.12.471-.182.634-.182.082 0 .149.019.212.062h.303c.601.063 1.485.211 2.649.451l.211.15c.183.12.25.259.212.422a.454.454 0 01-.303.36 5.743 5.743 0 00-.967 3.011c-.019 1.105.193 2.109.635 3.012l.332.211c0 .063.029.091.091.091.14 0 .481-.149 1.024-.451.678-.408 1.091-.677 1.231-.817z" fill="#FAC212"/><path d="M165.798 18.27c.201.26.302.524.302.784 0 .802-.533 1.335-1.596 1.594-.764.279-1.437.423-2.019.423-.803 0-1.495-.221-2.077-.663-.644-.5-1.207-1.383-1.687-2.646l-.121-.212-.423.212c-.062.081-.341.61-.841 1.594-.341.663-.702 1.114-1.087 1.355a.457.457 0 00-.163.043.482.482 0 01-.164.043c-.139.1-.24.149-.302.149h-.452a.987.987 0 01-.332-.077 1.163 1.163 0 00-.361-.077l-.211-.091c-1.567-.524-2.39-1.595-2.471-3.223-.02-.542.019-1.215.12-2.017.139-.941.211-1.585.211-1.926.02-.36-.009-.643-.091-.84 0-.202-.106-.432-.317-.692-.212-.259-.318-.432-.318-.509 0-.22.38-.312 1.145-.269 1.687.082 2.649.745 2.894 1.989.038.259.062.533.062.811 0 .26-.033.653-.105 1.172a9.511 9.511 0 00-.106 1.234l.091.12c0 .082.039.12.12.12.082 0 .121-.038.121-.12l.091-.12c.221-.542.433-1.07.635-1.594.259-.6.552-1.085.875-1.446.581-.662 1.317-.994 2.201-.994.462 0 1.005.101 1.625.303.544.283.813.653.813 1.114.12.422.168.821.149 1.205-.019.404-.039.802-.062 1.206-.02 1.004.1 1.806.36 2.406.303.744.712 1.114 1.236 1.114.379 0 .803-.192 1.264-.571.317-.264.649-.562.991-.903zm11.053-.755c.202.341.303.654.303.932 0 .562-.303 1.062-.904 1.503-.803.62-1.937 1.033-3.404 1.235-.644.1-1.586-.01-2.831-.332-1.164-.302-1.957-.61-2.38-.931-1.284-.942-1.928-2.22-1.928-3.823 0-1.326.452-2.627 1.356-3.915a8.684 8.684 0 012.23-2.165c.303-.082.611-.12.933-.12.342 0 .702.047 1.087.148.865.24 1.485.471 1.87.692 1.567 1.004 2.351 2.046 2.351 3.131 0 .865-.481 1.744-1.447 2.647-.563.523-1.265.753-2.111.691-.058-.02-.884-.168-2.471-.451-.183 0-.303.12-.361.36-.12 1.244.443 2.089 1.688 2.526 2.361.01 4.37-.701 6.019-2.128zm-4.009-4.697c-.063-.182-.241-.422-.544-.72l-.12-.149-.543-.062-.212.062c-.822.922-1.235 1.806-1.235 2.646 0 .562.279.932.841 1.115.221.081.462.081.721 0l.092-.15c.668-.46 1-1.378 1-2.742z" fill="#FAC212"/></svg>