<svg width="239" height="90" fill="none" xmlns="http://www.w3.org/2000/svg"><path d="M234.923 44.729l-.054-.036c-3.76-2.45-6.611-4.34-8.483-5.607l-.036-.024c-4.191-2.348-7.829-3.554-10.807-3.578h-.048c-6.76.576-12.133 3.217-15.981 7.84-2.161 2.636-3.272 5.289-3.29 7.888a7.42 7.42 0 001.339 4.353c.036.648.324 1.17.835 1.525 1.428 1.692 3.524 3.301 6.225 4.784 1.333.72 3.746 1.837 7.174 3.314a539.997 539.997 0 007.306 3.104c2.701 1.314 4.851 2.641 6.412 3.944v.078c0 .09-.013.144-.018.162l-.216.144a2.098 2.098 0 00-.889.27c-.186.108-.456.174-.793.21l-.084.013c-1.483.384-3.71.486-6.633.305a57.099 57.099 0 01-7.895-.99c-5.913-1.14-10.283-2.527-12.997-4.112l-.156-.192.174-.084.078-.108c.072-.103.288-.33.961-.709l.252-.144v-.294c.006-.402.102-.738.294-1.027l.03-.054a.908.908 0 00.036-.786c-.168-.384-.576-.672-1.321-.913-.12-.21-.36-.414-.84-.528l-.054-.012c-.408-.048-.907-.054-1.537-.012-1.231.114-2.101.312-2.648.6-1.104.03-2.797.535-2.821 3.344-.006.54.048.877.168 1.099.33.828.883 1.627 1.633 2.383-4.634 2.744-9.101 3.296-16.305 3.242-4.983-1.813-7.216-5.217-6.688-10.212.253-.966.739-1.446 1.465-1.44 6.358 1.182 9.66 1.812 9.9 1.89 3.385.27 6.213-.636 8.482-2.713 3.896-3.596 5.86-7.126 5.889-10.596.036-4.352-3.073-8.566-9.329-12.649-1.524-.9-4.016-1.849-7.474-2.84-1.531-.414-2.977-.63-4.346-.642a14.44 14.44 0 00-3.752.457c-3.488 2.31-6.49 5.186-9.017 8.632-3.668 5.133-5.523 10.356-5.565 15.675-.024 2.917.486 5.559 1.525 7.942-6.064 4.173-13.178 6.232-21.348 6.166-4.983-1.813-7.216-5.217-6.688-10.212.252-.966.738-1.447 1.465-1.44 6.357 1.182 9.659 1.812 9.899 1.89 3.386.27 6.214-.636 8.489-2.713 3.896-3.596 5.859-7.126 5.889-10.596.036-4.352-3.074-8.567-9.329-12.649-1.525-.9-4.016-1.85-7.474-2.84-1.531-.414-2.978-.63-4.346-.642a14.432 14.432 0 00-3.752.456c-3.488 2.312-6.49 5.187-9.018 8.633-3.067 4.293-4.862 8.651-5.396 13.075-2.168-2.557-6.31-4.622-12.433-6.207-2.011-.498-5.631-1.213-10.866-2.143-4.587-.84-8.17-1.64-10.74-2.384v-.36c1.369-.228 5.931-1.122 13.687-2.671 5.487-1.087 10.014-2.096 13.568-3.038 11.226-3.134 16.539-7 15.933-11.598-2.372-5.662-5.728-9.762-10.056-12.295-3.05-1.88-8.434-4.016-16.149-6.418-8.602-2.731-19.234-4.142-31.89-4.244C44.72 5.233 24.71 7.976 4.43 13.62c-.486-.006-1.152.312-2.005.948-.852.642-1.278 1.123-1.278 1.44C.408 17.535.024 20.032 0 23.496c.474.894 1.603 1.663 3.368 2.323l.6.246c.967.006 1.855-.066 2.66-.222l.492-.72c0-.162.408-.679 1.219-1.561.018-2.011 1.482-3.818 4.394-5.403a20.6 20.6 0 017.15-2.24c.726.007 2.215-.221 4.478-.69 8.393-1.464 18.839-2.065 31.332-1.8 12.168.18 22.236 1.59 30.197 4.232 1.446.66 3.29 1.56 5.54 2.707 4.977 2.624 7.895 5.265 8.765 7.93.475 1.375-.306 2.66-2.329 3.849-2.431 1.753-5.667 3.218-9.707 4.394-10.746 3.056-23.215 4.653-37.401 4.779-2.257.066-3.38-.432-3.374-1.477l.006-.966c.012-1.771.066-3.506.162-5.2.096-1.692-.294-3.385-1.17-5.084l-.535-8.951.006-.967-3.373-1.597-.613.6c-1.945 1.117-3.164 2.84-3.668 5.17-.336 1.29-.474 3.481-.414 6.585.054 3.104-.084 5.301-.414 6.586-.583 2.335-1.85 4.058-3.788 5.169l-6.532-.054c-1.135.312-1.699.63-1.699.954-.564-.006-.888.072-.966.234 0 .084.078.163.24.247l.72.492c-.006.888.552 1.615 1.675 2.191l.48.727c.162.161.48.366.96.612.163.162 1.04.654 2.648 1.47 1.207.655 1.807 1.183 1.801 1.585l-.042 4.96-2.887 13.399-.018 2.539c-.325.402-1.093.594-2.306.588-1.044-.33-1.89-.54-2.533-.624l-2.053-.018c-.565.156-.853.678-.859 1.567a7.296 7.296 0 002.275 2.437c.079.084 1.003.613 2.768 1.597 1.045.33 1.567.858 1.561 1.585l-.054 6.651c-.012 1.37.906 2.624 2.75 3.77 1.602 1.057 3.17 1.675 4.7 1.85 1.285.168 2.42-.06 3.392-.697.402.006.606-.276.612-.84l.006-.727.624-2.653c.013-1.29.18-2.257.505-2.9l2.299-.588 2.293.258c7.973 1.189 17.962 1.675 29.975 1.453 10.157-.24 19.727-1.897 28.696-4.97 3.157-1.67 5.505-3.14 7.048-4.42 1.921-1.722 3.121-3.553 3.602-5.492 1.266 2.437 3.121 4.574 5.583 6.411 1.681 1.303 4.856 2.582 9.521 3.824 4.989 1.327 8.771 1.801 11.352 1.423 5.889-.762 10.458-2.377 13.7-4.844 1.194-.859 2.095-1.784 2.707-2.768a20.76 20.76 0 002.972 2.69c1.681 1.302 4.856 2.581 9.521 3.824 4.989 1.326 8.771 1.8 11.352 1.422 5.89-.762 10.458-2.377 13.7-4.844.378-.27.696-.523.978-.769 5.794 2.474 12.589 4.005 20.244 4.55 1.591.109 3.067.157 4.43.157 2.317 0 4.299-.15 5.926-.456 1.415-.288 2.88-.865 4.334-1.705 2.245-1.279 3.386-2.822 3.404-4.58.011-1.418-.871-2.757-2.624-3.993-6.068-4.118-13.927-8.117-23.359-11.887-2.875-1.14-4.328-2.48-4.316-3.986.018-2.161 2.167-4.424 6.399-6.736 2.582-1.404 4.857-2.377 6.79-2.9l.487-.155.504.006c.102.108.228.21.366.3.06.354.222.582.39.726.468.925 1.171 1.97 2.101 3.122 1.909 2.293 4.935 3.362 8.987 3.176 3.537-.198 5.409-1.11 5.722-2.798.168-.9-.324-1.837-1.512-2.851zM176.6 43.198l.846-.234 2.173.258.48.606c1.201 1.219 1.915 2.191 2.155 2.918-.041 5.48-1.404 9.137-4.076 10.968l-.366.6c-1.05.312-2.017.306-2.899-.024-2.252-.744-3.368-2.245-3.35-4.502.024-3.374 1.699-6.904 5.037-10.59zm-40.259-.324l.847-.234 2.173.258.48.606c1.201 1.219 1.915 2.191 2.155 2.918-.042 5.48-1.404 9.137-4.076 10.968l-.366.6c-1.051.312-2.017.306-2.9-.024-2.251-.744-3.368-2.245-3.35-4.502.018-3.374 1.699-6.904 5.037-10.59zM98.076 64.576c-3.002 2.07-6.604 3.776-10.8 5.115-8.08 2.43-17.44 3.77-28.083 4.004-3.71.132-8.303.096-13.784-.108-2.497-.102-3.704-.637-3.614-1.603.174-1.531.264-2.696.27-3.506.547-7.654 1.357-13.13 2.431-16.425l.487-.36 1.699-.589 5.559.042 21.642.174c10.145 1.615 17.541 3.488 22.2 5.62 2.732 1.23 4.088 2.61 4.076 4.142-.006 1.134-.702 2.293-2.083 3.494z" fill="#8F9BB3"/><path d="M153.001 24.265c.024.175.036.325.036.45 0 .805-.588 1.393-1.771 1.772-.6.174-1.23.24-1.879.186a3.142 3.142 0 01-1.693-.643c-.678-.504-1.092-1.002-1.242-1.506l-.264-.265c0-.125-.139-.186-.415-.186 0 .024-.042.054-.132.096-.09.037-.132.072-.132.096-.402.3-.816.613-1.242.943-.427.324-.865.54-1.315.642-.324.078-.781.114-1.357.114-1.357-.174-2.497-.738-3.422-1.692-.804-.979-1.255-1.981-1.357-3.008-.174-1.903.691-3.752 2.594-5.53.9-.828 1.903-1.554 3.007-2.184.601-.229 1.165-.337 1.693-.337.955 0 1.831.3 2.636.9 1.152.901 1.831 1.922 2.029 3.05 0 .103.048.15.15.15 0 .205.21.3.642.3.3.127.751.289 1.357.487 0 .048.126.162.378.336l.15.114v.264l-.15.187c-.126.102-.3.276-.528.528a1.172 1.172 0 00-.51.564 15.56 15.56 0 00-.318.75c-.048.475-.174 1.07-.379 1.772-.102.276-.15.54-.15.792 0 .324.09.612.264.865.175.624.475.978.901 1.05.348.078.762 0 1.243-.228.474-.228.714-.516.714-.864 0-.175-.138-.277-.414-.3a.988.988 0 01.336-.079c.36 0 .54.139.54.415zm-6.813-4.556a.603.603 0 00-.15-.378l-.151-.078-.792-.829c-.024-.078-.102-.204-.228-.396-.126-.186-.186-.33-.186-.432.048-.024.102-.156.15-.396.048-.24.138-.36.264-.36 0-.079-.06-.115-.186-.115a2.016 2.016 0 01-.378.036c-2.762 2.18-4.137 4.065-4.137 5.643 0 .403.127.763.379 1.093.174.078.276.114.3.114.048 0 .138-.012.264-.036.126-.024.21-.036.264-.036.804-.276 1.579-.774 2.335-1.507.198-.228.817-.93 1.843-2.107l.409-.216zm12.543-9.139c.199.15.301.312.301.486 0 .324-.216.714-.637 1.164-.702.78-1.332 1.255-1.879 1.43l-.264.077c-.276.102-.576.15-.9.15-.205 0-.403-.012-.601-.036-1.207-.552-1.843-1.068-1.921-1.543-.078-.474.09-1.14.487-1.993.3-.378.69-.612 1.164-.714h1.051c1.206 0 2.095.114 2.671.336.354.126.528.336.528.643zm2.672 13.543c.126.252.186.486.186.714 0 .655-.39 1.243-1.165 1.771-.474.3-1.038.517-1.693.637-.552.078-1.206.012-1.957-.186-2.581-.679-3.824-2.198-3.722-4.55.048-.98.186-1.994.415-3.05a7.73 7.73 0 00.15-1.465c0-.475-.06-.931-.186-1.357v-.186c0-.024.023-.048.077-.078.049-.024.079-.078.079-.15.324-.15.588-.229.792-.229.102 0 .186.025.264.079h.378c.751.078 1.855.264 3.308.564l.264.186c.228.15.313.324.264.528-.048.228-.174.378-.378.45a7.178 7.178 0 00-1.206 3.764c-.024 1.381.24 2.636.792 3.765l.414.264c0 .078.036.114.114.114.174 0 .601-.186 1.279-.564.84-.51 1.357-.847 1.531-1.021z" fill="#8F9BB3"/><path d="M174.498 24.717c.024.126.036.252.036.378 0 .774-.414 1.369-1.243 1.771a3.735 3.735 0 01-2.257.336c-2.336-.354-3.776-1.369-4.329-3.05a6.106 6.106 0 01-.336-2.257c.024-.774.036-1.507.036-2.185l-.528.15v.715c-.576 2.581-1.807 4.592-3.686 6.02-.276.253-.738.427-1.393.53-.654.101-1.08-.049-1.278-.451 0-.354.036-.715.114-1.093 2.131-2.281 3.361-4.286 3.686-6.021.102-.528.011-1.14-.265-1.843-.324-.853-.486-1.53-.486-2.03-.024-.75.114-1.416.414-1.992.379-.727.913-1.093 1.615-1.093.504 0 1.141.252 1.921.75l.264.379c0 1.002-.252 2.059-.75 3.158v.078c0 .324.198.414.6.264h.15c1.129-.475 1.856-.715 2.186-.715 1.104 0 1.945.324 2.521.979.3.324.45.678.45 1.05 0 .276-.15.667-.45 1.165-.252.378-.486.75-.714 1.129-.475.93-.715 1.783-.715 2.557 0 .78.24 1.405.715 1.88v.185c.174.078.3.126.378.15a.75.75 0 00.228.036.232.232 0 00.186-.078h.264c.595-.462 1.489-.75 2.666-.852z" fill="#8F9BB3"/><path d="M185.059 4.286c0 .3-.072.625-.228.979-1.603 3.788-4.262 8.939-7.978 15.465-.205.324-.265.726-.187 1.206.174 1.303.913 2.486 2.222 3.536l.114.186c.126.024.276.048.45.078a2.5 2.5 0 00.6 0c.805-.024 1.465-.198 1.993-.528.301-.198.829-.678 1.579-1.429.252.378.378.763.378 1.165 0 .6-.312 1.177-.942 1.729-.955.876-1.897 1.315-2.822 1.315-.78 0-1.614-.265-2.521-.793a29.292 29.292 0 00-1.729-.942c-2.131-.829-3.314-2.534-3.536-5.115a28.156 28.156 0 01-.078-1.88c0-3.763.702-8.362 2.107-13.807L175.76.672c.024-.048.102-.114.228-.186 0-.126.036-.192.114-.204a.561.561 0 00.246-.114c.09-.06.18-.108.282-.132.102-.024.264-.036.487-.036 2.155.048 4.454.864 6.885 2.443.451.553.679.853.679.9.078.205.204.517.378.943zm-3.386-.414c-.204-.15-.402-.228-.6-.228-.324 0-.655.186-.979.564-.402.45-.714.99-.942 1.615-.174.979-.583 2.414-1.225 4.31-.642 1.898-1.044 3.332-1.224 4.311a.578.578 0 00-.079.564c.048.204.079.367.079.487l.15.15c.174.126.93-1.027 2.257-3.464.504-.9.954-1.717 1.357-2.444l.528-1.014c.45-.625.762-1.429.942-2.408.102-.45.138-.888.114-1.314a2.824 2.824 0 00-.378-1.129z" fill="#8F9BB3"/><path d="M188.473 10.57c.198.15.3.313.3.487 0 .324-.216.714-.636 1.165-.703.78-1.333 1.254-1.879 1.428l-.264.078a2.58 2.58 0 01-.901.15c-.204 0-.402-.011-.6-.036-1.207-.552-1.843-1.068-1.921-1.542-.072-.475.09-1.141.486-1.994.3-.378.69-.612 1.165-.714h1.05c1.207 0 2.095.114 2.672.336.354.126.528.336.528.643zm2.672 13.544c.126.252.186.486.186.714 0 .655-.391 1.243-1.165 1.771-.474.3-1.039.517-1.693.637-.552.078-1.207.012-1.957-.186-2.582-.679-3.824-2.198-3.722-4.55.048-.98.186-1.994.414-3.05a7.73 7.73 0 00.15-1.465c0-.474-.06-.93-.186-1.357v-.186c0-.024.024-.048.072-.078.048-.024.078-.078.078-.15.324-.15.589-.228.793-.228.102 0 .186.024.264.078h.378c.75.078 1.855.264 3.308.564l.264.186c.228.15.312.324.264.528-.048.229-.174.379-.378.45a7.17 7.17 0 00-1.207 3.765c-.024 1.38.24 2.635.793 3.764l.414.264c0 .078.036.114.114.114.174 0 .6-.186 1.279-.564.846-.51 1.362-.847 1.537-1.02z" fill="#8F9BB3"/><path d="M207.031 22.838c.252.324.378.654.378.978 0 1.003-.666 1.67-1.993 1.994-.955.348-1.795.528-2.522.528-1.002 0-1.867-.276-2.593-.829-.805-.624-1.507-1.729-2.107-3.307l-.15-.265-.528.265c-.079.102-.427.762-1.051 1.993-.426.828-.877 1.392-1.357 1.693a.57.57 0 00-.204.054.603.603 0 01-.204.054c-.174.126-.3.186-.378.186h-.565c-.102 0-.24-.03-.414-.096a1.443 1.443 0 00-.45-.096l-.264-.114c-1.957-.655-2.984-1.993-3.086-4.029-.024-.678.024-1.518.15-2.521.174-1.177.264-1.981.264-2.407.024-.45-.012-.805-.114-1.05 0-.253-.132-.541-.396-.865-.264-.324-.396-.54-.396-.637 0-.276.474-.39 1.429-.336 2.107.102 3.307.93 3.613 2.486.049.324.079.666.079 1.014 0 .324-.043.817-.133 1.465a11.87 11.87 0 00-.132 1.543l.114.15c0 .102.048.15.151.15.102 0 .15-.048.15-.15l.114-.15c.276-.679.54-1.339.792-1.993.324-.75.69-1.357 1.093-1.807.726-.829 1.645-1.243 2.749-1.243.577 0 1.255.126 2.029.378.679.354 1.015.817 1.015 1.393.15.528.21 1.027.186 1.507a127.78 127.78 0 01-.078 1.507c-.024 1.254.126 2.257.45 3.007.379.93.889 1.393 1.543 1.393.474 0 1.003-.24 1.579-.714.396-.33.81-.703 1.237-1.13zm13.802-.943c.252.426.378.816.378 1.165 0 .702-.378 1.326-1.128 1.878-1.003.775-2.42 1.291-4.251 1.543-.804.127-1.981-.012-3.536-.414-1.452-.378-2.443-.762-2.971-1.165-1.603-1.176-2.408-2.773-2.408-4.778 0-1.657.565-3.284 1.693-4.893a10.853 10.853 0 012.786-2.707 4.42 4.42 0 011.164-.15c.427 0 .877.06 1.357.186 1.081.3 1.855.588 2.335.864 1.958 1.255 2.936 2.558 2.936 3.914 0 1.08-.6 2.18-1.807 3.308-.702.654-1.579.943-2.635.865-.072-.024-1.105-.21-3.086-.565-.228 0-.378.15-.45.45-.15 1.555.552 2.612 2.107 3.158 2.948.012 5.457-.876 7.516-2.66zm-5.007-5.871c-.078-.229-.3-.529-.678-.9l-.15-.187-.678-.078-.265.078c-1.026 1.153-1.542 2.257-1.542 3.308 0 .702.348 1.164 1.05 1.393.276.102.577.102.901 0l.114-.187c.834-.576 1.248-1.723 1.248-3.427z" fill="#8F9BB3"/></svg>