<svg width="206" height="90" fill="none" xmlns="http://www.w3.org/2000/svg"><g clip-path="url(#clip0_826_43085)" fill="#8F9BB3"><path d="M204.917 77.805c.187-.15.337-.34.438-.558.106-.3.152-.618.137-.935V45.694a2.568 2.568 0 00-.137-.952 1.335 1.335 0 00-.438-.532c-.463-.355-1.539-.532-3.226-.532-1.688 0-2.781.177-3.278.532a1.34 1.34 0 00-.438.532c-.097.308-.134.63-.112.952V76.33a1.84 1.84 0 00.532 1.484c.464.355 1.556.532 3.278.532s2.804-.18 3.244-.54zm-22.843.171a11.67 11.67 0 004.291-2.505 9.66 9.66 0 002.505-3.759c.538-1.53.805-3.141.79-4.762V45.694a1.798 1.798 0 00-.532-1.501c-.504-.355-1.579-.532-3.227-.532-1.647 0-2.74.177-3.278.532a1.185 1.185 0 00-.446.532c-.114.31-.172.639-.171.97v21.16a8.113 8.113 0 01-.438 2.575 4.025 4.025 0 01-1.914 2.18 7.721 7.721 0 01-3.904.857 9.024 9.024 0 01-2.866-.403 4.989 4.989 0 01-1.94-1.141 4.453 4.453 0 01-1.115-1.785 7.101 7.101 0 01-.352-2.291V45.694a1.798 1.798 0 00-.532-1.501c-.503-.355-1.579-.532-3.226-.532-1.648 0-2.741.177-3.278.532a1.187 1.187 0 00-.447.532 2.786 2.786 0 00-.103.97V66.94a13.989 13.989 0 00.79 4.763 9.669 9.669 0 002.471 3.793 11.668 11.668 0 004.291 2.47 22.526 22.526 0 0012.614 0l.017.01zm-37.431-.171c.185-.148.329-.34.421-.558a2.65 2.65 0 00.129-.935v-26.13h7.637c.463.013.925-.042 1.373-.163a1.401 1.401 0 00.815-.712 6.28 6.28 0 00.532-1.88c.11-.635.173-1.277.189-1.921.01-.31-.024-.62-.103-.919a.963.963 0 00-.404-.532 1.576 1.576 0 00-.532-.188 6.082 6.082 0 00-1.004-.06h-23.778a4.765 4.765 0 00-1.373.163 1.4 1.4 0 00-.858.712 5.406 5.406 0 00-.532 1.647c-.126.7-.19 1.41-.189 2.12a3.3 3.3 0 00.146.952.925.925 0 00.421.532 3.173 3.173 0 001.527.25h8.504v26.112a1.708 1.708 0 00.575 1.501c.463.355 1.556.532 3.278.532s2.794-.171 3.218-.515l.008-.008zM5.312 25.065h26.764c2.643 0 4.6.858 5.372 4.557.858 4.145.532 7.028-4.153 7.354l-8.41.6c6.196 39.045 42.322 51.779 61.999 9.706 3.26-6.96 4.29-8.23 7.886-7.346 4.831 1.202 5.492 3.708 3.175 10.701-16.982 51.864-74.15 57.064-85.365-12.176l-6.805.489C.223 39.344 0 34.66 0 32.085c-.017-5.175 1.897-7.02 5.312-7.02zm97.258-5.225c5.479 0 9.92-4.442 9.92-9.92 0-5.479-4.441-9.92-9.92-9.92-5.478 0-9.92 4.441-9.92 9.92 0 5.478 4.442 9.92 9.92 9.92z"/></g><defs><clipPath id="clip0_826_43085"><path fill="#fff" d="M0 0h205.494v90H0z"/></clipPath></defs></svg>