<svg width="31" height="30" fill="none" xmlns="http://www.w3.org/2000/svg"><g clip-path="url(#clip0_1634_236181)"><path d="M15.5 30c8.284 0 15-6.716 15-15 0-8.284-6.716-15-15-15C7.216 0 .5 6.716.5 15c0 8.284 6.716 15 15 15z" fill="#745CEF"/><path d="M22.008 8.23c-3.65-.883-7.308-1.914-11.053-.604-2.424.91-2.424 3.536-2.323 5.758 0 .606-.707 1.414-.404 2.121.606 2.02 1.111 4.04 3.232 5.05.303.203 0 .607.202.91-.1 0-.303.1-.303.202 0 .484.218 1.224.073 1.702l6.446 6.443c6.626-1.055 11.805-6.45 12.534-13.18L22.008 8.23z" fill="#745CEF"/><path d="M23.436 10.542l-.005-.02c-.4-1.62-2.208-3.358-3.867-3.72l-.019-.004a21.49 21.49 0 00-8.089 0l-.019.004c-1.659.362-3.466 2.1-3.867 3.72l-.004.02a15.833 15.833 0 000 6.82l.004.02c.384 1.551 2.057 3.21 3.654 3.666v1.809c0 .655.798.976 1.252.504l1.832-1.905a21.56 21.56 0 005.237-.35l.019-.003c1.66-.362 3.466-2.1 3.867-3.72l.005-.02a15.834 15.834 0 000-6.82zm-1.45 6.492c-.268 1.058-1.64 2.372-2.73 2.614a20.028 20.028 0 01-4.302.348.101.101 0 00-.076.03L13.54 21.4l-1.423 1.461a.167.167 0 01-.287-.115V19.75a.103.103 0 00-.084-.101h-.001c-1.09-.243-2.462-1.558-2.73-2.615a14.367 14.367 0 010-6.164c.268-1.057 1.64-2.37 2.73-2.614a20.014 20.014 0 017.511 0c1.09.243 2.462 1.557 2.73 2.614a14.351 14.351 0 010 6.164z" fill="#F7F9FC"/><path d="M17.872 18.418c-.167-.051-.327-.085-.475-.147-1.537-.638-2.952-1.46-4.072-2.721-.637-.717-1.136-1.527-1.557-2.384-.2-.406-.369-.828-.54-1.248-.157-.382.074-.777.316-1.066.228-.27.521-.477.839-.63.248-.119.492-.05.673.16.392.454.751.932 1.042 1.458.18.324.13.72-.194.94-.08.054-.151.117-.224.177a.737.737 0 00-.17.178.488.488 0 00-.032.43c.4 1.099 1.074 1.954 2.18 2.414.178.074.355.16.56.136.34-.04.452-.415.691-.61.234-.192.533-.194.785-.035.252.16.497.33.74.504.238.17.475.336.695.53.212.186.284.43.165.683-.218.463-.535.848-.992 1.094-.13.07-.284.092-.43.137-.167-.051.146-.045 0 0zm-2.367-8.726c2.01.057 3.662 1.39 4.016 3.378.06.339.081.685.108 1.029.012.144-.07.282-.226.284-.161.002-.234-.133-.244-.278-.021-.286-.035-.573-.075-.857a3.592 3.592 0 00-2.893-3.002c-.224-.04-.454-.05-.68-.075-.144-.015-.332-.023-.364-.202-.027-.15.1-.269.242-.276.039-.003.078 0 .116 0 2.01.056-.039 0 0 0z" fill="#F7F9FC"/><path d="M18.56 13.653c-.003.025-.005.084-.02.14-.053.202-.359.227-.43.023a.606.606 0 01-.023-.194c0-.426-.093-.85-.308-1.221a2.27 2.27 0 00-.954-.895 2.74 2.74 0 00-.76-.233c-.114-.02-.23-.03-.345-.047-.14-.02-.214-.108-.207-.245.006-.13.1-.222.24-.214a3.16 3.16 0 011.317.343c.834.442 1.311 1.14 1.45 2.07.006.042.017.084.02.126.008.105.012.21.02.347-.003.025-.008-.138 0 0z" fill="#F7F9FC"/><path d="M17.31 13.604c-.169.004-.259-.09-.276-.244-.012-.107-.022-.216-.047-.32a.904.904 0 00-.334-.524.873.873 0 00-.271-.131c-.124-.036-.252-.026-.375-.056-.134-.033-.208-.141-.187-.267a.241.241 0 01.255-.194c.78.057 1.337.46 1.416 1.377a.637.637 0 01-.002.195c-.025.106-.103.16-.18.164-.168.003.077-.005 0 0z" fill="#F7F9FC"/><path d="M23.435 10.542l-.005-.02c-.224-.908-.891-1.853-1.726-2.572l-1.128 1c.67.534 1.246 1.275 1.41 1.92a14.35 14.35 0 010 6.165c-.268 1.057-1.64 2.37-2.73 2.614a20.029 20.029 0 01-4.303.347.102.102 0 00-.076.031L13.54 21.4l-1.423 1.461a.167.167 0 01-.287-.115V19.75a.103.103 0 00-.084-.101c-.62-.138-1.33-.623-1.877-1.209l-1.115.988c.696.758 1.594 1.37 2.47 1.62v1.81c0 .654.798.975 1.252.503l1.832-1.905a21.56 21.56 0 005.237-.35l.02-.003c1.659-.362 3.465-2.1 3.866-3.72l.005-.02a15.835 15.835 0 000-6.82z" fill="#F7F9FC"/><path d="M17.872 18.419c.146-.046-.169-.052 0 0z" fill="#745CEF"/><path d="M19.13 16.504c-.22-.194-.458-.36-.697-.53a16.315 16.315 0 00-.739-.504c-.252-.16-.551-.157-.785.035-.24.195-.35.57-.692.61-.204.024-.381-.062-.559-.135a3.615 3.615 0 01-1.587-1.264l-.83.736c.028.032.055.066.084.098 1.12 1.261 2.535 2.084 4.072 2.721.148.062.308.096.475.147-.167-.051.146-.045 0 0 .146-.045.3-.067.43-.137.457-.246.774-.63.992-1.094.12-.252.047-.497-.165-.683z" fill="#F7F9FC"/><path d="M15.51 9.695zm-.005-.002h.005c.112.004 1.926.054-.005 0z" fill="#745CEF"/><path d="M18.388 10.89l-.354.313a3.55 3.55 0 011.049 2.047c.04.283.054.57.074.857.01.144.083.279.244.277.156-.002.238-.14.227-.284-.027-.343-.048-.69-.109-1.028a4.037 4.037 0 00-1.131-2.182zm.131 2.29c-.102-.678-.383-1.232-.85-1.654l-.353.313c.182.162.34.352.461.562.215.37.308.796.308 1.221 0 .065.004.134.024.195.071.203.377.178.43-.024.015-.055.017-.114.02-.14-.003.026-.008-.137 0 0l-.02-.347c-.004-.042-.014-.084-.02-.126z" fill="#F7F9FC"/><path d="M18.56 13.652c-.008-.136-.003.025 0 0zm-1.251-.047l.008-.002h-.03l.022.002zm-.001 0l-.02-.001a.3.3 0 00.02.001zm.008-.003l-.007.001c.018-.001.016-.001.007-.001z" fill="#745CEF"/><path d="M16.954 12.16l-.36.318a.903.903 0 01.391.561c.027.106.036.214.048.322.017.147.1.238.254.243h.03a.2.2 0 00.172-.163c.014-.062.007-.13.002-.195-.045-.513-.239-.865-.537-1.086z" fill="#F7F9FC"/></g><defs><clipPath id="clip0_1634_236181"><path fill="#fff" transform="translate(.5)" d="M0 0h30v30H0z"/></clipPath></defs></svg>