<svg width="31" height="32" fill="none" xmlns="http://www.w3.org/2000/svg"><path fill-rule="evenodd" clip-rule="evenodd" d="M12.313 21.04c.937.581 2.062.872 3.187.872 3.469 0 6.188-2.909 6.188-6.302 0-1.745-.563-3.296-1.782-4.557-1.218-1.163-2.718-1.842-4.406-1.842-3.375 0-6.188 2.909-6.188 6.399 0 1.163.282 2.327.938 3.393l.188.291-.657 2.327 2.344-.678.188.097zm5.25-4.557c.187 0 1.125.484 1.312.581.03.015.058.028.087.04.157.07.303.133.382.542.093 0 .093.388-.094.873-.094.388-.844.872-1.219.872-.063 0-.124.006-.19.012-.318.029-.736.067-2.06-.496-1.643-.68-2.782-2.328-3.102-2.79a1.656 1.656 0 00-.085-.12 2.254 2.254 0 00-.091-.154c-.207-.339-.66-1.077-.66-1.881 0-.97.47-1.455.657-1.649.188-.193.375-.193.469-.193h.375c.094 0 .281 0 .375.29.187.388.562 1.358.562 1.455 0 .032.01.065.021.097.02.064.042.13-.02.194a.508.508 0 00-.095.145.51.51 0 01-.093.146l-.281.29c-.094.097-.188.194-.094.388s.469.873 1.031 1.358a5.02 5.02 0 001.386.915l.114.054c.188 0 .281 0 .375-.097.047-.097.164-.242.281-.388.117-.145.235-.29.282-.387.093-.194.187-.194.375-.097z" fill="url(#paint0_linear_1634_236175)"/><path fill-rule="evenodd" clip-rule="evenodd" d="M.5 15.513C.5 6.945 7.216 0 15.5 0c8.284 0 15 6.945 15 15.513s-6.716 15.513-15 15.513c-8.284 0-15-6.945-15-15.513zm15-7.756a7.25 7.25 0 015.25 2.23C22.156 11.44 23 13.38 23 15.417c0 4.265-3.375 7.756-7.5 7.756-1.219 0-2.438-.388-3.563-.97L8 23.27l1.031-3.879A7.976 7.976 0 018 15.513c0-4.266 3.375-7.756 7.5-7.756z" fill="url(#paint1_linear_1634_236175)"/><defs><linearGradient id="paint0_linear_1634_236175" x1="15.5" y1="0" x2="15.5" y2="31.026" gradientUnits="userSpaceOnUse"><stop stop-color="#5BF674"/><stop offset="1" stop-color="#01BE24"/></linearGradient><linearGradient id="paint1_linear_1634_236175" x1="15.5" y1="0" x2="15.5" y2="31.026" gradientUnits="userSpaceOnUse"><stop stop-color="#5BF674"/><stop offset="1" stop-color="#01BE24"/></linearGradient></defs></svg>