<svg width="127" height="220" viewBox="0 0 127 220" fill="none" xmlns="http://www.w3.org/2000/svg">
<path fill-rule="evenodd" clip-rule="evenodd" d="M40.0744 31.6166C40.0745 19.9679 50.8966 10.5248 64.2464 10.5248C77.5962 10.5248 88.4183 19.9679 88.4184 31.6166H40.0744ZM100.48 31.6166C100.48 14.1552 84.2577 0 64.2464 0C44.2351 0 28.0127 14.1552 28.0126 31.6166H20.002C8.95625 31.6166 0.0019455 40.5709 0.0019455 51.6166V177.605C0.0019455 188.65 8.95625 197.605 20.0019 197.605H106.82C117.866 197.605 126.82 188.65 126.82 177.605V51.6166C126.82 40.5709 117.866 31.6166 106.82 31.6166H100.48Z" fill="url(#paint0_linear_1537_113642)"/>
<rect width="81.5261" height="15.8084" rx="3" transform="matrix(-1 0 0 1 104.176 71.1377)" fill="white"/>
<rect width="71.1377" height="18.1169" rx="3" transform="matrix(5.00946e-08 1 1 -3.81415e-08 86.0547 98.8027)" fill="white"/>
<rect width="71.1377" height="18.1169" rx="3" transform="matrix(5.00946e-08 1 1 -3.81415e-08 22.6445 98.8027)" fill="white"/>
<path d="M22.5273 200.239L22.5273 215C22.5273 217.761 24.7659 220 27.5273 220L35.6443 220C38.4057 220 40.6443 217.761 40.6443 215L40.6443 200.239L22.5273 200.239Z" fill="#3D465F"/>
<path d="M85.9375 200.239L85.9375 215C85.9375 217.761 88.1761 220 90.9375 220L99.0544 220C101.816 220 104.054 217.761 104.054 215L104.054 200.239L85.9375 200.239Z" fill="#3D465F"/>
<rect width="71.1377" height="18.1169" rx="3" transform="matrix(5.00946e-08 1 1 -3.81415e-08 54.3516 98.8027)" fill="white"/>
<defs>
<linearGradient id="paint0_linear_1537_113642" x1="7.9281" y1="76.7585" x2="126.82" y2="174.375" gradientUnits="userSpaceOnUse">
<stop stop-color="#222B45"/>
<stop offset="0.526042" stop-color="#8F9BB3" stop-opacity="0.9"/>
<stop offset="1" stop-color="#222B45"/>
<stop offset="1" stop-color="#222B45"/>
</linearGradient>
</defs>
</svg>
