<svg width="124" height="220" viewBox="0 0 124 220" fill="none" xmlns="http://www.w3.org/2000/svg">
<g filter="url(#filter0_i_1537_113606)">
<path fill-rule="evenodd" clip-rule="evenodd" d="M27.2352 35.2022C27.2352 35.2013 27.2352 35.2004 27.2352 35.1996C27.2352 15.7594 42.9946 0 62.4348 0C81.875 0 97.6344 15.7594 97.6344 35.1996C97.6344 35.2004 97.6344 35.2013 97.6344 35.2022H104C115.046 35.2022 124 44.1565 124 55.2022V200C124 211.046 115.046 220 104 220H20.8016C9.75591 220 0.801605 211.046 0.801605 200V55.2022C0.801605 44.1565 9.7559 35.2022 20.8016 35.2022H27.2352ZM38.9527 35.2022C38.9527 35.2013 38.9527 35.2004 38.9527 35.1996C38.9527 22.2308 49.466 11.7175 62.4348 11.7175C75.4036 11.7175 85.9169 22.2308 85.9169 35.1996C85.9169 35.2004 85.9169 35.2013 85.9169 35.2022H38.9527Z" fill="url(#paint0_linear_1537_113606)"/>
<rect width="79.199" height="17.5998" rx="3" transform="matrix(-1 0 0 1 101.992 79.2021)" fill="white"/>
</g>
<defs>
<filter id="filter0_i_1537_113606" x="0.800781" y="0" width="133.199" height="229" filterUnits="userSpaceOnUse" color-interpolation-filters="sRGB">
<feFlood flood-opacity="0" result="BackgroundImageFix"/>
<feBlend mode="normal" in="SourceGraphic" in2="BackgroundImageFix" result="shape"/>
<feColorMatrix in="SourceAlpha" type="matrix" values="0 0 0 0 0 0 0 0 0 0 0 0 0 0 0 0 0 0 127 0" result="hardAlpha"/>
<feOffset dx="10" dy="9"/>
<feGaussianBlur stdDeviation="6"/>
<feComposite in2="hardAlpha" operator="arithmetic" k2="-1" k3="1"/>
<feColorMatrix type="matrix" values="0 0 0 0 1 0 0 0 0 1 0 0 0 0 1 0 0 0 0.2 0"/>
<feBlend mode="normal" in2="shape" result="effect1_innerShadow_1537_113606"/>
</filter>
<linearGradient id="paint0_linear_1537_113606" x1="5.28366" y1="110" x2="181.283" y2="202.072" gradientUnits="userSpaceOnUse">
<stop stop-color="#222B45"/>
<stop offset="0.445107" stop-color="#8F9BB3"/>
<stop offset="0.999656" stop-color="#222B45"/>
</linearGradient>
</defs>
</svg>
