<svg width="127" height="220" viewBox="0 0 127 220" fill="none" xmlns="http://www.w3.org/2000/svg">
<path fill-rule="evenodd" clip-rule="evenodd" d="M98.4844 0C101.246 0 103.484 2.23858 103.484 5V8.33335C103.484 11.0948 101.246 13.3334 98.4844 13.3334H86.8185V66.6666H76.8185V13.3334H50.1518V66.6666H40.1518V13.3334H28.4843C25.7228 13.3334 23.4843 11.0948 23.4843 8.33335V5C23.4843 2.23858 25.7228 0 28.4843 0H98.4844Z" fill="url(#paint0_linear_1537_113619)"/>
<rect width="93.3335" height="140" rx="20" transform="matrix(-1 0 0 1 110.148 56.667)" fill="url(#paint1_linear_1537_113619)"/>
<rect width="60.0001" height="13.3334" rx="3" transform="matrix(-1 0 0 1 93.4844 90)" fill="white"/>
<rect width="60.0001" height="13.3334" rx="3" transform="matrix(4.37114e-08 1 1 -4.37114e-08 80.1484 113.334)" fill="white"/>
<rect width="60.0001" height="13.3334" rx="3" transform="matrix(4.37114e-08 1 1 -4.37114e-08 33.4805 113.334)" fill="white"/>
<path d="M33.4805 203.334L33.4805 215.001C33.4805 217.762 35.719 220.001 38.4805 220.001L41.8138 220.001C44.5752 220.001 46.8138 217.762 46.8138 215.001L46.8138 203.334L33.4805 203.334Z" fill="#3D465F"/>
<path d="M80.1484 203.334L80.1484 215.001C80.1484 217.762 82.387 220.001 85.1484 220.001L88.4818 220.001C91.2432 220.001 93.4818 217.762 93.4818 215.001L93.4818 203.334L80.1484 203.334Z" fill="#3D465F"/>
<rect width="60.0001" height="13.3334" rx="3" transform="matrix(4.37114e-08 1 1 -4.37114e-08 56.8164 113.334)" fill="white"/>
<path d="M5.00391 120C2.24249 120 0.0039064 122.239 0.00390659 125L0.00390955 168.333C0.00390974 171.095 2.24249 173.333 5.00391 173.333L13.3373 173.333L13.3373 120L5.00391 120Z" fill="#3D465F"/>
<path d="M121.961 120C124.722 120 126.961 122.239 126.961 125L126.961 168.333C126.961 171.095 124.722 173.333 121.961 173.333L113.628 173.333L113.628 120L121.961 120Z" fill="#3D465F"/>
<defs>
<linearGradient id="paint0_linear_1537_113619" x1="93.8509" y1="-5.9649" x2="11.2974" y2="26.0084" gradientUnits="userSpaceOnUse">
<stop offset="0.0364583" stop-color="#2E3A59"/>
<stop offset="0.53125" stop-color="#8F9BB3"/>
<stop offset="0.9999" stop-color="#2E3A59"/>
<stop offset="1" stop-color="#2E3A59"/>
</linearGradient>
<linearGradient id="paint1_linear_1537_113619" x1="11.2391" y1="-12.5263" x2="117.098" y2="10.2511" gradientUnits="userSpaceOnUse">
<stop offset="0.0364583" stop-color="#2E3A59"/>
<stop offset="0.53125" stop-color="#8F9BB3"/>
<stop offset="0.9999" stop-color="#2E3A59"/>
<stop offset="1" stop-color="#2E3A59"/>
</linearGradient>
</defs>
</svg>
