<svg width="43" height="44" fill="none" xmlns="http://www.w3.org/2000/svg"><path fill-rule="evenodd" clip-rule="evenodd" d="M8.958 23.792h21.258l-6.509 7.811a1.79 1.79 0 102.754 2.294l8.959-10.75c.07-.084.103-.183.155-.276.043-.075.095-.14.128-.222a1.78 1.78 0 00.129-.642l.001-.007-.001-.007c0-.219-.049-.435-.13-.641-.032-.083-.084-.147-.127-.223-.052-.093-.086-.191-.156-.276l-8.958-10.75a1.796 1.796 0 00-2.524-.229 1.79 1.79 0 00-.23 2.523l6.51 7.812H8.957a1.792 1.792 0 000 3.583z" fill="#DB3731"/></svg>