<svg width="39" height="40" fill="none" xmlns="http://www.w3.org/2000/svg"><path fill-rule="evenodd" clip-rule="evenodd" d="M7.226 19.748a2.932 2.932 0 00-.794 1.86l-.472 9.75a2.61 2.61 0 00.811 2.042 2.613 2.613 0 002.091.677l9.697-1.113c1.159-.13 2.134-.95 2.488-2.085.311-1.004.047-2.055-.69-2.744l-9.223-8.637c-.737-.69-1.802-.884-2.783-.508a3.041 3.041 0 00-1.125.758zm24.226.593a2.93 2.93 0 00.794-1.86l.472-9.75a2.61 2.61 0 00-.812-2.042 2.613 2.613 0 00-2.09-.677l-9.697 1.113c-1.159.13-2.134.95-2.488 2.085-.311 1.004-.047 2.054.69 2.744l9.223 8.637c.737.69 1.802.884 2.783.508a3.05 3.05 0 001.125-.758z" fill="#EDEFF3"/></svg>