<svg width="19" height="18" fill="none" xmlns="http://www.w3.org/2000/svg"><path fill-rule="evenodd" clip-rule="evenodd" d="M9.788 5.491L5.576 9.704l-.198 2.217 2.232-.203 4.2-4.205-2.022-2.022zm4.488-.445l-2.022-2.02-1.46 1.46 2.02 2.022 1.462-1.462zm-9.657 8.45a.748.748 0 01-.815-.815l.284-3.128c.032-.343.183-.666.427-.91l6.747-6.747c.527-.528 1.482-.502 2.037.052l2.054 2.054c.575.575.597 1.488.051 2.035l-6.747 6.748a1.475 1.475 0 01-.91.427l-3.128.284zm-.068 1.503h10.5c.412 0 .75.338.75.75 0 .413-.338.75-.75.75h-10.5a.752.752 0 01-.75-.75c0-.412.338-.75.75-.75z" fill="#788392"/></svg>