<svg width="14" height="14" fill="none" xmlns="http://www.w3.org/2000/svg"><path fill-rule="evenodd" clip-rule="evenodd" d="M7 7.872a.876.876 0 010-1.75.876.876 0 010 1.75zm.001-2.916A2.044 2.044 0 004.96 6.998c0 1.126.916 2.042 2.042 2.042a2.044 2.044 0 002.042-2.042A2.044 2.044 0 007 4.956zm.128 4.957c-2.512.058-4.15-2.09-4.694-2.918.599-.936 2.106-2.853 4.438-2.913 2.502-.063 4.15 2.09 4.694 2.918-.598.936-2.106 2.853-4.438 2.913m5.629-3.205c-.373-.649-2.428-3.9-5.914-3.791-3.225.081-5.1 2.922-5.599 3.79a.583.583 0 000 .581c.367.64 2.35 3.793 5.77 3.793.049 0 .096 0 .144-.002 3.224-.082 5.1-2.922 5.599-3.79a.585.585 0 000-.581z" fill="#222B45"/></svg>