<svg width="36" height="36" fill="none" xmlns="http://www.w3.org/2000/svg"><g clip-path="url(#clip0_1801_23173)" fill="#F7F9FC"><path d="M18 12.206A5.798 5.798 0 0012.206 18 5.798 5.798 0 0018 23.794 5.798 5.798 0 0023.794 18 5.798 5.798 0 0018 12.206zm-.44 4.076c-.719 0-1.318.6-1.318 1.318h-1.918c.04-1.798 1.478-3.236 3.237-3.236v1.918z"/><path d="M35.58 16.802C33.623 14.364 26.63 6.413 18 6.413c-8.63 0-15.623 7.951-17.58 10.389-.56.679-.56 1.678 0 2.397C2.377 21.636 9.37 29.588 18 29.588c8.63 0 15.623-7.952 17.58-10.389.56-.68.56-1.678 0-2.397zM18 26.392A8.39 8.39 0 019.61 18 8.39 8.39 0 0118 9.61 8.39 8.39 0 0126.39 18 8.39 8.39 0 0118 26.391z"/></g><defs><clipPath id="clip0_1801_23173"><path fill="#fff" d="M0 0h36v36H0z"/></clipPath></defs></svg>