<svg width="36" height="36" fill="none" xmlns="http://www.w3.org/2000/svg"><path d="M33.056 4.419a9.862 9.862 0 00-7.205-3.145 9.874 9.874 0 00-7.213 3.143l-.635.672-.636-.672c-3.7-3.982-9.93-4.211-13.912-.51a9.87 9.87 0 00-.51.51 11.04 11.04 0 000 15.013l14.124 14.895a1.287 1.287 0 001.868 0l14.12-14.895a11.04 11.04 0 00-.001-15.011zm-1.862 13.239h-.001L18.003 31.57 4.81 17.658a8.436 8.436 0 010-11.47 7.272 7.272 0 0110.69 0l1.568 1.654a1.325 1.325 0 001.868 0l1.568-1.653a7.272 7.272 0 0110.69 0c3.024 3.24 3.046 8.25 0 11.469z" fill="#F7F9FC"/></svg>