<svg width="19" height="20" fill="none" xmlns="http://www.w3.org/2000/svg"><path d="M9.255.9C4.225.9.155 4.97.155 10c0 5.03 4.07 9.1 9.1 9.1 5.03 0 9.1-4.07 9.1-9.1 0-5.03-4.07-9.1-9.1-9.1zm0 16.594A7.49 7.49 0 011.76 10a7.49 7.49 0 017.494-7.494A7.49 7.49 0 0116.749 10a7.49 7.49 0 01-7.494 7.494z" fill="#222B45" stroke="#00608E" stroke-width=".2"/><path d="M9.255 8.435a.803.803 0 00-.803.803v4.528a.803.803 0 101.606 0V9.238a.803.803 0 00-.803-.803zm0-.661a1.05 1.05 0 100-2.098 1.05 1.05 0 000 2.098z" fill="#222B45" stroke="#00608E" stroke-width=".2"/></svg>