<svg width="28" height="29" fill="none" xmlns="http://www.w3.org/2000/svg"><path fill-rule="evenodd" clip-rule="evenodd" d="M14 9.914c-.965 0-1.75.785-1.75 1.75 0 .964.785 1.75 1.75 1.75s1.75-.786 1.75-1.75c0-.965-.785-1.75-1.75-1.75m0 5.833a4.088 4.088 0 01-4.083-4.083A4.088 4.088 0 0114 7.58a4.088 4.088 0 014.083 4.084A4.088 4.088 0 0114 15.747m0-12.833c-5.146 0-9.333 4.146-9.333 9.243 0 6.386 8.223 13.509 8.574 13.809a1.163 1.163 0 001.518 0c.35-.3 8.574-7.423 8.574-13.809 0-5.097-4.187-9.243-9.333-9.243" fill="#222B45"/></svg>