<svg width="36" height="36" fill="none" xmlns="http://www.w3.org/2000/svg"><path d="M30.864 1.37H5.136A5.142 5.142 0 000 6.504V23.87a5.142 5.142 0 005.136 5.136H7.15l.04 4.533a1.1 1.1 0 001.773.862l6.99-5.396h14.91A5.142 5.142 0 0036 23.87V6.505a5.142 5.142 0 00-5.136-5.136zm2.935 22.5a2.938 2.938 0 01-2.935 2.935H15.58a1.1 1.1 0 00-.672.229l-5.535 4.271-.03-3.41a1.1 1.1 0 00-1.1-1.09H5.136A2.938 2.938 0 012.2 23.87V6.505A2.938 2.938 0 015.136 3.57h25.728A2.938 2.938 0 0133.8 6.505V23.87z" fill="#F7F9FC"/></svg>