<svg width="35" height="36" fill="none" xmlns="http://www.w3.org/2000/svg"><path fill-rule="evenodd" clip-rule="evenodd" d="M23.512 17.65c-.79 0-1.432-.649-1.432-1.45 0-.8.642-1.45 1.432-1.45.79 0 1.431.65 1.431 1.45a1.44 1.44 0 01-1.431 1.45m-5.727 0a1.44 1.44 0 01-1.431-1.45c0-.8.641-1.45 1.431-1.45s1.432.65 1.432 1.45a1.44 1.44 0 01-1.432 1.45m-5.726 0c-.79 0-1.432-.649-1.432-1.45 0-.8.641-1.45 1.432-1.45.79 0 1.431.65 1.431 1.45a1.44 1.44 0 01-1.431 1.45M27.807 4.598H7.764c-2.368 0-4.295 1.952-4.295 4.351v21.757c0 .522.278 1.005.726 1.262a1.411 1.411 0 001.443-.019l6.477-3.936c.223-.137.478-.208.737-.208h14.955c2.367 0 4.295-1.952 4.295-4.351V8.948c0-2.399-1.927-4.351-4.295-4.351" fill="#DB3731"/></svg>