<svg width="28" height="28" fill="none" xmlns="http://www.w3.org/2000/svg"><path d="M24.278 17.328l-5.123-2.196a1.745 1.745 0 00-1.66.153l-2.739 1.825a8.372 8.372 0 01-3.85-3.833l1.82-2.78a1.747 1.747 0 00.143-1.648L10.672 3.72a1.753 1.753 0 00-1.821-1.048A6.133 6.133 0 003.5 8.75c0 8.684 7.065 15.75 15.75 15.75a6.134 6.134 0 006.076-5.351 1.754 1.754 0 00-1.048-1.821zM17.21 5.22a7.888 7.888 0 015.57 5.57.875.875 0 001.69-.452 9.642 9.642 0 00-6.808-6.808.875.875 0 00-.452 1.69zm-.906 3.382a4.383 4.383 0 013.094 3.093.875.875 0 001.69-.451 6.137 6.137 0 00-4.332-4.333.875.875 0 00-.452 1.69z" fill="#222B45"/></svg>