<svg width="35" height="36" fill="none" xmlns="http://www.w3.org/2000/svg"><path fill-rule="evenodd" clip-rule="evenodd" d="M16.354 6.047c-5.524 0-10.021 4.556-10.021 10.153 0 .802-.64 1.45-1.432 1.45A1.44 1.44 0 013.47 16.2c0-7.198 5.779-13.054 12.884-13.054.79 0 1.432.648 1.432 1.45a1.44 1.44 0 01-1.432 1.45zm0 5.802c-2.368 0-4.295 1.952-4.295 4.351 0 .802-.64 1.45-1.431 1.45a1.44 1.44 0 01-1.432-1.45c0-3.999 3.211-7.252 7.158-7.252.79 0 1.432.648 1.432 1.45a1.44 1.44 0 01-1.432 1.45zM4.858 22.382a1.435 1.435 0 00-1.032.937 6.72 6.72 0 00-.356 2.164c0 3.679 2.953 6.672 6.585 6.672 12.156 0 22.047-10.02 22.047-22.338 0-3.679-2.955-6.67-6.585-6.67-.373 0-.74.031-1.097.093a6.127 6.127 0 00-1.038.266c-.467.164-.816.56-.926 1.047l-1.96 8.65c-.109.476.027.975.36 1.328.197.207.201.212 1.976 1.151-1.437 3.155-3.935 5.676-6.986 7.085-.93-1.8-.935-1.806-1.138-2.005a1.43 1.43 0 00-1.312-.367l-8.538 1.987z" fill="#DB3731"/></svg>