<svg width="16" height="17" fill="none" xmlns="http://www.w3.org/2000/svg"><path fill-rule="evenodd" clip-rule="evenodd" d="M8.667 3.834c0-.367.299-.667.667-.667a.65.65 0 01.475.204.644.644 0 01.192.463v5.693c0 .239.127.46.334.578a1.998 1.998 0 01-1.001 3.729 1.998 1.998 0 01-1.001-3.729.666.666 0 00.334-.578V3.834zm-2.666 8a3.337 3.337 0 003.333 3.333 3.337 3.337 0 003.333-3.333 3.34 3.34 0 00-1.333-2.665V3.834c0-.54-.21-1.044-.582-1.405a1.963 1.963 0 00-1.418-.595c-1.103 0-2 .897-2 2v5.335a3.34 3.34 0 00-1.333 2.665zM2 5.167h2.666c.367 0 .667-.3.667-.666 0-.367-.3-.667-.667-.667H2.001c-.367 0-.667.3-.667.667 0 .366.3.666.667.666z" fill="#74798A"/></svg>