<svg width="16" height="17" fill="none" xmlns="http://www.w3.org/2000/svg"><path fill-rule="evenodd" clip-rule="evenodd" d="M9.334 3.167c-.368 0-.667.3-.667.667v5.693c0 .239-.127.46-.334.578a1.998 1.998 0 001.001 3.729 1.998 1.998 0 001.001-3.729.666.666 0 01-.334-.578V3.834a.643.643 0 00-.192-.463.65.65 0 00-.475-.204zm0 12a3.337 3.337 0 01-3.333-3.333 3.34 3.34 0 011.333-2.665V3.834c0-1.103.897-2 2-2 .541 0 1.044.211 1.418.595.371.361.582.864.582 1.405v5.335a3.34 3.34 0 011.333 2.665 3.337 3.337 0 01-3.333 3.333zm-6.667-10h-.666a.669.669 0 01-.667-.666c0-.367.3-.667.667-.667h.666v-.667c0-.366.3-.666.667-.666.367 0 .667.3.667.666v.667h.666c.367 0 .667.3.667.667 0 .366-.3.666-.667.666h-.666v.667c0 .367-.3.667-.667.667a.669.669 0 01-.667-.667v-.667z" fill="#74798A"/></svg>