<svg width="15" height="14" fill="none" xmlns="http://www.w3.org/2000/svg"><path fill-rule="evenodd" clip-rule="evenodd" d="M9.497 7H8.331V5.833a.583.583 0 10-1.167 0v1.75c0 .323.261.584.583.584h1.75a.583.583 0 100-1.167zm-1.75 4.52A3.942 3.942 0 013.81 7.584a3.942 3.942 0 013.938-3.937 3.942 3.942 0 013.937 3.937 3.942 3.942 0 01-3.937 3.938m.576-9.153c.002-.012.007-.022.007-.034v-.583h.584a.583.583 0 100-1.167H6.58a.583.583 0 100 1.167h.584v.583c0 .012.006.022.007.034a5.256 5.256 0 00-4.674 5.216 5.256 5.256 0 005.25 5.25 5.256 5.256 0 005.25-5.25c0-2.7-2.05-4.928-4.674-5.216" fill="#222B45"/></svg>