<svg width="19" height="18" fill="none" xmlns="http://www.w3.org/2000/svg"><path fill-rule="evenodd" clip-rule="evenodd" d="M8.301 12c0 .412-.337.75-.75.75a.752.752 0 01-.75-.75V9c0-.412.338-.75.75-.75.413 0 .75.338.75.75v3zm4.5 0c0 .412-.338.75-.75.75a.752.752 0 01-.75-.75V9c0-.412.338-.75.75-.75s.75.338.75.75v3zm1.5 2.25a.75.75 0 01-.75.75h-7.5a.75.75 0 01-.75-.75V6h9v8.25zm-6-11.004c0-.116.16-.246.375-.246h2.25c.214 0 .375.13.375.246V4.5h-3V3.246zm8.25 1.254h-3.75V3.246c0-.963-.84-1.746-1.875-1.746h-2.25c-1.034 0-1.875.783-1.875 1.746V4.5h-3.75a.752.752 0 00-.75.75c0 .412.338.75.75.75h.75v8.25c0 1.24 1.01 2.25 2.25 2.25h7.5c1.24 0 2.25-1.01 2.25-2.25V6h.75c.413 0 .75-.338.75-.75a.752.752 0 00-.75-.75z" fill="#788392"/></svg>