<svg width="127" height="220" fill="none" xmlns="http://www.w3.org/2000/svg"><path fill-rule="evenodd" clip-rule="evenodd" d="M98.484 0a5 5 0 015 5v3.333a5 5 0 01-5 5H86.82v53.334h-10V13.333H50.151v53.334h-10V13.333H28.484a5 5 0 01-5-5V5a5 5 0 015-5h70z" fill="url(#paint0_linear_1537_113619)"/><rect width="93.334" height="140" rx="20" transform="matrix(-1 0 0 1 110.148 56.667)" fill="url(#paint1_linear_1537_113619)"/><rect width="60" height="13.333" rx="3" transform="matrix(-1 0 0 1 93.484 90)" fill="#fff"/><rect width="60" height="13.333" rx="3" transform="matrix(0 1 1 0 80.148 113.334)" fill="#fff"/><rect width="60" height="13.333" rx="3" transform="matrix(0 1 1 0 33.48 113.334)" fill="#fff"/><path d="M33.48 203.334v11.667a5 5 0 005 5h3.334a5 5 0 005-5v-11.667H33.48zm46.668 0v11.667a5 5 0 005 5h3.334a5 5 0 005-5v-11.667H80.148z" fill="#3D465F"/><rect width="60" height="13.333" rx="3" transform="matrix(0 1 1 0 56.816 113.334)" fill="#fff"/><path d="M5.004 120a5 5 0 00-5 5v43.333a5 5 0 005 5h8.333V120H5.004zm116.957 0a5 5 0 015 5v43.333a5 5 0 01-5 5h-8.333V120h8.333z" fill="#3D465F"/><defs><linearGradient id="paint0_linear_1537_113619" x1="93.851" y1="-5.965" x2="11.297" y2="26.008" gradientUnits="userSpaceOnUse"><stop offset=".036" stop-color="#2E3A59"/><stop offset=".531" stop-color="#8F9BB3"/><stop offset="1" stop-color="#2E3A59"/><stop offset="1" stop-color="#2E3A59"/></linearGradient><linearGradient id="paint1_linear_1537_113619" x1="11.239" y1="-12.526" x2="117.098" y2="10.251" gradientUnits="userSpaceOnUse"><stop offset=".036" stop-color="#2E3A59"/><stop offset=".531" stop-color="#8F9BB3"/><stop offset="1" stop-color="#2E3A59"/><stop offset="1" stop-color="#2E3A59"/></linearGradient></defs></svg>