<svg width="124" height="220" fill="none" xmlns="http://www.w3.org/2000/svg"><g filter="url(#filter0_i_1537_113606)"><path fill-rule="evenodd" clip-rule="evenodd" d="M27.235 35.202V35.2c0-19.44 15.76-35.2 35.2-35.2 19.44 0 35.2 15.76 35.2 35.2v.002H104c11.046 0 20 8.955 20 20V200c0 11.046-8.954 20-20 20H20.802c-11.046 0-20-8.954-20-20V55.202c0-11.045 8.954-20 20-20h6.433zm11.718 0V35.2c0-12.97 10.513-23.483 23.482-23.483S85.917 22.232 85.917 35.2v.002H38.953z" fill="url(#paint0_linear_1537_113606)"/><rect width="79.199" height="17.6" rx="3" transform="matrix(-1 0 0 1 101.992 79.202)" fill="#fff"/></g><defs><linearGradient id="paint0_linear_1537_113606" x1="5.284" y1="110" x2="181.283" y2="202.072" gradientUnits="userSpaceOnUse"><stop stop-color="#222B45"/><stop offset=".445" stop-color="#8F9BB3"/><stop offset="1" stop-color="#222B45"/></linearGradient><filter id="filter0_i_1537_113606" x=".801" y="0" width="133.199" height="229" filterUnits="userSpaceOnUse" color-interpolation-filters="sRGB"><feFlood flood-opacity="0" result="BackgroundImageFix"/><feBlend in="SourceGraphic" in2="BackgroundImageFix" result="shape"/><feColorMatrix in="SourceAlpha" values="0 0 0 0 0 0 0 0 0 0 0 0 0 0 0 0 0 0 127 0" result="hardAlpha"/><feOffset dx="10" dy="9"/><feGaussianBlur stdDeviation="6"/><feComposite in2="hardAlpha" operator="arithmetic" k2="-1" k3="1"/><feColorMatrix values="0 0 0 0 1 0 0 0 0 1 0 0 0 0 1 0 0 0 0.2 0"/><feBlend in2="shape" result="effect1_innerShadow_1537_113606"/></filter></defs></svg>