<svg width="127" height="220" fill="none" xmlns="http://www.w3.org/2000/svg"><path fill-rule="evenodd" clip-rule="evenodd" d="M40.074 31.617c0-11.65 10.823-21.092 24.172-21.092 13.35 0 24.172 9.443 24.172 21.092H40.074zm60.406 0C100.48 14.155 84.258 0 64.246 0c-20.01 0-36.233 14.155-36.233 31.617h-8.011c-11.046 0-20 8.954-20 20v125.988c0 11.045 8.954 20 20 20h86.818c11.046 0 20-8.955 20-20V51.617c0-11.046-8.954-20-20-20h-6.34z" fill="url(#paint0_linear_1537_113642)"/><rect width="81.526" height="15.808" rx="3" transform="matrix(-1 0 0 1 104.176 71.138)" fill="#fff"/><rect width="71.138" height="18.117" rx="3" transform="matrix(0 1 1 0 86.055 98.803)" fill="#fff"/><rect width="71.138" height="18.117" rx="3" transform="matrix(0 1 1 0 22.645 98.803)" fill="#fff"/><path d="M22.527 200.239V215a5 5 0 005 5h8.117a5 5 0 005-5v-14.761H22.527zm63.411 0V215a5 5 0 005 5h8.116a5 5 0 005-5v-14.761H85.937z" fill="#3D465F"/><rect width="71.138" height="18.117" rx="3" transform="matrix(0 1 1 0 54.352 98.803)" fill="#fff"/><defs><linearGradient id="paint0_linear_1537_113642" x1="7.928" y1="76.758" x2="126.82" y2="174.375" gradientUnits="userSpaceOnUse"><stop stop-color="#222B45"/><stop offset=".526" stop-color="#8F9BB3" stop-opacity=".9"/><stop offset="1" stop-color="#222B45"/><stop offset="1" stop-color="#222B45"/></linearGradient></defs></svg>