<svg width="20" height="21" viewBox="0 0 20 21" fill="none" xmlns="http://www.w3.org/2000/svg">
<path fill-rule="evenodd" clip-rule="evenodd" d="M18.997 9.474H19C19.551 9.474 19.999 9.92 20 10.471C20.008 13.142 18.975 15.657 17.091 17.551C15.208 19.445 12.7 20.492 10.029 20.5H10C7.33905 20.5 4.83605 19.468 2.94905 17.591C1.05505 15.708 0.00804612 13.2 4.61203e-05 10.529C-0.00795388 7.857 1.02505 5.343 2.90905 3.449C4.79205 1.555 7.30005 0.508 9.97105 0.5C10.766 0.512 11.576 0.592 12.352 0.778C12.888 0.908 13.219 1.448 13.089 1.985C12.96 2.521 12.417 2.851 11.883 2.723C11.262 2.573 10.603 2.51 9.97705 2.5C7.84005 2.506 5.83305 3.344 4.32705 4.859C2.82005 6.374 1.99405 8.386 2.00005 10.523C2.00605 12.66 2.84405 14.666 4.35905 16.173C5.86905 17.674 7.87105 18.5 10 18.5H10.023C12.16 18.494 14.167 17.656 15.673 16.141C17.18 14.625 18.006 12.614 18 10.477C17.999 9.925 18.445 9.475 18.997 9.474ZM6.29305 9.7929C6.68405 9.4019 7.31605 9.4019 7.70705 9.7929L9.95105 12.0369L16.248 4.8409C16.612 4.4279 17.243 4.3839 17.659 4.7479C18.074 5.1109 18.116 5.7429 17.752 6.1589L10.752 14.1589C10.57 14.3669 10.31 14.4899 10.033 14.4999H10C9.73505 14.4999 9.48105 14.3949 9.29305 14.2069L6.29305 11.2069C5.90205 10.8159 5.90205 10.1839 6.29305 9.7929Z" fill="#219653"/>
</svg>
