<?xml version="1.0" standalone="no"?>
<!DOCTYPE svg PUBLIC "-//W3C//DTD SVG 1.1//EN" "http://www.w3.org/Graphics/SVG/1.1/DTD/svg11.dtd" >
<svg xmlns="http://www.w3.org/2000/svg">
<metadata>Generated by IcoMoon</metadata>
<defs>
<font id="icon" horiz-adv-x="1024">
<font-face units-per-em="1024" ascent="960" descent="-64" />
<missing-glyph horiz-adv-x="1024" />
<glyph unicode="&#x20;" horiz-adv-x="512" d="" />
<glyph unicode="&#xe900;" glyph-name="arrow-right" d="M220.123 406.3h494.734l-151.485-181.8c-14.76-17.68-12.342-43.99 5.336-58.71 17.722-14.76 43.992-12.342 58.752 5.339l208.484 250.182c1.627 1.96 2.42 4.252 3.628 6.421 1.001 1.75 2.211 3.251 2.96 5.171 1.876 4.794 3.002 9.84 3.002 14.927 0 0.042 0.042 0.123 0.042 0.165s-0.042 0.126-0.042 0.168c0 5.087-1.126 10.133-3.002 14.927-0.749 1.918-1.96 3.419-2.96 5.171-1.208 2.169-2.001 4.461-3.628 6.421l-208.484 250.182c-8.297 9.882-20.14 15.011-32.065 15.011-9.423 0-18.888-3.169-26.687-9.674-17.678-14.719-20.096-41.031-5.336-58.709l151.485-181.8h-494.734c-23.017 0-41.697-18.681-41.697-41.698s18.68-41.695 41.697-41.695z" />
<glyph unicode="&#xe901;" glyph-name="burger" d="M28.444 760.889h967.111c15.709 0 28.444-12.735 28.444-28.444v-56.889c0-15.709-12.735-28.444-28.444-28.444h-967.111c-15.709 0-28.444 12.735-28.444 28.444v56.889c0 15.709 12.735 28.444 28.444 28.444zM28.444 504.889h967.111c15.709 0 28.444-12.735 28.444-28.444v-56.889c0-15.709-12.735-28.444-28.444-28.444h-967.111c-15.709 0-28.444 12.735-28.444 28.444v56.889c0 15.709 12.735 28.444 28.444 28.444zM28.444 248.889h967.111c15.709 0 28.444-12.735 28.444-28.444v-56.889c0-15.709-12.735-28.444-28.444-28.444h-967.111c-15.709 0-28.444 12.735-28.444 28.444v56.889c0 15.709 12.735 28.444 28.444 28.444z" />
<glyph unicode="&#xe902;" glyph-name="calendar" d="M298.667 277.333c0 23.467 19.2 42.667 42.667 42.667s42.667-19.2 42.667-42.667c0-23.467-19.2-42.667-42.667-42.667s-42.667 19.2-42.667 42.667zM512 320h170.667c23.467 0 42.667-19.2 42.667-42.667s-19.2-42.667-42.667-42.667h-170.667c-23.467 0-42.667 19.2-42.667 42.667s19.2 42.667 42.667 42.667zM768 106.667h-512c-23.509 0-42.667 19.157-42.667 42.667v256h597.333v-256c0-23.509-19.157-42.667-42.667-42.667zM256 704h42.667v-42.667c0-23.467 19.2-42.667 42.667-42.667s42.667 19.2 42.667 42.667v42.667h256v-42.667c0-23.467 19.2-42.667 42.667-42.667s42.667 19.2 42.667 42.667v42.667h42.667c23.509 0 42.667-19.157 42.667-42.667v-170.667h-597.333v170.667c0 23.509 19.157 42.667 42.667 42.667zM768 789.333h-42.667v42.667c0 23.467-19.2 42.667-42.667 42.667s-42.667-19.2-42.667-42.667v-42.667h-256v42.667c0 23.467-19.2 42.667-42.667 42.667s-42.667-19.2-42.667-42.667v-42.667h-42.667c-70.571 0-128-57.429-128-128v-512c0-70.571 57.429-128 128-128h512c70.571 0 128 57.429 128 128v512c0 70.571-57.429 128-128 128z" />
<glyph unicode="&#xe903;" glyph-name="check" d="M420.835 192.006c-11.776 0-23.040 4.863-31.103 13.441l-207.488 220.97c-16.171 17.151-15.275 44.158 1.877 60.287 17.195 16.127 44.203 15.275 60.288-1.878l175.999-187.348 358.742 392.618c15.957 17.451 42.923 18.603 60.331 2.731 17.364-15.872 18.561-42.88 2.689-60.247l-389.846-426.666c-7.978-8.789-19.33-13.824-31.191-13.909h-0.298z" />
<glyph unicode="&#xe904;" glyph-name="close" d="M627.186 448.005l349.682 349.682c31.851 31.849 31.851 83.328 0 115.177-31.846 31.849-83.326 31.849-115.177 0l-349.682-349.684-349.685 349.684c-31.849 31.849-83.328 31.849-115.177 0s-31.849-83.328 0-115.177l349.684-349.682-349.684-349.687c-31.849-31.851-31.849-83.326 0-115.177 15.884-15.881 36.736-23.869 57.588-23.869s41.705 7.987 57.588 23.869l349.685 349.687 349.682-349.687c15.886-15.881 36.738-23.869 57.591-23.869s41.705 7.987 57.586 23.869c31.851 31.851 31.851 83.326 0 115.177l-349.682 349.687z" />
<glyph unicode="&#xe905;" glyph-name="email" d="M800.369 198.006h-576.736c-22.699 0-41.195 18.457-41.195 41.197v401.653l304.844-228.633c7.334-5.523 16.027-8.241 24.717-8.241 8.693 0 17.387 2.719 24.717 8.241l304.848 228.633v-401.653c0-22.74-18.499-41.197-41.197-41.197v0zM772.89 692.35l-260.89-195.679-260.889 195.679h521.78zM800.369 774.741h-576.736c-68.137 0-123.586-55.449-123.586-123.586v-411.952c0-68.138 55.449-123.586 123.586-123.586h576.736c68.138 0 123.586 55.448 123.586 123.586v411.952c0 68.137-55.448 123.586-123.586 123.586v0z" />
<glyph unicode="&#xe906;" glyph-name="eye" d="M512 612.799c-90.923 0-164.796-73.876-164.796-164.796 0-90.923 73.873-164.796 164.796-164.796s164.796 73.873 164.796 164.796c0 90.92-73.873 164.796-164.796 164.796zM499.499 496.873c-20.457 0-37.507-17.050-37.507-37.507h-54.551c1.135 51.143 42.049 92.058 92.058 92.058v-54.551zM1012.068 482.082c-55.691 69.328-254.581 295.495-500.068 295.495s-444.377-226.167-500.067-295.495c-15.911-19.319-15.911-47.733 0-68.19 55.689-69.328 254.579-295.495 500.067-295.495s444.376 226.167 500.068 295.495c15.909 19.319 15.909 47.733 0 68.19zM512 209.32c-131.834 0-238.668 106.832-238.668 238.669 0 131.834 106.834 238.667 238.668 238.667 131.837 0 238.669-106.833 238.669-238.667 0-131.837-106.832-238.669-238.669-238.669z" />
<glyph unicode="&#xe907;" glyph-name="heart" d="M940.26 834.314c-52.966 56.93-127.184 89.323-204.942 89.443-77.821-0.090-152.115-32.465-205.164-89.407l-18.079-19.104-18.076 19.104c-105.262 113.288-282.432 119.794-395.718 14.535-5.020-4.666-9.868-9.512-14.534-14.535-111.661-120.439-111.661-306.575 0-427.014l401.761-423.683c13.901-14.672 37.063-15.3 51.738-1.402 0.478 0.455 0.947 0.924 1.402 1.402l401.616 423.683c111.65 120.428 111.65 306.551-0.003 426.978zM887.305 457.731h-0.037l-375.194-395.722-375.226 395.722c-85.302 92.026-85.302 234.234 0 326.261 77.464 83.96 208.328 89.225 292.287 11.76 4.076-3.761 7.999-7.683 11.759-11.76l44.612-47.064c14.7-14.607 38.437-14.607 53.14 0l44.609 47.028c77.466 83.96 208.327 89.224 292.289 11.76 4.076-3.761 7.999-7.683 11.759-11.76 86.044-92.173 86.673-234.639 0-326.225z" />
<glyph unicode="&#xe908;" glyph-name="mark" d="M512 609.948c-34.071 0-61.793-27.723-61.793-61.794 0-34.067 27.722-61.793 61.793-61.793 34.067 0 61.793 27.726 61.793 61.793 0 34.071-27.726 61.794-61.793 61.794zM512 403.972c-79.508 0-144.185 64.678-144.185 144.183 0 79.508 64.677 144.185 144.185 144.185 79.505 0 144.183-64.677 144.183-144.185 0-79.505-64.678-144.183-144.183-144.183zM512 857.121c-181.714 0-329.565-146.409-329.565-326.392 0-225.502 290.388-477 302.746-487.586 7.744-6.635 17.26-9.929 26.818-9.929 9.555 0 19.071 3.294 26.818 9.929 12.359 10.586 302.744 262.084 302.744 487.586 0 179.984-147.851 326.392-329.562 326.392z" />
<glyph unicode="&#xe909;" glyph-name="message" horiz-adv-x="996" d="M668.777 457.933c-22.477 0-40.721 18.483-40.721 41.256 0 22.775 18.244 41.259 40.721 41.259 22.48 0 40.724-18.483 40.724-41.259 0-22.773-18.244-41.256-40.724-41.256zM505.89 457.933c-22.477 0-40.721 18.483-40.721 41.256 0 22.775 18.244 41.259 40.721 41.259 22.48 0 40.724-18.483 40.724-41.259 0-22.773-18.244-41.256-40.724-41.256zM343.003 457.933c-22.477 0-40.721 18.483-40.721 41.256 0 22.775 18.244 41.259 40.721 41.259 22.48 0 40.724-18.483 40.724-41.259 0-22.773-18.244-41.256-40.724-41.256zM790.943 829.25h-570.104c-67.354 0-122.165-55.533-122.165-123.773v-618.864c0-14.851 7.9-28.592 20.646-35.894 6.23-3.59 13.153-5.362 20.076-5.362 7.248 0 14.497 1.937 20.972 5.899l184.226 111.972c6.352 3.88 13.599 5.899 20.972 5.899h425.378c67.354 0 122.166 55.535 122.166 123.773v412.576c0 68.24-54.812 123.773-122.166 123.773z" />
<glyph unicode="&#xe90a;" glyph-name="message-blank" d="M877.915 921.047h-731.829c-80.554 0-146.086-65.534-146.086-146.086v-493.922c0-80.552 65.532-146.085 146.086-146.085h57.326l1.122-128.967c0.1-11.887 6.926-22.687 17.618-27.884 4.346-2.113 9.024-3.149 13.68-3.149 6.798 0 13.546 2.21 19.13 6.522l198.849 153.478h424.104c80.552 0 146.085 65.533 146.085 146.085v493.922c0 80.552-65.533 146.086-146.085 146.086zM961.391 281.037c0-46.029-37.447-83.479-83.476-83.479h-434.776c-6.921 0-13.648-2.293-19.126-6.519l-157.423-121.5-0.844 96.99c-0.148 17.18-14.12 31.030-31.302 31.030h-88.358c-46.030 0-83.478 37.45-83.478 83.479v493.924c0 46.030 37.448 83.478 83.478 83.478h731.829c46.032 0 83.479-37.448 83.479-83.478v-493.924h-0.003z" />
<glyph unicode="&#xe90b;" glyph-name="minus-circle" d="M640 490.667h-256c-23.467 0-42.667-19.2-42.667-42.667s19.2-42.667 42.667-42.667h256c23.467 0 42.667 19.2 42.667 42.667s-19.2 42.667-42.667 42.667zM512 106.667c-188.203 0-341.333 153.131-341.333 341.333s153.131 341.333 341.333 341.333c188.203 0 341.333-153.131 341.333-341.333s-153.131-341.333-341.333-341.333zM512 874.667c-235.264 0-426.667-191.403-426.667-426.667s191.403-426.667 426.667-426.667c235.264 0 426.667 191.403 426.667 426.667s-191.403 426.667-426.667 426.667z" />
<glyph unicode="&#xe90c;" glyph-name="phone" d="M887.888 326.301l-187.352 80.293c-9.783 4.213-20.462 5.906-31.067 4.933s-20.798-4.586-29.648-10.511l-100.173-66.772c-61.221 29.776-110.771 79.108-140.818 140.197l0.007 0.011 66.538 101.669c5.793 8.828 9.307 18.953 10.229 29.47s-0.779 21.098-4.948 30.798l-80.366 187.512c-5.471 12.728-14.917 23.342-26.926 30.252s-25.931 9.745-39.684 8.080c-54.046-6.949-103.713-33.335-139.723-74.23s-55.901-93.502-55.956-147.992c0-317.61 258.392-576.001 576-576.001 54.491 0.059 107.099 19.95 147.994 55.958 40.894 36.012 67.28 85.68 74.229 139.728 1.66 13.751-1.178 27.674-8.086 39.68-6.912 12.006-17.525 21.456-30.248 26.928v0zM629.405 769.087c48.819-13.127 93.33-38.853 129.079-74.6s61.473-80.26 74.598-129.081c2.205-8.181 7.567-15.155 14.91-19.39 7.34-4.235 16.062-5.383 24.251-3.196 8.188 2.191 15.173 7.537 19.423 14.87 4.25 7.329 5.416 16.048 3.244 24.243-16.044 59.677-47.492 114.091-91.191 157.789s-98.114 75.146-157.791 91.193c-8.192 2.171-16.911 1.003-24.243-3.247s-12.679-11.235-14.866-19.423c-2.191-8.188-1.039-16.909 3.193-24.25 4.235-7.341 11.209-12.703 19.394-14.908v0zM596.272 645.426c27.118-7.293 51.847-21.584 71.706-41.442 19.858-19.857 34.15-44.587 41.443-71.705 2.205-8.185 7.567-15.159 14.907-19.394 7.344-4.235 16.062-5.383 24.251-3.196 8.188 2.191 15.173 7.537 19.423 14.87s5.416 16.051 3.248 24.243c-10.214 37.979-30.226 72.608-58.035 100.417s-62.438 47.823-100.418 58.034c-8.192 2.171-16.911 1.003-24.243-3.247s-12.679-11.235-14.866-19.423c-2.191-8.188-1.042-16.909 3.193-24.25s11.209-12.703 19.394-14.908v0z" />
<glyph unicode="&#xe90d;" glyph-name="phone-reverse" horiz-adv-x="996" d="M465.186 787.999c-157.147 0-285.053-129.589-285.053-288.802 0-22.818-18.203-41.259-40.722-41.259s-40.722 18.441-40.722 41.259c0 204.76 164.394 371.317 366.496 371.317 22.477 0 40.721-18.442 40.721-41.258s-18.244-41.258-40.721-41.258zM465.186 622.967c-67.354 0-122.166-55.532-122.166-123.77 0-22.818-18.202-41.259-40.721-41.259s-40.722 18.441-40.722 41.259c0 113.746 91.339 206.287 203.609 206.287 22.477 0 40.721-18.442 40.721-41.258s-18.244-41.259-40.721-41.259zM138.19 323.351c-13.682-3.177-24.799-13.244-29.36-26.652-3.339-9.697-5.904-19.803-7.534-30.117-1.71-10.274-2.606-20.753-2.606-31.44 0-104.63 84.009-189.784 187.319-189.784 345.771 0 627.118 285.008 627.118 635.407 0 104.629-84.050 189.744-187.321 189.744-10.587 0-21.055-0.908-31.192-2.682-9.896-1.609-19.874-4.167-29.525-7.55-13.275-4.662-23.211-15.925-26.345-29.788l-55.748-246.018c-3.095-13.574 0.774-27.767 10.26-37.794 5.581-5.899 5.703-6.022 56.198-32.757-40.886-89.737-111.943-161.442-198.721-201.503-26.47 51.2-26.593 51.365-32.375 57.020-9.936 9.611-23.902 13.449-37.299 10.436l-242.866-56.522z" />
<glyph unicode="&#xe90e;" glyph-name="plus" d="M810.667 490.667h-256v256c0 23.595-19.115 42.667-42.667 42.667s-42.667-19.072-42.667-42.667v-256h-256c-23.552 0-42.667-19.072-42.667-42.667s19.115-42.667 42.667-42.667h256v-256c0-23.595 19.115-42.667 42.667-42.667s42.667 19.072 42.667 42.667v256h256c23.552 0 42.667 19.072 42.667 42.667s-19.115 42.667-42.667 42.667z" />
<glyph unicode="&#xe90f;" glyph-name="plus-circle" d="M640 490.667h-85.333v85.333c0 23.467-19.2 42.667-42.667 42.667s-42.667-19.2-42.667-42.667v-85.333h-85.333c-23.467 0-42.667-19.2-42.667-42.667s19.2-42.667 42.667-42.667h85.333v-85.333c0-23.467 19.2-42.667 42.667-42.667s42.667 19.2 42.667 42.667v85.333h85.333c23.467 0 42.667 19.2 42.667 42.667s-19.2 42.667-42.667 42.667zM512 106.667c-188.203 0-341.333 153.131-341.333 341.333s153.131 341.333 341.333 341.333c188.203 0 341.333-153.131 341.333-341.333s-153.131-341.333-341.333-341.333zM512 874.667c-235.264 0-426.667-191.403-426.667-426.667s191.403-426.667 426.667-426.667c235.264 0 426.667 191.403 426.667 426.667s-191.403 426.667-426.667 426.667z" />
<glyph unicode="&#xe910;" glyph-name="search" d="M213.333 490.667c0 141.184 114.816 256 256 256s256-114.816 256-256c0-141.184-114.816-256-256-256s-256 114.816-256 256zM883.499 136.832l-144.853 144.896c44.928 57.771 72.021 130.176 72.021 208.939 0 188.203-153.131 341.333-341.333 341.333s-341.333-153.131-341.333-341.333c0-188.203 153.131-341.333 341.333-341.333 78.763 0 151.168 27.093 208.939 72.021l144.896-144.853c8.32-8.32 19.243-12.501 30.165-12.501s21.845 4.181 30.165 12.501c16.683 16.683 16.683 43.648 0 60.331z" />
<glyph unicode="&#xe911;" glyph-name="triangle-down" d="M511.996 277.333c-9.728 0-19.413 3.285-27.307 9.899l-256 213.333c-18.091 15.061-20.565 41.985-5.461 60.076 15.061 18.091 41.941 20.523 60.075 5.461l229.162-190.977 228.779 184.108c18.347 14.763 45.227 11.861 59.989-6.485s11.861-45.185-6.485-59.99l-256-205.995c-7.808-6.272-17.28-9.429-26.752-9.429z" />
<glyph unicode="&#xe912;" glyph-name="check-small" d="M772.933 777.055c45.318 59.804 132.255 72.802 194.176 29.033s75.38-127.732 30.061-187.537l-429.978-567.41c-46.388-61.215-135.866-68.079-191.049-14.656l-335.566 324.864c-54.195 52.466-54.090 137.428 0.234 189.77s142.295 52.241 196.489-0.225l210.109-203.407 325.523 429.568z" />
<glyph unicode="&#xe913;" glyph-name="info" horiz-adv-x="973" d="M473.85 913.92c-257.533 0-465.92-208.405-465.92-465.92 0-257.531 208.405-465.92 465.92-465.92 257.532 0 465.921 208.404 465.921 465.92 0 257.533-208.41 465.92-465.921 465.92zM473.85 64.323c-212.080 0-383.68 171.612-383.68 383.677 0 212.080 171.615 383.68 383.68 383.68 212.082 0 383.678-171.615 383.678-383.68 0-212.081-171.612-383.677-383.678-383.677zM473.85 528.145c-22.71 0-41.12-18.409-41.12-41.12v-231.829c0-22.707 18.409-41.119 41.12-41.119s41.12 18.412 41.12 41.124v231.824c0 22.71-18.409 41.12-41.12 41.12zM473.85 561.968c29.669 0 53.72 24.051 53.72 53.72s-24.051 53.72-53.72 53.72c-29.668 0-53.72-24.052-53.72-53.72s24.052-53.72 53.72-53.72z" />
<glyph unicode="&#xe914;" glyph-name="triangle-right" horiz-adv-x="973" d="M405.313 175.616c-9.161 0-18.362 2.954-25.942 9.027-17.186 13.737-19.496 38.287-5.188 54.789l181.429 208.994-174.903 208.646c-14.025 16.732-11.269 41.247 6.161 54.71 17.47 13.464 42.966 10.818 57.030-5.915l195.695-233.471c12.078-14.436 11.919-35.061-0.445-49.299l-202.667-233.472c-8.026-9.226-19.537-14.008-31.17-14.008z" />
<glyph unicode="&#xe915;" glyph-name="home" horiz-adv-x="1067" d="M844.002 106.667h-132.89v298.667c0 23.595-19.913 42.667-44.446 42.667h-266.667c-24.578 0-44.445-19.072-44.445-42.667v-298.667h-133.333l0.267 359.125 310.755 305.111 311.202-306.86-0.444-357.376zM444.446 106.667h177.775v256h-177.775v-256zM907.733 525.44l-342.622 336.386c-16.755 16.427-46.801 16.427-63.556 0l-342.666-336.428c-16.222-16-25.556-38.357-25.556-61.355v-357.376c0-47.061 37.644-85.333 83.911-85.333h632.134c46.268 0 83.955 38.272 83.955 85.333v357.376c0 22.997-9.335 45.355-25.6 61.397v0z" />
</font>
</defs>
</svg>
