<svg width="70" height="30" viewBox="0 0 70 30" fill="none" xmlns="http://www.w3.org/2000/svg">
<path d="M57.4603 29.1903C60.6289 29.1903 62.1203 27.9813 63.423 24.3164L69.1299 8.30971H65.8257L61.9987 20.6935H61.9316L58.1046 8.32648H54.7068L60.2124 23.5617L59.9175 24.4883C59.7092 25.8148 58.5184 26.761 57.178 26.6632C56.9222 26.6632 56.426 26.6366 56.2247 26.6101V29.126C56.6342 29.1819 57.048 29.2085 57.4603 29.2071V29.1903ZM46.449 21.1743C44.7159 21.1743 43.6158 20.3357 43.6158 19.0666C43.6158 17.7513 44.6767 16.9854 46.7048 16.8638L50.3165 16.6359V17.8184C50.2369 19.7668 48.5917 21.2834 46.6433 21.2037C46.5776 21.2009 46.5133 21.1953 46.449 21.1897V21.1743ZM45.5768 23.6581C47.5434 23.7112 49.3828 22.6867 50.371 20.9857H50.4381V23.5016H53.446V13.0815C53.446 10.0597 51.0294 8.11263 47.3086 8.11263C43.8576 8.11263 41.3054 10.0862 41.2118 12.7992H44.14C44.4894 11.4196 45.8005 10.5097 47.215 10.6635C49.2025 10.6635 50.3165 11.5902 50.3165 13.2954V14.4499L46.2631 14.6917C42.4893 14.9195 40.4486 16.464 40.4486 19.1504C40.4458 21.8746 42.5536 23.6735 45.5755 23.6735L45.5768 23.6581ZM28.1458 5.30181H31.8917C34.7123 5.30181 36.3239 6.80576 36.3239 9.45165C36.3239 12.0975 34.7123 13.6141 31.8792 13.6141H28.1458V5.30181ZM24.8961 2.56227V23.4974H28.1458V16.3606H32.6451C36.3099 16.5577 39.4394 13.7468 39.6365 10.082C39.6477 9.87376 39.6491 9.66689 39.6407 9.45863C39.814 5.83434 37.0172 2.75655 33.3929 2.58184C33.179 2.57205 32.9666 2.57345 32.7527 2.58324L24.8961 2.56227ZM14.1099 6.46891C12.2425 6.36128 10.645 7.52978 9.7588 7.52978C8.87264 7.52978 7.50287 6.52342 6.02547 6.55137C4.06866 6.60169 2.28517 7.68492 1.33891 9.39853C-0.675212 12.8635 0.814763 17.9931 2.76179 20.8123C3.71504 22.2101 4.85838 23.7406 6.36093 23.6861C7.78381 23.6329 8.34849 22.7594 10.0677 22.7594C11.7869 22.7594 12.2971 23.6861 13.801 23.6581C15.3581 23.6315 16.3393 22.2604 17.2953 20.8627C17.969 19.8731 18.4932 18.7898 18.8524 17.6479C17.0172 16.8456 15.8277 15.0383 15.8179 13.0354C15.8459 11.2687 16.7712 9.63894 18.2751 8.71225C17.3163 7.35087 15.7774 6.51503 14.1127 6.45633L14.1099 6.46891ZM12.9442 4.61972C12.1265 5.64984 10.8756 6.24108 9.56032 6.21732C9.47645 4.93421 9.91254 3.67206 10.7693 2.71322C11.622 1.72364 12.824 1.10305 14.1239 0.981445C14.2161 2.3009 13.7926 3.60357 12.9414 4.61552" fill="#222B45"/>
</svg>
