<svg width="64" height="60" viewBox="0 0 64 60" fill="none" xmlns="http://www.w3.org/2000/svg">
<path d="M60.0245 15.8713C63.081 14.3714 64.3445 10.6795 62.8447 7.62427C61.3486 4.5665 57.6555 3.30416 54.5989 4.80276C51.5437 6.30019 50.2811 9.99236 51.7787 13.0476C53.2762 16.104 56.968 17.3675 60.0245 15.8713Z" fill="#222B45"/>
<path d="M43.3009 23.8159C42.809 26.213 43.0248 28.3591 45.4131 29.0163C45.4131 29.0163 56.3998 32.034 56.4044 32.0353L56.4106 32.0366C58.1951 32.5251 60.0217 31.4748 60.5075 29.7047C60.9935 27.9322 59.9541 26.0996 58.1817 25.6102C58.1795 25.6089 58.1782 25.6089 58.1757 25.6076L52.5728 24.0689L50.3578 22.5908C51.0283 19.3294 50.7896 20.4869 51.3864 17.5869C51.701 16.0595 50.5301 14.1063 49.8442 12.7052C48.5529 10.0732 45.3746 8.98549 42.7438 10.2757L39.0641 12.0796L44.9334 15.9993C44.7984 16.4647 44.4801 18.0754 44.3741 18.5941L18.4535 1.28861C17.3226 0.528803 15.7876 0.835173 15.0294 1.97082C14.272 3.10414 14.5772 4.63792 15.7116 5.39502L43.3009 23.8159Z" fill="#222B45"/>
<path d="M63.6492 52.7663C62.9511 51.5969 61.4378 51.2171 60.2622 51.9164L56.8623 53.9504L34.3709 46.2099L44.9763 37.2754C46.9922 35.5791 46.8885 32.4259 44.7509 30.8671L38.8165 26.5421L40.947 25.4981L41.1929 25.3773L28.8066 17.1074L28.8042 17.1086C26.7363 18.1226 25.4209 20.0447 25.0759 22.1568C24.648 24.7637 25.7379 27.0316 28.2023 28.8896L35.7515 34.3912L25.4728 43.1472L3.27418 35.5066C1.98168 35.0593 0.578203 35.7464 0.135597 37.0367C-0.309329 38.3269 0.376749 39.7315 1.66564 40.1763L56.3399 58.9939C56.6016 59.0844 56.8742 59.129 57.1443 59.129C57.5856 59.129 58.0244 59.0108 58.4128 58.778L62.7991 56.1532C63.9687 55.4538 64.3497 53.937 63.6492 52.7663Z" fill="#222B45"/>
</svg>
