<svg width="64" height="64" viewBox="0 0 64 64" fill="none" xmlns="http://www.w3.org/2000/svg">
<path d="M61.6687 31.4541C60.9118 31.3058 60.1429 31.4609 59.5029 31.8909C58.9728 32.2471 58.5838 32.7567 58.3815 33.3512L55.0925 31.9149C55.0993 31.6898 55.1027 31.468 55.1027 31.252C55.1027 29.3182 54.8606 27.3981 54.3828 25.538L55.8582 24.5373C56.7933 25.3563 58.1524 25.6011 59.3423 25.0842C60.9434 24.3885 61.7103 22.5356 61.088 20.866L60.3935 19.0022C59.7639 17.3122 57.9526 16.4217 56.2704 16.9739C55.419 17.2534 54.7339 17.8499 54.3414 18.6532C54.1181 19.1101 54.0055 19.6002 54.0052 20.0927L52.3315 20.3264C52.1022 19.9061 51.8517 19.4801 51.5841 19.0558C51.3074 18.6169 50.7272 18.4855 50.2885 18.7621C49.8495 19.0387 49.718 19.6188 49.9947 20.0577C50.3104 20.5585 50.5998 21.0604 50.8547 21.5496C51.1105 22.0401 51.6501 22.3183 52.1962 22.2422L55.2145 21.8208C55.4946 21.7817 55.7422 21.6185 55.8885 21.3765C56.0348 21.1346 56.0643 20.8395 55.9689 20.5733C55.8393 20.2121 55.8608 19.8232 56.0293 19.4782C56.1974 19.1343 56.4911 18.8789 56.8564 18.7589C57.5651 18.5265 58.3616 18.9299 58.633 19.6584L59.3275 21.5222C59.5963 22.2435 59.267 23.0686 58.5934 23.3614C57.9486 23.6415 57.1893 23.4014 56.8265 22.803C56.6931 22.583 56.475 22.4273 56.2237 22.3724C55.9723 22.3174 55.7091 22.3684 55.4961 22.5128L52.9927 24.2109C52.5283 24.5257 52.3168 25.1015 52.4666 25.6436C52.9691 27.4631 53.2239 29.3502 53.2239 31.2521C53.2239 31.5637 53.216 31.8894 53.2007 32.2202C53.1758 32.759 53.4906 33.2657 53.9838 33.4811L58.6772 35.5307C58.9382 35.6448 59.237 35.6341 59.4891 35.502C59.7415 35.3698 59.9201 35.1304 59.9749 34.8508L60.1237 34.093C60.1756 33.8289 60.3273 33.6007 60.5507 33.4505C60.774 33.3003 61.0426 33.2461 61.3068 33.2981C61.8523 33.405 62.209 33.9358 62.1021 34.4812L61.3324 38.4037C61.2788 38.6767 61.1201 38.9096 60.8854 39.0594C60.6509 39.209 60.3721 39.2544 60.1004 39.188C59.5869 39.0619 59.2569 38.5119 59.3647 37.9618L59.3852 37.8569C59.4406 37.574 59.3631 37.2813 59.1748 37.063C58.9866 36.8444 58.7064 36.7237 58.4206 36.7378L53.3436 36.9694C52.8062 36.9938 52.3309 37.3543 52.161 37.8668C51.6907 39.2869 51.0665 40.6591 50.3054 41.9449C50.022 42.4236 50.0717 43.0306 50.4291 43.4552L52.6751 46.1234C52.8419 46.3217 53.0832 46.442 53.3418 46.4564C53.6004 46.4705 53.8537 46.3775 54.0412 46.199C54.5447 45.7202 55.31 45.6792 55.8611 46.101C56.1594 46.3292 56.3508 46.6598 56.4004 47.0321C56.45 47.4043 56.3514 47.7736 56.1233 48.0718L55.4725 48.9224C55.005 49.5332 54.1317 49.6903 53.5259 49.2728C53.011 48.918 52.7908 48.2567 52.9904 47.6646C53.146 47.2036 52.9237 46.7 52.478 46.5044L49.2426 45.0833C48.728 44.857 48.1274 44.9849 47.7477 45.4016C46.305 46.9857 44.6391 48.3354 42.796 49.4132C42.3304 49.685 42.0763 50.2244 42.1632 50.755L42.9915 55.8057C43.0376 56.0867 43.2087 56.3317 43.4568 56.4717C43.705 56.6118 44.0029 56.6316 44.2676 56.5259L44.9843 56.239C45.2427 56.1357 45.5245 56.1425 45.7777 56.2582C46.0309 56.3737 46.2205 56.583 46.3122 56.8475C46.4853 57.3471 46.2026 57.9232 45.682 58.1313L42.022 59.5955C41.7636 59.699 41.4819 59.6921 41.2285 59.5765C40.9755 59.461 40.7857 59.2517 40.694 58.9873C40.5209 58.4877 40.8035 57.9116 41.3237 57.7035L41.4228 57.6639C41.6905 57.5568 41.8942 57.3327 41.9754 57.056C42.0564 56.7794 42.006 56.4808 41.8385 56.246L38.8857 52.1088C38.5733 51.6708 38.0123 51.4675 37.4908 51.6027C35.7692 52.049 33.9895 52.2753 32.2009 52.2753C30.7847 52.2753 29.365 52.1323 27.9814 51.8502C27.4533 51.7426 26.9044 51.9747 26.6147 52.4283L23.6592 57.0637C23.506 57.3038 23.4702 57.6005 23.5617 57.8703C23.653 58.1401 23.8619 58.3538 24.1296 58.4513L24.2342 58.4895C24.593 58.6203 24.8795 58.8831 25.0407 59.2294C25.2019 59.5756 25.2185 59.964 25.0878 60.3228C25.0501 60.4259 25.0309 60.5349 25.0309 60.6446C25.0309 60.9999 24.9261 61.2691 24.7357 61.4023C24.5454 61.5355 24.2569 61.542 23.9228 61.42L20.292 60.0961C19.565 59.8311 19.1779 59.0204 19.4291 58.2889C19.5489 57.9402 19.8069 57.6566 20.1556 57.4903C20.524 57.3146 20.9522 57.2928 21.3301 57.4305L21.4133 57.4609C21.684 57.5598 21.9853 57.5286 22.2303 57.3766C22.4754 57.2245 22.637 56.9684 22.6687 56.6818L23.2704 51.2493C23.3296 50.7147 23.0476 50.1895 22.5686 49.9423C20.3723 48.808 18.4073 47.3078 16.7285 45.4837C16.359 45.0819 15.7724 44.9508 15.2686 45.1576L10.8378 46.9746C10.592 47.0754 10.4003 47.2756 10.3104 47.5256C10.2204 47.7756 10.2405 48.052 10.3656 48.2863C10.6468 48.8124 10.4821 49.4568 9.98263 49.7852C9.46772 50.124 8.74678 49.9656 8.37604 49.432L7.24114 47.7984C6.87716 47.2744 6.96383 46.5712 7.43841 46.1972C7.68377 46.0038 7.98826 45.9191 8.29512 45.9586C8.60437 45.9984 8.87792 46.157 9.06567 46.4052C9.23551 46.6299 9.49728 46.7666 9.77885 46.7774C10.0594 46.7882 10.3318 46.6722 10.5185 46.4612L13.6392 42.9339C14.0054 42.5199 14.0711 41.9162 13.8024 41.431C13.4669 40.8258 13.1547 40.1885 12.8749 39.5367C12.67 39.0601 12.1178 38.8395 11.641 39.0443C11.1642 39.2491 10.9438 39.8015 11.1485 40.2782C11.3993 40.862 11.674 41.4356 11.9674 41.9881L9.73213 44.5148C9.37266 44.2943 8.9671 44.1506 8.53511 44.0949C7.7226 43.9906 6.92075 44.2131 6.27558 44.7213C5.02194 45.7093 4.76843 47.5317 5.69842 48.8701L6.83332 50.5037C7.78034 51.8669 9.6561 52.2485 11.0152 51.3547C12.0316 50.6863 12.5215 49.5203 12.3505 48.3845L15.617 47.0449C17.2947 48.8064 19.2235 50.2787 21.3603 51.4286L20.9134 55.4639C20.3771 55.4486 19.8375 55.56 19.3468 55.7941C18.5392 56.1794 17.9373 56.8484 17.6522 57.6782C17.0708 59.3712 17.9664 61.2476 19.6485 61.8609L23.2793 63.1848C23.6436 63.3177 24.0097 63.3833 24.3623 63.3833C24.8934 63.3833 25.394 63.2343 25.813 62.9412C26.4703 62.4812 26.8633 61.7104 26.9059 60.8089C27.1495 60.0234 27.0937 59.1868 26.744 58.4359C26.5199 57.9545 26.1911 57.5429 25.7843 57.2253L27.9901 53.7656C31.1577 54.3549 34.4607 54.2682 37.5822 53.516L39.7257 56.5193C38.882 57.2829 38.5316 58.4844 38.9187 59.6021C39.1803 60.3565 39.7233 60.9542 40.4481 61.2853C41.1627 61.6116 41.9904 61.6313 42.7197 61.3398L46.3799 59.8756C47.8424 59.2905 48.5925 57.6902 48.0875 56.2324C47.8261 55.478 47.283 54.8802 46.5583 54.5491C45.9637 54.2776 45.2904 54.2181 44.6609 54.3742L44.0803 50.8347C45.8386 49.7659 47.4432 48.4671 48.8587 46.9667L51.0445 47.9268C50.9834 49.0496 51.5041 50.1612 52.4599 50.8199C53.9015 51.8133 55.8802 51.4811 56.9646 50.0642L57.6155 49.2136C58.1486 48.5168 58.3786 47.6541 58.2629 46.7843C58.1471 45.9146 57.6997 45.1419 57.0028 44.6087C55.9862 43.8308 54.659 43.7261 53.5662 44.2645L52.1248 42.5521C52.7986 41.366 53.3667 40.1166 53.8182 38.8284L57.5027 38.6603C57.6855 39.7834 58.5039 40.7303 59.6527 41.0124C60.428 41.2029 61.2249 41.0714 61.8964 40.6428C62.5585 40.2201 63.0249 39.5358 63.1761 38.7651L63.9458 34.8427C64.2521 33.2807 63.2307 31.7606 61.6687 31.4541V31.4541Z" fill="#222B45"/>
<path d="M6.05238 33.9911L9.57343 34.8044C9.65009 35.294 9.7449 35.7911 9.85637 36.287C9.95445 36.7239 10.3422 37.0208 10.7721 37.0207C10.8402 37.0207 10.9095 37.0132 10.9787 36.9977C11.4849 36.8839 11.8032 36.3815 11.6894 35.8753C11.56 35.2986 11.455 34.7211 11.3773 34.1587C11.3033 33.6235 10.9007 33.1824 10.3758 33.0613L5.38892 31.9096C5.11174 31.8456 4.81966 31.9108 4.59608 32.0871C4.37238 32.2634 4.24075 32.5317 4.23824 32.8165L4.23311 33.4003C4.22722 34.0539 3.69077 34.5857 3.03708 34.5857C2.72584 34.5857 2.43363 34.464 2.21456 34.2429C1.99537 34.0217 1.87626 33.7286 1.87901 33.4174L1.91158 29.7946C1.91446 29.4624 2.05562 29.1374 2.29873 28.9029C2.52719 28.6825 2.81589 28.5643 3.12088 28.5733C3.7554 28.5901 4.26893 29.1206 4.26542 29.756C4.26379 30.0437 4.39418 30.3164 4.61925 30.4957C4.84433 30.6752 5.13942 30.7416 5.41923 30.6757L10.371 29.5147C10.8956 29.3917 11.2964 28.9494 11.3687 28.4141C11.734 25.7045 12.6131 23.1287 13.9815 20.758C14.2576 20.2793 14.2032 19.6753 13.8456 19.255L11.4843 16.4817C11.2996 16.265 11.0282 16.1432 10.7419 16.1516C10.4572 16.1599 10.1915 16.2968 10.0197 16.5239L9.81504 16.7944C9.66211 16.9966 9.43916 17.1237 9.18716 17.1526C8.93603 17.1814 8.68916 17.1075 8.49339 16.9445C8.1234 16.6362 8.07355 16.0533 8.3823 15.6451L9.9552 13.5654C10.2606 13.1618 10.8375 13.0816 11.2411 13.3871C11.6192 13.6729 11.716 14.2099 11.4617 14.6095C11.3142 14.8416 11.2757 15.1266 11.3565 15.3895C11.4373 15.6524 11.6292 15.8667 11.8814 15.9758L15.1834 17.4039C15.6953 17.6255 16.2929 17.4969 16.6704 17.0836C18.1737 15.4369 19.9162 14.0462 21.85 12.95C22.3185 12.6842 22.5796 12.1486 22.5 11.6168L21.7393 6.55565C21.697 6.27396 21.529 6.02671 21.2829 5.88343C21.0365 5.74002 20.7384 5.71622 20.473 5.81842L19.7525 6.0956C19.4927 6.1953 19.2111 6.18491 18.9595 6.06592C18.708 5.94706 18.5211 5.73526 18.4331 5.4696C18.2666 4.96759 18.5568 4.39557 19.0802 4.19429L22.7596 2.77908C23.0194 2.67913 23.3009 2.68978 23.5526 2.80877C23.8041 2.92763 23.9911 3.13943 24.0791 3.40509C24.2455 3.90709 23.9552 4.47911 23.4318 4.68052L23.3324 4.71884C23.0633 4.82243 22.8567 5.04374 22.7719 5.3193C22.6872 5.59485 22.7336 5.89407 22.898 6.13092L25.7946 10.3065C26.1009 10.7482 26.6584 10.959 27.1818 10.8308C28.8144 10.431 30.503 10.2283 32.2029 10.2283H32.2034C32.7576 10.2283 33.2545 9.87893 33.4398 9.35952L34.3988 6.67589C34.4849 6.43516 34.4691 6.16963 34.355 5.94092C34.241 5.71208 34.0387 5.53949 33.7946 5.46321C33.0962 5.24477 32.6519 4.5589 32.7381 3.83244C32.7841 3.44592 32.9871 3.09409 33.3097 2.84171C33.6486 2.57668 34.082 2.45481 34.4998 2.50754L35.8169 2.67337C36.6706 2.78084 37.2925 3.53597 37.2032 4.35662C37.1342 4.99014 36.6906 5.50392 36.0733 5.66549C35.6211 5.78385 35.3247 6.21672 35.3779 6.68115L35.7112 9.58923C35.7747 10.1442 36.1848 10.5979 36.732 10.7182C38.8302 11.1792 40.8408 11.9604 42.7075 13.0398C43.175 13.3103 43.77 13.2637 44.1882 12.9243L48.1623 9.69845C48.3835 9.51896 48.5111 9.2488 48.5096 8.96398C48.508 8.67928 48.3773 8.41049 48.1544 8.23339L47.5498 7.7533C47.3318 7.58033 47.1978 7.33233 47.1725 7.0549C47.1473 6.77797 47.2348 6.50943 47.419 6.29863C47.7668 5.90021 48.407 5.85988 48.8464 6.20845L51.9338 8.65974C52.1518 8.83271 52.2858 9.08071 52.3111 9.35801C52.3362 9.63494 52.2488 9.90348 52.0646 10.1144C51.7166 10.5126 51.0761 10.5529 50.6375 10.2047L50.5542 10.1386C50.3282 9.95909 50.0324 9.89346 49.7522 9.96035C49.4716 10.0272 49.2374 10.2192 49.1168 10.4811L46.9882 15.1019C46.7631 15.5906 46.8652 16.1783 47.2418 16.5642C47.3753 16.701 47.5072 16.8425 47.6641 17.013C48.0155 17.3947 48.6098 17.4193 48.9915 17.0678C49.3732 16.7164 49.3977 16.1222 49.0464 15.7404C48.98 15.6682 48.9175 15.6005 48.8569 15.5358L50.4029 12.1798C51.4844 12.5335 52.7014 12.2415 53.4795 11.3506C54.0048 10.7493 54.2543 9.98114 54.1819 9.18767C54.1107 8.40536 53.717 7.67677 53.1019 7.18854L50.0145 4.73738C48.7809 3.75804 47.0193 3.9007 46.0041 5.06291C45.4788 5.66424 45.2293 6.4324 45.3017 7.22587C45.361 7.87692 45.6435 8.4909 46.0914 8.95997L43.3075 11.2201C41.4889 10.2095 39.5495 9.45534 37.5325 8.97425L37.326 7.17226C38.2808 6.6442 38.9505 5.67175 39.0717 4.56015C39.2712 2.72673 37.9166 1.04423 36.0522 0.809384L34.7351 0.643552C33.825 0.529073 32.8835 0.790847 32.1532 1.36187C31.4332 1.92487 30.9786 2.7236 30.8732 3.611C30.7199 4.90108 31.3151 6.1338 32.3488 6.83095L31.8049 8.35288C30.2219 8.37993 28.6487 8.56893 27.117 8.916L25.0147 5.88543C25.8683 5.13342 26.2349 3.93665 25.8628 2.8139C25.6114 2.05601 25.0764 1.45105 24.3562 1.11036C23.646 0.774565 22.8186 0.743628 22.0855 1.02557L18.4063 2.44065C16.9359 3.00604 16.1645 4.59622 16.6501 6.06078C16.9014 6.81868 17.4363 7.42364 18.1566 7.76432C18.7476 8.04376 19.4195 8.11227 20.0516 7.9646L20.5846 11.5115C18.7298 12.605 17.0424 13.951 15.5597 15.5194L13.4388 14.6021C13.6111 13.598 13.2275 12.5335 12.3748 11.8885C11.779 11.4378 11.0436 11.2458 10.3034 11.3489C9.56341 11.4515 8.90772 11.8362 8.4572 12.4321L6.88417 14.5117C5.9637 15.7284 6.14243 17.4311 7.29098 18.3879C7.8853 18.883 8.63468 19.1073 9.40171 19.0191C9.88531 18.9636 10.3447 18.7809 10.7333 18.4975L12.1562 20.1689C10.8413 22.5408 9.96998 25.0959 9.56241 27.7745L5.9275 28.6269C5.48624 27.5257 4.4186 26.7281 3.1706 26.6951C2.3581 26.6747 1.58818 26.9777 0.99399 27.551C0.390782 28.1331 0.0403294 28.9446 0.0326891 29.7776L0.000123864 33.4006C-0.00714069 34.2168 0.305361 34.9857 0.879887 35.5655C1.45441 36.1453 2.22057 36.4646 3.03696 36.4646C4.52118 36.4647 5.77056 35.3982 6.05238 33.9911V33.9911Z" fill="#222B45"/>
<path d="M27.5497 28.8623C28.008 28.6194 28.1827 28.0508 27.9397 27.5923C27.6968 27.1342 27.1284 26.9591 26.6696 27.2023C24.4248 28.3922 21.866 28.0777 20.5863 26.4539C19.8683 25.5431 19.6213 24.3361 19.8908 23.0554C20.1734 21.7124 20.9815 20.4585 22.1662 19.5248C23.3507 18.5909 24.7588 18.0987 26.1304 18.1368C27.4387 18.1737 28.5545 18.6958 29.2727 19.6067C30.3509 20.9746 30.3372 23.0163 29.2378 24.8083C28.9665 25.2505 29.1049 25.8289 29.5473 26.1002C29.9894 26.3715 30.5678 26.233 30.8391 25.7909C32.3549 23.3204 32.3191 20.4365 30.7481 18.4436C29.6793 17.0877 28.0582 16.3117 26.1835 16.2589C24.3719 16.2063 22.5327 16.8435 21.0032 18.0493C19.4734 19.2551 18.4255 20.8957 18.0523 22.6685C17.666 24.5036 18.042 26.2612 19.1107 27.617C20.2361 29.0446 21.9983 29.7956 23.8941 29.7955C25.1019 29.7955 26.3638 29.4909 27.5497 28.8623V28.8623Z" fill="#222B45"/>
<path d="M45.7776 20.4402C45.7776 18.4926 43.9652 16.9082 41.7375 16.9082C39.5098 16.9082 37.6973 18.4926 37.6973 20.4402C37.6973 22.3877 39.5098 23.9721 41.7375 23.9721C43.9652 23.9721 45.7776 22.3877 45.7776 20.4402ZM39.5762 20.4402C39.5762 19.5286 40.5457 18.787 41.7376 18.787C42.9294 18.787 43.8989 19.5286 43.8989 20.4402C43.8989 21.3517 42.9294 22.0933 41.7376 22.0933C40.5457 22.0933 39.5762 21.3517 39.5762 20.4402Z" fill="#222B45"/>
<path d="M34.876 36.5825C34.876 34.1957 32.9342 32.2539 30.5474 32.2539C28.1605 32.2539 26.2188 34.1957 26.2188 36.5825C26.2188 38.9692 28.1605 40.911 30.5474 40.911C32.9342 40.911 34.876 38.9692 34.876 36.5825ZM28.0976 36.5825C28.0976 35.2316 29.1966 34.1327 30.5476 34.1327C31.8983 34.1327 32.9973 35.2316 32.9973 36.5825C32.9973 37.9333 31.8984 39.0322 30.5476 39.0322C29.1966 39.0322 28.0976 37.9333 28.0976 36.5825V36.5825Z" fill="#222B45"/>
<path d="M47.1227 34.8173C47.1227 32.9612 45.6127 31.4512 43.7566 31.4512C41.9006 31.4512 40.3906 32.9612 40.3906 34.8173C40.3906 36.6734 41.9006 38.1834 43.7566 38.1834C45.6127 38.1833 47.1227 36.6734 47.1227 34.8173ZM42.2693 34.8173C42.2693 33.9971 42.9365 33.3299 43.7565 33.3299C44.5766 33.3299 45.2438 33.9971 45.2438 34.8173C45.2438 35.6374 44.5766 36.3047 43.7565 36.3047C42.9366 36.3045 42.2693 35.6374 42.2693 34.8173Z" fill="#222B45"/>
<path d="M34.7948 49.9586C36.6136 49.9586 38.0934 48.4788 38.0934 46.6599C38.0934 44.8412 36.6137 43.3613 34.7948 43.3613C32.9759 43.3613 31.4961 44.841 31.4961 46.6599C31.4961 48.4788 32.9758 49.9586 34.7948 49.9586ZM34.7948 45.2401C35.5778 45.2401 36.2147 45.877 36.2147 46.6599C36.2147 47.4429 35.5778 48.0798 34.7948 48.0798C34.0119 48.0798 33.3749 47.4429 33.3749 46.6599C33.3749 45.877 34.0119 45.2401 34.7948 45.2401Z" fill="#222B45"/>
<path d="M20.0338 44.4133C21.9069 44.4133 23.4308 42.8893 23.4308 41.0162C23.4308 39.1431 21.9069 37.6191 20.0338 37.6191C18.1606 37.6191 16.6367 39.1431 16.6367 41.0162C16.6367 42.8893 18.1606 44.4133 20.0338 44.4133ZM20.0338 39.4979C20.8711 39.4979 21.5521 40.179 21.5521 41.0162C21.5521 41.8534 20.871 42.5345 20.0338 42.5345C19.1966 42.5345 18.5155 41.8534 18.5155 41.0162C18.5155 40.179 19.1966 39.4979 20.0338 39.4979Z" fill="#222B45"/>
<path d="M39.1623 29.2597C39.1623 28.7409 38.7418 28.3203 38.2229 28.3203H37.3925C36.8736 28.3203 36.4531 28.7409 36.4531 29.2597C36.4531 29.7785 36.8736 30.1991 37.3925 30.1991H38.2229C38.7418 30.1991 39.1623 29.7785 39.1623 29.2597Z" fill="#222B45"/>
<path d="M26.3066 46.621H27.1598C27.6787 46.621 28.0992 46.2004 28.0992 45.6816C28.0992 45.1628 27.6787 44.7422 27.1598 44.7422H26.3066C25.7877 44.7422 25.3672 45.1628 25.3672 45.6816C25.3672 46.2004 25.7878 46.621 26.3066 46.621Z" fill="#222B45"/>
<path d="M18.398 32.9393C18.9169 32.9393 19.3374 32.5187 19.3374 31.9999C19.3374 31.4811 18.9169 31.0605 18.398 31.0605H17.5761C17.0572 31.0605 16.6367 31.4811 16.6367 31.9999C16.6367 32.5187 17.0572 32.9393 17.5761 32.9393H18.398Z" fill="#222B45"/>
<path d="M35.0812 16.5057C35.6001 16.5057 36.0206 16.0851 36.0206 15.5663C36.0206 15.0475 35.6001 14.627 35.0812 14.627H33.9374C33.4185 14.627 32.998 15.0475 32.998 15.5663C32.998 16.0851 33.4185 16.5057 33.9374 16.5057H35.0812Z" fill="#222B45"/>
<path d="M41.33 41.6836C40.8111 41.6836 40.3906 42.1042 40.3906 42.623C40.3906 43.1418 40.8111 43.5624 41.33 43.5624H42.593C43.112 43.5624 43.5324 43.1418 43.5324 42.623C43.5324 42.1042 43.112 41.6836 42.593 41.6836H41.33Z" fill="#222B45"/>
</svg>
