<svg width="64" height="64" viewBox="0 0 64 64" fill="none" xmlns="http://www.w3.org/2000/svg">
<g clip-path="url(#clip0_1259_60259)">
<path d="M44.5 31C41.2366 31 38.0465 31.9677 35.3331 33.7808C32.6197 35.5938 30.5048 38.1707 29.256 41.1857C28.0071 44.2007 27.6804 47.5183 28.3171 50.719C28.9537 53.9197 30.5252 56.8597 32.8327 59.1673C35.1403 61.4748 38.0803 63.0463 41.281 63.683C44.4817 64.3196 47.7993 63.9929 50.8143 62.744C53.8293 61.4952 56.4062 59.3803 58.2193 56.6669C60.0323 53.9535 61 50.7634 61 47.5C60.9947 43.1256 59.2546 38.9318 56.1614 35.8386C53.0682 32.7454 48.8745 31.0053 44.5 31ZM56 50H44C43.7348 50 43.4804 49.8946 43.2929 49.7071C43.1054 49.5196 43 49.2652 43 49V39C43 38.7348 43.1054 38.4804 43.2929 38.2929C43.4804 38.1054 43.7348 38 44 38C44.2652 38 44.5196 38.1054 44.7071 38.2929C44.8947 38.4804 45 38.7348 45 39V48H56C56.2652 48 56.5196 48.1054 56.7071 48.2929C56.8947 48.4804 57 48.7348 57 49C57 49.2652 56.8947 49.5196 56.7071 49.7071C56.5196 49.8946 56.2652 50 56 50Z" fill="#222B45"/>
<path d="M10.4119 51.1699L9.00187 52.5899L7.59188 51.1699L6.17188 52.5899L7.59188 53.9999L6.17188 55.4099L7.59188 56.8299L9.00187 55.4099L10.4119 56.8299L11.8319 55.4099L10.4119 53.9999L11.8319 52.5899L10.4119 51.1699Z" fill="#222B45"/>
<path d="M24 43H26V45H24V43Z" fill="#222B45"/>
<path d="M21 43H23V45H21V43Z" fill="#222B45"/>
<path d="M24 48H26V50H24V48Z" fill="#222B45"/>
<path d="M21 48H23V50H21V48Z" fill="#222B45"/>
<path d="M18 48H20V50H18V48Z" fill="#222B45"/>
<path d="M15 48H17V50H15V48Z" fill="#222B45"/>
<path d="M25 53H27V55H25V53Z" fill="#222B45"/>
<path d="M22 53H24V55H22V53Z" fill="#222B45"/>
<path d="M19 53H21V55H19V53Z" fill="#222B45"/>
<path d="M16 53H18V55H16V53Z" fill="#222B45"/>
<path d="M15 19.0002C14.8684 19.0009 14.7379 18.9757 14.6161 18.9259C14.4943 18.8762 14.3834 18.8028 14.29 18.7102L11 15.4102V23.0002H28.8L32.39 20.2102L33.62 21.7902L32.06 23.0002H51.3L46.63 19.0002H15ZM23 22.0002H16V20.0002H23V22.0002ZM26 22.0002H24V20.0002H26V22.0002ZM37 22.0002H35V20.0002H37V22.0002ZM40 22.0002H38V20.0002H40V22.0002ZM43 22.0002H41V20.0002H43V22.0002ZM46 22.0002H44V20.0002H46V22.0002Z" fill="#222B45"/>
<path d="M63.9988 16.19C63.9996 16.0536 63.9725 15.9185 63.9192 15.793C63.8659 15.6674 63.7875 15.5541 63.6888 15.46L60.4488 12.39L63.6888 9.32002C63.7871 9.2266 63.8654 9.11415 63.9189 8.98952C63.9724 8.86488 64 8.73066 64 8.59502C64 8.45938 63.9724 8.32516 63.9189 8.20053C63.8654 8.07589 63.7871 7.96344 63.6888 7.87002L60.4488 4.80002L63.6888 1.73002C63.8356 1.59255 63.9376 1.41399 63.9814 1.21767C64.0251 1.02134 64.0087 0.816372 63.9342 0.629535C63.8597 0.442698 63.7305 0.282677 63.5637 0.170372C63.3968 0.0580671 63.1999 -0.00130112 62.9988 2.16318e-05H0.998764C0.799753 0.000810895 0.605504 0.0609623 0.440874 0.172778C0.276244 0.284594 0.148722 0.442989 0.0746256 0.627693C0.000529259 0.812397 -0.0167706 1.01501 0.0249397 1.2096C0.0666501 1.40419 0.165474 1.58191 0.308764 1.72002L3.54876 4.81002L0.308764 7.89002C0.210427 7.98344 0.132122 8.09589 0.0786142 8.22053C0.025106 8.34516 -0.00248733 8.47938 -0.00248733 8.61502C-0.00248733 8.75066 0.025106 8.88488 0.0786142 9.00952C0.132122 9.13415 0.210427 9.2466 0.308764 9.34002L3.54876 12.41L0.308764 15.49C0.210427 15.5834 0.132122 15.6959 0.0786142 15.8205C0.025106 15.9452 -0.00248733 16.0794 -0.00248733 16.215C-0.00248733 16.3507 0.025106 16.4849 0.0786142 16.6095C0.132122 16.7342 0.210427 16.8466 0.308764 16.94L3.54876 20L0.308764 23.08C0.210427 23.1734 0.132122 23.2859 0.0786142 23.4105C0.025106 23.5352 -0.00248733 23.6694 -0.00248733 23.805C-0.00248733 23.9407 0.025106 24.0749 0.0786142 24.1995C0.132122 24.3242 0.210427 24.4366 0.308764 24.53L3.54876 27.6L0.308764 30.68C0.210427 30.7734 0.132122 30.8859 0.0786142 31.0105C0.025106 31.1352 -0.00248733 31.2694 -0.00248733 31.405C-0.00248733 31.5407 0.025106 31.6749 0.0786142 31.7995C0.132122 31.9242 0.210427 32.0366 0.308764 32.13L3.54876 35.2L0.308764 38.27C0.16192 38.4075 0.0599477 38.5861 0.0161644 38.7824C-0.0276188 38.9787 -0.0111774 39.1837 0.0633413 39.3705C0.13786 39.5573 0.266992 39.7174 0.433871 39.8297C0.60075 39.942 0.797619 40.0013 0.998764 40H27.5988C29.0472 36.7261 31.4154 33.9433 34.4156 31.9899C37.4157 30.0366 40.9187 28.9967 44.4988 28.9967C48.0788 28.9967 51.5818 30.0366 54.582 31.9899C57.5821 33.9433 59.9503 36.7261 61.3988 40H62.9988C63.1978 39.9992 63.392 39.9391 63.5567 39.8273C63.7213 39.7155 63.8488 39.5571 63.9229 39.3724C63.997 39.1876 64.0143 38.985 63.9726 38.7904C63.9309 38.5959 63.8321 38.4181 63.6888 38.28L60.4488 35.2L63.6888 32.12C63.7871 32.0266 63.8654 31.9142 63.9189 31.7895C63.9724 31.6649 64 31.5307 64 31.395C64 31.2594 63.9724 31.1252 63.9189 31.0005C63.8654 30.8759 63.7871 30.7634 63.6888 30.67L60.4488 27.6L63.6888 24.53C63.7871 24.4366 63.8654 24.3242 63.9189 24.1995C63.9724 24.0749 64 23.9407 64 23.805C64 23.6694 63.9724 23.5352 63.9189 23.4105C63.8654 23.2859 63.7871 23.1734 63.6888 23.08L60.4488 20L63.6888 16.93C63.7887 16.8348 63.8679 16.7198 63.9212 16.5925C63.9746 16.4651 64.001 16.3281 63.9988 16.19ZM42.9988 6.00002H51.9988C52.264 6.00002 52.5183 6.10538 52.7059 6.29291C52.8934 6.48045 52.9988 6.73481 52.9988 7.00002C52.9988 7.26524 52.8934 7.51959 52.7059 7.70713C52.5183 7.89466 52.264 8.00002 51.9988 8.00002H42.9988C42.7335 8.00002 42.4792 7.89466 42.2917 7.70713C42.1041 7.51959 41.9988 7.26524 41.9988 7.00002C41.9988 6.73481 42.1041 6.48045 42.2917 6.29291C42.4792 6.10538 42.7335 6.00002 42.9988 6.00002ZM42.9988 9.00002H51.9988C52.264 9.00002 52.5183 9.10538 52.7059 9.29292C52.8934 9.48045 52.9988 9.73481 52.9988 10C52.9988 10.2652 52.8934 10.5196 52.7059 10.7071C52.5183 10.8947 52.264 11 51.9988 11H42.9988C42.7335 11 42.4792 10.8947 42.2917 10.7071C42.1041 10.5196 41.9988 10.2652 41.9988 10C41.9988 9.73481 42.1041 9.48045 42.2917 9.29292C42.4792 9.10538 42.7335 9.00002 42.9988 9.00002ZM9.99876 6.00002H20.9988C21.264 6.00002 21.5183 6.10538 21.7059 6.29291C21.8934 6.48045 21.9988 6.73481 21.9988 7.00002C21.9988 7.26524 21.8934 7.51959 21.7059 7.70713C21.5183 7.89466 21.264 8.00002 20.9988 8.00002H9.99876C9.73355 8.00002 9.47919 7.89466 9.29166 7.70713C9.10412 7.51959 8.99876 7.26524 8.99876 7.00002C8.99876 6.73481 9.10412 6.48045 9.29166 6.29291C9.47919 6.10538 9.73355 6.00002 9.99876 6.00002ZM18.9988 35H9.99876C9.73355 35 9.47919 34.8947 9.29166 34.7071C9.10412 34.5196 8.99876 34.2652 8.99876 34C8.99876 33.7348 9.10412 33.4805 9.29166 33.2929C9.47919 33.1054 9.73355 33 9.99876 33H18.9988C19.264 33 19.5183 33.1054 19.7059 33.2929C19.8934 33.4805 19.9988 33.7348 19.9988 34C19.9988 34.2652 19.8934 34.5196 19.7059 34.7071C19.5183 34.8947 19.264 35 18.9988 35ZM18.9988 32H9.99876C9.73355 32 9.47919 31.8947 9.29166 31.7071C9.10412 31.5196 8.99876 31.2652 8.99876 31C8.99876 30.7348 9.10412 30.4804 9.29166 30.2929C9.47919 30.1054 9.73355 30 9.99876 30H18.9988C19.264 30 19.5183 30.1054 19.7059 30.2929C19.8934 30.4804 19.9988 30.7348 19.9988 31C19.9988 31.2652 19.8934 31.5196 19.7059 31.7071C19.5183 31.8947 19.264 32 18.9988 32ZM54.9388 24.35C54.8672 24.5414 54.7388 24.7063 54.5708 24.8225C54.4027 24.9387 54.2031 25.0007 53.9988 25H29.4888L24.6188 28.79L23.3888 27.21L26.2288 25H9.99876C9.73355 25 9.47919 24.8947 9.29166 24.7071C9.10412 24.5196 8.99876 24.2652 8.99876 24V13C8.99761 12.8014 9.05563 12.6069 9.16543 12.4414C9.27523 12.2759 9.43184 12.1468 9.61528 12.0707C9.79873 11.9945 10.0007 11.9747 10.1954 12.0137C10.3902 12.0528 10.5689 12.149 10.7088 12.29L15.4088 17H27.1288L24.6088 15.92L25.3988 14.08L32.1988 17H46.9988C47.2371 17 47.4676 17.0851 47.6488 17.24L54.6488 23.24C54.8052 23.3729 54.9169 23.5507 54.9688 23.7493C55.0207 23.9479 55.0102 24.1576 54.9388 24.35Z" fill="#222B45"/>
</g>
<defs>
<clipPath id="clip0_1259_60259">
<rect width="64" height="64" fill="white"/>
</clipPath>
</defs>
</svg>
