<svg width="65" height="64" viewBox="0 0 65 64" fill="none" xmlns="http://www.w3.org/2000/svg">
<path d="M59.6775 32.9734H54.8474V29.5959C54.8474 27.6992 53.3044 26.1561 51.4078 26.1561H34.6054V18.3603C34.6054 16.5261 33.1131 15.0339 31.2791 15.0339H27.583V4.62313C27.583 2.074 25.5091 0 22.9599 0H12.458C9.90875 0 7.83488 2.074 7.83488 4.62313V15.0339H4.13863C2.3045 15.0339 0.8125 16.5261 0.8125 18.3603V30.8466C0.8125 31.537 1.37225 32.0966 2.0625 32.0966C2.75275 32.0966 3.3125 31.537 3.3125 30.8466V18.3603C3.3125 17.9124 3.69075 17.5339 4.13863 17.5339H31.2791C31.727 17.5339 32.1054 17.9123 32.1054 18.3603V48.5211H3.3125V42.0752C3.3125 41.3849 2.75275 40.8252 2.0625 40.8252C1.37225 40.8252 0.8125 41.3849 0.8125 42.0752V54.1613C0.8125 55.9974 2.30463 57.4911 4.13863 57.4911H4.4335V59.8906C4.4335 62.1565 6.27688 64 8.54275 64C10.8066 64 12.6486 62.1565 12.6486 59.8906V57.4911H22.7693V59.8906C22.7693 62.1565 24.6111 64 26.8751 64H59.6775C62.1621 64 64.1836 61.9769 64.1836 59.4902V37.4831C64.1835 34.9965 62.162 32.9734 59.6775 32.9734ZM25.083 15.0339H10.3349V4.62313C10.3349 3.4525 11.2873 2.5 12.458 2.5H22.96C24.1306 2.5 25.083 3.4525 25.083 4.62313V15.0339ZM34.6054 28.6562H51.4078C51.9259 28.6562 52.3474 29.0779 52.3474 29.596V32.9735H34.6054V28.6562ZM10.1486 59.8906C10.1486 60.778 9.42825 61.5 8.54275 61.5C7.65538 61.5 6.9335 60.778 6.9335 59.8906V57.4911H10.1486V59.8906ZM4.13863 54.9911C3.69075 54.9911 3.3125 54.611 3.3125 54.1613V51.0211H32.1055V54.1613C32.1055 54.6111 31.7271 54.9911 31.2793 54.9911H4.13863ZM28.4844 59.8906C28.4844 60.778 27.7625 61.5 26.8751 61.5C25.9896 61.5 25.2693 60.778 25.2693 59.8906V57.4911H28.4844V59.8906ZM55.9685 61.5H30.6558C30.867 61.0055 30.9844 60.4615 30.9844 59.8906V57.4911H31.2791C33.1133 57.4911 34.6054 55.9974 34.6054 54.1613V35.4734H55.9684V61.5H55.9685ZM61.6835 59.4902C61.6835 60.5985 60.7836 61.5 59.6774 61.5H58.4684V35.4734H59.6774C60.7836 35.4734 61.6835 36.3749 61.6835 37.4831V59.4902Z" fill="#222B45"/>
<path d="M9.88281 30.748C9.19256 30.748 8.63281 31.3077 8.63281 31.998C8.63281 32.6884 9.19256 33.248 9.88281 33.248H25.5399C26.2302 33.248 26.7899 32.6884 26.7899 31.998C26.7899 31.3077 26.2302 30.748 25.5399 30.748H9.88281Z" fill="#222B45"/>
<path d="M28.0378 24.5015C28.0378 22.4329 26.3566 20.75 24.2899 20.75H11.1307C9.06406 20.75 7.38281 22.4329 7.38281 24.5015C7.38281 26.5681 9.06406 28.2495 11.1307 28.2495H24.2898C26.3564 28.2495 28.0378 26.5681 28.0378 24.5015ZM24.2898 25.7495H11.1307C10.4426 25.7495 9.88281 25.1896 9.88281 24.5015C9.88281 23.8114 10.4427 23.25 11.1307 23.25H24.2898C24.9779 23.25 25.5377 23.8115 25.5377 24.5015C25.5378 25.1896 24.9779 25.7495 24.2898 25.7495Z" fill="#222B45"/>
<path d="M41.2218 45.0731L47.4118 47.8829C47.5794 47.9589 47.7549 47.9949 47.9278 47.9949C48.4032 47.9949 48.8576 47.7222 49.0667 47.2612L51.1819 42.6019C51.3191 42.2999 51.3304 41.956 51.2139 41.6455C51.0973 41.3351 50.8622 41.0838 50.5603 40.9468L44.3668 38.137C44.0648 38.0001 43.7207 37.9886 43.4104 38.1054C43.1001 38.2221 42.8488 38.4573 42.7118 38.7594L40.6001 43.4188C40.3152 44.0475 40.5936 44.7879 41.2218 45.0731ZM44.4726 40.9305L48.3887 42.707L47.3071 45.0897L43.3928 43.313L44.4726 40.9305Z" fill="#222B45"/>
<path d="M42.9305 58.8186C45.2315 58.8186 47.1036 56.9465 47.1036 54.6455C47.1036 52.3425 45.2315 50.4688 42.9305 50.4688C40.6275 50.4688 38.7539 52.3424 38.7539 54.6455C38.7539 56.9466 40.6275 58.8186 42.9305 58.8186ZM42.9305 52.9687C43.8532 52.9687 44.6037 53.7209 44.6037 54.6455C44.6037 55.5681 43.8532 56.3186 42.9305 56.3186C42.006 56.3186 41.2539 55.5681 41.2539 54.6455C41.2539 53.7209 42.0062 52.9687 42.9305 52.9687Z" fill="#222B45"/>
<path d="M2.0625 37.7125C2.75275 37.7125 3.3125 37.1494 3.3125 36.459C3.3125 35.7686 2.75275 35.209 2.0625 35.209C1.37225 35.209 0.8125 35.7686 0.8125 36.459V36.4661C0.8125 37.1564 1.37213 37.7125 2.0625 37.7125Z" fill="#222B45"/>
</svg>
