<svg width="65" height="64" viewBox="0 0 65 64" fill="none" xmlns="http://www.w3.org/2000/svg">
<g clip-path="url(#clip0_1259_60222)">
<path d="M63.3263 8.41851C63.2044 8.1633 62.9862 7.96695 62.7195 7.87216L40.5935 0.0612197C40.0383 -0.135134 39.4289 0.156532 39.2326 0.711741L34.2065 14.9336H32.0081V11.3071C32.0081 10.3143 31.5471 9.37789 30.7607 8.77216C29.9737 8.16643 28.9508 7.96018 27.9909 8.21382L2.3612 14.969V14.9883C1.89661 15.105 1.57005 15.5211 1.56641 16.0003V60.8003C1.56641 62.5675 2.99922 64.0003 4.76641 64.0003H34.6331C36.4003 64.0003 37.8331 62.5675 37.8331 60.8003V51.1216L46.3878 54.1414C46.9435 54.3373 47.5529 54.0461 47.7487 53.4904L63.3721 9.23362C63.4659 8.96643 63.4492 8.6732 63.3263 8.41851ZM28.5352 10.2711C28.8549 10.1867 29.1966 10.2555 29.4586 10.4571C29.7211 10.6591 29.8747 10.9716 29.8747 11.3029V14.9336H10.8581L28.5352 10.2711ZM35.6997 60.8003C35.6997 61.3893 35.2221 61.867 34.6331 61.867H4.76641C4.17734 61.867 3.69974 61.3893 3.69974 60.8003V17.0669H34.6331C35.2221 17.0669 35.6997 17.5446 35.6997 18.1336V60.8003ZM44.468 21.1279L45.8331 20.4805L46.4836 21.8414L41.3008 36.5091C41.207 36.7758 41.2227 37.069 41.3445 37.3242L42.4549 39.6472L42.1117 40.6211L39.9961 38.4305C39.7638 38.1878 39.4305 38.0696 39.0971 38.1102L37.8331 38.2701V36.8409L38.743 36.4055C38.9982 36.2836 39.1945 36.0654 39.2893 35.7987L41.4227 29.7659L44.468 21.1279ZM46.4794 28.2477L48.6451 31.7274L48.2747 32.7758L45.6836 30.5071L46.4794 28.2477ZM37.8331 33.5138V30.5826L38.8825 30.5388L37.8331 33.5138ZM39.6466 28.3727L37.8331 28.4472V27.0274L40.4445 26.1164L39.6466 28.3727ZM46.0914 51.7742L37.8331 48.8591V40.4206L38.8326 40.2956L41.7799 43.3446C41.982 43.5508 42.2591 43.6659 42.5477 43.6643C42.6237 43.6649 42.6997 43.6565 42.7737 43.6399C43.1352 43.5612 43.4294 43.3013 43.5523 42.9529L44.619 39.9352C44.7133 39.6685 44.6977 39.3753 44.5753 39.1206L43.4596 36.8003L44.919 32.667L48.0529 35.4138C48.2471 35.5841 48.4971 35.6784 48.756 35.6784C48.8471 35.6784 48.9378 35.6664 49.0258 35.643C49.368 35.5534 49.6435 35.3003 49.7617 34.9669L50.8284 31.9492C50.9362 31.6435 50.8992 31.306 50.7279 31.031L47.3893 25.6675L48.6393 22.1274C48.7336 21.8602 48.718 21.5669 48.5956 21.3112L47.2945 18.5904C47.0404 18.0586 46.4034 17.8336 45.8716 18.0878L43.1492 19.3893C42.8945 19.5112 42.6982 19.7295 42.6044 19.9961L41.3529 23.5404L37.8331 24.7685V18.1336C37.8305 17.0237 37.2513 15.9946 36.3034 15.4169L38.0466 10.4737L38.4378 9.36487L40.8914 2.43153L61.0075 9.53205L46.0914 51.7742Z" fill="#222B45"/>
<path d="M54.5078 16.2854L55.2177 14.2734L57.0469 14.9188L56.337 16.9307L54.5078 16.2854Z" fill="#222B45"/>
<path d="M39.8789 11.1189L40.5893 9.10742L42.418 9.75326L41.7076 11.7647L39.8789 11.1189Z" fill="#222B45"/>
<path d="M50.8477 14.9944L51.5581 12.9824L53.3867 13.6283L52.6763 15.6397L50.8477 14.9944Z" fill="#222B45"/>
<path d="M43.5352 12.4118L44.2456 10.4004L46.0737 11.0462L45.3633 13.0577L43.5352 12.4118Z" fill="#222B45"/>
<path d="M47.1914 13.7009L47.9018 11.6895L49.7305 12.3353L49.0201 14.3467L47.1914 13.7009Z" fill="#222B45"/>
<path d="M19.2096 21.334C13.3185 21.334 8.54297 26.1095 8.54297 32.0007C8.54297 37.8918 13.3185 42.6673 19.2096 42.6673C25.1008 42.6673 29.8763 37.8918 29.8763 32.0007C29.8701 26.1126 25.0982 21.3408 19.2096 21.334ZM26.9122 28.3538L25.457 28.034C24.8169 27.8928 24.1768 27.7809 23.5305 27.684C23.4326 27.0376 23.3174 26.3944 23.1799 25.7574L22.8596 24.3027C24.6352 25.148 26.0664 26.5783 26.9122 28.3538ZM10.6763 32.0007C10.6784 31.5647 10.7138 31.1293 10.7831 30.6986L13.4206 30.1116C13.8253 30.022 14.2326 29.9475 14.6409 29.8772C14.5378 31.2908 14.5378 32.7105 14.6409 34.1246C14.2326 34.0543 13.8253 33.9793 13.4206 33.8897L10.7831 33.3033C10.7138 32.8725 10.6784 32.4371 10.6763 32.0007ZM16.8055 29.5975C18.4044 29.4548 20.0128 29.4548 21.6117 29.5975C21.7549 31.1965 21.7549 32.8048 21.6117 34.4038C20.0128 34.547 18.4044 34.547 16.8055 34.4038C16.6622 32.8048 16.6622 31.1965 16.8055 29.5975ZM23.7737 29.8772C24.1826 29.9475 24.5898 30.022 24.994 30.1116L27.632 30.6986C27.7799 31.5605 27.7799 32.4413 27.632 33.3033L24.994 33.8897C24.5898 33.9793 24.1826 34.0543 23.7737 34.1257C23.8773 32.7111 23.8773 31.2913 23.7737 29.8772ZM20.5112 23.5741L21.0977 26.2132C21.1872 26.6173 21.2628 27.0246 21.3336 27.4335C19.919 27.3298 18.4992 27.3298 17.0846 27.4335C17.1555 27.0246 17.2299 26.6173 17.3206 26.2132L17.907 23.5741C18.769 23.4277 19.6492 23.4277 20.5112 23.5741ZM15.5617 24.2949L15.2414 25.7501C15.1008 26.3902 14.9888 27.0303 14.8919 27.6767C14.2456 27.7736 13.6023 27.8897 12.9654 28.0262L11.5102 28.3465C12.357 26.5725 13.7872 25.1434 15.5617 24.2986V24.2949ZM11.5081 35.6444L12.9633 35.9647C13.6034 36.1053 14.243 36.2173 14.8898 36.3142C14.9867 36.9605 15.1029 37.6038 15.2393 38.2408L15.5596 39.6954C13.7841 38.8512 12.3534 37.422 11.506 35.6475L11.5081 35.6444ZM17.9081 40.421L17.3216 37.7819C17.231 37.3788 17.1565 36.9704 17.0857 36.5626C17.7919 36.6142 18.5013 36.6491 19.2107 36.6491C19.9201 36.6491 20.6273 36.6142 21.3346 36.5626C21.2638 36.9704 21.1883 37.3788 21.0987 37.7819L20.5122 40.421C19.6503 40.5673 18.7701 40.5673 17.9081 40.421ZM22.8576 39.7001L23.1779 38.2449C23.3195 37.6048 23.4305 36.9652 23.5284 36.3184C24.1737 36.2215 24.818 36.1053 25.4549 35.9689L26.9096 35.6486C26.0643 37.4257 24.6331 38.8574 22.8565 39.7033L22.8576 39.7001Z" fill="#222B45"/>
<path d="M10.6758 51.1992H27.7424V53.3326H10.6758V51.1992Z" fill="#222B45"/>
<path d="M12.8086 55.4668H25.6086V57.6001H12.8086V55.4668Z" fill="#222B45"/>
<path d="M18.1406 46.9336H20.274V49.0669H18.1406V46.9336Z" fill="#222B45"/>
<path d="M13.875 46.9336H16.0083V49.0669H13.875V46.9336Z" fill="#222B45"/>
<path d="M22.4102 46.9336H24.5435V49.0669H22.4102V46.9336Z" fill="#222B45"/>
</g>
<defs>
<clipPath id="clip0_1259_60222">
<rect width="64" height="64" fill="white" transform="translate(0.5)"/>
</clipPath>
</defs>
</svg>
