<svg width="56" height="64" viewBox="0 0 56 64" fill="none" xmlns="http://www.w3.org/2000/svg">
<path d="M9.00737 33.4971C9.12386 34.7888 9.85088 36.0042 11.0675 36.6855C12.0776 37.2513 13.1185 37.6673 14.1818 37.9489C13.5827 39.971 12.4819 42.8972 10.5224 46.0313C8.66119 49.0098 8.63903 52.604 10.4638 55.8938C13.1521 60.7421 19.088 64.0001 25.2369 64.0001C29.46 64.0001 33.2144 62.0553 35.8077 58.5235C39.5143 53.4741 40.3356 46.0223 38.0034 38.5939C35.8417 31.7079 38.7329 28.0342 40.6458 26.4551C42.2054 27.958 44.3206 28.8849 46.6585 28.8849C51.4489 28.8849 55.3349 24.9999 55.3349 20.2072C55.3349 15.4144 51.4489 11.5306 46.6585 11.5306C41.8658 11.5306 37.9819 15.4155 37.9819 20.2072C37.9819 20.882 38.0659 21.5351 38.2114 22.1656C34.5989 24.808 30.4287 30.7558 33.3471 40.055C35.1875 45.9187 34.6228 51.888 31.8714 55.6348C30.7049 57.225 28.6055 59.12 25.2356 59.12C20.8757 59.12 16.5557 56.8196 14.7314 53.5276C14.0583 52.3134 13.5011 50.4741 14.6616 48.6169C17.2533 44.4682 18.5505 40.5968 19.1657 38.2306C20.6061 38.0137 22.0125 37.549 23.3654 36.8266C24.5714 36.1825 25.3113 35.017 25.4743 33.7573C31.2069 28.5749 33.8537 19.2373 34.0059 18.6909C34.315 17.5698 33.7868 16.419 32.802 15.8942C33.5937 8.88422 30.9991 5.35114 29.4336 3.91202C29.553 3.23853 29.2836 2.5181 28.6919 2.13199L25.8152 0.251921C25.0639 -0.238827 24.1192 0.00885063 23.7074 0.808483L22.3368 3.45747C21.9239 4.25732 22.2878 5.11026 23.1502 5.36474L26.4025 6.32342C27.2271 6.56649 28.215 6.17249 28.6818 5.44986C29.9779 6.81527 31.8444 9.85519 31.2014 15.6542C30.3175 15.8225 29.56 16.4664 29.3033 17.3921C28.5219 20.1969 26.2649 25.9902 22.914 29.4641C21.8473 29.0519 20.621 29.0723 19.5333 29.6514C18.825 30.0298 18.1322 30.2205 17.4212 30.2354H17.2746C16.5254 30.2194 15.7938 30.0081 15.0446 29.5891C13.9837 28.9939 12.7754 28.9415 11.7099 29.3175C8.43391 25.8294 6.225 20.1587 5.45652 17.3926C5.19919 16.4692 4.4386 15.8238 3.5578 15.6558C2.91371 9.85672 4.77952 6.81681 6.07736 5.4514C6.54463 6.17381 7.53139 6.56803 8.35604 6.32474L11.6083 5.36606C12.4694 5.11158 12.8357 4.25732 12.4218 3.45879L11.0522 0.80958C10.6393 0.00972819 9.69468 -0.23773 8.94441 0.253018L6.06485 2.1344C5.47363 2.52051 5.20489 3.24073 5.32357 3.91444C3.76051 5.35377 1.16373 8.88532 1.9559 15.8964C0.970459 16.4214 0.443953 17.572 0.75174 18.6944C0.901356 19.2294 3.46852 28.2693 9.00737 33.4971ZM46.6585 16.8178C48.5281 16.8178 50.0468 18.3344 50.0468 20.2076C50.0468 22.0796 48.5281 23.5972 46.6585 23.5972C44.7864 23.5972 43.2687 22.0796 43.2687 20.2076C43.2687 18.3341 44.7853 16.8178 46.6585 16.8178Z" fill="#222B45"/>
</svg>
