<svg width="45" height="60" viewBox="0 0 45 60" fill="none" xmlns="http://www.w3.org/2000/svg">
<path d="M44.6776 13.2444C44.3249 10.311 43.1889 7.52597 41.3885 5.18036C38.2655 1.24436 32.9032 -0.605823 27.3922 0.362904C26.1178 0.55265 24.9069 1.04167 23.859 1.78969C22.8112 2.53771 21.9564 3.52335 21.3651 4.66545C21.1813 5.032 19.5368 8.27854 20.3328 9.02909C20.8559 9.43426 21.5088 9.63587 22.1698 9.59636C23.6766 9.6825 25.1771 9.34376 26.4999 8.6189C27.6555 8.05567 28.8922 7.67583 30.1652 7.49309C31.3067 7.28017 32.4851 7.38897 33.568 7.80727C34.4511 8.20072 35.2329 8.7894 35.8542 9.52876C36.4756 10.2681 36.9203 11.1388 37.1546 12.0749C37.5554 13.4638 37.6589 14.9212 37.4585 16.3525C37.258 17.7839 36.7581 19.1572 35.9911 20.3833C33.883 23.4291 30.1302 24.4589 28.1182 24.7993C26.126 25.0877 24.1106 25.1841 22.0999 25.0873V20.3745H29.4741C30.5607 20.3722 31.602 19.94 32.3695 19.1726C33.137 18.4053 33.568 17.3655 33.568 16.2814V12.4327H4.85821V16.3164C4.85821 17.4004 5.28925 18.4402 6.05676 19.2075C6.82426 19.9749 7.86554 20.4071 8.95212 20.4095H16.3264V24.904H15.7578C10.8066 24.904 7.09762 25.9774 4.07967 28.2902C2.33014 29.6342 0.309428 32.2174 0.405653 35.0625C0.394416 36.1814 0.645659 37.2873 1.1393 38.292C1.63294 39.2967 2.3553 40.1723 3.24864 40.8487C6.74771 43.4669 12.7661 43.1178 16.3701 42.5942V51.6269H8.95212C7.86554 51.6292 6.82426 52.0615 6.05676 52.8288C5.28925 53.5962 4.85821 54.6359 4.85821 55.72V59.5949H33.5331V55.72C33.5331 54.6359 33.102 53.5962 32.3345 52.8288C31.567 52.0615 30.5257 51.6292 29.4391 51.6269H22.0649V41.8436C23.9544 41.9134 25.2898 42.4458 26.0713 43.4407C27.7421 45.5964 26.2462 49.2793 26.2288 49.3142L25.9226 50.056L26.7099 49.9164C30.0865 49.3229 32.1159 47.7694 33.1044 45.0378C34.2504 41.8698 33.5068 36.5636 29.6928 35.1236C27.8821 34.4429 25.1265 34.6611 22.0649 35.1236V31.4058H23.1671C28.022 31.3098 33.0432 31.2051 37.5395 28.552C40.1653 27.0292 42.2691 24.7508 43.5754 22.0153C44.7677 19.2547 45.1499 16.2131 44.6776 13.2444ZM8.95212 19.5367C8.09755 19.5344 7.27877 19.1941 6.67531 18.5904C6.07186 17.9867 5.73298 17.1689 5.73298 16.3164V13.3054H32.6583V16.3164C32.6583 17.1689 32.3194 17.9867 31.716 18.5904C31.1125 19.1941 30.2937 19.5344 29.4391 19.5367H8.95212ZM21.1988 20.4095V25.0873L19.738 25.0262C18.907 25.0262 18.0584 24.9476 17.2099 24.9214V20.4095H21.1988ZM29.4391 52.4996C30.2937 52.5019 31.1125 52.8422 31.716 53.4459C32.3194 54.0496 32.6583 54.8674 32.6583 55.72V58.7222H5.73298V55.72C5.73298 54.8674 6.07186 54.0496 6.67531 53.4459C7.27877 52.8422 8.09755 52.5019 8.95212 52.4996H29.4391ZM16.3177 35.9178C14.9116 36.1143 13.4946 36.2221 12.075 36.2407C9.87062 36.2407 8.46225 35.56 8.30479 34.4167C8.28379 33.889 8.44659 33.3702 8.76552 32.9486C9.08444 32.527 9.53983 32.2286 10.0543 32.104C11.2027 31.8463 12.3763 31.7175 13.5534 31.72L14.5506 31.6764L16.3002 31.6065L16.3177 35.9178ZM17.1924 51.6269V31.5542C18.592 31.4669 19.9479 31.4669 21.1901 31.4669V51.6269H17.1924ZM29.3779 35.9178C32.702 37.192 33.3056 41.9396 32.2821 44.7411C31.4861 46.9491 29.894 48.2844 27.296 48.904C27.6984 47.5862 28.2582 44.8371 26.7624 42.9171C25.8264 41.704 24.2605 41.0494 22.0649 40.9796V35.9702C25.0566 35.5425 27.7334 35.3156 29.3867 35.944L29.3779 35.9178ZM42.7793 21.6225C41.5507 24.1995 39.5683 26.3447 37.0934 27.7753C32.7982 30.3149 28.1095 30.3934 23.1496 30.5069H22.0649H21.1901C19.9479 30.5069 18.5658 30.5767 17.2012 30.6378H16.3264L14.5769 30.7251H13.5884C12.3405 30.7211 11.0961 30.8587 9.87937 31.1353C9.15363 31.3071 8.51261 31.7305 8.07047 32.3298C7.62832 32.9291 7.41377 33.6656 7.46502 34.408C7.54374 35.0189 8.12109 37.0262 12.1013 37.0262C13.5205 37.007 14.9373 36.902 16.3439 36.712V41.6342C12.9061 42.1404 7.08887 42.5069 3.78225 40.0807C2.99813 39.4797 2.3653 38.7044 1.93404 37.8167C1.50278 36.9289 1.28497 35.953 1.29791 34.9665C1.21044 32.6102 2.90748 30.2276 4.63077 28.9185C7.48251 26.728 11.0253 25.7069 15.7753 25.7069H16.3439H17.2187C18.0497 25.7069 18.8895 25.768 19.703 25.8116L21.2076 25.8814H22.0824C24.1286 25.9781 26.1794 25.8758 28.2057 25.576C31.9935 24.9564 35.0027 23.2545 36.6997 20.8022C37.54 19.4687 38.0889 17.9734 38.3105 16.414C38.532 14.8545 38.4214 13.2659 37.9856 11.752C37.7009 10.7133 37.1883 9.75086 36.4847 8.93426C35.7812 8.11766 34.9044 7.46738 33.9179 7.03054C32.6823 6.55181 31.3377 6.42492 30.034 6.664C28.6579 6.86272 27.3228 7.28117 26.08 7.90327C24.9017 8.5496 23.5648 8.85204 22.2223 8.776C21.7953 8.79844 21.3698 8.70813 20.9889 8.51418C20.8489 8.104 21.6625 6.04436 22.1523 5.07563C22.6804 4.0512 23.4468 3.16793 24.3874 2.49981C25.3279 1.8317 26.4153 1.3982 27.5584 1.23563C32.737 0.362904 37.7844 2.056 40.6799 5.7389C42.3789 7.95773 43.4567 10.587 43.8028 13.3578C44.2483 16.1539 43.8936 19.0187 42.7793 21.6225Z" fill="#74798A"/>
</svg>
