<svg width="31" height="69" viewBox="0 0 31 69" fill="none" xmlns="http://www.w3.org/2000/svg">
<path d="M23.332 65.6387V66.7124C23.332 67.424 22.7552 68.0009 22.0436 68.0009V68.0009C21.332 68.0009 20.7551 67.424 20.7551 66.7124V65.6387" stroke="#74798A"/>
<path d="M10.4473 65.4238V66.4975C10.4473 67.2091 9.8704 67.786 9.1588 67.786V67.786C8.44721 67.786 7.87034 67.2091 7.87034 66.4975V65.4238" stroke="#74798A"/>
<path d="M5.3264 20.358L25.9418 20.5096C28.3014 20.5269 30.2051 22.4446 30.2051 24.8043V61.1275C30.2051 63.4994 28.2822 65.4223 25.9102 65.4223H5.29482C2.92283 65.4223 0.999949 63.4994 0.999949 61.1275V24.6527C0.999949 22.2684 2.94213 20.3405 5.3264 20.358Z" stroke="#74798A"/>
<path d="M21.1855 20.3269V6.15385M10.4484 20.1122V6.15385M10.4484 6.15385V5.29487C10.4484 2.92288 12.3712 1 14.7432 1H16.8907C19.2627 1 21.1855 2.92288 21.1855 5.29487V6.15385M10.4484 6.15385H21.1855" stroke="#74798A"/>
<rect width="19.7564" height="0.858974" rx="0.429487" transform="matrix(-1 0 0 1 25.4805 58.9805)" fill="#74798A"/>
<rect width="19.7564" height="0.858974" rx="0.429487" transform="matrix(-1 0 0 1 25.4805 56.834)" fill="#74798A"/>
<rect width="19.7564" height="0.858974" rx="0.429487" transform="matrix(-1 0 0 1 25.4805 54.6855)" fill="#74798A"/>
<path d="M26.5387 23.6994L27.2513 24.4237C27.4812 24.6574 27.5581 25.0016 27.4494 25.3109L27.0345 26.4916C26.9913 26.6145 26.9207 26.726 26.8281 26.8176L22.7265 30.8738C22.3827 31.2137 21.8262 31.2031 21.4957 30.8503L20.0384 29.2951C19.7202 28.9555 19.7303 28.4243 20.0612 28.097L24.1815 24.0224C24.2832 23.9218 24.4085 23.8482 24.5459 23.8083L25.6869 23.477C25.9901 23.3889 26.3172 23.4743 26.5387 23.6994Z" stroke="#74798A"/>
<circle r="0.644231" transform="matrix(-1 0 0 1 25.6956 25.2653)" fill="#74798A"/>
</svg>
