<svg width="22" height="22" viewBox="0 0 22 22" fill="none" xmlns="http://www.w3.org/2000/svg">
<path fill-rule="evenodd" clip-rule="evenodd" d="M13.4799 7.69561L10.0112 12.2505L8.51428 10.3384C8.20262 9.93869 7.62512 9.86903 7.22728 10.1816C6.82853 10.4933 6.75795 11.0699 7.07053 11.4677L9.29895 14.3158C9.47312 14.5376 9.73895 14.6669 10.0213 14.6669H10.0277C10.311 14.6659 10.5786 14.5321 10.75 14.3057L14.9383 8.80569C15.2454 8.40236 15.1675 7.82853 14.7641 7.52144C14.3599 7.21436 13.786 7.29319 13.4799 7.69561M11.0007 18.334C6.95723 18.334 3.66732 15.0441 3.66732 11.0007C3.66732 6.95723 6.95723 3.66732 11.0007 3.66732C15.0441 3.66732 18.334 6.95723 18.334 11.0007C18.334 15.0441 15.0441 18.334 11.0007 18.334M11.0007 1.83398C5.9379 1.83398 1.83398 5.93882 1.83398 11.0007C1.83398 16.0625 5.9379 20.1673 11.0007 20.1673C16.0634 20.1673 20.1673 16.0625 20.1673 11.0007C20.1673 5.93882 16.0634 1.83398 11.0007 1.83398" fill="#219653"/>
</svg>
