<svg width="26" height="26" viewBox="0 0 26 26" fill="none" xmlns="http://www.w3.org/2000/svg">
<path fill-rule="evenodd" clip-rule="evenodd" d="M24.2463 11.7175H24.2501C24.9388 11.7175 25.4988 12.275 25.5001 12.9637C25.5101 16.3025 24.2188 19.4463 21.8638 21.8138C19.5101 24.1813 16.3751 25.49 13.0363 25.5H13.0001C9.67381 25.5 6.54506 24.21 4.18631 21.8638C1.81881 19.51 0.510058 16.375 0.500058 13.0363C0.490058 9.69625 1.78131 6.55375 4.13631 4.18625C6.49006 1.81875 9.62506 0.51 12.9638 0.5C13.9576 0.515 14.9701 0.615 15.9401 0.8475C16.6101 1.01 17.0238 1.685 16.8613 2.35625C16.7001 3.02625 16.0213 3.43875 15.3538 3.27875C14.5776 3.09125 13.7538 3.0125 12.9713 3C10.3001 3.0075 7.79131 4.055 5.90881 5.94875C4.02506 7.8425 2.99256 10.3575 3.00006 13.0287C3.00756 15.7 4.05506 18.2075 5.94881 20.0913C7.83631 21.9675 10.3388 23 13.0001 23H13.0288C15.7001 22.9925 18.2088 21.945 20.0913 20.0513C21.9751 18.1562 23.0076 15.6425 23.0001 12.9713C22.9988 12.2812 23.5563 11.7188 24.2463 11.7175ZM8.36631 12.1161C8.85506 11.6274 9.64506 11.6274 10.1338 12.1161L12.9388 14.9211L20.8101 5.92613C21.2651 5.40987 22.0538 5.35488 22.5738 5.80988C23.0926 6.26362 23.1451 7.05362 22.6901 7.57362L13.9401 17.5736C13.7126 17.8336 13.3876 17.9874 13.0413 17.9999H13.0001C12.6688 17.9999 12.3513 17.8686 12.1163 17.6336L8.36631 13.8836C7.87756 13.3949 7.87756 12.6049 8.36631 12.1161Z" fill="#2E3A59"/>
</svg>
