<svg width="48" height="48" viewBox="0 0 48 48" fill="none" xmlns="http://www.w3.org/2000/svg">
<path d="M26.5521 20.3777C26.2117 20.0859 25.8226 19.8914 25.3849 19.7455C24.9472 19.6482 24.4609 19.5996 23.8773 19.5996H21.6402C21.2512 19.5996 21.008 19.6969 20.8135 19.8428C20.6676 19.9887 20.5703 20.2805 20.5703 20.6695V26.9431C20.5703 27.2349 20.5703 27.4294 20.6676 27.6239C20.7162 27.8185 20.8135 27.9157 20.9594 28.013C21.1053 28.1103 21.3484 28.1589 21.6889 28.1589H23.9259C24.315 28.1589 24.6554 28.1103 24.9958 28.0616C25.2876 28.013 25.5794 27.9157 25.8712 27.8185C26.163 27.6726 26.4062 27.5267 26.6007 27.3321C26.8925 27.0403 27.1357 26.7485 27.3302 26.4081C27.5247 26.0677 27.6706 25.6786 27.7679 25.241C27.8651 24.8033 27.9138 24.3656 27.9138 23.8306C27.9138 22.323 27.4761 21.1558 26.5521 20.3777ZM25.2876 26.4081C25.1417 26.5054 24.9958 26.6027 24.8499 26.6513C24.6554 26.6999 24.5095 26.7485 24.3636 26.7485C24.2177 26.7485 23.9746 26.7485 23.6828 26.7485H22.3697V20.9127H23.5369C24.0718 20.9127 24.5095 20.9613 24.8986 21.1072C25.2876 21.2045 25.5794 21.4963 25.8226 21.934C26.0658 22.3716 26.2117 23.0039 26.2117 23.8306C26.163 25.0951 25.8712 25.9218 25.2876 26.4081Z" fill="#006FD6"/>
<path d="M42.0166 9.58055L41.9679 9.53192V9.48328L32.7278 0.243161L32.6792 0.194529C32.6792 0.194529 32.6305 0.194529 32.6305 0.145897C32.6305 0.145897 32.5819 0.145897 32.5819 0.0972644C32.436 0 32.2901 0 32.0956 0H9.1898C8.31442 0 7.48768 0.340425 6.90409 0.924012L6.85546 0.972644C6.27187 1.55623 5.88281 2.43161 5.88281 3.30699V44.693C5.88281 45.617 6.27187 46.4438 6.85546 47.0274C7.43904 47.6109 8.31442 48 9.1898 48H38.8068C39.7308 48 40.5576 47.6109 41.1412 47.0274C41.7248 46.4438 42.1138 45.5684 42.1138 44.693V10.0669C42.1138 9.87234 42.0652 9.72644 42.0166 9.58055ZM33.0196 3.50152L38.515 8.99696H34.4786C34.0895 8.99696 33.7004 8.85106 33.4573 8.55927C33.2141 8.31611 33.0196 7.92705 33.0196 7.53799V3.50152ZM40.0226 44.693C40.0226 45.0334 39.8767 45.3252 39.6336 45.5684C39.3904 45.8116 39.0986 45.9574 38.7582 45.9574H9.1898C8.84938 45.9574 8.55758 45.8116 8.31442 45.617C8.07126 45.3739 7.974 45.0821 7.974 44.7416V3.25836C7.974 2.91793 8.11989 2.62614 8.36306 2.38298L8.41169 2.33435C8.65485 2.13982 8.94664 1.99392 9.23844 1.99392H31.0257V7.48936C31.0257 8.46201 31.4147 9.33739 32.0956 10.0182C32.7278 10.6505 33.6518 11.0395 34.6245 11.0395H40.0226V44.693Z" fill="#006FD6"/>
<path d="M18.3324 20.2807C18.0892 20.0375 17.7974 19.8916 17.4083 19.7943C17.0679 19.6971 16.533 19.6484 15.9007 19.6484H13.6637C13.2746 19.6484 12.9828 19.7457 12.8369 19.8916C12.6424 20.0375 12.5938 20.3293 12.5938 20.7183V27.3323C12.5938 27.6727 12.691 27.9159 12.8369 28.1104C12.9828 28.305 13.226 28.3536 13.4691 28.3536C13.7123 28.3536 13.9068 28.2563 14.1013 28.0618C14.2472 27.8673 14.3445 27.6241 14.3445 27.2837V24.8521H15.9494C17.0193 24.8521 17.7974 24.6089 18.3324 24.1712C18.8673 23.7335 19.1591 23.0527 19.1591 22.1773C19.1591 21.7883 19.1105 21.3992 18.9646 21.0588C18.77 20.767 18.5755 20.4752 18.3324 20.2807ZM17.1652 23.0041C17.0193 23.1986 16.8248 23.3445 16.533 23.4417C16.2412 23.539 15.9007 23.5876 15.5117 23.5876H14.3445V20.9615H15.5117C16.2898 20.9615 16.7761 21.1074 17.0679 21.3506C17.3111 21.5937 17.4083 21.8855 17.4083 22.2746C17.3597 22.5664 17.3111 22.8095 17.1652 23.0041Z" fill="#006FD6"/>
<path d="M30.4918 19.5508C30.2 19.5994 30.0055 19.648 29.8596 19.7453C29.7137 19.7939 29.5678 19.9398 29.5191 20.0857C29.4219 20.2316 29.4219 20.4262 29.4219 20.718V27.2833C29.4219 27.6237 29.5191 27.9155 29.665 28.0614C29.8109 28.256 30.0541 28.3046 30.2973 28.3046C30.5404 28.3046 30.7349 28.2073 30.9295 28.0614C31.0754 27.8669 31.1726 27.6237 31.1726 27.2833V24.4626H34.0419C34.2851 24.4626 34.4796 24.414 34.6255 24.2681C34.7714 24.1708 34.82 23.9763 34.82 23.7818C34.82 23.5873 34.7714 23.4414 34.6255 23.2955C34.4796 23.1982 34.2851 23.1009 34.0419 23.1009H31.1726V20.9125H34.5769C34.8687 20.9125 35.0632 20.8639 35.2091 20.718C35.355 20.5721 35.4036 20.4262 35.4036 20.2316C35.4036 20.0371 35.355 19.8912 35.2091 19.7453C35.0632 19.5994 34.8687 19.5508 34.5769 19.5508H30.4918Z" fill="#006FD6"/>
</svg>
