<svg width="25" height="24" viewBox="0 0 25 24" fill="none" xmlns="http://www.w3.org/2000/svg">
<path fill-rule="evenodd" clip-rule="evenodd" d="M18.2918 20.9999C18.1272 20.9999 17.9616 20.9629 17.8095 20.8869L12.4981 18.2229L7.18763 20.8869C6.83555 21.0619 6.41055 21.0319 6.0918 20.8079C5.77097 20.5839 5.61159 20.2049 5.6793 19.8299L6.69076 14.2019L2.39909 10.2169C2.11368 9.95192 2.01055 9.55392 2.13243 9.18992C2.2543 8.82792 2.58034 8.56292 2.97409 8.50892L8.91159 7.68092L11.5658 2.55492C11.9178 1.87492 13.0793 1.87492 13.4314 2.55492L16.0856 7.68092L22.0231 8.50892C22.4168 8.56292 22.7428 8.82792 22.8647 9.18992C22.9866 9.55392 22.8835 9.95192 22.5981 10.2169L18.3064 14.2019L19.3178 19.8299C19.3855 20.2049 19.2251 20.5839 18.9053 20.8079C18.7241 20.9359 18.5085 20.9999 18.2918 20.9999Z" fill="#FFAA00"/>
</svg>
