<svg width="25" height="24" viewBox="0 0 25 24" fill="none" xmlns="http://www.w3.org/2000/svg">
<path fill-rule="evenodd" clip-rule="evenodd" d="M12.4982 16.05C12.6639 16.05 12.8295 16.088 12.9805 16.163L16.9066 18.133L16.1597 13.976C16.1003 13.65 16.2139 13.318 16.4618 13.087L19.6243 10.151L15.2461 9.539C14.9076 9.492 14.6149 9.289 14.4628 8.995L12.4982 5.201L10.5336 8.995C10.3816 9.289 10.0889 9.492 9.75031 9.539L5.37218 10.151L8.53468 13.087C8.7826 13.318 8.89614 13.65 8.83677 13.976L8.08989 18.133L12.0159 16.163C12.167 16.088 12.3326 16.05 12.4982 16.05M18.292 20.955C18.1264 20.955 17.9607 20.918 17.8097 20.842L12.4982 18.178L7.18677 20.842C6.83468 21.018 6.40968 20.987 6.09198 20.763C5.77114 20.539 5.61177 20.16 5.67843 19.785L6.69093 14.157L2.39927 10.172C2.11281 9.907 2.01073 9.509 2.1326 9.146C2.25343 8.783 2.58052 8.519 2.97323 8.464L8.91177 7.636L11.5649 2.51C11.917 1.83 13.0795 1.83 13.4316 2.51L16.0847 7.636L22.0232 8.464C22.4159 8.519 22.743 8.783 22.8638 9.146C22.9857 9.509 22.8836 9.907 22.5972 10.172L18.3055 14.157L19.318 19.785C19.3847 20.16 19.2253 20.539 18.9045 20.763C18.7243 20.891 18.5086 20.955 18.292 20.955" fill="#FFAA00"/>
</svg>
