<svg width="33" height="32" viewBox="0 0 33 32" fill="none" xmlns="http://www.w3.org/2000/svg">
<path d="M0.785156 16C0.785156 24.8366 7.9486 32 16.7852 32C25.6217 32 32.7852 24.8366 32.7852 16C32.7852 7.16344 25.6217 0 16.7852 0C7.9486 0 0.785156 7.16344 0.785156 16Z" fill="#1877F2"/>
<path d="M24.7852 16C24.7852 11.6 21.1852 8 16.7852 8C12.3852 8 8.78516 11.6 8.78516 16C8.78516 20 11.6852 23.3 15.4852 23.9V18.3H13.4852V16H15.4852V14.2C15.4852 12.2 16.6852 11.1 18.4852 11.1C19.3852 11.1 20.2852 11.3 20.2852 11.3V13.3H19.2852C18.2852 13.3 17.9852 13.9 17.9852 14.5V16H20.1852L19.7852 18.3H17.8852V24C21.8852 23.4 24.7852 20 24.7852 16Z" fill="white"/>
</svg>
