<svg width="21" height="16" viewBox="0 0 21 16" fill="none" xmlns="http://www.w3.org/2000/svg">
<mask id="mask0_2002_10547" style="mask-type:alpha" maskUnits="userSpaceOnUse" x="0" y="0" width="21" height="16">
<path d="M19 0.5H2C0.89543 0.5 0 1.39543 0 2.5V13.5C0 14.6046 0.89543 15.5 2 15.5H19C20.1046 15.5 21 14.6046 21 13.5V2.5C21 1.39543 20.1046 0.5 19 0.5Z" fill="white"/>
</mask>
<g mask="url(#mask0_2002_10547)">
<path d="M19 0.5H2C0.89543 0.5 0 1.39543 0 2.5V13.5C0 14.6046 0.89543 15.5 2 15.5H19C20.1046 15.5 21 14.6046 21 13.5V2.5C21 1.39543 20.1046 0.5 19 0.5Z" fill="#0268AE"/>
<path fill-rule="evenodd" clip-rule="evenodd" d="M0 10.5H21V15.5H0V10.5Z" fill="#EF1F28"/>
<path fill-rule="evenodd" clip-rule="evenodd" d="M0 0.5H21V5.5H0V0.5Z" fill="white"/>
<path d="M6.5 3.5H4.5C3.94772 3.5 3.5 3.94772 3.5 4.5V7C3.5 7.55228 3.94772 8 4.5 8H6.5C7.05228 8 7.5 7.55228 7.5 7V4.5C7.5 3.94772 7.05228 3.5 6.5 3.5Z" fill="#EF1F28"/>
<path d="M6 3.5H5C4.44772 3.5 4 3.94772 4 4.5V6.5C4 7.05228 4.44772 7.5 5 7.5H6C6.55228 7.5 7 7.05228 7 6.5V4.5C7 3.94772 6.55228 3.5 6 3.5Z" fill="#0268AE"/>
<path fill-rule="evenodd" clip-rule="evenodd" d="M5 4.5H6V5.5H5V4.5Z" fill="#FFE200"/>
<path fill-rule="evenodd" clip-rule="evenodd" d="M4 6.5L5.5 6L7 6.5L6 7.5H5L4 6.5Z" fill="white"/>
<path d="M19 1H2C1.17157 1 0.5 1.67157 0.5 2.5V13.5C0.5 14.3284 1.17157 15 2 15H19C19.8284 15 20.5 14.3284 20.5 13.5V2.5C20.5 1.67157 19.8284 1 19 1Z" stroke="black" stroke-opacity="0.1"/>
</g>
</svg>
