<svg width="21" height="16" viewBox="0 0 21 16" fill="none" xmlns="http://www.w3.org/2000/svg">
<mask id="mask0_2002_10734" style="mask-type:alpha" maskUnits="userSpaceOnUse" x="0" y="0" width="21" height="16">
<path d="M19 0.5H2C0.89543 0.5 0 1.39543 0 2.5V13.5C0 14.6046 0.89543 15.5 2 15.5H19C20.1046 15.5 21 14.6046 21 13.5V2.5C21 1.39543 20.1046 0.5 19 0.5Z" fill="white"/>
</mask>
<g mask="url(#mask0_2002_10734)">
<path d="M19 0.5H2C0.89543 0.5 0 1.39543 0 2.5V13.5C0 14.6046 0.89543 15.5 2 15.5H19C20.1046 15.5 21 14.6046 21 13.5V2.5C21 1.39543 20.1046 0.5 19 0.5Z" fill="white"/>
<path fill-rule="evenodd" clip-rule="evenodd" d="M0 0.5H21V9.5H0V0.5Z" fill="#EF2F41"/>
<path fill-rule="evenodd" clip-rule="evenodd" d="M6 8.363C5.71 8.453 5.4 8.5 5.077 8.5C3.377 8.5 2 7.157 2 5.5C2 3.843 3.378 2.5 5.077 2.5C5.399 2.5 5.709 2.548 6 2.637C4.752 3.02 3.846 4.157 3.846 5.5C3.846 6.843 4.752 7.98 6 8.363ZM8 3.5H9V4.5H8V3.5ZM10 4.5H11V5.5H10V4.5ZM9 6.5H10V7.5H9V6.5ZM6 4.5H7V5.5H6V4.5ZM7 6.5H8V7.5H7V6.5Z" fill="white"/>
<path d="M19 1H2C1.17157 1 0.5 1.67157 0.5 2.5V13.5C0.5 14.3284 1.17157 15 2 15H19C19.8284 15 20.5 14.3284 20.5 13.5V2.5C20.5 1.67157 19.8284 1 19 1Z" stroke="black" stroke-opacity="0.1"/>
</g>
</svg>
