<svg width="21" height="16" viewBox="0 0 21 16" fill="none" xmlns="http://www.w3.org/2000/svg">
<mask id="mask0_2002_12492" style="mask-type:alpha" maskUnits="userSpaceOnUse" x="0" y="0" width="21" height="16">
<path d="M19 0.5H2C0.89543 0.5 0 1.39543 0 2.5V13.5C0 14.6046 0.89543 15.5 2 15.5H19C20.1046 15.5 21 14.6046 21 13.5V2.5C21 1.39543 20.1046 0.5 19 0.5Z" fill="white"/>
</mask>
<g mask="url(#mask0_2002_12492)">
<path d="M19 0.5H2C0.89543 0.5 0 1.39543 0 2.5V13.5C0 14.6046 0.89543 15.5 2 15.5H19C20.1046 15.5 21 14.6046 21 13.5V2.5C21 1.39543 20.1046 0.5 19 0.5Z" fill="#CD0B20"/>
<path fill-rule="evenodd" clip-rule="evenodd" d="M0 4.5H21V11.5H0V4.5Z" fill="#FFCB00"/>
<path fill-rule="evenodd" clip-rule="evenodd" d="M9 6.72155V9.24155C9 9.94155 8.328 10.5015 7.5 10.5015H5.5C4.674 10.4995 4 9.93655 4 9.23955V6.71955C4 6.14755 4.448 5.66955 5.064 5.51455C5.25 4.99455 5.822 5.46055 6.5 5.46055C7.182 5.46055 7.75 4.99755 7.936 5.51555C8.55 5.67455 9 6.15355 9 6.72155Z" fill="#C8B47C"/>
<path fill-rule="evenodd" clip-rule="evenodd" d="M9 7.5H10V10.5H9V7.5ZM3 7.5H4V10.5H3V7.5Z" fill="#B5B5B5"/>
<path fill-rule="evenodd" clip-rule="evenodd" d="M9 9.5H10V10.5H9V9.5ZM3 9.5H4V10.5H3V9.5Z" fill="#165C96"/>
<path fill-rule="evenodd" clip-rule="evenodd" d="M9 6.5H10V7.5H9V6.5ZM3 6.5H4V7.5H3V6.5Z" fill="#A0790A"/>
<path fill-rule="evenodd" clip-rule="evenodd" d="M5 6.5H6V8H5V6.5ZM7 8.5H8V10H7V8.5Z" fill="#D20636"/>
<path fill-rule="evenodd" clip-rule="evenodd" d="M7 6.5H8V8H7V6.5Z" fill="#A18793"/>
<path fill-rule="evenodd" clip-rule="evenodd" d="M5 8.5H6V10H5V8.5Z" fill="#FFE100"/>
<path fill-rule="evenodd" clip-rule="evenodd" d="M6 6.5L5 5.5H8L7 6.5H6Z" fill="#B6161A"/>
<path fill-rule="evenodd" clip-rule="evenodd" d="M6 4.5H7V5.5H6V4.5Z" fill="#AC9300"/>
<path d="M19 1H2C1.17157 1 0.5 1.67157 0.5 2.5V13.5C0.5 14.3284 1.17157 15 2 15H19C19.8284 15 20.5 14.3284 20.5 13.5V2.5C20.5 1.67157 19.8284 1 19 1Z" stroke="black" stroke-opacity="0.1"/>
</g>
</svg>
