<svg width="21" height="16" viewBox="0 0 21 16" fill="none" xmlns="http://www.w3.org/2000/svg">
<g clip-path="url(#clip0_2002_19804)">
<mask id="mask0_2002_19804" style="mask-type:alpha" maskUnits="userSpaceOnUse" x="0" y="0" width="34" height="16">
<path d="M30.6923 0.5H3.23077C1.44646 0.5 0 1.39543 0 2.5V13.5C0 14.6046 1.44646 15.5 3.23077 15.5H30.6923C32.4766 15.5 33.9231 14.6046 33.9231 13.5V2.5C33.9231 1.39543 32.4766 0.5 30.6923 0.5Z" fill="white"/>
</mask>
<g mask="url(#mask0_2002_19804)">
<path fill-rule="evenodd" clip-rule="evenodd" d="M0 0.5L21 8.5H9.69231L21 15.5H0V0.5Z" fill="#003495"/>
<path fill-rule="evenodd" clip-rule="evenodd" d="M1.61523 2.5L14.5383 7.5H4.846L16.1537 14.5H3.22739C2.33893 14.5 1.61523 14.044 1.61523 13.498V2.5Z" fill="#DF0A37"/>
<path fill-rule="evenodd" clip-rule="evenodd" d="M7.93932 5.5C8.02816 5.578 8.07662 5.662 8.07662 5.75C8.07662 6.164 6.99108 6.5 5.65355 6.5C4.31601 6.5 3.23047 6.164 3.23047 5.75C3.23047 5.662 3.27893 5.578 3.36778 5.5C3.70055 5.646 4.5987 5.75 5.65355 5.75C6.70839 5.75 7.60816 5.646 7.93932 5.5Z" fill="white"/>
<path d="M5.65355 13.5C6.99177 13.5 8.07662 12.8284 8.07662 12C8.07662 11.1716 6.99177 10.5 5.65355 10.5C4.31532 10.5 3.23047 11.1716 3.23047 12C3.23047 12.8284 4.31532 13.5 5.65355 13.5Z" fill="white"/>
<path d="M2.84623 1.80345C1.72031 1.36045 0.807617 1.67545 0.807617 2.49845V13.5025C0.807617 14.3295 1.88669 15.0005 3.23554 15.0005H19.3845L8.07685 8.00045H18.5768L2.84623 1.80345Z" stroke="black" stroke-opacity="0.1"/>
</g>
</g>
<defs>
<clipPath id="clip0_2002_19804">
<rect width="21" height="15" fill="white" transform="translate(0 0.5)"/>
</clipPath>
</defs>
</svg>
