<svg width="21" height="16" viewBox="0 0 21 16" fill="none" xmlns="http://www.w3.org/2000/svg">
<mask id="mask0_2002_15739" style="mask-type:alpha" maskUnits="userSpaceOnUse" x="0" y="0" width="21" height="16">
<path d="M19 0.5H2C0.89543 0.5 0 1.39543 0 2.5V13.5C0 14.6046 0.89543 15.5 2 15.5H19C20.1046 15.5 21 14.6046 21 13.5V2.5C21 1.39543 20.1046 0.5 19 0.5Z" fill="white"/>
</mask>
<g mask="url(#mask0_2002_15739)">
<path d="M19 0.5H2C0.89543 0.5 0 1.39543 0 2.5V13.5C0 14.6046 0.89543 15.5 2 15.5H19C20.1046 15.5 21 14.6046 21 13.5V2.5C21 1.39543 20.1046 0.5 19 0.5Z" fill="#E02600"/>
<path fill-rule="evenodd" clip-rule="evenodd" d="M5.49812 7.73L4.02812 8.503L4.30812 6.866L3.12012 5.706L4.76312 5.469L5.49812 3.979L6.23212 5.469L7.87512 5.706L6.68512 6.866L6.96712 8.502L5.49812 7.73ZM9.00012 3.5H10.0001V4.5H9.00012V3.5ZM10.0001 5.5H11.0001V6.5H10.0001V5.5ZM10.0001 7.5H11.0001V8.5H10.0001V7.5ZM9.00012 9.5H10.0001V10.5H9.00012V9.5Z" fill="#FFE000"/>
<path d="M19 1H2C1.17157 1 0.5 1.67157 0.5 2.5V13.5C0.5 14.3284 1.17157 15 2 15H19C19.8284 15 20.5 14.3284 20.5 13.5V2.5C20.5 1.67157 19.8284 1 19 1Z" stroke="black" stroke-opacity="0.1"/>
</g>
</svg>
