<svg width="21" height="16" viewBox="0 0 21 16" fill="none" xmlns="http://www.w3.org/2000/svg">
<mask id="mask0_1807_2153" style="mask-type:alpha" maskUnits="userSpaceOnUse" x="0" y="0" width="21" height="16">
<path d="M19 0.5H2C0.89543 0.5 0 1.39543 0 2.5V13.5C0 14.6046 0.89543 15.5 2 15.5H19C20.1046 15.5 21 14.6046 21 13.5V2.5C21 1.39543 20.1046 0.5 19 0.5Z" fill="white"/>
</mask>
<g mask="url(#mask0_1807_2153)">
<path d="M19 0.5H2C0.89543 0.5 0 1.39543 0 2.5V13.5C0 14.6046 0.89543 15.5 2 15.5H19C20.1046 15.5 21 14.6046 21 13.5V2.5C21 1.39543 20.1046 0.5 19 0.5Z" fill="#00008E"/>
<path fill-rule="evenodd" clip-rule="evenodd" d="M4 12L5 11.5L5.5 10.5L6 11.5L7 12L6 12.5L5.5 13.5L5 12.5L4 12ZM14 3.5V4.5H15V3.5H14ZM17 4.5V5.5H18V4.5H17ZM13 6.5V7.5H14V6.5H13ZM16 7.5V8.5H17V7.5H16ZM15 10.5V11.5H16V10.5H15Z" fill="#BDC4E7"/>
<path d="M9 1.5H2C1.44772 1.5 1 1.94772 1 2.5V7.5C1 8.05228 1.44772 8.5 2 8.5H9C9.55229 8.5 10 8.05228 10 7.5V2.5C10 1.94772 9.55229 1.5 9 1.5Z" fill="white"/>
<path fill-rule="evenodd" clip-rule="evenodd" d="M5 5.5H2V4.5H5V2.5H6V4.5H9V5.5H6V7.5H5V5.5ZM7.5 6.5V7.5H9V6.5H7.5ZM7.5 2.5V3.5H9V2.5H7.5ZM2 6.5V7.5H3.5V6.5H2ZM2 2.5V3.5H3.5V2.5H2Z" fill="#FF0000"/>
<path d="M19 1H2C1.17157 1 0.5 1.67157 0.5 2.5V13.5C0.5 14.3284 1.17157 15 2 15H19C19.8284 15 20.5 14.3284 20.5 13.5V2.5C20.5 1.67157 19.8284 1 19 1Z" stroke="black" stroke-opacity="0.1"/>
</g>
</svg>
