<svg width="21" height="16" viewBox="0 0 21 16" fill="none" xmlns="http://www.w3.org/2000/svg">
<mask id="mask0_2002_9651" style="mask-type:alpha" maskUnits="userSpaceOnUse" x="0" y="0" width="21" height="16">
<path d="M19 0.5H2C0.89543 0.5 0 1.39543 0 2.5V13.5C0 14.6046 0.89543 15.5 2 15.5H19C20.1046 15.5 21 14.6046 21 13.5V2.5C21 1.39543 20.1046 0.5 19 0.5Z" fill="white"/>
</mask>
<g mask="url(#mask0_2002_9651)">
<path d="M19 0.5H2C0.89543 0.5 0 1.39543 0 2.5V13.5C0 14.6046 0.89543 15.5 2 15.5H19C20.1046 15.5 21 14.6046 21 13.5V2.5C21 1.39543 20.1046 0.5 19 0.5Z" fill="#E70B17"/>
<path fill-rule="evenodd" clip-rule="evenodd" d="M14.0021 9.15155L12.8401 9.76155L13.0621 8.46855L12.1221 7.55155L13.4221 7.36155L14.0021 6.18555L14.5821 7.36255L15.8821 7.55255L14.9421 8.46755L15.1641 9.76055" fill="white"/>
<path fill-rule="evenodd" clip-rule="evenodd" d="M9.5 11.5C11.433 11.5 13 9.933 13 8C13 6.067 11.433 4.5 9.5 4.5C7.567 4.5 6 6.067 6 8C6 9.933 7.567 11.5 9.5 11.5ZM10.5 10.5C11.88 10.5 13 9.38 13 8C13 6.62 11.88 5.5 10.5 5.5C9.12 5.5 8 6.62 8 8C8 9.38 9.12 10.5 10.5 10.5Z" fill="white"/>
<path d="M19 1H2C1.17157 1 0.5 1.67157 0.5 2.5V13.5C0.5 14.3284 1.17157 15 2 15H19C19.8284 15 20.5 14.3284 20.5 13.5V2.5C20.5 1.67157 19.8284 1 19 1Z" stroke="black" stroke-opacity="0.1"/>
</g>
</svg>
