<svg width="28" height="20" viewBox="0 0 28 20" fill="none" xmlns="http://www.w3.org/2000/svg">
<path d="M25.3333 0H2.66667C1.19391 0 0 1.19391 0 2.66667V17.3333C0 18.8061 1.19391 20 2.66667 20H25.3333C26.8061 20 28 18.8061 28 17.3333V2.66667C28 1.19391 26.8061 0 25.3333 0Z" fill="#006FD6"/>
<path d="M15.8491 15L15.1763 12.791H11.793L11.1201 15H9L12.2754 5.68164H14.6812L17.9692 15H15.8491ZM14.7065 11.1406C14.0845 9.139 13.7332 8.007 13.6528 7.74463C13.5767 7.48226 13.5216 7.2749 13.4878 7.12256C13.3481 7.66423 12.9482 9.00358 12.2881 11.1406H14.7065Z" fill="white"/>
</svg>
