<svg width="21" height="16" viewBox="0 0 21 16" fill="none" xmlns="http://www.w3.org/2000/svg">
<mask id="mask0_1807_4495" style="mask-type:alpha" maskUnits="userSpaceOnUse" x="0" y="0" width="21" height="16">
<path d="M19 0.5H2C0.89543 0.5 0 1.39543 0 2.5V13.5C0 14.6046 0.89543 15.5 2 15.5H19C20.1046 15.5 21 14.6046 21 13.5V2.5C21 1.39543 20.1046 0.5 19 0.5Z" fill="white"/>
</mask>
<g mask="url(#mask0_1807_4495)">
<path d="M19 0.5H2C0.89543 0.5 0 1.39543 0 2.5V13.5C0 14.6046 0.89543 15.5 2 15.5H19C20.1046 15.5 21 14.6046 21 13.5V2.5C21 1.39543 20.1046 0.5 19 0.5Z" fill="white"/>
<path fill-rule="evenodd" clip-rule="evenodd" d="M9 9.5H0V6.5H9V0.5H12V6.5H21V9.5H12V15.5H9V9.5Z" fill="#FF0000"/>
<path fill-rule="evenodd" clip-rule="evenodd" d="M15 11.5H14V12.5H15V13.5H16V12.5H17V11.5H16V10.5H15V11.5ZM15 3.5H14V4.5H15V5.5H16V4.5H17V3.5H16V2.5H15V3.5ZM5 3.5H4V4.5H5V5.5H6V4.5H7V3.5H6V2.5H5V3.5ZM5 11.5H4V12.5H5V13.5H6V12.5H7V11.5H6V10.5H5V11.5Z" fill="#FF0000"/>
<path d="M19 1H2C1.17157 1 0.5 1.67157 0.5 2.5V13.5C0.5 14.3284 1.17157 15 2 15H19C19.8284 15 20.5 14.3284 20.5 13.5V2.5C20.5 1.67157 19.8284 1 19 1Z" stroke="black" stroke-opacity="0.1"/>
</g>
</svg>
