<svg width="21" height="16" viewBox="0 0 21 16" fill="none" xmlns="http://www.w3.org/2000/svg">
<mask id="mask0_2002_12651" style="mask-type:alpha" maskUnits="userSpaceOnUse" x="0" y="0" width="21" height="16">
<path d="M19 0.5H2C0.89543 0.5 0 1.39543 0 2.5V13.5C0 14.6046 0.89543 15.5 2 15.5H19C20.1046 15.5 21 14.6046 21 13.5V2.5C21 1.39543 20.1046 0.5 19 0.5Z" fill="white"/>
</mask>
<g mask="url(#mask0_2002_12651)">
<path d="M19 0.5H2C0.89543 0.5 0 1.39543 0 2.5V13.5C0 14.6046 0.89543 15.5 2 15.5H19C20.1046 15.5 21 14.6046 21 13.5V2.5C21 1.39543 20.1046 0.5 19 0.5Z" fill="white"/>
<path fill-rule="evenodd" clip-rule="evenodd" d="M0 10.5H21V15.5H0V10.5Z" fill="#150A99"/>
<path fill-rule="evenodd" clip-rule="evenodd" d="M0 0.5H21V5.5H0V0.5Z" fill="#FF0000"/>
<path fill-rule="evenodd" clip-rule="evenodd" d="M8 4.5H9V5.5H8V4.5ZM10 3.5H11V5.5H10V3.5ZM12 4.5H13V5.5H12V4.5Z" fill="#0091E0"/>
<path fill-rule="evenodd" clip-rule="evenodd" d="M11 3.5H12V5.5H11V3.5ZM9 3.5H10V5.5H9V3.5Z" fill="#150A99"/>
</g>
<mask id="mask1_2002_12651" style="mask-type:alpha" maskUnits="userSpaceOnUse" x="8" y="5" width="5" height="7">
<path d="M13 9C13 10.38 11.88 11.5 10.5 11.5C9.12 11.5 8 10.38 8 9V5.5H13V9Z" fill="white"/>
</mask>
<g mask="url(#mask1_2002_12651)">
<path d="M13 9C13 10.38 11.88 11.5 10.5 11.5C9.12 11.5 8 10.38 8 9V5.5H13V9Z" fill="#FF0000"/>
<path fill-rule="evenodd" clip-rule="evenodd" d="M9 10.5H10V11.5H9V10.5ZM11 10.5H12V11.5H11V10.5ZM10 9.5H11V10.5H10V9.5ZM9 8.5H10V9.5H9V8.5ZM11 8.5H12V9.5H11V8.5ZM10 7.5H11V8.5H10V7.5ZM9 6.5H10V7.5H9V6.5ZM11 6.5H12V7.5H11V6.5ZM10 5.5H11V6.5H10V5.5ZM12 5.5H13V6.5H12V5.5ZM12 7.5H13V8.5H12V7.5ZM12 9.5H13V10.5H12V9.5ZM8 9.5H9V10.5H8V9.5ZM8 7.5H9V8.5H8V7.5ZM8 5.5H9V6.5H8V5.5Z" fill="white"/>
<path d="M19 1H2C1.17157 1 0.5 1.67157 0.5 2.5V13.5C0.5 14.3284 1.17157 15 2 15H19C19.8284 15 20.5 14.3284 20.5 13.5V2.5C20.5 1.67157 19.8284 1 19 1Z" stroke="black" stroke-opacity="0.1"/>
</g>
</svg>
