<svg width="21" height="16" viewBox="0 0 21 16" fill="none" xmlns="http://www.w3.org/2000/svg">
<mask id="mask0_2002_33669" style="mask-type:alpha" maskUnits="userSpaceOnUse" x="0" y="0" width="21" height="16">
<path d="M19 0.5H2C0.89543 0.5 0 1.39543 0 2.5V13.5C0 14.6046 0.89543 15.5 2 15.5H19C20.1046 15.5 21 14.6046 21 13.5V2.5C21 1.39543 20.1046 0.5 19 0.5Z" fill="white"/>
</mask>
<g mask="url(#mask0_2002_33669)">
<path d="M19 0.5H2C0.89543 0.5 0 1.39543 0 2.5V13.5C0 14.6046 0.89543 15.5 2 15.5H19C20.1046 15.5 21 14.6046 21 13.5V2.5C21 1.39543 20.1046 0.5 19 0.5Z" fill="white"/>
<path fill-rule="evenodd" clip-rule="evenodd" d="M13 8C13 6.62 11.88 5.5 10.5 5.5C9.12 5.5 8 6.62 8 8C8 9.38 9.12 10.5 10.5 10.5C11.88 10.5 13 9.38 13 8ZM10.5 9.5C11.328 9.5 12 8.605 12 7.5C12 6.395 11.328 5.5 10.5 5.5C9.672 5.5 9 6.395 9 7.5C9 8.605 9.672 9.5 10.5 9.5Z" fill="#406421"/>
<path d="M10.5 8.5C10.7761 8.5 11 8.05228 11 7.5C11 6.94772 10.7761 6.5 10.5 6.5C10.2239 6.5 10 6.94772 10 7.5C10 8.05228 10.2239 8.5 10.5 8.5Z" fill="#D5B852"/>
<path fill-rule="evenodd" clip-rule="evenodd" d="M0 0.5H7V15.5H0V0.5Z" fill="#006946"/>
<path fill-rule="evenodd" clip-rule="evenodd" d="M14 0.5H21V15.5H14V0.5Z" fill="#D0091E"/>
<path d="M19 1H2C1.17157 1 0.5 1.67157 0.5 2.5V13.5C0.5 14.3284 1.17157 15 2 15H19C19.8284 15 20.5 14.3284 20.5 13.5V2.5C20.5 1.67157 19.8284 1 19 1Z" stroke="black" stroke-opacity="0.1"/>
</g>
</svg>
