<svg width="21" height="16" viewBox="0 0 21 16" fill="none" xmlns="http://www.w3.org/2000/svg">
<mask id="mask0_1807_2035" style="mask-type:alpha" maskUnits="userSpaceOnUse" x="0" y="0" width="21" height="16">
<path d="M19 0.5H2C0.89543 0.5 0 1.39543 0 2.5V13.5C0 14.6046 0.89543 15.5 2 15.5H19C20.1046 15.5 21 14.6046 21 13.5V2.5C21 1.39543 20.1046 0.5 19 0.5Z" fill="white"/>
</mask>
<g mask="url(#mask0_1807_2035)">
<path d="M19 0.5H2C0.89543 0.5 0 1.39543 0 2.5V13.5C0 14.6046 0.89543 15.5 2 15.5H19C20.1046 15.5 21 14.6046 21 13.5V2.5C21 1.39543 20.1046 0.5 19 0.5Z" fill="white"/>
<path fill-rule="evenodd" clip-rule="evenodd" d="M0 10.5H21V15.5H0V10.5Z" fill="black"/>
<path fill-rule="evenodd" clip-rule="evenodd" d="M0 0.5H21V5.5H0V0.5Z" fill="#D0091E"/>
<path fill-rule="evenodd" clip-rule="evenodd" d="M10.5 7.5L9 6.5L8 7.5L9 9.5L10 8.5H11L12 9.5L13 7.5L12 6.5L10.5 7.5Z" fill="#CEAB26"/>
<path d="M19 1H2C1.17157 1 0.5 1.67157 0.5 2.5V13.5C0.5 14.3284 1.17157 15 2 15H19C19.8284 15 20.5 14.3284 20.5 13.5V2.5C20.5 1.67157 19.8284 1 19 1Z" stroke="black" stroke-opacity="0.1"/>
</g>
</svg>
