<svg width="21" height="16" viewBox="0 0 21 16" fill="none" xmlns="http://www.w3.org/2000/svg">
<mask id="mask0_2002_15722" style="mask-type:alpha" maskUnits="userSpaceOnUse" x="0" y="0" width="21" height="16">
<path d="M19 0.5H2C0.89543 0.5 0 1.39543 0 2.5V13.5C0 14.6046 0.89543 15.5 2 15.5H19C20.1046 15.5 21 14.6046 21 13.5V2.5C21 1.39543 20.1046 0.5 19 0.5Z" fill="white"/>
</mask>
<g mask="url(#mask0_2002_15722)">
<path d="M19 0.5H2C0.89543 0.5 0 1.39543 0 2.5V13.5C0 14.6046 0.89543 15.5 2 15.5H19C20.1046 15.5 21 14.6046 21 13.5V2.5C21 1.39543 20.1046 0.5 19 0.5Z" fill="white"/>
<path fill-rule="evenodd" clip-rule="evenodd" d="M14 8C14 9.933 12.433 11.5 10.5 11.5C8.567 11.5 7 9.933 7 8C7 6.88 9.35 6.41 11.328 6.587C11.538 6.531 11.764 6.5 12 6.5C13.105 6.5 14 7.172 14 8Z" fill="#0048AB"/>
<path fill-rule="evenodd" clip-rule="evenodd" d="M10 7.5C10 7.5 10.895 6.5 12 6.5C13.105 6.5 14 7.172 14 8C14 6.067 12.433 4.5 10.5 4.5C9.103 4.5 7.897 5.318 7.336 6.502C7 7.5 7 7.792 7 8C7.5 8.5 8.056 8.5 8.5 8.5C8.944 8.5 9.343 8.307 9.618 8L10 7.5Z" fill="#CD0027"/>
<path fill-rule="evenodd" clip-rule="evenodd" d="M15 5.5H17L15 3.5H14L15 5.5ZM6 5.5H4L6 3.5H7L6 5.5ZM15 10.5H17L15 12.5H14L15 10.5ZM6 10.5H4L6 12.5H7L6 10.5Z" fill="#252526"/>
<path d="M19 1H2C1.17157 1 0.5 1.67157 0.5 2.5V13.5C0.5 14.3284 1.17157 15 2 15H19C19.8284 15 20.5 14.3284 20.5 13.5V2.5C20.5 1.67157 19.8284 1 19 1Z" stroke="black" stroke-opacity="0.1"/>
</g>
</svg>
