<svg width="21" height="16" viewBox="0 0 21 16" fill="none" xmlns="http://www.w3.org/2000/svg">
<mask id="mask0_2002_10528" style="mask-type:alpha" maskUnits="userSpaceOnUse" x="0" y="0" width="21" height="16">
<path d="M19 0.5H2C0.89543 0.5 0 1.39543 0 2.5V13.5C0 14.6046 0.89543 15.5 2 15.5H19C20.1046 15.5 21 14.6046 21 13.5V2.5C21 1.39543 20.1046 0.5 19 0.5Z" fill="white"/>
</mask>
<g mask="url(#mask0_2002_10528)">
<path d="M19 0.5H2C0.89543 0.5 0 1.39543 0 2.5V13.5C0 14.6046 0.89543 15.5 2 15.5H19C20.1046 15.5 21 14.6046 21 13.5V2.5C21 1.39543 20.1046 0.5 19 0.5Z" fill="#FF0000"/>
<path fill-rule="evenodd" clip-rule="evenodd" d="M0 0.5H7V15.5H0V0.5Z" fill="#006700"/>
<path d="M7 10.5C8.65685 10.5 10 9.15685 10 7.5C10 5.84315 8.65685 4.5 7 4.5C5.34315 4.5 4 5.84315 4 7.5C4 9.15685 5.34315 10.5 7 10.5Z" fill="#FFFF00"/>
<path fill-rule="evenodd" clip-rule="evenodd" d="M9 8.5V5.5H5V8.5C5 9.052 5.895 9.5 7 9.5C8.105 9.5 9 9.052 9 8.5Z" fill="#FF0000"/>
<path fill-rule="evenodd" clip-rule="evenodd" d="M6 6.5H8V8.5H6V6.5Z" fill="white"/>
<path fill-rule="evenodd" clip-rule="evenodd" d="M6 6.5H7V7.5H6V6.5ZM7 7.5H8V8.5H7V7.5Z" fill="#002E9C"/>
<path d="M19 1H2C1.17157 1 0.5 1.67157 0.5 2.5V13.5C0.5 14.3284 1.17157 15 2 15H19C19.8284 15 20.5 14.3284 20.5 13.5V2.5C20.5 1.67157 19.8284 1 19 1Z" stroke="black" stroke-opacity="0.1"/>
</g>
</svg>
