<svg width="21" height="16" viewBox="0 0 21 16" fill="none" xmlns="http://www.w3.org/2000/svg">
<mask id="mask0_2002_944" style="mask-type:alpha" maskUnits="userSpaceOnUse" x="0" y="0" width="21" height="16">
<path d="M19 0.5H2C0.89543 0.5 0 1.39543 0 2.5V13.5C0 14.6046 0.89543 15.5 2 15.5H19C20.1046 15.5 21 14.6046 21 13.5V2.5C21 1.39543 20.1046 0.5 19 0.5Z" fill="white"/>
</mask>
<g mask="url(#mask0_2002_944)">
<path d="M19 0.5H2C0.89543 0.5 0 1.39543 0 2.5V13.5C0 14.6046 0.89543 15.5 2 15.5H19C20.1046 15.5 21 14.6046 21 13.5V2.5C21 1.39543 20.1046 0.5 19 0.5Z" fill="#D4062E"/>
<path fill-rule="evenodd" clip-rule="evenodd" d="M4 4.5H17V11.5H4V4.5Z" fill="#007F37"/>
<path fill-rule="evenodd" clip-rule="evenodd" d="M11.125 10.42C10.925 10.473 10.715 10.5 10.5 10.5C9.12 10.5 8 9.38 8 8C8 6.62 9.12 5.5 10.5 5.5C10.716 5.5 10.925 5.527 11.125 5.58C10.478 5.855 10 6.834 10 8C10 9.166 10.478 10.144 11.125 10.42Z" fill="white"/>
<path d="M19 1H2C1.17157 1 0.5 1.67157 0.5 2.5V13.5C0.5 14.3284 1.17157 15 2 15H19C19.8284 15 20.5 14.3284 20.5 13.5V2.5C20.5 1.67157 19.8284 1 19 1Z" stroke="black" stroke-opacity="0.1"/>
</g>
</svg>
