<svg width="21" height="16" viewBox="0 0 21 16" fill="none" xmlns="http://www.w3.org/2000/svg">
<mask id="mask0_1807_2080" style="mask-type:alpha" maskUnits="userSpaceOnUse" x="0" y="0" width="21" height="16">
<path d="M19 0.5H2C0.89543 0.5 0 1.39543 0 2.5V13.5C0 14.6046 0.89543 15.5 2 15.5H19C20.1046 15.5 21 14.6046 21 13.5V2.5C21 1.39543 20.1046 0.5 19 0.5Z" fill="white"/>
</mask>
<g mask="url(#mask0_1807_2080)">
<path d="M19 0.5H2C0.89543 0.5 0 1.39543 0 2.5V13.5C0 14.6046 0.89543 15.5 2 15.5H19C20.1046 15.5 21 14.6046 21 13.5V2.5C21 1.39543 20.1046 0.5 19 0.5Z" fill="white"/>
<path fill-rule="evenodd" clip-rule="evenodd" d="M0 0.5H4V4.5H0V0.5ZM6 0.5H10V4.5H6V0.5ZM0 6.5H4V10.5H0V6.5ZM6 6.5H10V10.5H6V6.5ZM10 0.5H21V2.5H10V0.5ZM10 4.5H21V6.5H10V4.5Z" fill="#005CB2"/>
<path fill-rule="evenodd" clip-rule="evenodd" d="M0 8.5H21V10.5H0V8.5ZM4 8.5H6V10.5H4V8.5ZM0 12.5H21V14.5H0V12.5Z" fill="#005CB2"/>
<path d="M19 1H2C1.17157 1 0.5 1.67157 0.5 2.5V13.5C0.5 14.3284 1.17157 15 2 15H19C19.8284 15 20.5 14.3284 20.5 13.5V2.5C20.5 1.67157 19.8284 1 19 1Z" stroke="black" stroke-opacity="0.1"/>
</g>
</svg>
