<svg width="21" height="16" viewBox="0 0 21 16" fill="none" xmlns="http://www.w3.org/2000/svg">
<mask id="mask0_2002_10715" style="mask-type:alpha" maskUnits="userSpaceOnUse" x="0" y="0" width="21" height="16">
<path d="M19 0.5H2C0.89543 0.5 0 1.39543 0 2.5V13.5C0 14.6046 0.89543 15.5 2 15.5H19C20.1046 15.5 21 14.6046 21 13.5V2.5C21 1.39543 20.1046 0.5 19 0.5Z" fill="white"/>
</mask>
<g mask="url(#mask0_2002_10715)">
<path d="M19 0.5H2C0.89543 0.5 0 1.39543 0 2.5V13.5C0 14.6046 0.89543 15.5 2 15.5H19C20.1046 15.5 21 14.6046 21 13.5V2.5C21 1.39543 20.1046 0.5 19 0.5Z" fill="white"/>
<path fill-rule="evenodd" clip-rule="evenodd" d="M10.5 9.5C11.88 9.5 13 8.828 13 8C13 7.172 11.88 6.5 10.5 6.5C9.12 6.5 8 7.172 8 8C8 8.828 9.12 9.5 10.5 9.5ZM10.5 8.75C11.328 8.75 12 8.246 12 7.625C12 7.005 11.328 6.5 10.5 6.5C9.672 6.5 9 7.004 9 7.625C9 8.245 9.672 8.75 10.5 8.75Z" fill="#DD0000"/>
<path d="M10.5 8.5C10.7761 8.5 11 8.05228 11 7.5C11 6.94772 10.7761 6.5 10.5 6.5C10.2239 6.5 10 6.94772 10 7.5C10 8.05228 10.2239 8.5 10.5 8.5Z" fill="#DD0000"/>
<path fill-rule="evenodd" clip-rule="evenodd" d="M0 10.5H21V15.5H0V10.5Z" fill="#DD0000"/>
<path fill-rule="evenodd" clip-rule="evenodd" d="M0 0.5H21V5.5H0V0.5Z" fill="#17A03A"/>
<path d="M19 1H2C1.17157 1 0.5 1.67157 0.5 2.5V13.5C0.5 14.3284 1.17157 15 2 15H19C19.8284 15 20.5 14.3284 20.5 13.5V2.5C20.5 1.67157 19.8284 1 19 1Z" stroke="black" stroke-opacity="0.1"/>
</g>
</svg>
