<svg width="70" height="28" viewBox="0 0 70 28" fill="none" xmlns="http://www.w3.org/2000/svg">
<path d="M32.8932 13.3475V21.2946H30.3545V1.6688H37.0876C37.8913 1.65213 38.6904 1.79368 39.4387 2.0853C40.187 2.37691 40.8698 2.81281 41.4476 3.36784C42.0312 3.88917 42.4957 4.52852 42.8099 5.24294C43.124 5.95735 43.2805 6.73026 43.2689 7.50973C43.2856 8.29337 43.1315 9.07133 42.8171 9.79029C42.5028 10.5093 42.0356 11.1522 41.4476 11.6751C40.2702 12.7901 38.8169 13.347 37.0876 13.346H32.8932V13.3475ZM32.8932 4.08503V10.936H37.1507C37.6174 10.9497 38.0819 10.8666 38.5145 10.6918C38.947 10.5171 39.3381 10.2547 39.6626 9.92127C39.9855 9.60955 40.2421 9.2367 40.4174 8.82478C40.5926 8.41286 40.6829 7.97022 40.6829 7.52304C40.6829 7.07586 40.5926 6.63322 40.4174 6.2213C40.2421 5.80938 39.9855 5.43653 39.6626 5.12481C39.3421 4.78439 38.9524 4.5155 38.5194 4.33597C38.0863 4.15645 37.6198 4.07038 37.1507 4.08347H32.8932V4.08503Z" fill="white"/>
<path d="M49.1203 7.42822C50.9968 7.42822 52.478 7.92619 53.5639 8.92212C54.6498 9.91806 55.1922 11.2836 55.1912 13.0186V21.2946H52.7629V19.4311H52.6525C51.6012 20.9657 50.2031 21.733 48.4581 21.733C46.9685 21.733 45.7222 21.2946 44.7194 20.4176C44.2381 20.0152 43.8533 19.5111 43.5931 18.9422C43.3328 18.3733 43.2037 17.7539 43.215 17.1292C43.215 15.7397 43.7438 14.6346 44.8014 13.8141C45.8589 12.9935 47.2707 12.5822 49.0368 12.5801C50.5442 12.5801 51.7857 12.8542 52.7613 13.4023V12.826C52.7641 12.4001 52.6715 11.9789 52.4902 11.5929C52.3088 11.207 52.0432 10.8659 51.7127 10.5945C51.0413 9.99303 50.1664 9.66483 49.2623 9.67534C47.8441 9.67534 46.722 10.2693 45.8957 11.4574L43.6597 10.059C44.8897 8.30515 46.7099 7.42822 49.1203 7.42822ZM45.8358 17.184C45.8341 17.5048 45.9096 17.8215 46.0561 18.1075C46.2025 18.3935 46.4157 18.6406 46.6778 18.8282C47.2393 19.2668 47.9362 19.4992 48.6504 19.4859C49.7217 19.4841 50.7486 19.0607 51.5061 18.3083C52.3471 17.5222 52.7676 16.5999 52.7676 15.5413C51.976 14.9149 50.8722 14.6018 49.4562 14.6018C48.4249 14.6018 47.565 14.8487 46.8765 15.3424C46.1811 15.8435 45.8358 16.4527 45.8358 17.184Z" fill="white"/>
<path d="M69.1307 7.86768L60.6536 27.2148H58.0328L61.1786 20.4452L55.6045 7.86768H58.364L62.3928 17.5138H62.448L66.3665 7.86768H69.1307Z" fill="white"/>
<path d="M22.6352 11.6343C22.6362 10.866 22.5708 10.099 22.4397 9.3418H11.7329V13.6841H17.8653C17.7398 14.3777 17.4742 15.0388 17.0845 15.6276C16.6948 16.2165 16.189 16.7209 15.5978 17.1104V19.9291H19.2576C21.4005 17.967 22.6352 15.0653 22.6352 11.6343Z" fill="#4285F4"/>
<path d="M11.7322 22.654C14.796 22.654 17.3758 21.6549 19.2569 19.9324L15.5971 17.1137C14.5784 17.7996 13.2665 18.1911 11.7322 18.1911C8.77091 18.1911 6.25742 16.2086 5.35862 13.5371H1.58838V16.4419C2.53333 18.3093 3.98231 19.879 5.77355 20.976C7.56479 22.0729 9.62779 22.6539 11.7322 22.654Z" fill="#34A853"/>
<path d="M5.35905 13.5369C4.88388 12.1371 4.88388 10.6211 5.35905 9.22121V6.31641H1.58881C0.79388 7.88728 0.379883 9.62099 0.379883 11.3791C0.379883 13.1371 0.79388 14.8709 1.58881 16.4417L5.35905 13.5369Z" fill="#FBBC04"/>
<path d="M11.7322 4.56668C13.3513 4.54041 14.9158 5.14791 16.0875 6.25789L19.3279 3.03989C17.2731 1.12331 14.551 0.0710718 11.7322 0.103767C9.62779 0.103862 7.56479 0.684814 5.77355 1.78176C3.98231 2.87871 2.53333 4.44848 1.58838 6.31583L5.35862 9.22063C6.25742 6.54915 8.77091 4.56668 11.7322 4.56668Z" fill="#EA4335"/>
</svg>
