<svg width="191" height="91" viewBox="0 0 191 91" fill="none" xmlns="http://www.w3.org/2000/svg">
<g clip-path="url(#clip0_2301_67847)">
<path d="M0 15.3331C0 13.7126 0.997262 12.7153 2.74247 12.7153H29.5438C31.289 12.7153 32.1616 13.4633 32.1616 15.0838V17.203C32.1616 18.8236 31.289 19.5715 29.5438 19.5715H7.72877V36.5249H24.8068C26.5521 36.5249 27.4247 37.2729 27.4247 38.8934V40.8879C27.4247 42.5085 26.5521 43.2564 24.8068 43.2564H7.72877V61.2071H29.4192C31.1644 61.2071 32.1616 61.9551 32.1616 63.5756V65.5701C32.1616 67.1907 31.1644 67.9386 29.4192 67.9386H2.61781C0.99726 67.9386 0 67.1907 0 65.5701V15.3331Z" fill="#222B45"/>
<path d="M47.4944 12.8394H50.2368C51.982 12.8394 52.73 13.712 52.73 15.3325V39.7654L72.1766 14.5846C73.0492 13.4626 73.7971 12.8394 75.4177 12.8394H79.0327C80.6533 12.8394 81.1519 14.7092 80.2793 15.8311L63.8245 36.6489L80.7779 65.3202C81.5259 66.5667 80.9026 68.3119 79.1574 68.3119H75.9163C74.1711 68.3119 73.2985 67.4393 72.6752 66.1928L59.0875 43.5051L52.8546 52.2311V65.5695C52.8546 67.19 51.982 68.3119 50.2368 68.3119H47.619C45.9985 68.3119 45.0012 67.19 45.0012 65.5695V15.2078C45.1259 13.5873 45.9985 12.8394 47.4944 12.8394Z" fill="#222B45"/>
<path d="M102.219 19.6959H91.374C89.6288 19.6959 88.7562 18.9479 88.7562 17.3274V15.3328C88.7562 13.7123 89.6288 12.9644 91.374 12.9644H120.793C122.538 12.9644 123.411 13.7123 123.411 15.3328V17.2027C123.411 18.8233 122.538 19.5712 120.793 19.5712H109.823V65.6945C109.823 67.315 108.951 68.3123 107.33 68.3123H104.712C102.967 68.3123 102.095 67.315 102.095 65.6945V19.6959H102.219Z" fill="#222B45"/>
<path d="M131.514 28.9202C131.514 17.5763 139.367 12.8394 149.34 12.8394C159.312 12.8394 167.041 17.701 167.041 29.0448V65.8188C167.041 67.4394 166.044 68.4366 164.299 68.4366H161.681C159.936 68.4366 159.188 67.4394 159.188 65.8188V50.3613H139.118V65.8188C139.118 67.4394 138.245 68.4366 136.5 68.4366H133.882C132.137 68.4366 131.264 67.4394 131.264 65.8188V28.9202H131.514ZM139.242 43.5051H159.312V29.6681C159.312 21.5654 154.451 19.6955 149.09 19.6955C143.481 19.6955 139.242 21.4407 139.242 29.6681V43.5051Z" fill="#222B45"/>
<path d="M180.753 0C175.268 0 170.905 4.36301 170.905 9.84795C170.905 15.3329 175.268 19.6959 180.753 19.6959C186.238 19.6959 190.601 15.3329 190.601 9.84795C190.601 4.36301 186.238 0 180.753 0ZM180.753 14.4603C178.135 14.4603 176.141 12.3411 176.141 9.84795C176.141 7.35479 178.26 5.23562 180.753 5.23562C183.246 5.23562 185.366 7.35479 185.366 9.84795C185.366 12.3411 183.371 14.4603 180.753 14.4603Z" fill="#222B45"/>
<path d="M1.6207 90.5013H0.498779V78.7835H1.6207V90.5013ZM4.86179 90.5013H3.73987V78.7835H4.86179L11.718 88.6314V78.7835H12.8398V90.5013H11.718L4.73714 80.6534V90.5013H4.86179ZM14.5851 87.2602H15.707C15.707 88.0081 16.0809 88.5068 16.7042 89.0054C17.3275 89.3794 18.0755 89.6287 18.9481 89.6287C19.8207 89.6287 20.5686 89.3794 21.0672 89.0054C21.6905 88.6314 21.9398 88.0081 21.9398 87.3849C21.9398 86.8862 21.6905 86.3876 21.3166 86.0136C20.9426 85.6397 20.3193 85.3903 19.4467 85.141L17.9508 84.7671C16.8289 84.5177 16.0809 84.1438 15.5823 83.6451C15.0837 83.1465 14.8344 82.5232 14.8344 81.7753C14.8344 80.778 15.2083 80.0301 15.9563 79.4068C16.7042 78.7835 17.7015 78.5342 18.8234 78.5342C19.9453 78.5342 20.9426 78.7835 21.6905 79.4068C22.4385 80.0301 22.8124 80.778 22.9371 81.7753H21.8152C21.8152 81.152 21.4412 80.5287 20.9426 80.1547C20.444 79.7808 19.696 79.5314 18.8234 79.5314C17.9508 79.5314 17.3275 79.7808 16.8289 80.1547C16.3303 80.5287 16.0809 81.152 16.0809 81.7753C16.0809 82.2739 16.3303 82.6479 16.7042 83.0218C17.0782 83.3958 17.7015 83.6451 18.5741 83.7698L19.8207 84.1438C21.0672 84.3931 21.8152 84.8917 22.4385 85.2657C22.9371 85.7643 23.1864 86.3876 23.1864 87.2602C23.1864 88.2575 22.8124 89.1301 22.0645 89.7534C21.3166 90.3766 20.1946 90.626 18.9481 90.626C17.7015 90.626 16.7042 90.3766 15.9563 89.7534C15.0837 89.1301 14.7097 88.2575 14.5851 87.2602ZM25.9289 78.7835V86.3876C25.9289 87.3849 26.1782 88.1328 26.8015 88.7561C27.4248 89.3794 28.2974 89.6287 29.2946 89.6287C30.4166 89.6287 31.1645 89.3794 31.7878 88.7561C32.4111 88.1328 32.6604 87.3849 32.6604 86.3876V78.7835H33.7823V86.3876C33.7823 87.6342 33.4083 88.7561 32.5357 89.504C31.6631 90.252 30.6659 90.626 29.17 90.626C27.7987 90.626 26.6768 90.252 25.8042 89.504C24.9316 88.7561 24.5577 87.6342 24.5577 86.3876V78.7835H25.9289ZM37.2727 79.6561V84.6424H40.2645C41.1371 84.6424 41.7604 84.3931 42.259 84.0191C42.7577 83.6451 43.007 83.0219 43.007 82.1492C43.007 81.4013 42.7577 80.778 42.259 80.2794C41.7604 79.7808 41.1371 79.6561 40.2645 79.6561H37.2727ZM37.2727 85.6397V90.5013H36.1508V78.7835H40.3892C41.5111 78.7835 42.5083 79.1575 43.1316 79.7808C43.8796 80.404 44.1289 81.2766 44.1289 82.2739C44.1289 83.1465 43.8796 83.7698 43.5056 84.3931C43.007 85.0164 42.3837 85.3903 41.6357 85.6397L44.5029 90.626H43.2563L40.5138 85.7643H40.3892H37.2727V85.6397ZM53.7275 90.5013L52.4809 86.8862H47.4946L46.2481 90.5013H45.0015L49.3645 78.7835H50.4864L54.8494 90.5013H53.7275ZM49.9878 80.1547L47.8686 86.0136H52.107L49.9878 80.1547ZM57.3426 90.5013H56.2207V78.7835H57.3426L64.1987 88.6314V78.7835H65.3207V90.5013H64.1987L57.2179 80.6534V90.5013H57.3426ZM72.4261 90.7506C70.8056 90.7506 69.559 90.252 68.5618 89.1301C67.5645 88.0081 67.1905 86.5123 67.1905 84.6424C67.1905 82.7725 67.6892 81.2766 68.5618 80.2794C69.559 79.1575 70.8056 78.6588 72.4261 78.6588C73.2987 78.6588 74.0467 78.7835 74.67 79.1575C75.4179 79.5314 75.9166 79.9054 76.4152 80.5287C76.9138 81.152 77.1631 81.7753 77.2878 82.5232H76.1659C76.0412 81.6506 75.5426 81.0273 74.9193 80.404C74.0467 79.7808 73.2987 79.5314 72.4261 79.5314C71.1796 79.5314 70.1823 80.0301 69.4344 80.9027C68.6864 81.7753 68.3124 83.0219 68.3124 84.5177C68.3124 86.0136 68.6864 87.2602 69.4344 88.2575C70.1823 89.1301 71.1796 89.6287 72.4261 89.6287C73.4234 89.6287 74.1714 89.3794 74.7946 88.8808C75.4179 88.3821 75.9166 87.7588 76.0412 87.0109H77.1631C76.9138 88.1328 76.4152 89.0054 75.5426 89.7534C74.67 90.3766 73.6727 90.7506 72.4261 90.7506ZM85.8892 89.504V90.5013H78.7837V78.7835H85.8892V79.7808H79.9056V84.0191H85.6398V85.0164H79.9056V89.504H85.8892ZM96.2357 90.7506C94.6152 90.7506 93.3686 90.252 92.3714 89.1301C91.3741 88.0081 91.0001 86.5123 91.0001 84.6424C91.0001 82.7725 91.4987 81.2766 92.3714 80.2794C93.3686 79.1575 94.6152 78.6588 96.2357 78.6588C97.1083 78.6588 97.8563 78.7835 98.4796 79.1575C99.2275 79.5314 99.7261 79.9054 100.225 80.5287C100.723 81.152 100.973 81.7753 101.097 82.5232H99.9755C99.8508 81.6506 99.3522 81.0273 98.7289 80.404C98.1056 79.7808 97.233 79.5314 96.2357 79.5314C94.9892 79.5314 93.9919 80.0301 93.244 80.9027C92.496 81.7753 92.122 83.0219 92.122 84.5177C92.122 86.0136 92.496 87.2602 93.244 88.2575C93.9919 89.1301 94.9892 89.6287 96.2357 89.6287C97.233 89.6287 97.9809 89.3794 98.6042 88.8808C99.2275 88.3821 99.7261 87.7588 99.8508 87.0109H100.973C100.723 88.1328 100.225 89.0054 99.3522 89.7534C98.6042 90.3766 97.607 90.7506 96.2357 90.7506ZM107.58 78.5342C109.2 78.5342 110.571 79.0328 111.444 80.1547C112.441 81.2766 112.94 82.7725 112.94 84.6424C112.94 86.5123 112.441 88.0081 111.444 89.1301C110.447 90.252 109.2 90.7506 107.58 90.7506C105.959 90.7506 104.588 90.252 103.715 89.1301C102.718 88.0081 102.219 86.5123 102.219 84.6424C102.219 82.7725 102.718 81.2766 103.715 80.1547C104.712 79.0328 105.959 78.5342 107.58 78.5342ZM110.696 80.9027C109.948 80.0301 108.951 79.5314 107.58 79.5314C106.208 79.5314 105.211 80.0301 104.463 80.9027C103.715 81.7753 103.341 83.0219 103.341 84.6424C103.341 86.1383 103.715 87.3849 104.463 88.2575C105.211 89.1301 106.208 89.6287 107.58 89.6287C108.826 89.6287 109.948 89.1301 110.696 88.2575C111.444 87.3849 111.818 86.1383 111.818 84.6424C111.818 83.0219 111.444 81.8999 110.696 80.9027ZM126.029 78.7835V90.5013H125.032V80.778L120.918 90.3766H119.921L115.807 80.778V90.5013H114.81V78.7835H116.056L120.419 89.1301L124.782 78.7835H126.029ZM128.273 78.7835H132.511C133.633 78.7835 134.506 79.1575 135.254 79.7808C136.001 80.404 136.251 81.4013 136.251 82.3986C136.251 83.5205 135.877 84.3931 135.254 85.0164C134.506 85.6397 133.633 86.0136 132.511 86.0136H129.395V90.5013H128.273V78.7835ZM129.395 79.6561V85.0164H132.262C133.134 85.0164 133.882 84.7671 134.381 84.2684C134.88 83.7698 135.129 83.1465 135.129 82.2739C135.129 81.4013 134.88 80.778 134.381 80.2794C133.882 79.7808 133.134 79.5314 132.262 79.5314H129.395V79.6561ZM144.603 90.5013L143.356 86.8862H138.37L137.123 90.5013H136.001L140.365 78.7835H141.486L145.849 90.5013H144.603ZM140.738 80.1547L138.619 86.0136H142.858L140.738 80.1547ZM148.093 90.5013H146.971V78.7835H148.093L154.949 88.6314V78.7835H156.071V90.5013H154.949L147.969 80.6534V90.5013H148.093ZM162.803 90.5013H161.681V85.3903L157.443 78.6588H158.689L162.18 84.2684L165.67 78.6588H166.917L162.678 85.3903V90.5013H162.803Z" fill="#222B45"/>
</g>
<defs>
<clipPath id="clip0_2301_67847">
<rect width="190.726" height="91" fill="white"/>
</clipPath>
</defs>
</svg>
