<svg width="110" height="85" viewBox="0 0 110 85" fill="none" xmlns="http://www.w3.org/2000/svg">
<path d="M8.99712 30.3209C8.94348 30.456 8.86289 30.591 8.80917 30.7261C7.33202 34.2115 6.60687 37.805 6.60687 41.5065C6.60687 43.9382 7.00973 46.3428 7.81544 48.7204C8.16463 49.7742 9.07771 51.8816 10.5818 55.0697C11.6292 57.2042 12.408 59.1225 12.9183 60.7976C13.6703 63.2293 14.0463 65.661 14.0463 68.0926C14.0463 69.5246 13.8852 71.0647 13.5629 72.6857H6.66059C7.17088 70.7945 7.41259 68.9842 7.41259 67.3091C7.41259 65.688 7.11716 63.9858 6.55316 62.1756C6.25773 61.2569 5.58629 59.5549 4.48515 57.1231C2.87372 53.5838 1.8263 51.0711 1.36972 49.558C0.456574 46.7211 0 43.8031 0 40.777C0 37.5348 0.537146 34.2925 1.63829 31.0774C2.73944 27.8622 4.29715 24.7551 6.31144 21.729H11.3337C15.2281 12.2455 23.0972 4.84247 32.8732 1.6543V8.86823C22.6406 13.1372 15.4429 23.2691 15.4429 35.1301C15.4429 44.1543 19.6326 52.2058 26.159 57.3934V50.1524H32.8732V72.6857H26.159V65.5799C15.7383 59.5008 8.72858 48.1531 8.72858 35.1571C8.64799 33.509 8.75544 31.8879 8.99712 30.3209ZM77.5905 68.9032C77.5905 67.9306 77.4025 67.201 76.9996 66.7147C76.5968 66.2284 76.167 65.9311 75.7105 65.8231C75.6299 65.7961 75.5761 65.7961 75.5224 65.7961C75.4688 65.7961 75.3882 65.7961 75.3345 65.7961C75.2807 65.7961 75.227 65.7961 75.1464 65.7961C75.0927 65.7961 75.0122 65.8231 74.9585 65.8231C74.475 65.9311 74.0453 66.2284 73.6693 66.7147C73.2665 67.201 73.0784 67.9306 73.0784 68.9032C73.0784 69.9029 73.2933 70.6594 73.6962 71.1457C74.099 71.6321 74.5556 71.9292 75.0391 72.0103C75.0928 72.0103 75.1464 72.0373 75.2001 72.0373C75.2539 72.0373 75.3076 72.0373 75.3613 72.0373C75.415 72.0373 75.4688 72.0373 75.5224 72.0373C75.5761 72.0373 75.6299 72.0373 75.6836 72.0103C76.167 71.9292 76.6236 71.6321 77.0265 71.1457C77.4025 70.6594 77.5905 69.9029 77.5905 68.9032ZM77.5905 72.6047V71.3348C77.4293 71.6591 77.2413 71.9022 77.0265 72.0914C76.8384 72.2805 76.6236 72.4426 76.4087 72.5507C76.2208 72.6587 76.0059 72.7128 75.8179 72.7398C75.6299 72.7668 75.4419 72.7938 75.2807 72.7938C74.3944 72.7938 73.6425 72.4426 72.9978 71.7671C72.3533 71.0917 72.031 70.119 72.031 68.8761C72.031 67.6063 72.3533 66.6337 72.9978 65.9582C73.6425 65.3098 74.4482 64.9585 75.3613 64.9585C75.9253 64.9585 76.3819 65.1206 76.7579 65.4718C77.1339 65.7961 77.4293 66.2014 77.5905 66.6607H77.6441V65.0936H78.5304L78.4767 66.5526V72.6587C78.4767 72.8479 78.4767 73.037 78.4499 73.2802C78.423 73.5233 78.3693 73.7665 78.3156 74.0097C78.1813 74.496 77.859 74.9553 77.4025 75.3606C76.919 75.7659 76.167 75.982 75.0927 75.982C74.7704 75.982 74.3944 75.955 73.9916 75.901C73.5887 75.8469 73.159 75.7389 72.7024 75.5767L72.7562 74.6852C72.8099 74.7122 72.8905 74.7391 72.9978 74.7932C73.1053 74.8472 73.2396 74.8743 73.3739 74.9283C73.5887 75.0094 73.8573 75.0634 74.1259 75.1444C74.4213 75.1985 74.7436 75.2255 75.0659 75.2255C75.8985 75.2255 76.4893 75.0364 76.8384 74.6581C77.1876 74.2799 77.4025 73.8746 77.483 73.4423C77.5099 73.3072 77.5368 73.1451 77.5368 73.01C77.5905 72.8479 77.5905 72.7128 77.5905 72.6047ZM81.7268 72.7128H80.8133V66.5256L80.7599 65.1476H81.6455V66.6877H81.6726C81.8336 65.9582 83.2301 65.0126 83.9555 65.0126C84.0902 65.0126 84.2241 65.0126 84.3588 65.0395C84.4928 65.0395 84.6267 65.0665 84.7614 65.1206V66.0122C84.6004 65.9582 84.4657 65.9311 84.3317 65.9311C84.197 65.9311 84.0902 65.9311 84.0097 65.9311C82.9886 65.9311 81.7531 67.147 81.7531 68.3898V72.7128H81.7268ZM85.3791 68.9302C85.3791 67.8495 85.6749 66.9308 86.2918 66.1743C86.9096 65.4178 87.7959 65.0126 88.9781 65.0126C90.1594 65.0126 91.0728 65.3908 91.6635 66.1743C92.2812 66.9308 92.577 67.8765 92.577 68.9302C92.577 69.984 92.2812 70.9026 91.6635 71.6861C91.0457 72.4426 90.1594 72.8209 88.9781 72.8209C87.7959 72.8209 86.9096 72.4426 86.2918 71.6861C85.7012 70.9026 85.3791 69.984 85.3791 68.9302ZM86.346 68.9302C86.346 69.0653 86.346 69.2275 86.3731 69.4165C86.3994 69.5787 86.4265 69.7407 86.4536 69.9299C86.5875 70.4703 86.8562 70.9566 87.2587 71.3889C87.662 71.8482 88.2256 72.0644 88.9781 72.0644C89.7297 72.0644 90.3212 71.8482 90.6966 71.3889C91.0999 70.9295 91.3686 70.4433 91.5025 69.9299C91.5559 69.7678 91.583 69.6057 91.583 69.4165C91.6101 69.2544 91.6101 69.0923 91.6101 68.9302C91.6101 68.7952 91.6101 68.633 91.583 68.4709C91.5559 68.3088 91.5296 68.1467 91.5025 67.9845C91.3686 67.4442 91.1262 66.9579 90.7237 66.4986C90.3212 66.0392 89.7568 65.8231 88.9781 65.8231C88.2256 65.8231 87.6349 66.0392 87.2324 66.4986C86.8291 66.9579 86.5604 67.4442 86.4536 67.9845C86.3994 68.1467 86.3731 68.3088 86.3731 68.4709C86.3731 68.633 86.346 68.7681 86.346 68.9302ZM99.3986 65.1206H100.312V71.0647L100.365 72.7128H99.4791V71.1457H99.452C99.157 71.9563 97.7868 72.983 96.5513 72.8209C96.4174 72.7938 96.2564 72.8209 96.0683 72.7938C95.9073 72.7668 95.7191 72.7668 95.5581 72.7128C95.1285 72.5777 94.7523 72.3075 94.4031 71.8752C94.054 71.4699 93.893 70.7945 93.893 69.8488V65.1206H94.8057V69.7948C94.8057 69.9029 94.8057 70.0649 94.8328 70.2541C94.8328 70.4433 94.8599 70.6324 94.9133 70.8215C94.9938 71.1187 95.1819 71.4159 95.4234 71.6591C95.6657 71.9293 96.0954 72.0644 96.6589 72.0644C96.7394 72.0644 96.7936 72.0644 96.8741 72.0644C96.9546 72.0644 97.008 72.0373 97.0886 72.0373C98.163 71.7941 99.3715 70.7134 99.3715 69.2004V65.1206H99.3986ZM102.836 68.9032C102.836 69.9569 103.078 70.7405 103.535 71.2538C103.991 71.7671 104.528 72.0373 105.119 72.0373C105.173 72.0373 105.226 72.0373 105.28 72.0373C105.334 72.0373 105.388 72.0373 105.441 72.0103C105.924 71.9292 106.381 71.6321 106.785 71.1457C107.187 70.6594 107.402 69.9029 107.402 68.9032C107.402 67.9306 107.214 67.201 106.811 66.7147C106.408 66.2284 105.979 65.9311 105.522 65.8231C105.441 65.7961 105.388 65.7961 105.334 65.7961C105.28 65.7961 105.2 65.7961 105.146 65.7961C105.092 65.7961 105.039 65.7961 104.985 65.7961C104.931 65.7961 104.877 65.7961 104.824 65.8231C104.341 65.9041 103.884 66.2014 103.481 66.6877C103.025 67.174 102.836 67.9306 102.836 68.9032ZM102.836 75.955H101.923V66.6066L101.87 65.1476H102.756V66.7147H102.809C103.025 66.1743 103.347 65.7691 103.803 65.4718C104.259 65.1746 104.743 65.0395 105.226 65.0395H105.253C105.28 65.0395 105.28 65.0395 105.28 65.0395C106.113 65.0395 106.838 65.3638 107.456 66.0122C108.073 66.6607 108.369 67.6333 108.369 68.9572C108.369 70.2271 108.101 71.1728 107.536 71.7671C106.999 72.3615 106.381 72.7128 105.737 72.8209C105.629 72.8479 105.549 72.8479 105.441 72.8749C105.334 72.8749 105.226 72.9019 105.119 72.9019C104.582 72.9019 104.125 72.7668 103.749 72.4696C103.374 72.1725 103.078 71.8482 102.863 71.4429H102.809L102.836 72.7668V75.955ZM38.3789 61.9865L38.7281 59.0685C39.0235 59.2035 39.3727 59.3387 39.7218 59.4738C40.0709 59.5818 40.4469 59.6899 40.7961 59.798C41.1453 59.8791 41.4944 59.9331 41.8704 60.0141C42.2195 60.0681 42.5686 60.0952 42.8641 60.0952C43.6967 60.0952 44.3412 59.8791 44.8247 59.4738C45.3081 59.0685 45.5498 58.6092 45.5498 58.0688C45.5498 57.4474 45.3619 56.9881 45.0126 56.6638C44.6635 56.3396 44.2069 56.0424 43.643 55.7723C43.4281 55.6642 43.1864 55.5561 42.9446 55.448C42.703 55.34 42.4344 55.2049 42.1927 55.0968C42.1121 55.0427 42.0315 55.0157 41.951 54.9616C41.8704 54.9346 41.7898 54.8807 41.7092 54.8266C40.6887 54.2862 39.883 53.7188 39.2652 53.0974C38.6475 52.476 38.3521 51.5843 38.3521 50.4226C38.3521 50.1794 38.3789 49.8552 38.4595 49.4769C38.5132 49.0987 38.6475 48.7204 38.7818 48.3422C39.0773 47.6667 39.6143 47.0453 40.3396 46.5049C41.0647 45.9646 42.1658 45.6673 43.6161 45.6673C44.395 45.6673 45.1201 45.7213 45.7647 45.8024C46.4092 45.9105 46.9733 45.9916 47.4567 46.1266C47.6447 46.1807 47.8327 46.2347 47.9938 46.2617C48.155 46.3158 48.2893 46.3428 48.3967 46.3698L48.0475 49.0716C47.7521 48.9366 47.4299 48.8285 47.0806 48.7204C46.7584 48.6123 46.4092 48.5313 46.087 48.4502C45.7915 48.3962 45.4961 48.3422 45.2275 48.3151C44.959 48.2881 44.6635 48.2611 44.395 48.2611C43.6698 48.2611 43.1327 48.3692 42.7835 48.5854C42.4344 48.8015 42.1927 49.0446 42.0316 49.2878C41.9778 49.4229 41.9241 49.558 41.8972 49.6931C41.8704 49.8282 41.8704 49.9362 41.8704 50.0173C41.8704 50.5577 42.0315 50.99 42.3538 51.3142C42.6761 51.6384 43.0252 51.9086 43.4012 52.0977C43.5355 52.1518 43.643 52.2058 43.7504 52.2598C43.8578 52.3139 43.9652 52.3679 44.0727 52.395C44.0996 52.4219 44.0996 52.4219 44.1264 52.4219C44.1532 52.4219 44.1801 52.4219 44.2069 52.4219C44.2338 52.4489 44.2607 52.4489 44.3144 52.476C44.3412 52.503 44.3681 52.503 44.4218 52.53C45.6035 53.0434 46.7046 53.6648 47.6715 54.3673C48.6384 55.0697 49.1487 56.2585 49.1487 57.9337C49.1487 57.9877 49.1487 58.0688 49.1487 58.1228C49.1487 58.1769 49.1487 58.258 49.1219 58.3119C49.0413 59.4468 48.5041 60.4734 47.5104 61.4191C46.5167 62.3377 44.9321 62.8241 42.7567 62.8241C41.8704 62.8241 41.0915 62.743 40.3663 62.5809C39.6143 62.3918 38.9698 62.2026 38.3789 61.9865ZM58.2264 56.9881H57.6893C57.6624 56.9881 57.6355 56.9881 57.6087 56.9881C57.5818 56.9881 57.555 56.9881 57.555 56.9881C57.3133 56.9881 57.0716 56.9881 56.803 56.9881C56.5344 56.9881 56.2659 57.015 55.9973 57.0421C55.3259 57.0961 54.7081 57.2853 54.1709 57.5554C53.607 57.8257 53.3384 58.3119 53.3384 59.0145C53.3384 59.0415 53.3384 59.0415 53.3384 59.0415V59.0685C53.3652 59.4468 53.4995 59.798 53.7681 60.1222C54.0367 60.4464 54.5739 60.6085 55.299 60.6085C56.0778 60.6085 56.7761 60.3654 57.367 59.8791C57.9578 59.3927 58.2533 58.5281 58.2533 57.2853V56.9881H58.2264ZM51.4584 53.3946V50.8278C51.9418 50.6388 52.3984 50.4766 52.855 50.3685C53.3116 50.2605 53.7413 50.1794 54.1978 50.0984C54.4933 50.0713 54.8156 50.0443 55.111 50.0173C55.4064 49.9903 55.7287 49.9903 56.0241 49.9903C57.7698 49.9903 59.0053 50.2874 59.7573 50.8549C60.5093 51.4493 60.9927 52.0977 61.2345 52.8002C61.3418 53.1515 61.4224 53.5027 61.4493 53.8539C61.4761 54.2051 61.503 54.5023 61.503 54.7726V62.6349H58.3338V60.7976H58.2802C58.0653 61.2569 57.7699 61.6082 57.4476 61.8784C57.1252 62.1486 56.7492 62.3377 56.4001 62.4728C56.0241 62.6079 55.6481 62.716 55.299 62.743C54.9499 62.77 54.6544 62.797 54.4396 62.797C53.0161 62.797 51.9687 62.4728 51.3241 61.8514C50.6796 61.23 50.2767 60.5275 50.1424 59.771C50.1155 59.6358 50.0887 59.5278 50.0887 59.3927C50.0887 59.2846 50.0887 59.1496 50.0887 59.0145C50.0887 58.9874 50.0887 58.9604 50.0887 58.9064C50.0887 58.8793 50.0887 58.8523 50.0887 58.7983C50.1424 57.8257 50.5721 56.934 51.4047 56.0965C52.2373 55.2859 53.8487 54.8807 56.2122 54.8807C56.3732 54.8807 56.5344 54.8807 56.6687 54.8807C56.8298 54.8807 56.9641 54.8807 57.1252 54.8807C57.2864 54.9076 57.4476 54.9076 57.5818 54.9076C57.7161 54.9076 57.8773 54.9076 58.0115 54.9076H58.307L58.2802 54.3673C58.2533 53.6108 57.9578 53.0704 57.4207 52.7462C56.8836 52.4219 56.239 52.2328 55.5138 52.2328C54.923 52.2328 54.3052 52.3139 53.6876 52.4489C52.9624 52.6381 52.2373 52.9353 51.4584 53.3946ZM61.6373 50.2065H65.2093L67.8144 57.9067L68.3248 59.7439H68.4053L68.8618 57.9067L71.3596 50.2065H74.6898L70.1241 62.6619H66.3104L61.6373 50.2065ZM75.3345 50.2065H78.5842V62.6619H75.3345V50.2065ZM78.6379 45.6404V49.0177H75.3076V45.6404H78.6379ZM81.9412 52.584H79.4973V50.1794H81.9412V47.6937L85.191 46.667V50.1794H88.0646V52.584H85.191V58.2309C85.191 58.8523 85.2715 59.3657 85.4325 59.771C85.5936 60.2033 86.0503 60.4194 86.8028 60.4194C86.8291 60.4194 86.8562 60.4194 86.9096 60.4194C86.9367 60.4194 86.9638 60.4194 87.0172 60.4194C87.2053 60.3923 87.3934 60.3654 87.5815 60.3384C87.7696 60.3114 87.9307 60.2573 88.0917 60.2033V62.4999C87.8502 62.5538 87.5815 62.5809 87.3129 62.6349C87.0172 62.6619 86.7486 62.716 86.4536 62.743C86.3189 62.77 86.1579 62.77 86.024 62.77C85.8893 62.77 85.7283 62.77 85.5936 62.77C84.4928 62.77 83.6869 62.5538 83.2038 62.0945C82.72 61.6353 82.3709 61.1219 82.2099 60.5815C82.1022 60.2843 82.0488 60.0141 82.0217 59.7169C81.9946 59.4197 81.9946 59.1765 81.9946 58.9604V52.584H81.9412ZM97.1157 56.9881H96.5784C96.5513 56.9881 96.525 56.9881 96.4979 56.9881C96.4708 56.9881 96.4445 56.9881 96.4445 56.9881C96.2022 56.9881 95.9607 56.9881 95.692 56.9881C95.4234 56.9881 95.1548 57.015 94.8862 57.0421C94.215 57.0961 93.5973 57.2853 93.06 57.5554C92.4965 57.8257 92.2278 58.3119 92.2278 59.0145C92.2278 59.0415 92.2278 59.0415 92.2278 59.0415V59.0685C92.2541 59.4468 92.3888 59.798 92.6575 60.1222C92.9261 60.4464 93.4362 60.6085 94.1879 60.6085C94.9667 60.6085 95.6657 60.3654 96.2564 59.8791C96.847 59.3927 97.1428 58.5281 97.1428 57.2853V56.9881H97.1157ZM90.3746 53.3946V50.8278C90.8576 50.6388 91.3144 50.4766 91.7711 50.3685C92.2278 50.2605 92.6575 50.1794 93.1142 50.0984C93.4091 50.0713 93.732 50.0443 94.0269 50.0173C94.3226 49.9903 94.6446 49.9903 94.9404 49.9903C96.686 49.9903 97.9215 50.2874 98.6732 50.8549C99.4257 51.4493 99.9087 52.0977 100.15 52.8002C100.258 53.1515 100.338 53.5027 100.365 53.8539C100.393 54.2051 100.419 54.5023 100.419 54.7726V62.6349H97.2496V60.7976H97.1962C96.9817 61.2569 96.686 61.6082 96.364 61.8784C96.0412 62.1486 95.692 62.3377 95.3158 62.4728C94.9404 62.6079 94.5641 62.716 94.215 62.743C93.8659 62.77 93.5702 62.797 93.3557 62.797C91.9321 62.797 90.8847 62.4728 90.2136 61.8514C89.5687 61.23 89.1662 60.5275 89.0315 59.771C89.0051 59.6358 88.9781 59.5278 88.9781 59.3927C88.9781 59.2846 88.9781 59.1496 88.9781 59.0145C88.9781 58.9874 88.9781 58.9604 88.9781 58.9064C88.9781 58.8793 88.9781 58.8523 88.9781 58.7983C89.0315 57.8257 89.4611 56.934 90.2941 56.0965C91.1262 55.2859 92.738 54.8807 95.1014 54.8807C95.2624 54.8807 95.4234 54.8807 95.5581 54.8807C95.7191 54.8807 95.8531 54.8807 96.0149 54.8807C96.1759 54.9076 96.3369 54.9076 96.4708 54.9076C96.6055 54.9076 96.7665 54.9076 96.9004 54.9076H97.1962L97.1691 54.3673C97.1428 53.6108 96.847 53.0704 96.3098 52.7462C95.7725 52.4219 95.1285 52.2328 94.4031 52.2328C93.8125 52.2328 93.1947 52.3139 92.577 52.4489C91.8516 52.6381 91.1533 52.9353 90.3746 53.3946ZM101.842 50.2065H104.797V52.9083H104.877C105.065 52.0707 105.441 51.3682 106.006 50.8278C106.596 50.2874 107.322 50.0173 108.181 50.0173C108.262 50.0173 108.342 50.0173 108.423 50.0173C108.503 50.0173 108.584 50.0443 108.664 50.0443C108.772 50.0443 108.879 50.0443 108.987 50.0713C109.094 50.0984 109.174 50.1254 109.255 50.1254L109.148 52.503C109.067 52.476 108.987 52.476 108.879 52.476C108.772 52.476 108.691 52.476 108.584 52.476C108.476 52.4489 108.395 52.4489 108.315 52.4489C108.234 52.4489 108.154 52.4489 108.073 52.4489C107.912 52.4489 107.724 52.476 107.509 52.503C107.295 52.53 107.053 52.6111 106.838 52.7192C106.381 52.9353 105.979 53.3405 105.63 53.935C105.253 54.5293 105.092 55.421 105.092 56.6368V62.6079H101.842V50.2065Z" fill="black"/>
<path fill-rule="evenodd" clip-rule="evenodd" d="M9.74889 74.8951C12.5152 74.8951 14.7712 77.1647 14.7712 79.9476C14.7712 82.7307 12.5152 85 9.74889 85C6.98257 85 4.72656 82.7307 4.72656 79.9476C4.72656 77.1647 6.98257 74.8951 9.74889 74.8951ZM43.6158 0C62.9262 0 78.557 15.7518 78.557 35.1509H71.8427C71.8427 19.4803 59.1929 6.75461 43.6158 6.75461C39.8021 6.75461 36.1494 7.51113 32.8192 8.9161V1.70217C36.2032 0.594407 39.8289 0 43.6158 0Z" fill="#F85B51"/>
</svg>
