<svg width="303" height="45" viewBox="0 0 303 45" fill="none" xmlns="http://www.w3.org/2000/svg">
<path d="M16.5729 26.5221C16.5729 27.7607 15.4629 28.6564 13.9307 28.6564C12.1093 28.6564 10.8129 27.3771 10.8129 25.5814V18.0064H21.6236V11.3743H10.8129V6.63429H3.60857V11.3743H0V18.0064H3.60857V25.5814C3.60857 31.3607 7.92643 35.5307 13.8429 35.5307C19.515 35.5307 23.5436 31.7443 23.5436 26.5329V24.87H16.5857V26.5221H16.575H16.5729ZM33.6214 15.3471V11.3614H26.4171V35.0507H33.6214V23.4471C33.6214 20.2714 36.12 17.9957 39.5271 17.9957H43.9457V11.1321H41.7814C38.3829 11.1321 35.5093 12.7179 33.6214 15.3471ZM46.1143 11.3721V17.9936H51.8743V35.0507H59.0893V11.3721H46.1143ZM54.7586 0C51.9729 0 49.9521 1.89429 49.9521 4.5C49.9521 7.10357 51.9707 8.99786 54.7586 8.99786C57.5443 8.99786 59.565 7.10357 59.565 4.49786C59.565 1.89429 57.5443 0 54.7586 0ZM78.6814 10.8921C75.66 10.8921 73.0414 12.0193 71.0871 13.935V11.3721H63.885V44.5286H71.0893V32.4879C73.0414 34.4036 75.6621 35.5307 78.6814 35.5307C85.1636 35.5307 89.8243 30.3664 89.8243 23.2179C89.8243 16.0586 85.1636 10.8921 78.6814 10.8921ZM76.86 28.6564C73.4957 28.6564 71.1 26.3807 71.1 23.2071C71.1 20.0314 73.4979 17.7557 76.86 17.7557C80.2243 17.7557 82.6221 20.0314 82.6221 23.205C82.6221 26.3807 80.2221 28.6564 76.86 28.6564ZM119.173 10.8921C115.83 10.8921 113.012 12.315 111.201 14.6464C109.393 12.3043 106.573 10.8921 103.232 10.8921C97.4164 10.8921 93.1971 15.0621 93.1971 20.8414V35.0486H100.401V21.1714C100.401 19.0929 101.889 17.5714 103.909 17.5714C106.074 17.5714 107.606 19.1357 107.606 21.315V35.0507H114.81V21.315C114.81 19.1357 116.342 17.5714 118.506 17.5714C120.527 17.5714 122.014 19.0821 122.014 21.1714V35.0529H129.219V20.8457C129.208 15.0643 124.989 10.8943 119.173 10.8943V10.8921ZM148.667 24.87C148.667 27.1907 146.936 28.8429 144.538 28.8429C142.185 28.8429 140.509 27.2357 140.509 25.0007V11.3721H133.305V25.3521C133.305 31.2729 137.246 35.5307 142.719 35.5307C143.823 35.5408 144.918 35.3323 145.941 34.9171C146.964 34.5018 147.895 33.8882 148.68 33.1114V35.0507C148.68 36.9879 146.803 38.3657 144.261 38.3657C142.097 38.3657 140.509 37.3693 140.509 36.0021H133.539C133.539 41.2136 138.101 45 144.439 45C151.022 45 155.871 40.83 155.871 35.0507V11.3721H148.667V24.87ZM177.971 13.9136C176.029 12.0193 173.432 10.9029 170.434 10.9029C163.952 10.9029 159.244 16.0671 159.244 23.2179C159.244 30.3643 163.952 35.5307 170.434 35.5307C173.432 35.5307 176.04 34.4164 177.971 32.5221V35.0614H185.175V1.89429H177.971V13.9136ZM172.2 28.6564C168.836 28.6564 166.438 26.3807 166.438 23.2071C166.438 20.0314 168.838 17.7557 172.2 17.7557C175.564 17.7557 177.96 20.0314 177.96 23.205C177.971 26.3807 175.562 28.6564 172.2 28.6564ZM196.701 15.3471V11.3614H189.497V35.0507H196.701V23.4471C196.701 20.2714 199.198 17.9957 202.605 17.9957H207.024V11.1321H204.859C201.463 11.1321 198.587 12.7179 196.701 15.3471ZM221.01 10.8921C213.906 10.8921 208.71 16.0029 208.71 23.25C208.71 30.54 213.994 35.52 221.777 35.52C228.591 35.52 233.454 31.7336 233.454 26.5221H226.249C226.249 27.8914 224.374 28.8879 221.732 28.8879C218.469 28.8879 216.06 27.3771 215.871 25.0993H233.642C233.687 24.4864 233.687 23.8736 233.687 23.8736C233.687 16.3436 228.358 10.8921 221.01 10.8921ZM215.826 21.0814C216.071 18.9043 218.368 17.295 221.254 17.295C224.085 17.295 226.35 18.9021 226.584 21.0814H215.826ZM254.822 13.9136C252.879 12.0193 250.281 10.9029 247.284 10.9029C240.801 10.9029 236.096 16.0671 236.096 23.2179C236.096 30.3643 240.801 35.5307 247.284 35.5307C250.281 35.5307 252.889 34.4164 254.822 32.5221V35.0614H262.026V11.3721H254.822V13.9136ZM249.06 28.6564C245.698 28.6564 243.3 26.3807 243.3 23.2071C243.3 20.0314 245.698 17.7557 249.06 17.7557C252.424 17.7557 254.822 20.0314 254.822 23.205C254.822 26.3807 252.424 28.6564 249.06 28.6564ZM292.097 10.8921C288.756 10.8921 285.936 12.315 284.128 14.6464C282.319 12.3043 279.499 10.8921 276.159 10.8921C270.341 10.8921 266.113 15.0621 266.113 20.8414V35.0486H273.315V21.1714C273.315 19.0929 274.804 17.5714 276.823 17.5714C278.989 17.5714 280.519 19.1357 280.519 21.315V35.0507H287.724V21.315C287.724 19.1357 289.256 17.5714 291.42 17.5714C293.441 17.5714 294.928 19.0821 294.928 21.1714V35.0529H302.132V20.8457C302.143 15.0643 297.915 10.8943 292.097 10.8943V10.8921Z" fill="#8F9BB3"/>
</svg>
