<svg width="96" height="96" viewBox="0 0 96 96" fill="none" xmlns="http://www.w3.org/2000/svg">
<path d="M48 96C21.12 96 13.8831 94.6412 7.62092 88.3791C1.32923 82.0726 0 74.88 0 48C0 21.12 1.35877 13.9274 7.62092 7.62092C13.8831 1.35877 21.12 0 48 0C74.88 0 82.1169 1.35877 88.3791 7.62092C94.6708 13.9274 96 21.12 96 48C96 74.88 94.6708 82.0726 88.3791 88.3791C82.1169 94.6412 74.88 96 48 96Z" fill="black"/>
<path d="M66.8318 47.9546C65.0004 47.9546 63.8041 46.7435 63.8041 44.9564C63.8041 43.1989 65.0152 42.0026 66.8318 42.0026H71.617V47.9546H66.8318ZM75.6195 38.5466H66.3592C62.4306 38.5466 59.7426 41.1164 59.7426 44.8087C59.7426 47.733 61.4115 49.9484 64.0552 50.7164L59.0041 58.4112H63.4792L68.0281 51.4106H71.6023V58.4112H75.6195V38.5466ZM25.5223 43.7601V37.7638H33.3057V54.7632H23.5432C24.5918 52.9318 25.5223 48.693 25.5223 43.7601ZM37.4263 33.9238H21.5494V43.9226C21.5494 49.018 20.6484 52.9909 19.4521 54.778H17.5469V63.8463H21.4755V58.485H36.3334V63.8463H40.262V54.778H37.4263V33.9238ZM49.4041 55.0438L49.0497 54.8075L53.6872 38.5466H44.3087L43.3044 42.165L48.7543 42.1207L45.2097 54.5269C44.5894 56.7866 46.1106 58.8838 48.5918 58.8838C49.3746 58.8838 50.1426 58.6918 50.9992 58.1454L57.3795 53.8327L55.43 50.9527L49.4041 55.0438ZM52.1217 34.81C54.1007 34.81 54.9278 34.0715 54.9278 32.314C54.9278 30.4826 54.0712 29.7441 52.1217 29.7441C50.1721 29.7441 49.3155 30.4826 49.3155 32.314C49.3303 34.0715 50.1426 34.81 52.1217 34.81Z" fill="white"/>
</svg>
