<svg width="339" height="33" viewBox="0 0 339 33" fill="none" xmlns="http://www.w3.org/2000/svg">
<path fill-rule="evenodd" clip-rule="evenodd" d="M53.8972 5.45977V27.31H68.5481V22.9821H59.345V5.45977H53.8972ZM84.194 27.31V11.5845H79.073V20.6908C79.073 22.8205 78.2244 23.9319 76.532 23.9319C74.9323 23.9319 74.2836 22.9821 74.2788 20.6908V11.5845H69.1578V20.8866C69.1578 23.4765 69.2553 24.064 69.9381 25.2439C70.855 26.8155 72.6498 27.7359 74.8689 27.7359C76.6637 27.7359 78.0927 27.1093 79.3656 25.7678L79.5314 27.31H84.194ZM95.4065 5.45977H92.6021C88.5883 5.45488 87.052 6.99707 87.052 11.1243V11.5845H84.8329V15.0557H87.052V27.31H92.1778V15.0557H95.2114V11.5845H92.1778V11.1243C92.1778 9.38625 92.6656 8.93094 94.5579 8.93094H95.4065V5.45977ZM98.1475 6.66905V11.5845H95.9918V15.0557H98.1475V22.6883C98.1523 25.9 99.5228 27.3051 102.552 27.31H106.404V23.7066H105.395C103.434 23.7017 103.307 23.5745 103.273 21.2832V15.0557H106.175V11.5845H103.273V6.66905H98.1475ZM107.551 5.45977V27.31H112.672V18.3946C112.672 16.2356 113.52 15.1193 115.217 15.1193C116.783 15.1193 117.466 16.1376 117.466 18.3946V27.31H122.562V18.2037C122.562 15.5795 122.465 14.9235 121.777 13.7142C120.831 12.0447 119.1 11.1243 116.949 11.1243C114.954 11.1243 113.618 11.8146 112.672 13.3568V5.45977H107.551ZM140.818 11.5845V27.31H145.943V18.3946C145.943 16.2356 146.787 15.1193 148.45 15.1193C150.05 15.1193 150.703 16.0691 150.703 18.3946V27.31H155.829V18.2037C155.829 15.6138 155.698 14.9235 155.044 13.7142C154.132 12.0741 152.367 11.1243 150.182 11.1243C148.289 11.1243 146.855 11.8146 145.646 13.3568L145.485 11.5845H140.818ZM171.48 16.495C171.348 14.7619 171.28 14.4975 170.827 13.7142C169.783 11.8146 167.759 10.9284 164.491 10.9284C159.829 10.9284 156.985 12.9896 156.985 16.3971C156.985 18.8891 158.59 20.2306 162.306 20.8866L163.94 21.151C165.93 21.5084 166.778 22.0323 166.778 22.9527C166.778 23.8339 165.866 24.3921 164.364 24.3921C162.633 24.3921 161.555 23.5745 161.555 22.2624V22.0665H156.566C156.566 25.8657 159.438 27.9611 164.691 27.9611C169.129 27.9611 171.968 25.8314 171.968 22.4925C171.968 19.7704 170.241 18.2037 166.52 17.577L164.759 17.249C163.057 16.9895 162.306 16.5293 162.306 15.7754C162.306 14.9577 163.091 14.4682 164.364 14.4682C165.93 14.4682 166.549 15.0263 166.681 16.495H171.48ZM129 16.5979H124.338C124.338 13.0288 127.113 10.9284 131.746 10.9284C136.604 10.9284 139.023 12.9602 139.023 17.0874V25.1118C139.023 26.4875 139.023 26.4875 139.447 27.31H134.711L134.419 25.9979C132.79 27.4373 131.385 27.9611 129.327 27.9611C125.874 27.9611 123.362 25.9 123.357 23.0506C123.362 20.6908 124.894 19.0164 127.893 18.1694C128.352 18.0372 129.849 17.7435 132.429 17.249C133.536 17.0189 133.96 16.6615 133.96 15.9075C133.96 15.0263 133.048 14.4339 131.678 14.4339C130.015 14.4339 129.034 15.2221 129 16.5979ZM134.092 20.8866V19.7753C133.438 19.9711 133.243 20.0347 132.721 20.2012C132.102 20.3628 131.546 20.495 130.863 20.6271C129.2 21.0531 128.381 21.7042 128.381 22.7226C128.381 23.736 129.166 24.3284 130.439 24.3284C132.917 24.3284 134.092 23.2122 134.092 20.8866ZM178.523 16.5979H173.826C173.865 13.0581 176.63 10.9284 181.298 10.9284C186.16 10.9284 188.54 12.9602 188.54 17.0874V25.1118C188.54 26.4532 188.54 26.4532 188.965 27.31H184.2L183.941 25.9979C182.049 27.5352 180.937 27.9611 178.849 27.9611C175.362 27.9611 172.851 25.9 172.851 23.0506C172.851 20.6908 174.382 19.0164 177.381 18.1694C177.835 18.0372 179.342 17.7092 181.912 17.249C182.995 17.0189 183.453 16.6615 183.453 15.9075C183.453 15.0263 182.536 14.4339 181.2 14.4339C179.537 14.4339 178.523 15.2515 178.523 16.5979ZM183.614 20.8866V19.7753C182.961 19.9711 182.732 20.0347 182.21 20.2012C181.659 20.2991 181.034 20.4264 180.352 20.6271C178.688 21.0531 177.869 21.7042 177.869 22.7226C177.869 23.736 178.654 24.3284 179.956 24.3284C182.439 24.3284 183.614 23.2122 183.614 20.8866ZM5.46239 12.6371L5.07222 13.5184C4.22848 13.2246 3.31645 12.9602 2.89214 12.8966L2.66291 13.7142C4.42356 14.2381 6.60364 15.2809 9.26655 16.8182C16.0019 20.8328 17.3041 21.3517 24.6539 23.2807L25.9902 21.9392C25.405 21.9784 25.2733 21.9784 25.0441 21.9784C22.2787 21.9784 19.1915 20.7006 17.3333 18.8402C19.3525 17.6994 21.3716 17.2392 24.4588 17.2392C24.8831 17.2392 25.244 17.2392 26.3463 17.3078L26.7852 16.7839C25.9756 16.7203 25.7318 16.7105 25.0148 16.7105C23.1957 16.7105 22.0056 16.73 20.3425 16.8965L20.7571 16.0936C21.6691 15.9614 23.4005 15.9026 24.8002 15.9026C25.683 15.9026 26.8389 15.9467 27.4241 15.981L27.8582 15.4326C27.0144 15.3935 25.6927 15.3298 24.4881 15.3298C23.2249 15.3298 21.9227 15.3641 21.0448 15.4326L21.4594 14.5857C22.469 14.5563 23.0396 14.5318 23.8833 14.5318C25.4147 14.5318 26.4146 14.5759 28.463 14.6444L28.8775 14.1254C27.746 14.0275 26.3853 13.9884 24.6247 13.9884C23.5858 13.9884 23.0249 13.9835 21.6935 14.052L22.0593 13.2295C22.5811 13.2001 23.6053 13.1561 25.2002 13.1561C26.5316 13.1561 28.4191 13.3176 29.4335 13.4498L29.892 12.8966C27.707 12.6371 26.0195 12.5392 24.0687 12.5392C21.7959 12.5392 19.8743 12.6665 18.377 12.9651C17.5333 15.3788 15.7092 16.7496 13.3048 16.7496C12.1002 16.7496 11.4174 16.5195 9.33483 15.4424L8.74958 15.1193L9.03733 14.5367C10.4712 15.1878 11.5978 15.653 12.5294 16.0055L12.6854 15.7068L5.46239 12.6371ZM16.5237 0.000888824C25.3074 0.000888824 32.5207 7.41322 32.5207 16.358C32.5207 25.4006 25.2733 32.6465 16.2311 32.6465C7.28644 32.6465 0 25.3712 0 16.3922C0 7.21739 7.28644 0.000888824 16.5237 0.000888824ZM16.1336 1.60184C8.16432 1.60184 1.58994 8.2602 1.58994 16.358C1.58994 24.4557 8.16432 31.0455 16.2311 31.0455C24.3613 31.0455 30.9357 24.49 30.9357 16.3922C30.9357 8.09864 24.4296 1.60184 16.1336 1.60184Z" fill="#FDB813"/>
<path fill-rule="evenodd" clip-rule="evenodd" d="M219.336 19.4499H217.199C217.199 19.4499 216.96 21.0166 216.536 21.9174C216.263 22.4902 216.063 22.8036 215.668 23.3078C215.327 23.7485 215.117 23.9933 214.688 24.3506C213.937 24.9871 213.405 25.2466 212.469 25.5403C211.864 25.7313 211.508 25.7802 210.879 25.8292C210.093 25.8928 209.635 25.8928 208.86 25.746C208.377 25.6529 208.108 25.5697 207.645 25.3935C206.996 25.1536 206.626 24.9871 206.06 24.5857C205.402 24.1205 205.08 23.7729 204.587 23.1316C203.904 22.2307 203.675 21.5992 203.319 20.527C202.924 19.3226 202.851 18.5931 202.768 17.33C202.685 16.0081 202.709 15.2395 202.944 13.9372C203.07 13.2468 203.148 12.8552 203.373 12.1991C203.602 11.5333 203.743 11.1514 204.099 10.5443C204.607 9.66796 204.972 9.19796 205.743 8.54192C206.489 7.90545 206.987 7.59702 207.908 7.2641C208.313 7.11722 208.547 7.05358 208.972 6.97524C209.694 6.83816 210.118 6.84305 210.849 6.88712C211.542 6.93118 211.942 6.98993 212.61 7.17597C213.108 7.31795 213.39 7.40608 213.849 7.64108C214.576 8.01316 214.951 8.31671 215.492 8.9189C216.009 9.48192 216.258 9.86869 216.565 10.5688C216.721 10.9311 216.882 11.5333 216.882 11.5333L219.019 11.5431C219.019 11.5431 218.784 10.5003 218.526 9.87848C218.243 9.18327 218.048 8.7916 217.604 8.19431C217.19 7.63618 216.897 7.35712 216.361 6.91649C215.912 6.54441 215.634 6.35347 215.117 6.0744C214.38 5.67294 213.917 5.52607 213.098 5.32044C212.473 5.16377 212.103 5.11481 211.454 5.06096C210.703 4.99731 210.274 4.99242 209.523 5.06096C208.679 5.1344 208.196 5.21763 207.387 5.46732C206.64 5.69742 206.216 5.85409 205.538 6.25065C205.085 6.51503 204.851 6.69618 204.446 7.0291C203.461 7.84181 202.973 8.40973 202.305 9.50151C201.963 10.0596 201.802 10.3974 201.558 11.0094C201.261 11.7487 201.149 12.1942 200.978 12.9776C200.812 13.7609 200.763 14.2113 200.69 15.0093C200.603 15.9983 200.578 16.5662 200.632 17.565C200.685 18.3924 200.734 18.8673 200.895 19.68C201.032 20.3801 201.12 20.7816 201.354 21.4523C201.578 22.0839 201.729 22.4315 202.051 23.019C202.373 23.6114 202.578 23.9394 202.997 24.4682C203.339 24.8892 203.548 25.1242 203.953 25.4865C204.494 25.9712 204.846 26.2013 205.485 26.5587C206.162 26.9406 206.582 27.1168 207.328 27.342C207.948 27.5232 208.308 27.5868 208.942 27.6603C209.615 27.7386 210.001 27.7484 210.679 27.719C211.405 27.6847 211.815 27.6456 212.522 27.484C213.195 27.3322 213.571 27.2147 214.2 26.9357C214.893 26.6223 215.268 26.402 215.868 25.9467C216.292 25.6285 216.522 25.4326 216.882 25.0508C217.477 24.4143 217.746 23.9884 218.15 23.2246C218.555 22.4608 218.711 21.9859 218.96 21.1634C219.145 20.5368 219.326 20.1843 219.336 19.538V19.4499ZM232.753 25.3935C232.753 25.3935 231.806 25.7656 231.221 25.6285C230.982 25.5697 230.812 25.5697 230.641 25.3935C230.436 25.1781 230.48 24.6395 230.475 24.6395L230.47 12.9776H232.923V11.4696H230.47V6.82837H228.48V11.4696H226.227V12.9776H228.48L228.485 24.1401C228.485 24.1401 228.256 26.3677 229.202 27.0483C229.636 27.3616 229.973 27.4008 230.499 27.484C231.367 27.626 232.382 27.4693 232.743 27.2245C232.684 27.2245 232.753 25.3935 232.753 25.3935ZM236.269 32.6785C236.269 32.6785 237.274 32.9331 237.913 32.8792C238.581 32.8303 238.986 32.7373 239.561 32.3897C240.102 32.0567 240.337 31.7434 240.712 31.2293C241.229 30.5243 241.639 29.1976 241.639 29.1976L248.555 11.4696H246.54L242.443 22.3482L241.78 24.238L241.639 25.511L239.888 20.336L236.786 11.4696H234.625L240.566 26.7888L240.02 28.2673C240.02 28.2673 239.678 29.3444 239.268 29.9221C239.02 30.2795 238.898 30.5341 238.517 30.7642C238.264 30.9209 238.093 30.965 237.796 31.0237C237.269 31.1314 236.415 30.9356 236.415 30.9356L236.269 32.6785ZM272.282 19.4499C272.282 19.4499 272.043 21.0166 271.618 21.9174C271.345 22.4902 271.15 22.8036 270.755 23.3078C270.409 23.7485 270.199 23.9933 269.775 24.3506C269.019 24.9871 268.492 25.2466 267.551 25.5403C266.951 25.7313 266.59 25.7802 265.961 25.8292C265.176 25.8928 264.717 25.8928 263.942 25.746C263.459 25.6529 263.191 25.5697 262.732 25.3935C262.079 25.1536 261.713 24.9871 261.147 24.5857C260.489 24.1205 260.162 23.7729 259.674 23.1316C258.987 22.2307 258.757 21.5992 258.401 20.527C258.006 19.3226 257.933 18.5931 257.85 17.33C257.772 16.0081 257.797 15.2395 258.031 13.9372C258.153 13.2468 258.236 12.8552 258.46 12.1991C258.689 11.5333 258.831 11.1514 259.182 10.5443C259.689 9.66796 260.06 9.19796 260.825 8.54192C261.576 7.90545 262.069 7.59702 262.991 7.2641C263.396 7.11722 263.635 7.05358 264.059 6.97524C264.781 6.83816 265.205 6.84305 265.932 6.88712C266.629 6.93118 267.024 6.98993 267.692 7.17597C268.19 7.31795 268.478 7.40608 268.936 7.64108C269.658 8.01316 270.033 8.31671 270.58 8.9189C271.097 9.48192 271.345 9.86869 271.648 10.5688C271.804 10.9311 271.965 11.5333 271.965 11.5333L274.155 11.4892C274.155 11.4892 273.877 10.4856 273.613 9.87848C273.316 9.18817 273.135 8.7916 272.687 8.19431C272.272 7.63618 271.984 7.35712 271.443 6.91649C270.994 6.54441 270.721 6.35347 270.204 6.0744C269.468 5.67294 269.004 5.52607 268.185 5.32044C267.556 5.16377 267.19 5.11481 266.541 5.06096C265.79 4.99731 265.356 4.99242 264.61 5.06096C263.761 5.1344 263.283 5.21763 262.469 5.46732C261.728 5.69742 261.298 5.85409 260.625 6.25065C260.172 6.51503 259.933 6.69618 259.528 7.0291C258.548 7.84181 258.055 8.40973 257.392 9.50151C257.05 10.0596 256.89 10.3974 256.641 11.0094C256.343 11.7487 256.236 12.1942 256.065 12.9776C255.895 13.7609 255.846 14.2113 255.778 15.0093C255.69 15.9983 255.66 16.5662 255.719 17.565C255.768 18.3924 255.817 18.8673 255.982 19.68C256.114 20.3801 256.202 20.7816 256.441 21.4523C256.66 22.0839 256.816 22.4315 257.133 23.019C257.455 23.6114 257.665 23.9394 258.084 24.4682C258.426 24.8892 258.631 25.1242 259.04 25.4865C259.582 25.9712 259.933 26.2013 260.567 26.5587C261.25 26.9406 261.664 27.1168 262.415 27.342C263.03 27.5232 263.391 27.5868 264.03 27.6603C264.703 27.7386 265.088 27.7484 265.761 27.719C266.488 27.6847 266.902 27.6456 267.609 27.484C268.278 27.3322 268.653 27.2147 269.282 26.9357C269.975 26.6223 270.35 26.402 270.955 25.9467C271.375 25.6285 271.604 25.4326 271.965 25.0508C272.56 24.4143 272.828 23.9884 273.238 23.2246C273.642 22.4608 273.794 21.9859 274.042 21.1634C274.242 20.4927 274.447 19.4156 274.447 19.4156L272.282 19.4499ZM304.52 27.2098V17.609C304.52 17.6042 304.588 16.0326 304.403 15.0534C304.281 14.4169 304.242 14.0302 303.939 13.4574C303.637 12.8748 303.378 12.5663 302.876 12.1551C302.452 11.8075 302.169 11.6606 301.657 11.455C300.94 11.1612 300.476 11.1318 299.696 11.078C299.023 11.029 298.633 11.0143 297.965 11.1367C297.555 11.2102 297.321 11.2738 296.926 11.4256C296.253 11.69 295.868 11.8858 295.341 12.3852C294.824 12.8748 294.302 13.8931 294.302 13.8931L294.273 11.4256H292.4V27.2098H294.361V18.6225L294.443 16.4438C294.448 16.4438 294.756 15.2443 295.195 14.6177C295.643 13.991 295.994 13.6777 296.667 13.3105C297.17 13.0412 297.497 12.9531 298.053 12.8503C298.721 12.723 299.126 12.6838 299.784 12.8209C300.501 12.9629 300.954 13.1 301.486 13.6042C301.881 13.9763 302.027 14.2701 302.237 14.7646C302.618 15.6507 302.5 17.2272 302.5 17.2272V27.2098H304.52ZM313.264 27.1658V25.3935C313.264 25.3935 312.323 25.7656 311.733 25.6285C311.499 25.5697 311.338 25.5599 311.157 25.3935C311.001 25.2466 310.977 25.1046 310.899 24.9039C310.684 24.3311 310.87 23.3372 310.87 23.3372L310.987 12.9776H313.44V11.4696H310.987V6.82837H308.992V11.4696H306.744V12.9776H308.992L308.88 24.1793L309.021 26.0936C309.021 26.0936 309.353 26.7692 309.714 27.0483C310.138 27.3763 310.489 27.4057 311.016 27.484C311.845 27.6113 313.152 27.2245 313.152 27.2245L313.294 27.1951L313.264 27.1658ZM333.953 27.2098V20.1304L334.124 17.2272C334.124 17.2272 334.407 15.8808 334.875 15.1709C335.348 14.4659 335.724 14.0938 336.465 13.6875C336.806 13.5014 337.011 13.4182 337.387 13.3105C337.943 13.1587 338.86 13.1685 338.86 13.1685L339.001 11.2542C339.001 11.2542 337.918 11.1367 337.24 11.2836C336.597 11.4207 336.236 11.5822 335.685 11.9494C335.26 12.2334 335.026 12.4194 334.704 12.8209C334.221 13.4133 333.87 14.5883 333.865 14.5883V11.4256H332.046V27.2098H333.953ZM288.162 22.3189H290.103C290.103 22.3189 289.576 24.0324 288.908 24.9284C288.323 25.7215 287.893 26.1278 287.059 26.6419C286.245 27.156 285.699 27.3518 284.753 27.5428C283.66 27.7631 282.987 27.7729 281.895 27.5428C281.1 27.3714 280.646 27.2 279.934 26.7888C279.1 26.3041 278.651 25.9271 278.056 25.1634C277.569 24.5318 277.373 24.1059 277.076 23.3666C276.627 22.2405 276.564 21.5257 276.471 20.3214C276.369 18.9407 276.383 18.128 276.705 16.7817C276.871 16.0864 276.978 15.685 277.281 15.0387C277.52 14.5296 277.671 14.2456 277.998 13.7903C278.334 13.335 278.559 13.0951 278.983 12.7181C279.407 12.3411 279.671 12.1502 280.168 11.876C280.7 11.5822 281.022 11.4501 281.607 11.2983C282.095 11.1661 282.377 11.1318 282.88 11.0927C283.372 11.0535 283.655 11.0486 284.148 11.0927C284.894 11.1612 285.328 11.2542 286.026 11.5333C286.572 11.7487 286.874 11.9054 287.352 12.253C287.781 12.5663 288.015 12.7719 288.362 13.1832C288.708 13.5944 288.864 13.8637 289.113 14.3435C289.401 14.8918 289.513 15.2297 289.688 15.8221C289.883 16.4732 289.947 16.86 290.035 17.5356C290.152 18.4267 290.132 19.8367 290.132 19.8416L278.373 19.8269C278.378 19.8269 278.422 21.1243 278.637 21.9174C278.837 22.6371 278.973 23.0581 279.388 23.6848C279.778 24.2723 280.061 24.5759 280.627 24.992C281.202 25.4082 281.582 25.604 282.27 25.7704C282.938 25.9369 283.353 25.9369 284.031 25.8635C284.792 25.7704 285.24 25.6481 285.908 25.2809C286.601 24.8941 286.977 24.5905 287.44 23.9443C287.845 23.3813 288.162 22.3189 288.162 22.3189ZM278.403 18.1133L288.24 18.1231C288.24 18.1231 288.074 16.5662 287.669 15.6801C287.357 14.9898 287.142 14.5834 286.601 14.0547C286.182 13.6385 285.894 13.4329 285.357 13.1832C284.65 12.8503 284.182 12.767 283.397 12.7768C282.636 12.7866 282.182 12.8894 281.49 13.2126C280.744 13.5602 280.358 13.8833 279.822 14.5149C279.29 15.1366 279.09 15.5773 278.807 16.3459C278.564 17.0069 278.403 18.1133 278.403 18.1133ZM326.901 22.3189H328.881C328.881 22.3189 328.325 24.0324 327.652 24.9284C327.062 25.7166 326.637 26.1278 325.803 26.6419C324.984 27.156 324.443 27.3518 323.497 27.5428C322.404 27.7631 321.731 27.7729 320.639 27.5428C319.839 27.3714 319.385 27.2 318.673 26.7888C317.839 26.3041 317.395 25.9271 316.8 25.1634C316.313 24.5318 316.117 24.1059 315.82 23.3666C315.371 22.2405 315.303 21.5257 315.215 20.3214C315.113 18.9407 315.123 18.128 315.444 16.7817C315.61 16.0864 315.722 15.685 316.02 15.0387C316.259 14.5296 316.415 14.2456 316.742 13.7903C317.078 13.335 317.303 13.0951 317.722 12.7181C318.151 12.3411 318.41 12.1502 318.907 11.876C319.439 11.5822 319.766 11.4501 320.351 11.2983C320.834 11.1661 321.121 11.1318 321.619 11.0927C322.116 11.0535 322.394 11.0486 322.887 11.0927C323.638 11.1612 324.067 11.2542 324.765 11.5333C325.316 11.7487 325.613 11.9054 326.091 12.253C326.525 12.5663 326.759 12.7719 327.106 13.1832C327.452 13.5944 327.608 13.8637 327.852 14.3435C328.14 14.8918 328.252 15.2297 328.427 15.8221C328.622 16.4732 328.696 16.8551 328.774 17.5356C328.886 18.4218 328.817 19.8318 328.817 19.8318L317.117 19.8269C317.117 19.8269 317.161 21.1243 317.376 21.9174C317.576 22.6371 317.717 23.0581 318.127 23.6848C318.517 24.2723 318.8 24.5759 319.37 24.992C319.946 25.4082 320.326 25.604 321.014 25.7704C321.682 25.9369 322.092 25.9369 322.775 25.8635C323.536 25.7704 323.979 25.6481 324.648 25.2809C325.34 24.8941 325.721 24.5905 326.179 23.9443C326.584 23.3813 326.901 22.3189 326.901 22.3189ZM317.147 18.1133L326.935 18.1182C326.935 18.1133 326.808 16.5662 326.408 15.6801C326.101 14.9849 325.886 14.5834 325.34 14.0547C324.921 13.6385 324.638 13.4329 324.101 13.1832C323.389 12.8503 322.921 12.767 322.141 12.7768C321.375 12.7866 320.926 12.8894 320.234 13.2126C319.483 13.5602 319.097 13.8833 318.561 14.5149C318.034 15.1366 317.834 15.5773 317.551 16.3459C317.307 17.0069 317.147 18.1133 317.147 18.1133ZM221.76 5.37919H223.72V8.04704H221.76V5.37919ZM221.73 11.4696H223.72V27.2475H221.73V11.4696Z" fill="#005AAA"/>
</svg>
