<svg width="318" height="40" viewBox="0 0 318 40" fill="none" xmlns="http://www.w3.org/2000/svg">
<path fill-rule="evenodd" clip-rule="evenodd" d="M149.338 2.22495L139.609 28.8618L130.757 3.31127C127.733 4.40812 123.448 4.40916 120.686 3.6018L134.425 38.8817H144.275L159.396 2.59864C156.619 1.88706 152.678 1.55548 149.338 2.22495Z" fill="#00AEEF"/>
<path fill-rule="evenodd" clip-rule="evenodd" d="M252.573 31.3411L252.58 27.2865H266.191L269.227 19.1211H243.086V38.8821H272.272V31.3411H252.573Z" fill="#00AEEF"/>
<path fill-rule="evenodd" clip-rule="evenodd" d="M11.6308 4.21229C7.0784 6.01965 2.90425 5.67861 0 5.13019V13.4007C5.11546 14.2997 10.1781 13.0965 14.553 11.5807C23.6704 8.42175 29.3268 11.0544 31.219 11.5807V3.11544C27.3036 1.92177 20.7229 0.601763 11.6308 4.21229Z" fill="#00AEEF"/>
<path fill-rule="evenodd" clip-rule="evenodd" d="M0 38.8823H9.28751L9.30968 29.0179H27.6998V20.9844H0V38.8823Z" fill="#00AEEF"/>
<path fill-rule="evenodd" clip-rule="evenodd" d="M178.722 2.54822C174.68 4.00716 171.149 4.60927 167.591 3.95137V11.9293C172.8 13.9303 178.479 9.74085 181.758 10.443C182.792 13.2503 185.871 20.9924 185.871 20.9924H161.1L161.096 29.0187H166.549L162.304 38.883H172.051L175.941 29.0187H188.977L192.786 38.883H202.895L186.953 1.05664C185.454 1.19348 182.661 1.12717 178.722 2.54822Z" fill="#00AEEF"/>
<path fill-rule="evenodd" clip-rule="evenodd" d="M219.664 3.65579C214.311 5.53685 209.218 6.12947 201.971 3.04633V11.6474C206.005 13.1916 211.558 13.6411 214.251 13.1958V38.8832H223.737V11.1821C227.347 9.91474 230.868 9.49264 234.985 10.8084V2.18737C233.484 1.88316 231.648 1.66211 229.53 1.66211C227.34 1.66211 223.598 2.27368 219.664 3.65579Z" fill="#00AEEF"/>
<path fill-rule="evenodd" clip-rule="evenodd" d="M255.456 3.96666C249.286 6.05191 245.899 4.99507 243.086 4.2277V12.4067C248.418 13.3088 250.985 13.394 258.318 11.2909C264.745 9.44876 267.908 9.59401 272.272 10.6119V2.45401C268.58 2.10349 264.786 0.811913 255.456 3.96666Z" fill="#00AEEF"/>
<path fill-rule="evenodd" clip-rule="evenodd" d="M116.97 15.8997C116.97 10.944 113.827 5.65342 107.813 3.13658C101.474 0.482898 95.6204 2.08396 90.0898 3.7871C84.7175 5.44079 80.6977 4.86185 78.4336 4.40816V12.2376C85.4709 13.5513 91.4526 11.5955 96.3366 10.1787C103.6 8.07342 107.939 12.0871 107.939 15.8229C107.939 19.9672 103.809 21.124 101.875 21.124H79.3252L82.1101 29.1492H85.493V39.0134H94.9801V29.1492H102.106L107.318 39.0134H118.048L110.785 27.0324C113.581 25.3292 116.97 22.1282 116.97 15.8997Z" fill="#00AEEF"/>
<path fill-rule="evenodd" clip-rule="evenodd" d="M310.219 25.3297C315.412 22.9614 316.809 17.896 316.809 14.3276C316.809 9.93499 313.894 1.22656 302.123 1.22656C293.667 1.22656 290.237 5.61287 279.857 4.12131V12.2792C286.275 13.4487 290.626 12.3687 295.039 10.8771C297.897 9.91077 308.005 8.15604 308.005 14.8487C308.005 18.2191 304.507 19.1214 301.724 19.1214L280.232 19.1139V27.2866H284.302V38.8824H293.788V27.2866H301.253L307.167 38.8824H317.898L310.219 25.3297Z" fill="#00AEEF"/>
<path fill-rule="evenodd" clip-rule="evenodd" d="M50.2492 3.14008C45.2266 5.20641 40.014 5.46114 40.014 5.46114V13.7106C47.9376 13.7106 55.8769 8.85904 56.8606 10.9127L60.7061 20.9927H36.8848V29.0179H41.436L37.1857 38.8843H46.9308L50.826 29.0179H63.8566L67.6663 38.8843H77.7757L62.0024 1.31588C57.9086 0.734826 55.3994 1.02114 50.2492 3.14008Z" fill="#00AEEF"/>
</svg>
