<svg width="308" height="89" viewBox="0 0 308 89" fill="none" xmlns="http://www.w3.org/2000/svg">
<path d="M105.615 26.82V33.3225C108.045 29.25 111.78 26.3475 117.338 26.3475C118.013 26.3475 118.552 26.3925 119.092 26.505V37.4625H117.338C109.755 37.4625 105.615 41.3775 105.615 50.1975V60.84H94.77V26.82H105.615ZM20.3175 60.9075L26.4825 42.48L32.58 60.9075H41.985L52.8975 26.8425H42.255L36.6975 45.2025L30.2625 26.8425H22.6125L16.2 45.1125L10.6425 26.82H0L10.9125 60.885H20.3175V60.9075ZM146.723 41.0625L159.255 26.8425H146.588L134.325 40.455V8.6625H123.48V60.8175H134.325V55.0575L139.478 49.23L148.545 60.8175H161.887L146.723 41.0625ZM90.3825 43.83C90.3825 54.6075 81.855 61.785 71.7525 61.785C61.4475 61.785 52.92 54.6075 52.92 43.83C52.92 33.12 61.4475 25.9425 71.7525 25.9425C81.855 25.9425 90.3825 33.12 90.3825 43.83ZM79.9425 43.83C79.9425 38.5425 75.9375 35.0325 71.7525 35.0325C67.3425 35.0325 63.36 38.5425 63.36 43.83C63.36 49.185 67.365 52.6275 71.7525 52.6275C75.96 52.6275 79.9425 49.185 79.9425 43.83ZM71.6625 9.99C80.37 9.99 88.5825 13.365 94.77 19.485L101.79 12.375C93.7125 4.3875 83.0025 0 71.6625 0C60.3225 0 49.6125 4.3875 41.535 12.3975L48.555 19.5075C54.7425 13.365 62.955 9.99 71.6625 9.99ZM260.955 33.21V26.7075H250.11V60.705H260.955V50.0625C260.955 41.265 265.095 37.3275 272.677 37.3275H274.432V26.37C273.893 26.28 273.353 26.2125 272.677 26.2125C267.098 26.235 263.385 29.16 260.955 33.21ZM305.415 50.6925C303.997 51.5025 301.972 52.0425 300.465 52.0425C297.63 52.0425 295.92 50.625 295.92 47.0925V35.3025H305.955V26.7075H295.92V15.3225H285.075V26.7075H278.91V35.3025H285.075V48.1725C285.075 57.105 290.16 61.7175 298.62 61.7175C302.49 61.7175 305.257 60.6375 307.89 59.22L305.415 50.6925ZM204.84 43.7175C204.84 33.0075 197.258 25.695 188.235 25.695C183.825 25.695 180.315 27.045 177.66 29.43V26.7075H166.815V76.9725H177.66V58.005C180.292 60.39 183.825 61.74 188.235 61.74C197.258 61.7175 204.84 54.4725 204.84 43.7175ZM177.682 43.7175C177.682 38.4975 181.62 34.92 186.007 34.92C190.755 34.92 194.197 38.52 194.197 43.7175C194.197 49.005 190.755 52.515 186.007 52.515C181.62 52.515 177.682 49.005 177.682 43.7175ZM227.048 25.83C216.743 25.83 208.215 33.0075 208.215 43.7175C208.215 54.495 216.743 61.6725 227.048 61.6725C237.15 61.6725 245.678 54.495 245.678 43.7175C245.678 33.0075 237.128 25.83 227.048 25.83ZM227.048 52.515C222.638 52.515 218.655 49.0725 218.655 43.7175C218.655 38.43 222.66 34.92 227.048 34.92C231.255 34.92 235.238 38.43 235.238 43.7175C235.238 49.0725 231.233 52.515 227.048 52.515ZM206.257 78.0525C200.475 78.0525 195.007 75.8025 190.89 71.73L183.87 78.84C189.878 84.78 197.82 88.065 206.257 88.065C214.695 88.065 222.66 84.8025 228.667 78.84L221.648 71.73C217.508 75.8025 212.04 78.0525 206.257 78.0525Z" fill="#8F9BB3"/>
</svg>
