<svg width="385" height="49" viewBox="0 0 385 49" fill="none" xmlns="http://www.w3.org/2000/svg">
<path fill-rule="evenodd" clip-rule="evenodd" d="M180.802 2.72577L169.023 35.3559L158.306 4.05651C154.646 5.40015 149.458 5.40143 146.113 4.41242L162.747 47.6304H174.672L192.979 3.18354C189.617 2.31185 184.846 1.90567 180.802 2.72577Z" fill="#8F9BB3"/>
<path fill-rule="evenodd" clip-rule="evenodd" d="M305.788 38.3935L305.796 33.4266H322.275L325.95 23.424H294.302V47.6313H329.637V38.3935H305.788Z" fill="#8F9BB3"/>
<path fill-rule="evenodd" clip-rule="evenodd" d="M14.0813 5.16008C8.56976 7.3741 3.51616 6.95632 0 6.28451V16.4159C6.19325 17.5171 12.3226 16.0432 17.6192 14.1864C28.6576 10.3167 35.5057 13.5417 37.7966 14.1864V3.81644C33.0562 2.35419 25.089 0.737184 14.0813 5.16008Z" fill="#8F9BB3"/>
<path fill-rule="evenodd" clip-rule="evenodd" d="M0.000488281 47.6317H11.2448L11.2716 35.5478H33.5364V25.7067H0.000488281V47.6317Z" fill="#8F9BB3"/>
<path fill-rule="evenodd" clip-rule="evenodd" d="M216.376 3.12113C211.483 4.90833 207.208 5.64591 202.9 4.83999V14.6129C209.207 17.0642 216.083 11.9321 220.052 12.7922C221.305 16.2312 225.031 25.7153 225.031 25.7153H195.042L195.037 35.5474H201.639L196.5 47.6313H208.301L213.009 35.5474H228.792L233.403 47.6313H245.643L226.342 1.29395C224.527 1.46158 221.145 1.38034 216.376 3.12113Z" fill="#8F9BB3"/>
<path fill-rule="evenodd" clip-rule="evenodd" d="M265.946 4.47735C259.464 6.78165 253.298 7.50762 244.524 3.73076V14.267C249.408 16.1587 256.131 16.7093 259.392 16.1639V47.6309H270.876V13.6971C275.247 12.1446 279.51 11.6275 284.494 13.2393V2.67854C282.677 2.30588 280.454 2.0351 277.889 2.0351C275.239 2.0351 270.708 2.78427 265.946 4.47735Z" fill="#8F9BB3"/>
<path fill-rule="evenodd" clip-rule="evenodd" d="M309.278 4.8598C301.808 7.41423 297.707 6.11961 294.302 5.17957V15.1988C300.757 16.3039 303.865 16.4083 312.743 13.832C320.524 11.5754 324.353 11.7533 329.637 13.0002V3.00681C325.168 2.57742 320.573 0.995234 309.278 4.8598Z" fill="#8F9BB3"/>
<path fill-rule="evenodd" clip-rule="evenodd" d="M141.615 19.478C141.615 13.4071 137.81 6.92621 130.529 3.84309C122.855 0.592325 115.767 2.55362 109.072 4.63998C102.567 6.66574 97.7006 5.95654 94.9595 5.40078V14.9919C103.479 16.6011 110.722 14.2053 116.635 12.4697C125.428 9.89071 130.681 14.8075 130.681 19.3838C130.681 24.4605 125.681 25.8777 123.34 25.8777H96.039L99.4106 35.7086H103.506V47.7922H114.992V35.7086H123.62L129.929 47.7922H142.921L134.127 33.1154C137.512 31.0291 141.615 27.1078 141.615 19.478Z" fill="#8F9BB3"/>
<path fill-rule="evenodd" clip-rule="evenodd" d="M375.579 31.0284C381.867 28.1272 383.558 21.9221 383.558 17.5509C383.558 12.1699 380.029 1.50208 365.778 1.50208C355.54 1.50208 351.388 6.8753 338.821 5.04814V15.0416C346.591 16.4741 351.858 15.1511 357.201 13.324C360.662 12.1402 372.899 9.99068 372.899 18.1891C372.899 22.318 368.664 23.4232 365.295 23.4232L339.274 23.4141V33.4256H344.203V47.6305H355.687V33.4256H364.725L371.884 47.6305H384.877L375.579 31.0284Z" fill="#8F9BB3"/>
<path fill-rule="evenodd" clip-rule="evenodd" d="M60.835 3.84671C54.7541 6.37796 48.4433 6.69 48.4433 6.69V16.7956C58.0364 16.7956 67.6484 10.8524 68.8394 13.3682L73.4951 25.7162H44.6548V35.547H50.165L45.0192 47.6334H56.8174L61.5333 35.547H77.3094L81.9217 47.6334H94.1611L75.0645 1.61205C70.1082 0.900265 67.0703 1.251 60.835 3.84671Z" fill="#8F9BB3"/>
</svg>
