<svg width="261" height="62" viewBox="0 0 261 62" fill="none" xmlns="http://www.w3.org/2000/svg">
<path d="M15.4581 9.27976C15.4581 25.6498 1.82812 28.7134 1.82812 44.4478C1.82812 50.5905 5.6758 55.91 10.2174 56.5456C9.88598 55.4255 9.77723 54.5606 9.77723 53.3519C9.77723 41.9939 27.9229 38.4719 27.9229 19.1008C27.9229 9.83724 21.429 2.00648 13.8528 0.146484C13.8528 0.146484 15.4529 5.17421 15.4529 9.27455L15.4581 9.27976Z" fill="#FF2F2B"/>
<path d="M14.3086 54.0386C14.3086 57.2532 16.5716 60.6762 19.5234 61.7912C19.3681 61.3171 19.2956 60.9003 19.2956 60.2021C19.2956 53.8719 37.9073 51.8556 37.9073 35.3135C37.9073 30.7391 36.0068 25.7739 32.242 22.5176C29.6941 41.3208 14.3086 43.9102 14.3086 54.0386Z" fill="#6EC248"/>
<path d="M4.55714 5.39844C4.55714 5.39844 5.45304 7.01877 5.45304 8.82667C5.45304 14.6359 0 16.8502 0 22.7532C0 25.5406 1.50696 27.8279 3.63536 29.1564C3.69232 28.651 3.74411 28.1769 3.87357 27.781C5.1475 23.6806 11.1236 19.1426 11.1236 12.7082C11.1236 8.85272 7.94393 5.67978 4.55714 5.39844Z" fill="#33ADE1"/>
<path d="M63.7589 39.1382C67.2855 42.3372 70.6308 44.218 75.4573 44.218C78.1346 44.218 83.0128 43.0822 83.0128 39.5394C83.0128 37.4918 81.4799 36.455 78.4816 35.9444L70.0664 34.569C62.5782 33.3759 58.4819 29.3745 58.4819 23.3777C58.4819 13.5619 66.3792 9.49805 75.0119 9.49805C81.713 9.49805 88.3053 12.2386 92.8417 17.3236L85.1723 22.8619C82.5001 19.6056 78.5799 17.7143 74.3232 17.7143C72.0083 17.7143 68.5905 19.1992 68.5905 21.8303C68.5905 23.9977 70.3564 25.0866 74.2092 25.717L78.0828 26.3423C86.1407 27.6552 92.7899 30.1665 92.7899 37.9295C92.7899 50.1575 81.8217 52.45 74.2765 52.45C67.4098 52.45 60.9624 50.2149 55.4473 44.1659L63.7589 39.1382ZM117.652 52.4552C104.752 52.4552 97.2021 42.3945 97.2021 30.9636C97.2021 19.5535 104.752 9.49805 117.652 9.49805C130.537 9.49805 138.082 19.5535 138.082 30.9636C138.082 42.3893 130.531 52.4552 117.652 52.4552ZM117.652 18.0582C111.738 18.0582 107.316 21.8355 107.316 30.9636C107.316 36.9135 109.703 43.8846 117.652 43.8846C125.14 43.8846 127.984 37.2522 127.984 30.9636C127.984 24.5708 125.14 18.0582 117.652 18.0582ZM171.137 24.1801C169.712 20.4028 166.248 18.053 162.716 18.053C157.165 18.053 152.742 21.8407 152.742 30.9688C152.742 36.9135 155.124 43.8846 163.079 43.8846C165.803 43.8846 169.78 41.8318 171.364 38.1691L179.37 42.0559C175.906 48.3965 169.889 52.45 163.079 52.45C150.179 52.45 142.623 42.3945 142.623 30.9688C142.623 19.5587 149.671 9.50326 162.276 9.50326C170.22 9.50326 175.44 13.3848 179.194 20.1162L171.137 24.1801ZM195.103 10.6495H205.548L220.825 51.3038H209.971L207.93 44.911H193.006L190.955 51.3038H180.178L195.103 10.6495ZM205.486 37.3668L200.499 20.5799H200.39L195.388 37.3668H205.486ZM224.833 10.6443H245.045C254.134 10.6443 259.706 14.8749 259.706 24.0029C259.706 29.2651 256.407 33.4801 251.347 34.9701L260.617 51.3038H249.307L241.358 36.6843H234.947V51.3038H224.833V10.6443ZM234.947 29.1296H244.201C247.438 29.0828 249.597 27.4364 249.597 23.6591C249.597 19.8817 247.438 18.2301 244.201 18.1728H234.947V29.1296Z" fill="#0C0C0C"/>
</svg>
