<svg width="284" height="42" viewBox="0 0 284 42" fill="none" xmlns="http://www.w3.org/2000/svg">
<path d="M15.5777 24.754C15.5777 25.91 14.5344 26.746 13.0942 26.746C11.3822 26.746 10.1636 25.552 10.1636 23.876V16.806H20.3251V10.616H10.1636V6.192H3.39189V10.616H0V16.806H3.39189V23.876C3.39189 29.27 7.45047 33.162 13.0116 33.162C18.3432 33.162 22.1298 29.628 22.1298 24.764V23.212H15.5898V24.754H15.5797H15.5777ZM31.6026 14.324V10.604H24.8309V32.714H31.6026V21.884C31.6026 18.92 33.9511 16.796 37.1536 16.796H41.3069V10.39H39.2726C36.0781 10.39 33.377 11.87 31.6026 14.324ZM43.3452 10.614V16.794H48.7594V32.714H55.5411V10.614H43.3452ZM51.4705 0C48.852 0 46.9527 1.768 46.9527 4.2C46.9527 6.63 48.85 8.398 51.4705 8.398C54.0889 8.398 55.9883 6.63 55.9883 4.198C55.9883 1.768 54.0889 0 51.4705 0ZM73.9568 10.166C71.1168 10.166 68.6555 11.218 66.8186 13.006V10.614H60.0489V41.56H66.8206V30.322C68.6555 32.11 71.1188 33.162 73.9568 33.162C80.0497 33.162 84.4306 28.342 84.4306 21.67C84.4306 14.988 80.0497 10.166 73.9568 10.166ZM72.2448 26.746C69.0825 26.746 66.8306 24.622 66.8306 21.66C66.8306 18.696 69.0845 16.572 72.2448 16.572C75.407 16.572 77.6609 18.696 77.6609 21.658C77.6609 24.622 75.405 26.746 72.2448 26.746ZM112.017 10.166C108.875 10.166 106.226 11.494 104.524 13.67C102.824 11.484 100.173 10.166 97.0333 10.166C91.5668 10.166 87.6009 14.058 87.6009 19.452V32.712H94.3726V19.76C94.3726 17.82 95.7704 16.4 97.6698 16.4C99.7041 16.4 101.144 17.86 101.144 19.894V32.714H107.916V19.894C107.916 17.86 109.356 16.4 111.39 16.4C113.29 16.4 114.688 17.81 114.688 19.76V32.716H121.459V19.456C121.449 14.06 117.483 10.168 112.017 10.168V10.166ZM139.74 23.212C139.74 25.378 138.113 26.92 135.859 26.92C133.647 26.92 132.072 25.42 132.072 23.334V10.614H125.3V23.662C125.3 29.188 129.004 33.162 134.149 33.162C135.187 33.1715 136.216 32.9768 137.178 32.5893C138.14 32.2017 139.014 31.629 139.752 30.904V32.714C139.752 34.522 137.988 35.808 135.599 35.808C133.565 35.808 132.072 34.878 132.072 33.602H125.52C125.52 38.466 129.808 42 135.766 42C141.954 42 146.512 38.108 146.512 32.714V10.614H139.74V23.212ZM167.284 12.986C165.459 11.218 163.018 10.176 160.2 10.176C154.107 10.176 149.682 14.996 149.682 21.67C149.682 28.34 154.107 33.162 160.2 33.162C163.018 33.162 165.469 32.122 167.284 30.354V32.724H174.056V1.768H167.284V12.986ZM161.86 26.746C158.698 26.746 156.444 24.622 156.444 21.66C156.444 18.696 158.7 16.572 161.86 16.572C165.022 16.572 167.274 18.696 167.274 21.658C167.284 24.622 165.02 26.746 161.86 26.746ZM184.89 14.324V10.604H178.118V32.714H184.89V21.884C184.89 18.92 187.237 16.796 190.439 16.796H194.592V10.39H192.558C189.366 10.39 186.663 11.87 184.89 14.324ZM207.739 10.166C201.062 10.166 196.178 14.936 196.178 21.7C196.178 28.504 201.145 33.152 208.46 33.152C214.865 33.152 219.435 29.618 219.435 24.754H212.664C212.664 26.032 210.901 26.962 208.418 26.962C205.35 26.962 203.086 25.552 202.909 23.426H219.613C219.655 22.854 219.655 22.282 219.655 22.282C219.655 15.254 214.646 10.166 207.739 10.166ZM202.867 19.676C203.096 17.644 205.255 16.142 207.969 16.142C210.629 16.142 212.758 17.642 212.978 19.676H202.867ZM239.521 12.986C237.694 11.218 235.253 10.176 232.435 10.176C226.342 10.176 221.919 14.996 221.919 21.67C221.919 28.34 226.342 33.162 232.435 33.162C235.253 33.162 237.704 32.122 239.521 30.354V32.724H246.292V10.614H239.521V12.986ZM234.105 26.746C230.944 26.746 228.69 24.622 228.69 21.66C228.69 18.696 230.944 16.572 234.105 16.572C237.267 16.572 239.521 18.696 239.521 21.658C239.521 24.622 237.267 26.746 234.105 26.746ZM274.557 10.166C271.417 10.166 268.767 11.494 267.067 13.67C265.367 11.484 262.716 10.166 259.576 10.166C254.107 10.166 250.133 14.058 250.133 19.452V32.712H256.903V19.76C256.903 17.82 258.303 16.4 260.2 16.4C262.237 16.4 263.675 17.86 263.675 19.894V32.714H270.447V19.894C270.447 17.86 271.887 16.4 273.921 16.4C275.82 16.4 277.218 17.81 277.218 19.76V32.716H283.99V19.456C284 14.06 280.026 10.168 274.557 10.168V10.166Z" fill="#2050A7"/>
</svg>
