<svg width="191" height="72" viewBox="0 0 191 72" fill="none" xmlns="http://www.w3.org/2000/svg">
<path d="M188.135 35.783L188.092 35.7542C185.081 33.7947 182.798 32.2818 181.299 31.2684L181.27 31.2493C177.913 29.3714 175 28.406 172.615 28.3868H172.596H172.577C167.163 28.8479 162.86 30.9611 159.779 34.6591C158.048 36.7676 157.158 38.8903 157.144 40.9699C157.134 42.2378 157.495 43.4096 158.216 44.4518C158.245 44.9704 158.476 45.3883 158.884 45.6716C160.029 47.026 161.707 48.3131 163.87 49.4993C164.937 50.0757 166.87 50.9689 169.615 52.1504C171.572 52.9957 173.543 53.8361 175.466 54.6333C177.629 55.6852 179.351 56.7465 180.601 57.7887V57.8512C180.601 57.9232 180.59 57.9664 180.587 57.9808L180.414 58.0961C180.158 58.1152 179.923 58.1874 179.702 58.3121C179.553 58.3987 179.336 58.4515 179.067 58.4803L179 58.49C177.812 58.7972 176.029 58.879 173.687 58.7348C171.586 58.6196 169.461 58.3553 167.365 57.9424C162.629 57.0298 159.129 55.9205 156.956 54.6526L156.832 54.4988L156.971 54.4317L157.033 54.3453C157.091 54.2636 157.264 54.0811 157.803 53.7785L158.005 53.6633V53.4278C158.009 53.1062 158.086 52.8373 158.24 52.6067L158.264 52.5635C158.37 52.3568 158.38 52.136 158.293 51.9342C158.158 51.6269 157.832 51.3964 157.235 51.2043C157.139 51.0362 156.947 50.8729 156.562 50.7817L156.519 50.7721C156.192 50.7336 155.793 50.7287 155.288 50.7624C154.303 50.8537 153.605 51.0122 153.168 51.2426C152.283 51.2668 150.928 51.6701 150.908 53.9178C150.904 54.35 150.947 54.6189 151.043 54.7967C151.307 55.4595 151.75 56.0981 152.351 56.7033C148.639 58.898 145.062 59.3399 139.293 59.2967C135.303 57.8463 133.514 55.1233 133.937 51.1274C134.139 50.3542 134.529 49.97 135.11 49.9747C140.202 50.921 142.846 51.4252 143.038 51.4876C145.75 51.7038 148.014 50.9786 149.832 49.3168C152.952 46.4401 154.524 43.616 154.548 40.8401C154.577 37.3582 152.086 33.9868 147.077 30.721C145.856 30.0005 143.86 29.2418 141.091 28.4492C139.865 28.1179 138.707 27.9451 137.61 27.9353C136.577 27.9258 135.577 28.0507 134.606 28.3004C131.812 30.1495 129.408 32.4499 127.384 35.2066C124.447 39.313 122.961 43.4913 122.928 47.7463C122.909 50.0804 123.317 52.1936 124.149 54.1003C119.293 57.4381 113.596 59.0854 107.053 59.0327C103.062 57.5822 101.274 54.859 101.697 50.8634C101.899 50.0901 102.288 49.7058 102.87 49.7107C107.961 50.6567 110.606 51.1611 110.798 51.2236C113.509 51.4396 115.774 50.7143 117.596 49.0528C120.716 46.1758 122.288 43.352 122.312 40.576C122.341 37.0941 119.851 33.7227 114.841 30.4568C113.62 29.7364 111.625 28.9775 108.856 28.1852C107.63 27.8538 106.471 27.6808 105.375 27.6713C104.341 27.6617 103.341 27.7865 102.37 28.0363C99.5768 29.8853 97.1729 32.1859 95.1488 34.9426C92.6921 38.3764 91.2548 41.8632 90.8268 45.4027C89.0912 43.3567 85.774 41.7046 80.8701 40.4367C79.2594 40.0382 76.3605 39.4667 72.1681 38.7222C68.4951 38.0499 65.6249 37.4111 63.5671 36.8155V36.5275C64.6634 36.3449 68.3173 35.6293 74.5287 34.3901C78.923 33.5209 82.548 32.714 85.3941 31.96C94.3845 29.4531 98.6392 26.3602 98.1536 22.6813C96.2546 18.1523 93.5671 14.8722 90.1008 12.8455C87.6586 11.3423 83.3461 9.63252 77.1681 7.71146C70.2788 5.52626 61.7644 4.39762 51.6298 4.31597C35.8125 4.1863 19.7885 6.38113 3.54808 10.8956C3.15865 10.8908 2.62499 11.1454 1.94231 11.6544C1.25961 12.1683 0.91827 12.5525 0.91827 12.8071C0.326924 14.027 0.0192308 16.0248 0 18.796C0.379807 19.5115 1.28365 20.1264 2.69712 20.6545L3.17788 20.8514C3.95192 20.8563 4.66346 20.7987 5.30769 20.6738L5.70191 20.0974C5.70191 19.9678 6.02884 19.5547 6.67788 18.8488C6.6923 17.2399 7.86538 15.7943 10.1971 14.5264C12.0144 13.5755 13.9231 12.9752 15.9231 12.735C16.5048 12.7398 17.6971 12.5573 19.5096 12.1827C26.2308 11.0109 34.596 10.5306 44.6008 10.7419C54.346 10.886 62.4085 12.0146 68.7836 14.1278C69.9422 14.6561 71.4181 15.3765 73.2211 16.2938C77.2065 18.3926 79.5432 20.5057 80.2402 22.6381C80.62 23.7379 79.9951 24.7657 78.3749 25.7167C76.4277 27.119 73.8365 28.2908 70.6008 29.2321C61.9952 31.6766 52.0095 32.9543 40.6489 33.0551C38.8413 33.1078 37.9423 32.7093 37.947 31.8736L37.9519 31.1005C37.9614 29.6837 38.0047 28.2957 38.0816 26.9412C38.1586 25.5869 37.8461 24.2326 37.1441 22.8734L36.7163 15.7127L36.721 14.9394L34.0193 13.662L33.5288 14.1422C31.9711 15.0355 30.9952 16.4139 30.5914 18.2773C30.3222 19.3099 30.2115 21.0628 30.2596 23.5459C30.3029 26.0288 30.1922 27.7865 29.9279 28.8143C29.4616 30.6825 28.4471 32.0609 26.8942 32.9494L21.6634 32.9062C20.7549 33.1559 20.3029 33.4104 20.3029 33.6698C19.8508 33.6649 19.5914 33.7274 19.5289 33.8572C19.5289 33.9243 19.5914 33.9868 19.7211 34.0541L20.2981 34.4477C20.2932 35.1586 20.7404 35.7398 21.6394 36.2008L22.0239 36.782C22.1538 36.9116 22.4086 37.0748 22.7931 37.2718C22.9231 37.4014 23.6249 37.7952 24.9134 38.4484C25.8798 38.9719 26.3605 39.3945 26.3557 39.7163L26.3221 43.6834L24.0096 54.4029L23.9952 56.4344C23.7355 56.7562 23.1202 56.9098 22.149 56.9051C21.3125 56.6408 20.6347 56.4727 20.1202 56.4056L18.476 56.3912C18.0241 56.5159 17.7932 56.9339 17.7884 57.6447C18.2308 58.4227 18.8412 59.071 19.6105 59.5945C19.673 59.6618 20.4134 60.0844 21.827 60.8721C22.6634 61.1362 23.0816 61.5588 23.0769 62.1398L23.0337 67.4612C23.024 68.5563 23.7595 69.56 25.2356 70.4773C26.5193 71.3225 27.7739 71.8172 28.9999 71.9565C30.0288 72.091 30.9375 71.9084 31.7163 71.3994C32.0384 71.4043 32.2019 71.1785 32.2067 70.7271L32.2114 70.1459L32.7115 68.0231C32.7212 66.9907 32.8558 66.2174 33.1153 65.7035L34.9566 65.2328L36.7933 65.4394C43.1779 66.3902 51.1777 66.7793 60.798 66.6015C68.9326 66.4094 76.596 65.0839 83.7787 62.6249C86.3075 61.2899 88.1874 60.1132 89.423 59.0903C90.9614 57.7118 91.9229 56.247 92.3076 54.6958C93.3221 56.6457 94.8075 58.3553 96.7786 59.825C98.1248 60.8672 100.668 61.8902 104.404 62.8843C108.399 63.9458 111.428 64.325 113.495 64.0226C118.211 63.4126 121.87 62.1208 124.466 60.1469C125.423 59.46 126.144 58.7204 126.634 57.9329C127.332 58.7013 128.12 59.4168 129.014 60.0844C130.36 61.1266 132.904 62.1496 136.639 63.1437C140.634 64.205 143.663 64.5844 145.73 64.2818C150.447 63.672 154.105 62.38 156.702 60.4061C157.005 60.1901 157.259 59.9883 157.485 59.7914C162.125 61.7701 167.567 62.9948 173.697 63.4319C174.971 63.5183 176.154 63.5566 177.245 63.5566C179.101 63.5566 180.688 63.4366 181.991 63.1918C183.124 62.9612 184.297 62.5 185.461 61.8277C187.259 60.8048 188.173 59.5705 188.187 58.1633C188.196 57.0298 187.49 55.9588 186.086 54.9695C181.227 51.675 174.932 48.4764 167.38 45.4603C165.077 44.5477 163.913 43.4767 163.923 42.2713C163.937 40.5424 165.658 38.7317 169.048 36.8828C171.115 35.7589 172.937 34.9809 174.485 34.5631L174.875 34.4382L175.279 34.4431C175.36 34.5295 175.461 34.6112 175.572 34.6832C175.62 34.9665 175.75 35.149 175.884 35.2642C176.259 36.0038 176.822 36.8396 177.567 37.7617C179.096 39.5963 181.518 40.4511 184.764 40.3022C187.596 40.1438 189.095 39.4138 189.346 38.0643C189.481 37.3438 189.086 36.5946 188.135 35.783ZM141.428 34.5583L142.106 34.3711L143.846 34.5775L144.231 35.0626C145.192 36.0375 145.764 36.8155 145.956 37.3967C145.923 41.7815 144.832 44.7063 142.692 46.1711L142.399 46.6514C141.557 46.901 140.783 46.8964 140.077 46.6321C138.274 46.0367 137.38 44.8359 137.394 43.0301C137.413 40.331 138.755 37.507 141.428 34.5583ZM109.187 34.2989L109.865 34.1117L111.606 34.3181L111.99 34.8032C112.952 35.7781 113.524 36.5563 113.716 37.1373C113.682 41.5221 112.591 44.4469 110.452 45.9118L110.159 46.392C109.317 46.6418 108.543 46.637 107.836 46.3727C106.033 45.7773 105.139 44.5767 105.154 42.7708C105.168 40.0717 106.514 37.2478 109.187 34.2989ZM78.5432 51.6606C76.1393 53.3175 73.2546 54.6814 69.8941 55.7524C63.423 57.6974 55.9279 58.7684 47.4039 58.9558C44.4325 59.0615 40.7547 59.0327 36.3653 58.8692C34.3654 58.7877 33.3991 58.3602 33.4711 57.5869C33.6106 56.3624 33.6827 55.4307 33.6875 54.7823C34.125 48.6589 34.7741 44.2788 35.6345 41.6422L36.024 41.354L37.3846 40.8835L41.8364 40.9169L59.1682 41.0563C67.2931 42.3481 73.2162 43.8466 76.9471 45.5516C79.1345 46.5362 80.2211 47.6407 80.2114 48.8654C80.2067 49.7731 79.649 50.6999 78.5432 51.6606Z" fill="black"/>
<path d="M122.53 19.412C122.549 19.5513 122.559 19.6714 122.559 19.7722C122.559 20.4157 122.087 20.8864 121.14 21.1889C120.66 21.3283 120.155 21.381 119.636 21.3378C119.131 21.2995 118.679 21.1265 118.28 20.8239C117.737 20.4205 117.405 20.022 117.285 19.6184L117.073 19.4071C117.073 19.3063 116.963 19.2583 116.741 19.2583C116.741 19.2775 116.708 19.3015 116.636 19.3351C116.564 19.3639 116.53 19.3927 116.53 19.412C116.208 19.6521 115.876 19.9019 115.535 20.166C115.193 20.4254 114.842 20.5982 114.482 20.6799C114.222 20.7424 113.857 20.7712 113.395 20.7712C112.309 20.6318 111.395 20.1804 110.655 19.4168C110.011 18.634 109.65 17.8319 109.568 17.0107C109.429 15.4882 110.121 14.009 111.645 12.5874C112.366 11.9247 113.169 11.3435 114.054 10.8393C114.535 10.6567 114.987 10.5703 115.41 10.5703C116.174 10.5703 116.876 10.8105 117.52 11.2907C118.443 12.0111 118.987 12.8275 119.145 13.7304C119.145 13.8121 119.184 13.8505 119.265 13.8505C119.265 14.0138 119.434 14.0907 119.78 14.0907C120.02 14.1915 120.381 14.3212 120.866 14.4797C120.866 14.5181 120.967 14.6093 121.169 14.7486L121.289 14.8399V15.0512L121.169 15.2001C121.068 15.2817 120.929 15.421 120.746 15.6227C120.563 15.7236 120.429 15.8724 120.337 16.0742C120.246 16.2759 120.16 16.4776 120.083 16.6745C120.044 17.0539 119.943 17.5293 119.78 18.0913C119.698 18.3122 119.66 18.5235 119.66 18.7253C119.66 18.9845 119.732 19.2151 119.871 19.4168C120.011 19.9163 120.251 20.1997 120.592 20.2573C120.871 20.3197 121.203 20.2573 121.588 20.0747C121.967 19.8922 122.16 19.6616 122.16 19.3832C122.16 19.2439 122.049 19.1623 121.828 19.1431C121.929 19.1045 122.02 19.0806 122.097 19.0806C122.386 19.0806 122.53 19.1911 122.53 19.412ZM117.073 15.7668C117.073 15.6659 117.035 15.5651 116.953 15.4642L116.833 15.4018L116.198 14.739C116.179 14.6766 116.116 14.5757 116.015 14.422C115.915 14.2732 115.866 14.1579 115.866 14.0762C115.905 14.057 115.948 13.9514 115.987 13.7593C116.025 13.5672 116.097 13.4711 116.198 13.4711C116.198 13.4087 116.15 13.3799 116.049 13.3799C115.948 13.3991 115.847 13.4087 115.746 13.4087C113.535 15.152 112.434 16.6601 112.434 17.9232C112.434 18.2449 112.535 18.533 112.737 18.7973C112.876 18.8597 112.958 18.8885 112.977 18.8885C113.016 18.8885 113.088 18.8788 113.188 18.8597C113.29 18.8405 113.357 18.8309 113.4 18.8309C114.044 18.6099 114.664 18.2114 115.27 17.6254C115.429 17.4429 115.924 16.881 116.746 15.9397L117.073 15.7668Z" fill="#FAC212"/>
<path d="M127.118 8.45469C127.277 8.57477 127.358 8.70445 127.358 8.84371C127.358 9.10306 127.185 9.41523 126.849 9.77543C126.286 10.3998 125.781 10.7792 125.344 10.9185L125.132 10.9809C124.911 11.0625 124.671 11.101 124.411 11.101C124.248 11.101 124.089 11.0914 123.93 11.0721C122.964 10.6303 122.454 10.2173 122.392 9.83785C122.329 9.45845 122.464 8.92536 122.781 8.24338C123.022 7.94081 123.334 7.7535 123.714 7.67188H124.555C125.522 7.67188 126.233 7.76312 126.695 7.94081C126.978 8.04167 127.118 8.20977 127.118 8.45469ZM129.257 19.2894C129.358 19.4912 129.406 19.6784 129.406 19.8609C129.406 20.3846 129.094 20.8551 128.474 21.2777C128.094 21.5178 127.642 21.6908 127.118 21.7869C126.675 21.8492 126.151 21.7965 125.551 21.6379C123.483 21.0952 122.488 19.8802 122.57 17.9976C122.608 17.2147 122.719 16.4031 122.902 15.5578C122.983 15.1352 123.022 14.7462 123.022 14.386C123.022 14.0066 122.974 13.6416 122.873 13.3006V13.1517C122.873 13.1325 122.892 13.1133 122.935 13.0893C122.974 13.07 122.998 13.0268 122.998 12.9692C123.257 12.8491 123.469 12.7867 123.632 12.7867C123.714 12.7867 123.781 12.8059 123.844 12.8491H124.147C124.748 12.9116 125.632 13.0604 126.796 13.3006L127.007 13.4495C127.19 13.5695 127.257 13.7088 127.219 13.8721C127.18 14.0546 127.079 14.1747 126.916 14.2323C126.315 15.1352 125.993 16.1389 125.95 17.2436C125.93 18.3482 126.142 19.3519 126.584 20.2548L126.916 20.4661C126.916 20.5286 126.945 20.5574 127.007 20.5574C127.147 20.5574 127.488 20.4085 128.031 20.1059C128.704 19.6977 129.118 19.4288 129.257 19.2894Z" fill="#FAC212"/>
<path d="M139.745 19.7738C139.764 19.8746 139.774 19.9754 139.774 20.0764C139.774 20.696 139.442 21.1713 138.779 21.4932C138.197 21.7716 137.591 21.8629 136.971 21.7621C135.101 21.4788 133.947 20.6672 133.505 19.3224C133.303 18.7412 133.212 18.1409 133.235 17.5166C133.255 16.897 133.264 16.3111 133.264 15.7684L132.841 15.8885V16.46C132.38 18.5252 131.394 20.134 129.889 21.277C129.668 21.4788 129.298 21.6179 128.774 21.6996C128.25 21.7814 127.909 21.6613 127.75 21.3395C127.75 21.0561 127.779 20.768 127.841 20.4654C129.548 18.6404 130.534 17.0363 130.793 15.6483C130.875 15.2257 130.803 14.7358 130.582 14.1739C130.322 13.4919 130.192 12.9492 130.192 12.5506C130.173 11.9503 130.284 11.4172 130.524 10.9561C130.827 10.375 131.255 10.082 131.817 10.082C132.221 10.082 132.731 10.2838 133.356 10.6824L133.567 10.9849C133.567 11.787 133.365 12.6323 132.966 13.5111V13.5736C132.966 13.8329 133.125 13.905 133.447 13.7849H133.567C134.471 13.4055 135.053 13.2134 135.317 13.2134C136.202 13.2134 136.875 13.4727 137.336 13.9962C137.577 14.2555 137.697 14.5389 137.697 14.8367C137.697 15.0576 137.577 15.3698 137.336 15.7684C137.135 16.071 136.947 16.3687 136.764 16.6713C136.384 17.4157 136.192 18.0977 136.192 18.7172C136.192 19.3416 136.384 19.841 136.764 20.2204V20.3693C136.904 20.4317 137.005 20.4702 137.067 20.4893C137.13 20.5086 137.187 20.5181 137.25 20.5181C137.312 20.5181 137.361 20.499 137.399 20.4558H137.61C138.087 20.0859 138.803 19.8554 139.745 19.7738Z" fill="#FAC212"/>
<path d="M148.202 3.42909C148.202 3.66923 148.144 3.92857 148.019 4.21193C146.735 7.24241 144.605 11.3631 141.63 16.5836C141.466 16.8429 141.418 17.1647 141.48 17.5489C141.62 18.5911 142.211 19.5372 143.259 20.3776L143.351 20.5265C143.452 20.5457 143.572 20.565 143.711 20.5889C143.851 20.6082 144.014 20.6082 144.192 20.5889C144.836 20.5697 145.365 20.4305 145.788 20.1663C146.029 20.0079 146.452 19.6236 147.053 19.0233C147.255 19.3259 147.355 19.6333 147.355 19.955C147.355 20.4352 147.106 20.8964 146.601 21.3381C145.836 22.0394 145.081 22.39 144.341 22.39C143.716 22.39 143.048 22.1787 142.322 21.7561C141.88 21.4967 141.418 21.2422 140.937 21.002C139.231 20.3393 138.283 18.9752 138.105 16.9101C138.067 16.3482 138.043 15.8487 138.043 15.4069C138.043 12.3956 138.606 8.71681 139.73 4.36081L140.755 0.537894C140.774 0.499473 140.836 0.446645 140.937 0.389014C140.937 0.288158 140.966 0.23533 141.029 0.225725C141.091 0.216121 141.154 0.187303 141.226 0.134474C141.298 0.0864472 141.37 0.0480253 141.452 0.0288148C141.533 0.00960413 141.663 0 141.841 0C143.567 0.0384212 145.408 0.691578 147.355 1.95467C147.716 2.39652 147.899 2.63666 147.899 2.67507C147.961 2.83837 148.062 3.0881 148.202 3.42909ZM145.49 3.09771C145.327 2.97765 145.168 2.91521 145.009 2.91521C144.75 2.91521 144.485 3.06409 144.226 3.36665C143.904 3.72685 143.653 4.1591 143.471 4.65856C143.331 5.4414 143.004 6.58924 142.49 8.10688C141.976 9.62451 141.654 10.7724 141.509 11.5552C141.408 11.6945 141.389 11.8481 141.447 12.0066C141.485 12.1699 141.509 12.2996 141.509 12.3956L141.63 12.5157C141.769 12.6166 142.375 11.6945 143.437 9.74457C143.841 9.02417 144.202 8.37103 144.524 7.7899L144.947 6.97826C145.307 6.47878 145.557 5.83522 145.702 5.05238C145.783 4.69219 145.812 4.3416 145.793 4.00061C145.75 3.65962 145.649 3.35705 145.49 3.09771Z" fill="#FAC212"/>
<path d="M150.937 8.45667C151.095 8.57674 151.177 8.7064 151.177 8.84568C151.177 9.10503 151.004 9.4172 150.667 9.7774C150.105 10.4017 149.6 10.7812 149.162 10.9204L148.951 10.9829C148.73 11.0645 148.489 11.1029 148.23 11.1029C148.066 11.1029 147.908 11.0933 147.749 11.0741C146.783 10.6323 146.273 10.2192 146.211 9.83982C146.153 9.46042 146.283 8.92733 146.6 8.24535C146.84 7.94278 147.153 7.75548 147.533 7.67383H148.374C149.34 7.67383 150.052 7.76509 150.513 7.94278C150.797 8.04364 150.937 8.21174 150.937 8.45667ZM153.076 19.2914C153.177 19.4932 153.225 19.6804 153.225 19.8629C153.225 20.3865 152.913 20.8571 152.292 21.2797C151.912 21.5198 151.461 21.6928 150.937 21.7887C150.494 21.8512 149.97 21.7985 149.369 21.6399C147.302 21.0972 146.307 19.8822 146.388 17.9995C146.427 17.2167 146.537 16.4051 146.72 15.5598C146.802 15.1372 146.84 14.7481 146.84 14.3879C146.84 14.0085 146.792 13.6435 146.691 13.3025V13.1537C146.691 13.1345 146.711 13.1152 146.749 13.0912C146.788 13.072 146.812 13.0288 146.812 12.9712C147.071 12.8511 147.283 12.7887 147.446 12.7887C147.528 12.7887 147.595 12.8079 147.658 12.8511H147.961C148.562 12.9135 149.446 13.0624 150.61 13.3025L150.821 13.4514C151.004 13.5715 151.071 13.7108 151.033 13.8741C150.994 14.0566 150.893 14.1766 150.73 14.2343C150.129 15.1372 149.807 16.1409 149.763 17.2455C149.744 18.3502 149.956 19.3539 150.398 20.2568L150.73 20.4681C150.73 20.5305 150.759 20.5593 150.821 20.5593C150.961 20.5593 151.302 20.4105 151.845 20.1079C152.523 19.6997 152.936 19.4307 153.076 19.2914Z" fill="#FAC212"/>
<path d="M165.798 18.2707C165.999 18.5301 166.1 18.7943 166.1 19.0535C166.1 19.8556 165.567 20.3888 164.504 20.6481C163.74 20.9266 163.067 21.0708 162.485 21.0708C161.682 21.0708 160.99 20.8497 160.408 20.408C159.764 19.9085 159.201 19.0247 158.721 17.7617L158.6 17.5504L158.177 17.7617C158.115 17.8433 157.836 18.3717 157.336 19.3561C156.995 20.0189 156.634 20.4703 156.249 20.7106C156.211 20.7106 156.153 20.725 156.086 20.7538C156.014 20.7826 155.961 20.797 155.922 20.797C155.783 20.8978 155.682 20.9459 155.62 20.9459H155.168C155.086 20.9459 154.975 20.9219 154.836 20.869C154.696 20.8209 154.576 20.7921 154.475 20.7921L154.264 20.7009C152.697 20.1774 151.874 19.1064 151.793 17.4783C151.773 16.9356 151.812 16.2633 151.913 15.4612C152.052 14.5199 152.124 13.8763 152.124 13.5354C152.144 13.1751 152.115 12.8918 152.033 12.6949C152.033 12.4932 151.927 12.2627 151.716 12.0033C151.504 11.744 151.398 11.5711 151.398 11.4942C151.398 11.2733 151.778 11.1821 152.543 11.2253C154.23 11.3069 155.192 11.9697 155.437 13.2136C155.475 13.4729 155.499 13.7467 155.499 14.0252C155.499 14.2846 155.466 14.6784 155.394 15.1971C155.322 15.7206 155.288 16.1288 155.288 16.4314L155.379 16.5514C155.379 16.6331 155.418 16.6715 155.499 16.6715C155.581 16.6715 155.62 16.6331 155.62 16.5514L155.711 16.4314C155.932 15.8887 156.144 15.3604 156.346 14.8369C156.605 14.2366 156.898 13.7515 157.221 13.3913C157.802 12.7285 158.538 12.3971 159.422 12.3971C159.884 12.3971 160.427 12.498 161.047 12.6997C161.591 12.9831 161.86 13.3529 161.86 13.8139C161.98 14.2365 162.028 14.6352 162.009 15.0194C161.99 15.4228 161.97 15.8214 161.947 16.2248C161.927 17.2286 162.047 18.0306 162.307 18.6311C162.61 19.3754 163.019 19.7453 163.543 19.7453C163.922 19.7453 164.346 19.553 164.807 19.1738C165.124 18.9095 165.456 18.6118 165.798 18.2707Z" fill="#FAC212"/>
<path d="M176.851 17.5154C177.053 17.8564 177.154 18.1685 177.154 18.4472C177.154 19.0091 176.851 19.5086 176.25 19.9503C175.447 20.5699 174.313 20.983 172.846 21.1846C172.202 21.2856 171.26 21.1751 170.015 20.8532C168.851 20.5506 168.058 20.2434 167.635 19.9215C166.351 18.9803 165.707 17.7028 165.707 16.0987C165.707 14.7731 166.159 13.4716 167.063 12.1845C167.683 11.32 168.428 10.5996 169.293 10.0185C169.596 9.93687 169.904 9.89844 170.226 9.89844C170.568 9.89844 170.928 9.94646 171.313 10.0473C172.178 10.2875 172.798 10.518 173.183 10.7389C174.75 11.7427 175.534 12.7848 175.534 13.8702C175.534 14.7347 175.053 15.6136 174.087 16.5165C173.524 17.04 172.822 17.2705 171.976 17.2081C171.918 17.1889 171.092 17.04 169.505 16.7566C169.322 16.7566 169.202 16.8767 169.144 17.1168C169.024 18.3608 169.587 19.206 170.832 19.6431C173.193 19.6526 175.202 18.9418 176.851 17.5154ZM172.842 12.8185C172.779 12.6359 172.601 12.3958 172.298 12.0981L172.178 11.9492L171.635 11.8867L171.423 11.9492C170.601 12.8713 170.188 13.755 170.188 14.5954C170.188 15.1573 170.467 15.5271 171.029 15.7096C171.25 15.7913 171.491 15.7913 171.75 15.7096L171.842 15.5608C172.51 15.0997 172.842 14.1824 172.842 12.8185Z" fill="#FAC212"/>
</svg>
