<svg width="248" height="72" viewBox="0 0 248 72" fill="none" xmlns="http://www.w3.org/2000/svg">
<path d="M84.9717 21.456V26.658C86.9267 23.4 89.9317 21.078 94.4029 21.078C94.946 21.078 95.3804 21.114 95.8149 21.204V29.97H94.4029C88.3025 29.97 84.9717 33.102 84.9717 40.158V48.672H76.2464V21.456H84.9717ZM16.3463 48.726L21.3063 33.984L26.212 48.726H33.7787L42.5582 21.474H33.9959L29.5247 36.162L24.3474 21.474H18.1927L13.0336 36.09L8.56234 21.456H0L8.77956 48.708H16.3463V48.726ZM118.044 32.85L128.127 21.474H117.936L108.07 32.364V6.93H99.3448V48.654H108.07V44.046L112.215 39.384L119.511 48.654H130.245L118.044 32.85ZM72.7165 35.064C72.7165 43.686 65.8558 49.428 57.7279 49.428C49.4371 49.428 42.5763 43.686 42.5763 35.064C42.5763 26.496 49.4371 20.754 57.7279 20.754C65.8558 20.754 72.7165 26.496 72.7165 35.064ZM64.3171 35.064C64.3171 30.834 61.0949 28.026 57.7279 28.026C54.1798 28.026 50.9758 30.834 50.9758 35.064C50.9758 39.348 54.1979 42.102 57.7279 42.102C61.113 42.102 64.3171 39.348 64.3171 35.064ZM57.6555 7.992C64.661 7.992 71.2683 10.692 76.2464 15.588L81.8943 9.9C75.3956 3.51 66.779 0 57.6555 0C48.532 0 39.9153 3.51 33.4166 9.918L39.0645 15.606C44.0426 10.692 50.6499 7.992 57.6555 7.992ZM209.949 26.568V21.366H201.224V48.564H209.949V40.05C209.949 33.012 213.28 29.862 219.38 29.862H220.792V21.096C220.358 21.024 219.923 20.97 219.38 20.97C214.891 20.988 211.904 23.328 209.949 26.568ZM245.719 40.554C244.579 41.202 242.949 41.634 241.737 41.634C239.456 41.634 238.08 40.5 238.08 37.674V28.242H246.154V21.366H238.08V12.258H229.355V21.366H224.395V28.242H229.355V38.538C229.355 45.684 233.446 49.374 240.252 49.374C243.366 49.374 245.592 48.51 247.71 47.376L245.719 40.554ZM164.802 34.974C164.802 26.406 158.702 20.556 151.443 20.556C147.895 20.556 145.071 21.636 142.935 23.544V21.366H134.21V61.578H142.935V46.404C145.053 48.312 147.895 49.392 151.443 49.392C158.702 49.374 164.802 43.578 164.802 34.974ZM142.953 34.974C142.953 30.798 146.121 27.936 149.651 27.936C153.47 27.936 156.24 30.816 156.24 34.974C156.24 39.204 153.47 42.012 149.651 42.012C146.121 42.012 142.953 39.204 142.953 34.974ZM182.669 20.664C174.378 20.664 167.518 26.406 167.518 34.974C167.518 43.596 174.378 49.338 182.669 49.338C190.797 49.338 197.658 43.596 197.658 34.974C197.658 26.406 190.779 20.664 182.669 20.664ZM182.669 42.012C179.121 42.012 175.917 39.258 175.917 34.974C175.917 30.744 179.139 27.936 182.669 27.936C186.054 27.936 189.258 30.744 189.258 34.974C189.258 39.258 186.036 42.012 182.669 42.012ZM165.943 62.442C161.29 62.442 156.892 60.642 153.579 57.384L147.931 63.072C152.764 67.824 159.154 70.452 165.943 70.452C172.731 70.452 179.139 67.842 183.973 63.072L178.325 57.384C174.994 60.642 170.595 62.442 165.943 62.442Z" fill="url(#paint0_radial_939_31850)"/>
<defs>
<radialGradient id="paint0_radial_939_31850" cx="0" cy="0" r="1" gradientUnits="userSpaceOnUse" gradientTransform="translate(21.0963 -28.8) scale(197.837 196.72)">
<stop stop-color="#1595FF"/>
<stop offset="1" stop-color="#0057FF"/>
</radialGradient>
</defs>
</svg>
