<svg width="251" height="88" viewBox="0 0 251 88" fill="none" xmlns="http://www.w3.org/2000/svg">
<path d="M44.3973 54.218C50.4927 54.218 55.434 49.2888 55.434 43.2084C55.434 37.128 50.4927 32.1989 44.3973 32.1989C38.3019 32.1989 33.3606 37.128 33.3606 43.2084C33.3606 49.2888 38.3019 54.218 44.3973 54.218Z" fill="#8F9BB3"/>
<path d="M60.0524 35.1719C63.8153 35.1719 66.8656 32.1291 66.8656 28.3755C66.8656 24.622 63.8153 21.5791 60.0524 21.5791C56.2896 21.5791 53.2393 24.622 53.2393 28.3755C53.2393 32.1291 56.2896 35.1719 60.0524 35.1719Z" fill="#8F9BB3"/>
<path d="M44.3972 28.7831C48.16 28.7831 51.2104 25.7403 51.2104 21.9867C51.2104 18.2332 48.16 15.1903 44.3972 15.1903C40.6344 15.1903 37.584 18.2332 37.584 21.9867C37.584 25.7403 40.6344 28.7831 44.3972 28.7831Z" fill="#8F9BB3"/>
<path d="M28.9932 35.1704C32.8168 35.1704 35.9163 32.0784 35.9163 28.2643C35.9163 24.4502 32.8168 21.3582 28.9932 21.3582C25.1697 21.3582 22.0701 24.4502 22.0701 28.2643C22.0701 32.0784 25.1697 35.1704 28.9932 35.1704Z" fill="#8F9BB3"/>
<path d="M22.0688 50.0047C25.8316 50.0047 28.882 46.9619 28.882 43.2083C28.882 39.4548 25.8316 36.4119 22.0688 36.4119C18.306 36.4119 15.2556 39.4548 15.2556 43.2083C15.2556 46.9619 18.306 50.0047 22.0688 50.0047Z" fill="#8F9BB3"/>
<path d="M28.5408 66.1964C32.341 66.1964 35.4216 63.1233 35.4216 59.3325C35.4216 55.5417 32.341 52.4686 28.5408 52.4686C24.7406 52.4686 21.6599 55.5417 21.6599 59.3325C21.6599 63.1233 24.7406 66.1964 28.5408 66.1964Z" fill="#8F9BB3"/>
<path d="M44.3972 72.2447C48.16 72.2447 51.2104 69.2019 51.2104 65.4483C51.2104 61.6948 48.16 58.6519 44.3972 58.6519C40.6344 58.6519 37.584 61.6948 37.584 65.4483C37.584 69.2019 40.6344 72.2447 44.3972 72.2447Z" fill="#8F9BB3"/>
<path d="M59.6774 65.856C63.4403 65.856 66.4906 62.8132 66.4906 59.0596C66.4906 55.306 63.4403 52.2632 59.6774 52.2632C55.9146 52.2632 52.8643 55.306 52.8643 59.0596C52.8643 62.8132 55.9146 65.856 59.6774 65.856Z" fill="#8F9BB3"/>
<path d="M70.8044 76.3073C73.7536 76.3073 76.1444 73.9223 76.1444 70.9804C76.1444 68.0384 73.7536 65.6535 70.8044 65.6535C67.8552 65.6535 65.4644 68.0384 65.4644 70.9804C65.4644 73.9223 67.8552 76.3073 70.8044 76.3073Z" fill="#8F9BB3"/>
<path d="M44.3972 87.0849C47.3806 87.0849 49.7992 84.6723 49.7992 81.6962C49.7992 78.72 47.3806 76.3074 44.3972 76.3074C41.4137 76.3074 38.9951 78.72 38.9951 81.6962C38.9951 84.6723 41.4137 87.0849 44.3972 87.0849Z" fill="#8F9BB3"/>
<path d="M16.9387 76.3622C19.9221 76.3622 22.3407 73.9496 22.3407 70.9735C22.3407 67.9973 19.9221 65.5847 16.9387 65.5847C13.9552 65.5847 11.5366 67.9973 11.5366 70.9735C11.5366 73.9496 13.9552 76.3622 16.9387 76.3622Z" fill="#8F9BB3"/>
<path d="M5.90205 48.5973C8.88553 48.5973 11.3041 46.1847 11.3041 43.2086C11.3041 40.2325 8.88553 37.8198 5.90205 37.8198C2.91858 37.8198 0.5 40.2325 0.5 43.2086C0.5 46.1847 2.91858 48.5973 5.90205 48.5973Z" fill="#8F9BB3"/>
<path d="M16.7063 22.4677C19.6897 22.4677 22.1083 20.0551 22.1083 17.079C22.1083 14.1029 19.6897 11.6902 16.7063 11.6902C13.7228 11.6902 11.3042 14.1029 11.3042 17.079C11.3042 20.0551 13.7228 22.4677 16.7063 22.4677Z" fill="#8F9BB3"/>
<path d="M44.3972 10.7775C47.3806 10.7775 49.7992 8.36487 49.7992 5.38875C49.7992 2.41263 47.3806 0 44.3972 0C41.4137 0 38.9951 2.41263 38.9951 5.38875C38.9951 8.36487 41.4137 10.7775 44.3972 10.7775Z" fill="#8F9BB3"/>
<path d="M71.6203 22.06C74.6038 22.06 77.0224 19.6473 77.0224 16.6712C77.0224 13.6951 74.6038 11.2825 71.6203 11.2825C68.6369 11.2825 66.2183 13.6951 66.2183 16.6712C66.2183 19.6473 68.6369 22.06 71.6203 22.06Z" fill="#8F9BB3"/>
<path d="M89.3999 61.2703V25.5783H96.1665V61.2703H89.3999Z" fill="#8F9BB3"/>
<path d="M113.57 61.2703V31.0894H101.889V25.5783H132.014V31.0894H120.335V61.2703H113.57Z" fill="#8F9BB3"/>
<path d="M131.899 50.7305V45.9127H145.776V50.7305H131.899Z" fill="#8F9BB3"/>
<path d="M152.657 55.2766V40.3465H148.032V35.4246H152.657V28.361H158.729V35.4246H164.396V40.3465H158.729V53.8845C158.729 55.6507 159.653 56.9346 161.389 56.9346C162.545 56.9346 163.644 56.5127 164.107 56.0248L165.552 60.252C164.454 61.2152 162.66 61.9113 159.827 61.9113C155.144 61.9127 152.657 59.5573 152.657 55.2766Z" fill="#8F9BB3"/>
<path d="M168.152 48.3204C168.152 40.9362 173.65 34.7824 182.492 34.7824C191.455 34.7824 196.89 40.9362 196.89 48.3204C196.89 55.758 191.454 61.9118 182.492 61.9118C173.646 61.9132 168.152 55.758 168.152 48.3204ZM190.588 48.3204C190.588 43.7726 187.697 39.7591 182.493 39.7591C177.348 39.7591 174.458 43.7726 174.458 48.3204C174.458 52.923 177.349 56.9351 182.493 56.9351C187.697 56.9365 190.588 52.923 190.588 48.3204Z" fill="#8F9BB3"/>
<path d="M221.87 61.2704V57.8462C219.846 59.9331 216.372 61.9131 211.983 61.9131C205.969 61.9131 203.02 59.0232 203.02 53.7259V35.4249H209.091V51.6924C209.091 55.7059 211.289 56.9363 214.7 56.9363C217.765 56.9363 220.425 55.3304 221.87 53.5613V35.4207H227.942V61.2704H221.87Z" fill="#8F9BB3"/>
<path d="M235.805 61.2704V35.4249H241.877V39.2218C243.959 36.7609 247.313 34.8343 250.956 34.8343V40.3988C250.326 40.2823 249.687 40.2286 249.047 40.2385C246.509 40.2385 243.091 41.8445 241.877 43.6628V61.2704H235.805Z" fill="#8F9BB3"/>
<path d="M89.6553 79.2452V70.7993H95.8073V79.2452H95.2984V71.2816H90.1642V79.2452H89.6553Z" fill="#8F9BB3"/>
<path d="M97.5579 76.1921C97.5487 75.7809 97.6232 75.3722 97.7768 74.9905C97.9304 74.6089 98.16 74.2623 98.4517 73.9716C98.7354 73.6849 99.0735 73.4572 99.4461 73.3018C99.8188 73.1464 100.219 73.0664 100.623 73.0664C101.027 73.0664 101.426 73.1464 101.799 73.3018C102.172 73.4572 102.51 73.6849 102.794 73.9716C103.085 74.2623 103.315 74.6089 103.468 74.9905C103.622 75.3722 103.697 75.7809 103.687 76.1921C103.697 76.6104 103.622 77.0264 103.469 77.4158C103.316 77.8052 103.086 78.1603 102.794 78.4604C102.514 78.7539 102.177 78.9877 101.804 79.1474C101.431 79.3072 101.029 79.3895 100.623 79.3895C100.217 79.3895 99.8147 79.3072 99.4415 79.1474C99.0683 78.9877 98.7315 78.7539 98.4517 78.4604C98.1593 78.1603 97.9297 77.8052 97.7763 77.4158C97.6229 77.0264 97.5486 76.6104 97.5579 76.1921ZM98.0781 76.1921C98.0685 76.5458 98.1289 76.8978 98.2559 77.2282C98.3829 77.5585 98.574 77.8607 98.8182 78.1172C99.0498 78.3629 99.3294 78.5587 99.6397 78.6926C99.95 78.8264 100.285 78.8955 100.623 78.8955C100.961 78.8955 101.295 78.8264 101.606 78.6926C101.916 78.5587 102.195 78.3629 102.427 78.1172C102.671 77.8607 102.862 77.5585 102.989 77.2282C103.116 76.8978 103.177 76.5458 103.167 76.1921C103.175 75.8468 103.114 75.5034 102.987 75.1821C102.86 74.8609 102.67 74.5683 102.427 74.3218C102.193 74.0811 101.912 73.8898 101.602 73.7591C101.292 73.6285 100.959 73.5612 100.623 73.5612C100.286 73.5612 99.9531 73.6285 99.6432 73.7591C99.3332 73.8898 99.0527 74.0811 98.8182 74.3218C98.5757 74.5683 98.3852 74.8608 98.2581 75.1821C98.131 75.5034 98.0698 75.8468 98.0781 76.1921Z" fill="#8F9BB3"/>
<path d="M105.318 79.2449V73.2121H105.816V77.5068L105.781 78.4911H105.805C106.081 78.089 106.306 77.7608 106.479 77.5068L109.708 73.2121H110.169V79.2449H109.673V74.9362L109.708 73.9954H109.684C109.408 74.3704 109.183 74.684 109.01 74.9362L105.781 79.2435L105.318 79.2449Z" fill="#8F9BB3"/>
<path d="M112.696 78.5137C112.108 77.9306 111.814 77.1726 111.814 76.2398C111.814 75.307 112.112 74.5448 112.708 73.9532C112.989 73.6664 113.325 73.4397 113.696 73.2871C114.068 73.1345 114.466 73.0592 114.868 73.0659C115.267 73.0664 115.662 73.1398 116.034 73.2825C116.399 73.4155 116.726 73.6351 116.987 73.9223L116.679 74.3329C116.453 74.0897 116.176 73.8978 115.869 73.7704C115.554 73.6324 115.213 73.5606 114.869 73.5595C114.534 73.5527 114.202 73.6152 113.892 73.743C113.582 73.8708 113.303 74.0611 113.071 74.302C112.582 74.797 112.337 75.4425 112.337 76.2384C112.337 77.0343 112.582 77.6737 113.071 78.1565C113.304 78.3957 113.584 78.5844 113.893 78.7109C114.203 78.8374 114.535 78.8991 114.869 78.892C115.244 78.8912 115.615 78.8131 115.958 78.6628C116.298 78.52 116.602 78.3011 116.844 78.0229L117.105 78.4448C116.837 78.7455 116.503 78.9808 116.13 79.1325C115.731 79.3013 115.302 79.3874 114.869 79.3856C114.467 79.3955 114.066 79.3232 113.692 79.1733C113.318 79.0234 112.979 78.7989 112.696 78.5137Z" fill="#8F9BB3"/>
<path d="M118.616 79.2449V73.2121H119.114V75.884H120.143L122.083 73.2121H122.71L120.573 76.0837V76.1076L122.951 79.2449H122.3L120.147 76.3494H119.118V79.2449H118.616Z" fill="#8F9BB3"/>
<path d="M127.146 79.2449V73.2121H127.644V77.5068L127.609 78.4911H127.633C127.909 78.089 128.134 77.7608 128.307 77.5068L131.536 73.2121H131.992V79.2449H131.495V74.9362L131.531 73.9954H131.507C131.23 74.3704 131.006 74.684 130.833 74.9362L127.607 79.2449H127.146Z" fill="#8F9BB3"/>
<path d="M136.752 75.8783C136.748 75.4264 136.776 74.9748 136.836 74.5269C136.892 74.143 136.997 73.7678 137.149 73.4103C137.304 73.042 137.536 72.7107 137.829 72.4386C138.17 72.1292 138.552 71.8693 138.966 71.6665L141.221 70.5204L141.445 70.9662L139.15 72.125C138.448 72.4794 137.957 72.9012 137.677 73.3906C137.372 73.9668 137.2 74.604 137.174 75.2553H137.208C137.678 74.2822 138.459 73.7956 139.551 73.7956C139.885 73.7854 140.217 73.8469 140.525 73.976C140.833 74.1051 141.11 74.2987 141.337 74.5437C141.807 75.0425 142.042 75.7222 142.042 76.5828C142.042 77.4116 141.799 78.087 141.314 78.6092C141.077 78.8669 140.786 79.0703 140.463 79.2058C140.139 79.3412 139.79 79.4054 139.439 79.3939C138.54 79.3939 137.869 79.0723 137.428 78.4292C136.986 77.7861 136.761 76.9358 136.752 75.8783ZM137.344 76.5533C137.344 77.277 137.544 77.8503 137.942 78.2731C138.134 78.4724 138.365 78.631 138.62 78.7393C138.875 78.8476 139.149 78.9034 139.427 78.9034C139.704 78.9034 139.978 78.8476 140.233 78.7393C140.488 78.631 140.719 78.4724 140.911 78.2731C141.31 77.855 141.509 77.2925 141.509 76.5856C141.509 75.8787 141.314 75.3162 140.924 74.8981C140.743 74.6969 140.521 74.5367 140.273 74.4285C140.025 74.3203 139.757 74.2666 139.486 74.2709C139.195 74.2606 138.905 74.3142 138.637 74.4279C138.369 74.5417 138.13 74.7127 137.935 74.929C137.538 75.3754 137.328 75.9569 137.349 76.5533H137.344Z" fill="#8F9BB3"/>
<path d="M143.721 81.658V73.2121H144.218V73.9335L144.183 74.4158H144.207C144.373 74.0095 144.662 73.6652 145.035 73.4314C145.424 73.1873 145.876 73.0617 146.336 73.07C146.693 73.0558 147.049 73.1266 147.374 73.2768C147.699 73.4269 147.983 73.652 148.204 73.9335C148.665 74.5128 148.896 75.2769 148.896 76.2257C148.896 77.1744 148.651 77.9385 148.163 78.5179C147.935 78.7975 147.646 79.0213 147.317 79.172C146.989 79.3227 146.631 79.3962 146.269 79.3869C145.832 79.3908 145.404 79.265 145.039 79.0255C144.664 78.7828 144.369 78.4343 144.193 78.0243H144.169C144.204 78.1993 144.22 78.3775 144.217 78.5558V81.6566L143.721 81.658ZM144.206 76.2411C144.19 76.9055 144.384 77.558 144.761 78.1058C144.923 78.3544 145.146 78.5575 145.409 78.6959C145.672 78.8342 145.967 78.9031 146.264 78.8961C146.553 78.8994 146.839 78.8363 147.099 78.7117C147.36 78.5871 147.588 78.4043 147.767 78.1775C148.169 77.6994 148.37 77.0497 148.37 76.2285C148.37 75.4241 148.179 74.7786 147.796 74.2921C147.625 74.0609 147.401 73.874 147.143 73.7471C146.885 73.6201 146.6 73.5567 146.312 73.5622C146.027 73.5569 145.745 73.6141 145.486 73.7298C145.226 73.8455 144.995 74.0168 144.809 74.2316C144.407 74.6778 144.206 75.3472 144.206 76.2397V76.2411Z" fill="#8F9BB3"/>
<path d="M150.134 76.1921C150.124 75.7809 150.199 75.3722 150.353 74.9905C150.506 74.6089 150.736 74.2623 151.027 73.9716C151.311 73.6849 151.649 73.4572 152.022 73.3018C152.394 73.1464 152.794 73.0664 153.198 73.0664C153.602 73.0664 154.002 73.1464 154.375 73.3018C154.748 73.4572 155.086 73.6849 155.369 73.9716C155.661 74.2623 155.891 74.6089 156.044 74.9905C156.198 75.3722 156.272 75.7809 156.263 76.1921C156.272 76.6104 156.198 77.0264 156.045 77.4158C155.891 77.8052 155.662 78.1603 155.369 78.4604C155.089 78.7539 154.753 78.9877 154.38 79.1474C154.006 79.3072 153.604 79.3895 153.198 79.3895C152.792 79.3895 152.39 79.3072 152.017 79.1474C151.644 78.9877 151.307 78.7539 151.027 78.4604C150.735 78.1603 150.505 77.8052 150.352 77.4158C150.199 77.0264 150.124 76.6104 150.134 76.1921ZM150.654 76.1921C150.644 76.5458 150.705 76.8978 150.832 77.2282C150.959 77.5585 151.15 77.8607 151.394 78.1172C151.625 78.3629 151.905 78.5587 152.215 78.6926C152.526 78.8264 152.86 78.8955 153.198 78.8955C153.536 78.8955 153.871 78.8264 154.181 78.6926C154.492 78.5587 154.771 78.3629 155.003 78.1172C155.247 77.8606 155.438 77.5585 155.565 77.2282C155.692 76.8978 155.752 76.5458 155.743 76.1921C155.751 75.8468 155.69 75.5034 155.563 75.1821C155.436 74.8609 155.245 74.5683 155.003 74.3218C154.768 74.0811 154.488 73.8898 154.178 73.7591C153.868 73.6285 153.535 73.5612 153.198 73.5612C152.862 73.5612 152.529 73.6285 152.219 73.7591C151.909 73.8898 151.628 74.0811 151.394 74.3218C151.151 74.5683 150.961 74.8608 150.834 75.1821C150.707 75.5034 150.645 75.8468 150.654 76.1921Z" fill="#8F9BB3"/>
<path d="M157.894 79.2449V73.2121H158.392V75.9022H162.26V73.2121H162.756V79.2449H162.26V76.3719H158.392V79.2435L157.894 79.2449Z" fill="#8F9BB3"/>
<path d="M164.814 79.2449V73.2121H165.312V77.5068L165.277 78.4911H165.301C165.577 78.089 165.802 77.7608 165.975 77.5068L169.209 73.2121H169.67V79.2449H169.173V74.9362L169.209 73.9954H169.185C168.908 74.3704 168.684 74.684 168.511 74.9362L165.281 79.2435L164.814 79.2449Z" fill="#8F9BB3"/>
<path d="M171.724 81.6581V73.2122H172.221V73.9336L172.186 74.416H172.21C172.376 74.0096 172.665 73.6653 173.038 73.4316C173.427 73.1875 173.879 73.0619 174.339 73.0702C174.696 73.0572 175.052 73.1293 175.376 73.2804C175.7 73.4315 175.983 73.6573 176.202 73.9392C176.664 74.5186 176.895 75.2827 176.895 76.2314C176.895 77.1802 176.65 77.9442 176.161 78.5236C175.934 78.8033 175.644 79.0271 175.316 79.1778C174.988 79.3284 174.629 79.402 174.268 79.3927C173.831 79.3966 173.403 79.2708 173.038 79.0313C172.662 78.7885 172.368 78.44 172.192 78.03H172.169C172.204 78.205 172.22 78.3832 172.217 78.5616V81.6624L171.724 81.6581ZM172.209 76.2413C172.193 76.9056 172.387 77.5581 172.764 78.106C172.926 78.3546 173.149 78.5577 173.412 78.696C173.675 78.8343 173.97 78.9033 174.267 78.8963C174.556 78.8995 174.842 78.8364 175.102 78.7118C175.363 78.5872 175.591 78.4044 175.77 78.1777C176.172 77.6995 176.373 77.0499 176.373 76.2286C176.373 75.4242 176.182 74.7788 175.799 74.2922C175.628 74.0611 175.404 73.8742 175.146 73.7472C174.888 73.6202 174.603 73.5568 174.315 73.5624C174.03 73.557 173.748 73.6142 173.489 73.7299C173.229 73.8456 172.998 74.0169 172.812 74.2317C172.411 74.678 172.21 75.3474 172.21 76.2399L172.209 76.2413Z" fill="#8F9BB3"/>
<path d="M178.136 76.1921C178.127 75.7809 178.201 75.3722 178.355 74.9905C178.509 74.6089 178.738 74.2623 179.03 73.9716C179.314 73.6849 179.652 73.4572 180.024 73.3018C180.397 73.1464 180.797 73.0664 181.201 73.0664C181.605 73.0664 182.005 73.1464 182.377 73.3018C182.75 73.4572 183.088 73.6849 183.372 73.9716C183.663 74.2623 183.893 74.6089 184.047 74.9905C184.2 75.3722 184.275 75.7809 184.266 76.1921C184.275 76.6104 184.201 77.0264 184.047 77.4158C183.894 77.8052 183.664 78.1603 183.372 78.4604C183.092 78.7539 182.755 78.9877 182.382 79.1474C182.009 79.3072 181.607 79.3895 181.201 79.3895C180.795 79.3895 180.393 79.3072 180.02 79.1474C179.646 78.9877 179.31 78.7539 179.03 78.4604C178.737 78.1603 178.508 77.8052 178.354 77.4158C178.201 77.0264 178.127 76.6104 178.136 76.1921ZM178.656 76.1921C178.647 76.5458 178.707 76.8978 178.834 77.2282C178.961 77.5585 179.152 77.8607 179.396 78.1172C179.628 78.3629 179.908 78.5587 180.218 78.6926C180.528 78.8264 180.863 78.8955 181.201 78.8955C181.539 78.8955 181.873 78.8264 182.184 78.6926C182.494 78.5587 182.774 78.3629 183.005 78.1172C183.249 77.8606 183.44 77.5585 183.567 77.2282C183.694 76.8978 183.755 76.5458 183.745 76.1921C183.754 75.8468 183.692 75.5034 183.565 75.1821C183.438 74.8609 183.248 74.5683 183.005 74.3218C182.771 74.0811 182.49 73.8898 182.18 73.7591C181.87 73.6285 181.537 73.5612 181.201 73.5612C180.864 73.5612 180.531 73.6285 180.221 73.7591C179.911 73.8898 179.631 74.0811 179.396 74.3218C179.153 74.5681 178.962 74.8605 178.835 75.1818C178.707 75.503 178.645 75.8466 178.653 76.1921H178.656Z" fill="#8F9BB3"/>
<path d="M185.897 79.2449V73.2121H187.755C188.362 73.2121 188.837 73.3429 189.18 73.6044C189.523 73.866 189.695 74.2462 189.695 74.7449C189.695 75.4124 189.379 75.8549 188.749 76.0724V76.0963C189.108 76.1533 189.435 76.3351 189.672 76.6096C189.901 76.881 190.023 77.2266 190.015 77.5813C190.022 77.8116 189.976 78.0404 189.879 78.2498C189.783 78.4592 189.639 78.6434 189.459 78.7879C189.089 79.0935 188.572 79.2463 187.909 79.2463L185.897 79.2449ZM186.395 75.891H187.779C188.702 75.891 189.163 75.509 189.163 74.7449C189.163 74.0287 188.686 73.6705 187.732 73.6705H186.396L186.395 75.891ZM186.395 78.7752H187.862C188.95 78.7752 189.495 78.3772 189.495 77.5813C189.506 77.4063 189.473 77.2312 189.399 77.0721C189.325 76.9129 189.213 76.7747 189.072 76.6701C188.79 76.4648 188.384 76.3621 187.854 76.3621H186.399L186.395 78.7752Z" fill="#8F9BB3"/>
<path d="M191.114 77.639C191.11 77.3773 191.162 77.1178 191.268 76.8782C191.357 76.6724 191.486 76.4861 191.647 76.3297C191.819 76.1744 192.017 76.0498 192.232 75.9613C192.444 75.8666 192.664 75.7899 192.889 75.7321C193.121 75.6778 193.356 75.6393 193.594 75.6168C193.87 75.5886 194.083 75.5727 194.232 75.569C194.382 75.5652 194.563 75.5652 194.776 75.569H195.167V75.3636C195.167 74.1655 194.627 73.5664 193.546 73.5664C192.932 73.5605 192.335 73.765 191.854 74.1458L191.572 73.7352C191.832 73.5168 192.134 73.3527 192.459 73.2528C192.817 73.1328 193.193 73.0715 193.571 73.0714C194.257 73.0714 194.778 73.2646 195.133 73.6508C195.488 74.0371 195.666 74.6043 195.666 75.3524V79.2491H195.17V78.4476L195.216 77.9047H195.192C195.034 78.3232 194.762 78.6891 194.406 78.9608C194.039 79.2439 193.585 79.3929 193.121 79.3827C192.614 79.3926 192.118 79.2333 191.712 78.9299C191.313 78.6327 191.114 78.2024 191.114 77.639ZM191.634 77.6024C191.635 77.7745 191.67 77.9448 191.74 78.1025C191.809 78.2602 191.91 78.4021 192.036 78.5193C192.185 78.6568 192.36 78.7629 192.551 78.8313C192.743 78.8997 192.946 78.9289 193.148 78.9173C193.44 78.9212 193.728 78.8506 193.985 78.7123C194.242 78.574 194.459 78.3725 194.616 78.1269C194.983 77.6107 195.177 76.9921 195.171 76.3593V76.033H194.792C194.548 76.033 194.348 76.033 194.194 76.033C194.04 76.033 193.819 76.049 193.532 76.0808C193.292 76.0985 193.055 76.1457 192.827 76.2215C192.628 76.2963 192.434 76.3851 192.247 76.4872C192.055 76.5875 191.896 76.7427 191.792 76.933C191.683 77.1395 191.629 77.3705 191.636 77.6038L191.634 77.6024Z" fill="#8F9BB3"/>
<path d="M197.668 79.2449V73.2121H198.166V75.9022H202.034V73.2121H202.53V79.2449H202.034V76.3719H198.166V79.2435L197.668 79.2449Z" fill="#8F9BB3"/>
<path d="M204.592 79.2449V73.2121H205.09V77.5068L205.055 78.4911H205.079C205.355 78.089 205.58 77.7608 205.752 77.5068L208.982 73.2121H209.443V79.2449H208.947V74.9362L208.982 73.9954H208.958C208.682 74.3704 208.457 74.684 208.284 74.9362L205.055 79.2435L204.592 79.2449Z" fill="#8F9BB3"/>
<path d="M211.084 76.2398C211.084 75.2582 211.366 74.4838 211.93 73.9166C212.193 73.6437 212.509 73.4279 212.859 73.2827C213.209 73.1375 213.585 73.0661 213.964 73.0729C214.729 73.0729 215.323 73.3363 215.745 73.8632C216.178 74.4234 216.402 75.1166 216.378 75.8235C216.378 75.8957 216.37 76.0045 216.354 76.1498H211.61C211.61 76.9935 211.853 77.6634 212.338 78.1593C212.57 78.4012 212.851 78.5921 213.162 78.7199C213.472 78.8478 213.806 78.9097 214.142 78.9018C214.484 78.9087 214.823 78.8446 215.139 78.7136C215.454 78.5827 215.739 78.3877 215.975 78.141L216.247 78.5629C215.968 78.8243 215.64 79.0292 215.283 79.1662C214.92 79.315 214.533 79.3928 214.141 79.3954C213.738 79.4045 213.338 79.3317 212.965 79.1813C212.592 79.0309 212.253 78.8061 211.97 78.5207C211.38 77.9329 211.084 77.1726 211.084 76.2398ZM211.64 75.6773H215.852C215.82 74.9779 215.627 74.4468 215.273 74.084C215.102 73.9068 214.895 73.7671 214.667 73.6737C214.439 73.5802 214.194 73.5351 213.948 73.5412C213.392 73.5341 212.854 73.7347 212.439 74.1037C212.01 74.474 211.744 74.9971 211.641 75.6731L211.64 75.6773Z" fill="#8F9BB3"/>
<path d="M222.466 79.2449V73.6818H220.218V73.2107H225.211V73.6818H222.963V79.2435L222.466 79.2449Z" fill="#8F9BB3"/>
<path d="M225.991 81.0055C226.19 81.1901 226.452 81.2934 226.724 81.2952C227.193 81.2952 227.58 80.9333 227.882 80.2096L228.305 79.2083L225.857 73.2121H226.389L228.342 78.0257L228.555 78.5882H228.579C228.634 78.4007 228.701 78.2132 228.78 78.0257L230.733 73.2121H231.266L228.225 80.6568C227.918 81.4068 227.417 81.7818 226.722 81.7818C226.555 81.7814 226.389 81.7529 226.232 81.6974C226.106 81.6595 225.987 81.6021 225.879 81.5272L225.761 81.4429L225.991 81.0055Z" fill="#8F9BB3"/>
<path d="M232.646 81.6581V73.2122H233.144V73.9336L233.108 74.416H233.132C233.298 74.0096 233.588 73.6653 233.96 73.4316C234.349 73.1875 234.801 73.0619 235.261 73.0702C235.619 73.0572 235.974 73.1293 236.298 73.2804C236.622 73.4315 236.905 73.6573 237.125 73.9392C237.586 74.5186 237.817 75.2827 237.817 76.2314C237.817 77.1802 237.573 77.9442 237.084 78.5236C236.856 78.8033 236.567 79.0271 236.238 79.1778C235.91 79.3284 235.552 79.402 235.191 79.3927C234.753 79.3966 234.325 79.2708 233.96 79.0313C233.585 78.7885 233.29 78.44 233.114 78.03H233.09C233.125 78.205 233.141 78.3832 233.138 78.5616V81.6624L232.646 81.6581ZM233.131 76.2413C233.115 76.9056 233.309 77.5581 233.686 78.106C233.849 78.3546 234.072 78.5577 234.335 78.696C234.598 78.8343 234.892 78.9033 235.189 78.8963C235.478 78.8995 235.764 78.8364 236.025 78.7118C236.285 78.5872 236.513 78.4044 236.692 78.1777C237.094 77.6995 237.295 77.0499 237.295 76.2286C237.295 75.4242 237.104 74.7788 236.722 74.2922C236.551 74.0611 236.327 73.8742 236.068 73.7472C235.81 73.6202 235.525 73.5568 235.237 73.5624C234.953 73.557 234.671 73.6142 234.411 73.7299C234.151 73.8456 233.92 74.0169 233.734 74.2317C233.336 74.678 233.137 75.3474 233.137 76.2399L233.131 76.2413Z" fill="#8F9BB3"/>
<path d="M239.064 76.1921C239.055 75.7809 239.13 75.3722 239.283 74.9905C239.437 74.6089 239.666 74.2623 239.958 73.9716C240.242 73.6849 240.58 73.4572 240.952 73.3018C241.325 73.1464 241.725 73.0664 242.129 73.0664C242.533 73.0664 242.933 73.1464 243.305 73.3018C243.678 73.4572 244.016 73.6849 244.3 73.9716C244.592 74.2623 244.821 74.6089 244.975 74.9905C245.128 75.3722 245.203 75.7809 245.194 76.1921C245.203 76.6104 245.129 77.0264 244.975 77.4158C244.822 77.8052 244.592 78.1603 244.3 78.4604C244.02 78.7539 243.683 78.9877 243.31 79.1474C242.937 79.3072 242.535 79.3895 242.129 79.3895C241.723 79.3895 241.321 79.3072 240.948 79.1474C240.575 78.9877 240.238 78.7539 239.958 78.4604C239.666 78.1603 239.436 77.8052 239.283 77.4158C239.129 77.0264 239.055 76.6104 239.064 76.1921ZM239.584 76.1921C239.575 76.5458 239.635 76.8978 239.762 77.2282C239.889 77.5585 240.08 77.8607 240.325 78.1172C240.556 78.3629 240.836 78.5587 241.146 78.6926C241.456 78.8264 241.791 78.8955 242.129 78.8955C242.467 78.8955 242.802 78.8264 243.112 78.6926C243.422 78.5587 243.702 78.3629 243.933 78.1172C244.178 77.8606 244.369 77.5585 244.496 77.2282C244.623 76.8978 244.683 76.5458 244.674 76.1921C244.682 75.8468 244.62 75.5034 244.493 75.1821C244.366 74.8609 244.176 74.5683 243.933 74.3218C243.699 74.0811 243.418 73.8898 243.108 73.7591C242.798 73.6285 242.465 73.5612 242.129 73.5612C241.793 73.5612 241.459 73.6285 241.15 73.7591C240.84 73.8898 240.559 74.0811 240.325 74.3218C240.082 74.5683 239.892 74.8608 239.764 75.1821C239.637 75.5034 239.576 75.8468 239.584 76.1921Z" fill="#8F9BB3"/>
<path d="M246.825 79.2449V73.2121H248.683C249.29 73.2121 249.765 73.3429 250.108 73.6044C250.452 73.866 250.623 74.2462 250.623 74.7449C250.623 75.4124 250.308 75.8549 249.677 76.0724V76.0963C250.036 76.1533 250.363 76.3351 250.6 76.6096C250.83 76.881 250.952 77.2266 250.943 77.5813C250.95 77.8116 250.904 78.0404 250.808 78.2498C250.711 78.4592 250.568 78.6434 250.388 78.7879C250.017 79.0935 249.5 79.2463 248.837 79.2463L246.825 79.2449ZM247.323 75.891H248.707C249.63 75.891 250.092 75.509 250.092 74.7449C250.092 74.0287 249.615 73.6705 248.661 73.6705H247.324L247.323 75.891ZM247.323 78.7752H248.79C249.879 78.7752 250.423 78.3772 250.423 77.5813C250.434 77.4063 250.401 77.2312 250.327 77.0721C250.254 76.9129 250.141 76.7747 250 76.6701C249.718 76.4648 249.312 76.3621 248.782 76.3621H247.321L247.323 78.7752Z" fill="#8F9BB3"/>
</svg>
