<svg width="352" height="45" viewBox="0 0 352 45" fill="none" xmlns="http://www.w3.org/2000/svg">
<g clip-path="url(#clip0_826_43093)">
<path fill-rule="evenodd" clip-rule="evenodd" d="M58.5571 44.2569V11.7252H67.6733V17.2401H68.0429C68.6178 15.5464 69.6239 14.0799 71.0611 12.8406C72.4983 11.6013 74.4899 10.9817 77.0359 10.9817C80.3621 10.9817 82.8772 12.097 84.5814 14.3278C86.2856 16.5585 87.1376 19.7394 87.1376 23.8704V44.2569H78.0214V24.614C78.0214 22.5071 77.6929 20.9477 77.0359 19.9356C76.3789 18.9235 75.2086 18.4175 73.5249 18.4175C72.7858 18.4175 72.0672 18.5104 71.3691 18.6963C70.671 18.8822 70.0448 19.1817 69.4904 19.5948C68.936 20.0079 68.4946 20.5139 68.1661 21.1129C67.8376 21.7119 67.6733 22.4039 67.6733 23.1888V44.2569H58.5571ZM139.946 45C137.564 45 135.439 44.6076 133.571 43.8227C131.702 43.0378 130.121 41.9018 128.828 40.4146C127.534 38.9275 126.538 37.1306 125.84 35.0238C125.142 32.917 124.793 30.5624 124.793 27.9598C124.793 25.3573 125.142 23.0027 125.84 20.8959C126.538 18.7891 127.534 17.0025 128.828 15.536C130.121 14.0695 131.702 12.9439 133.571 12.159C135.439 11.3741 137.564 10.9817 139.946 10.9817C142.328 10.9817 144.453 11.3741 146.321 12.159C148.189 12.9439 149.77 14.0695 151.064 15.536C152.357 17.0025 153.353 18.7891 154.051 20.8959C154.749 23.0027 155.098 25.3573 155.098 27.9598C155.098 30.5624 154.749 32.917 154.051 35.0238C153.353 37.1306 152.357 38.9275 151.064 40.4146C149.77 41.9018 148.189 43.0378 146.321 43.8227C144.453 44.6076 142.328 45 139.946 45ZM139.946 37.7502C141.753 37.7502 143.149 37.1925 144.134 36.0772C145.12 34.9618 145.613 33.3714 145.613 31.3059V24.6757C145.613 22.6103 145.12 21.0199 144.134 19.9045C143.149 18.7891 141.753 18.2315 139.946 18.2315C138.139 18.2315 136.743 18.7891 135.757 19.9045C134.772 21.0199 134.279 22.6103 134.279 24.6757V31.3059C134.279 33.3714 134.772 34.9618 135.757 36.0772C136.743 37.1925 138.139 37.7502 139.946 37.7502ZM170.354 44.2569C167.233 44.2569 164.944 43.4931 163.486 41.9656C162.028 40.4381 161.299 38.2294 161.299 35.3395V0.454128H170.415V37.1353H174.481V44.2569H170.354ZM187.19 9.86697C185.435 9.86697 184.158 9.46564 183.359 8.66297C182.559 7.86029 182.16 6.83249 182.16 5.57954V4.28743C182.16 3.03448 182.559 2.00668 183.359 1.20401C184.158 0.401331 185.435 0 187.19 0C188.945 0 190.222 0.401331 191.021 1.20401C191.821 2.00668 192.22 3.03448 192.22 4.28743V5.57954C192.22 6.83249 191.821 7.86029 191.021 8.66297C190.222 9.46564 188.945 9.86697 187.19 9.86697ZM182.652 12.344H191.769V44.2569H182.652V12.344ZM220.431 38.8073H220.123C219.877 39.6743 219.487 40.4897 218.953 41.2534C218.419 42.0172 217.772 42.6777 217.013 43.2351C216.253 43.7924 215.391 44.2259 214.426 44.5356C213.461 44.8452 212.465 45 211.438 45C207.332 45 204.231 43.5447 202.137 40.6342C200.043 37.7236 198.996 33.5023 198.996 27.9702C198.996 22.438 200.043 18.2271 202.137 15.3372C204.231 12.4472 207.332 11.0023 211.438 11.0023C213.532 11.0023 215.391 11.5803 217.013 12.7362C218.635 13.8922 219.671 15.3784 220.123 17.195H220.431V0.454128H229.547V44.2569H220.431V38.8073ZM214.456 37.5688C216.181 37.5688 217.608 37.1456 218.737 36.2993C219.867 35.453 220.431 34.2867 220.431 32.8005V23.2018C220.431 21.7156 219.867 20.5493 218.737 19.703C217.608 18.8566 216.181 18.4335 214.456 18.4335C212.732 18.4335 211.305 19.0424 210.175 20.2603C209.046 21.4782 208.482 23.1193 208.482 25.1835V30.8188C208.482 32.883 209.046 34.5241 210.175 35.742C211.305 36.9599 212.732 37.5688 214.456 37.5688ZM284.902 44.2569C281.74 44.2569 279.348 43.4518 277.726 41.8417C276.104 40.2316 275.293 37.8785 275.293 34.7821V18.867H270.734V11.7454H276.217V0.454128H284.409V11.7454H290.815V18.867H284.409V37.1353H290.322V44.2569H284.902ZM311.182 45C308.801 45 306.676 44.6076 304.807 43.8227C302.939 43.0378 301.358 41.9018 300.064 40.4146C298.771 38.9275 297.775 37.1306 297.077 35.0238C296.379 32.917 296.03 30.5624 296.03 27.9598C296.03 25.3573 296.379 23.0027 297.077 20.8959C297.775 18.7891 298.771 17.0025 300.064 15.536C301.358 14.0695 302.939 12.9439 304.807 12.159C306.676 11.3741 308.801 10.9817 311.182 10.9817C313.564 10.9817 315.689 11.3741 317.558 12.159C319.426 12.9439 321.007 14.0695 322.301 15.536C323.594 17.0025 324.59 18.7891 325.288 20.8959C325.986 23.0027 326.335 25.3573 326.335 27.9598C326.335 30.5624 325.986 32.917 325.288 35.0238C324.59 37.1306 323.594 38.9275 322.301 40.4146C321.007 41.9018 319.426 43.0378 317.558 43.8227C315.689 44.6076 313.564 45 311.182 45ZM311.182 37.7502C312.989 37.7502 314.385 37.1925 315.371 36.0772C316.357 34.9618 316.849 33.3714 316.849 31.3059V24.6757C316.849 22.6103 316.357 21.0199 315.371 19.9045C314.385 18.7891 312.989 18.2315 311.182 18.2315C309.376 18.2315 307.979 18.7891 306.994 19.9045C306.008 21.0199 305.516 22.6103 305.516 24.6757V31.3059C305.516 33.3714 306.008 34.9618 306.994 36.0772C307.979 37.1925 309.376 37.7502 311.182 37.7502ZM332.7 44.2569V11.7248H341.826V18.7889H342.134C342.299 17.88 342.586 17.0022 342.997 16.1553C343.408 15.3085 343.953 14.5546 344.631 13.8936C345.31 13.2326 346.122 12.7059 347.067 12.3134C348.013 11.921 349.122 11.7248 350.397 11.7248H352V20.2761H349.719C347.047 20.2761 345.063 20.6272 343.768 21.3295C342.473 22.0318 341.826 23.333 341.826 25.2333V44.2569H332.7ZM106.182 45C103.063 45 100.437 44.494 98.3034 43.4819C96.6904 42.7168 95.2064 41.7097 93.8514 40.4607L97.9341 33.7225C99.083 35.0031 100.355 36.0152 101.75 36.7588C103.145 37.5023 104.725 37.8741 106.489 37.8741C108.295 37.8741 109.546 37.5953 110.244 37.0376C110.941 36.4799 111.29 35.726 111.29 34.7759C111.29 33.2474 110.203 32.3386 108.028 32.0495L104.52 31.6157C97.257 30.7069 93.6257 27.3609 93.6257 21.5775C93.6257 20.0078 93.9232 18.5723 94.5182 17.271C95.1131 15.9698 95.9543 14.8544 97.0416 13.925C98.129 12.9955 99.442 12.2726 100.981 11.7562C102.519 11.2398 104.253 10.9817 106.182 10.9817C107.864 10.9817 109.351 11.0953 110.644 11.3225C111.936 11.5497 113.085 11.8801 114.09 12.3139C115.096 12.7476 116.019 13.2847 116.86 13.925C117.286 14.2494 117.71 14.5924 118.131 14.9539L114.121 21.4536C113.095 20.4209 111.936 19.605 110.644 19.006C109.351 18.407 108.028 18.1075 106.674 18.1075C105.115 18.1075 104.007 18.3554 103.35 18.8511C102.694 19.3468 102.366 20.0078 102.366 20.834C102.366 21.7015 102.601 22.3727 103.073 22.8478C103.545 23.3229 104.438 23.6637 105.751 23.8702L109.382 24.3659C116.481 25.316 120.03 28.5795 120.03 34.1563C120.03 35.726 119.702 37.1718 119.045 38.4938C118.389 39.8157 117.455 40.962 116.245 41.9328C115.034 42.9035 113.578 43.6574 111.875 44.1945C110.172 44.7315 108.274 45 106.182 45ZM261.615 44.2564C259.971 44.2564 258.605 43.7401 257.516 42.7073C256.427 41.6746 255.739 40.2907 255.451 38.5557H255.081C254.588 40.6625 253.499 42.2632 251.815 43.3579C250.13 44.4527 248.055 45 245.589 45C242.343 45 239.857 44.1325 238.131 42.3975C236.406 40.6625 235.543 38.3698 235.543 35.5195C235.543 32.0908 236.786 29.5399 239.272 27.8669C241.758 26.1939 245.137 25.3573 249.411 25.3573H254.527V23.3125C254.527 21.7428 254.116 20.4932 253.294 19.5637C252.472 18.6342 251.096 18.1695 249.164 18.1695C247.356 18.1695 245.918 18.5619 244.85 19.3468C243.781 20.1317 242.898 21.0198 242.199 22.0113L237.864 15.7559C238.969 14.4792 240.26 13.4351 241.737 12.6237C243.73 11.529 246.432 10.9817 249.842 10.9817C254.445 10.9817 257.896 11.9937 260.197 14.0179C262.498 16.0421 263.649 18.9957 263.649 22.8788V37.1305H266.669V44.2564H261.615ZM248.979 38.6177C250.5 38.6177 251.804 38.2872 252.893 37.6263C253.982 36.9653 254.527 35.8913 254.527 34.4041V30.5623H250.089C246.514 30.5623 244.727 31.781 244.727 34.2182V35.1477C244.727 36.3457 245.096 37.2235 245.836 37.7812C246.576 38.3388 247.623 38.6177 248.979 38.6177Z" fill="#8F9BB3"/>
<path fill-rule="evenodd" clip-rule="evenodd" d="M18.9715 19.4093C18.0271 18.8723 16.6925 18.232 15.091 18.232C13.2431 18.232 11.8469 18.8413 10.9025 20.0599C9.958 21.2785 9.48577 22.9206 9.48577 24.9861V31.0585C9.48577 33.124 9.958 34.7661 10.9025 35.9847C11.8469 37.2033 13.1199 37.8126 14.9678 37.8126C19.4438 37.8126 20.0313 33.5784 22.2466 27.2733C24.6972 20.2983 26.4862 10.9821 37.4914 10.9821C39.8731 10.9821 41.3411 11.3746 43.2095 12.1595C45.0779 12.9444 46.6589 14.07 47.9524 15.5365C49.2459 17.003 50.2417 18.7896 50.9398 20.8964C51.6379 23.0032 51.9869 25.3578 51.9869 27.9603C51.9869 30.5628 51.6379 32.9175 50.9398 35.0243C50.2417 37.1311 49.2459 38.928 47.9524 40.4151C46.6589 41.9023 45.0779 43.0383 43.2095 43.8232C41.3411 44.6081 39.2161 45.0005 36.8343 45.0005C33.5349 45.0005 31.9048 44.1739 30.0589 43.4707L33.2225 36.7644C34.1118 37.277 35.3376 37.7507 36.8343 37.7507C40.6881 37.7507 42.5833 35.0656 42.5833 31.3064L42.5012 24.6762C42.5012 22.6108 42.0084 21.0204 41.0229 19.905C40.0373 18.7896 38.8876 18.232 37.0807 18.232C32.5226 18.232 31.7305 24.0535 29.4605 30.3774C27.0423 37.1145 25.6444 45.0005 15.2553 45.0005C12.8325 45.0005 10.5124 44.5977 8.62343 43.7922C6.73448 42.9867 5.15353 41.8507 3.88054 40.3842C2.60755 38.9177 1.64256 37.1311 0.985534 35.0243C0.328508 32.9175 0 30.5628 0 27.9603C0 25.3578 0.328508 23.0135 0.985534 20.9274C1.64256 18.8413 2.60755 17.0546 3.88054 15.5675C5.15353 14.0804 6.73448 12.9444 8.62343 12.1595C10.5124 11.3746 12.3446 10.9821 15.091 10.9821C17.8374 10.9821 20.4843 11.688 22.3335 12.6864L18.9715 19.4093Z" fill="#8F9BB3"/>
</g>
<defs>
<clipPath id="clip0_826_43093">
<rect width="352" height="45" fill="white"/>
</clipPath>
</defs>
</svg>
