<svg width="180" height="79" viewBox="0 0 180 79" fill="none" xmlns="http://www.w3.org/2000/svg">
<g clip-path="url(#clip0_949_32130)">
<path d="M179.495 68.2952C179.659 68.1642 179.79 67.9966 179.878 67.8056C179.971 67.5424 180.012 67.2635 179.999 66.9846V40.1094C180.011 39.8256 179.971 39.5419 179.878 39.2733C179.794 39.0866 179.662 38.9255 179.495 38.8063C179.089 38.495 178.147 38.3393 176.669 38.3393C175.191 38.3393 174.233 38.495 173.797 38.8063C173.631 38.9255 173.499 39.0866 173.414 39.2733C173.33 39.5434 173.296 39.827 173.316 40.1094V66.9997C173.293 67.2379 173.322 67.4785 173.403 67.7039C173.483 67.9293 173.613 68.1339 173.782 68.3028C174.188 68.6141 175.145 68.7698 176.654 68.7698C178.162 68.7698 179.109 68.6116 179.495 68.2952V68.2952ZM159.486 68.4459C160.882 67.9916 162.164 67.2414 163.244 66.2465C164.226 65.336 164.978 64.2054 165.439 62.9473C165.91 61.6046 166.144 60.19 166.131 58.7669V40.1094C166.16 39.8685 166.133 39.6242 166.052 39.3956C165.971 39.1669 165.838 38.9601 165.665 38.7912C165.224 38.4799 164.282 38.3242 162.838 38.3242C161.395 38.3242 160.438 38.4799 159.967 38.7912C159.793 38.9043 159.657 39.0669 159.576 39.2582C159.476 39.5307 159.425 39.819 159.426 40.1094V58.684C159.421 59.4531 159.292 60.2162 159.043 60.9437C158.741 61.768 158.143 62.4501 157.366 62.8569C156.312 63.4044 155.133 63.6642 153.946 63.6101C153.096 63.6282 152.248 63.5087 151.436 63.2561C150.801 63.0563 150.22 62.7136 149.737 62.2543C149.291 61.818 148.956 61.2807 148.76 60.6876C148.548 60.0386 148.444 59.3592 148.452 58.6765V40.1094C148.481 39.8685 148.454 39.6242 148.373 39.3956C148.292 39.1669 148.159 38.9601 147.986 38.7912C147.545 38.4799 146.603 38.3242 145.16 38.3242C143.716 38.3242 142.759 38.4799 142.288 38.7912C142.114 38.9043 141.978 39.0669 141.897 39.2582C141.817 39.5344 141.787 39.8225 141.807 40.1094V58.7593C141.794 60.1825 142.028 61.597 142.499 62.9398C142.947 64.2057 143.689 65.3467 144.663 66.2691C145.747 67.2532 147.029 67.993 148.422 68.4384C152.03 69.4929 155.863 69.4929 159.471 68.4384L159.486 68.4459ZM126.699 68.2952C126.861 68.1654 126.987 67.9971 127.067 67.8056C127.154 67.541 127.192 67.2629 127.18 66.9846V44.0488H133.87C134.275 44.0599 134.681 44.0117 135.072 43.9057C135.227 43.8542 135.37 43.7724 135.492 43.6651C135.615 43.5578 135.715 43.427 135.786 43.2805C136.027 42.7583 136.184 42.2017 136.252 41.6309C136.349 41.0733 136.404 40.5094 136.418 39.9437C136.427 39.672 136.397 39.4005 136.328 39.1377C136.269 38.9447 136.144 38.7791 135.974 38.6707C135.83 38.588 135.672 38.5319 135.508 38.505C135.217 38.4631 134.923 38.4455 134.629 38.4523H113.801C113.395 38.4411 112.99 38.4893 112.598 38.5954C112.437 38.6428 112.287 38.7227 112.158 38.8302C112.028 38.9377 111.922 39.0705 111.846 39.2206C111.614 39.6744 111.457 40.1627 111.38 40.6668C111.269 41.2807 111.214 41.9034 111.215 42.5272C111.216 42.8107 111.259 43.0925 111.343 43.3633C111.402 43.56 111.534 43.7269 111.711 43.8303C112.132 44.0126 112.592 44.0877 113.049 44.0488H120.498V66.9696C120.468 67.2138 120.498 67.4616 120.586 67.6914C120.674 67.9212 120.816 68.1259 121.001 68.2877C121.407 68.599 122.364 68.7547 123.873 68.7547C125.381 68.7547 126.321 68.6041 126.691 68.3028L126.699 68.2952Z" fill="#D40E14"/>
<path d="M4.65283 22.002H28.0969C30.412 22.002 32.1257 22.7552 32.8022 26.0016C33.5539 29.6397 33.2683 32.1706 29.1642 32.4568L21.798 32.984C27.225 67.256 58.8696 78.434 76.105 41.5031C78.9612 35.3944 79.8632 34.2796 83.0127 35.0554C87.2445 36.11 87.8232 38.3094 85.7938 44.4482C70.9186 89.9734 20.8434 94.538 11.0193 33.7599L5.05872 34.1892C0.19553 34.5357 0.000100253 30.4231 0.000100253 28.1634C-0.0149328 23.6214 1.66125 22.002 4.65283 22.002V22.002Z" fill="#D40E14"/>
<path d="M89.8454 17.4147C94.6442 17.4147 98.5345 13.5163 98.5345 8.70734C98.5345 3.89841 94.6442 0 89.8454 0C85.0465 0 81.1562 3.89841 81.1562 8.70734C81.1562 13.5163 85.0465 17.4147 89.8454 17.4147Z" fill="#D40E14"/>
</g>
<defs>
<clipPath id="clip0_949_32130">
<rect width="180" height="79" fill="white"/>
</clipPath>
</defs>
</svg>
