<svg width="283" height="36" viewBox="0 0 283 36" fill="none" xmlns="http://www.w3.org/2000/svg">
<g clip-path="url(#clip0_949_32145)">
<path fill-rule="evenodd" clip-rule="evenodd" d="M47.0781 35.4055V9.38019H54.4073V13.7921H54.7045C55.1667 12.4371 55.9755 11.2639 57.131 10.2725C58.2865 9.28104 59.8877 8.78532 61.9346 8.78532C64.6088 8.78532 66.6309 9.67761 68.001 11.4622C69.3712 13.2468 70.0562 15.7915 70.0562 19.0963V35.4055H62.727V19.6912C62.727 18.0057 62.4629 16.7582 61.9346 15.9485C61.4064 15.1388 60.4655 14.734 59.1119 14.734C58.5176 14.734 57.9399 14.8083 57.3786 14.957C56.8174 15.1058 56.3139 15.3454 55.8682 15.6758C55.4225 16.0063 55.0676 16.4111 54.8035 16.8903C54.5394 17.3695 54.4073 17.9231 54.4073 18.551V35.4055H47.0781ZM112.513 36C110.598 36 108.889 35.6861 107.387 35.0581C105.885 34.4302 104.614 33.5214 103.574 32.3317C102.534 31.142 101.734 29.7044 101.172 28.019C100.611 26.3336 100.33 24.4499 100.33 22.3679C100.33 20.2859 100.611 18.4022 101.172 16.7167C101.734 15.0313 102.534 13.602 103.574 12.4288C104.614 11.2556 105.885 10.3551 107.387 9.72718C108.889 9.09927 110.598 8.78532 112.513 8.78532C114.428 8.78532 116.136 9.09927 117.638 9.72718C119.14 10.3551 120.412 11.2556 121.451 12.4288C122.491 13.602 123.292 15.0313 123.853 16.7167C124.415 18.4022 124.695 20.2859 124.695 22.3679C124.695 24.4499 124.415 26.3336 123.853 28.019C123.292 29.7044 122.491 31.142 121.451 32.3317C120.412 33.5214 119.14 34.4302 117.638 35.0581C116.136 35.6861 114.428 36 112.513 36ZM112.513 30.2001C113.965 30.2001 115.088 29.754 115.88 28.8617C116.673 27.9694 117.069 26.6971 117.069 25.0447V19.7406C117.069 18.0882 116.673 16.8159 115.88 15.9236C115.088 15.0313 113.965 14.5852 112.513 14.5852C111.06 14.5852 109.938 15.0313 109.145 15.9236C108.353 16.8159 107.957 18.0882 107.957 19.7406V25.0447C107.957 26.6971 108.353 27.9694 109.145 28.8617C109.938 29.754 111.06 30.2001 112.513 30.2001ZM136.96 35.4055C134.451 35.4055 132.61 34.7945 131.438 33.5725C130.266 32.3505 129.68 30.5835 129.68 28.2716V0.363303H137.01V29.7083H140.278V35.4055H136.96ZM150.496 7.89358C149.085 7.89358 148.058 7.57251 147.416 6.93037C146.773 6.28823 146.452 5.46599 146.452 4.46363V3.42995C146.452 2.42758 146.773 1.60534 147.416 0.963205C148.058 0.321065 149.085 0 150.496 0C151.907 0 152.933 0.321065 153.576 0.963205C154.219 1.60534 154.54 2.42758 154.54 3.42995V4.46363C154.54 5.46599 154.219 6.28823 153.576 6.93037C152.933 7.57251 151.907 7.89358 150.496 7.89358ZM146.848 9.87523H154.177V35.4055H146.848V9.87523ZM177.221 31.0459H176.974C176.775 31.7395 176.462 32.3917 176.033 33.0028C175.603 33.6138 175.083 34.1422 174.473 34.5881C173.862 35.0339 173.169 35.3807 172.393 35.6284C171.617 35.8761 170.816 36 169.991 36C166.69 36 164.197 34.8358 162.513 32.5073C160.829 30.1789 159.988 26.8019 159.988 22.3761C159.988 17.9504 160.829 14.5817 162.513 12.2697C164.197 9.95779 166.69 8.80184 169.991 8.80184C171.675 8.80184 173.169 9.26422 174.473 10.189C175.777 11.1138 176.61 12.3027 176.974 13.756H177.221V0.363303H184.55V35.4055H177.221V31.0459ZM172.418 30.055C173.804 30.055 174.951 29.7165 175.859 29.0394C176.767 28.3624 177.221 27.4294 177.221 26.2404V18.5615C177.221 17.3725 176.767 16.4395 175.859 15.7624C174.951 15.0853 173.804 14.7468 172.418 14.7468C171.031 14.7468 169.884 15.2339 168.976 16.2083C168.068 17.1826 167.614 18.4954 167.614 20.1468V24.655C167.614 26.3064 168.068 27.6193 168.976 28.5936C169.884 29.5679 171.031 30.055 172.418 30.055ZM229.054 35.4055C226.512 35.4055 224.589 34.7615 223.285 33.4734C221.981 32.1853 221.329 30.3028 221.329 27.8257V15.0936H217.664V9.39633H222.071V0.363303H228.658V9.39633H233.808V15.0936H228.658V29.7083H233.412V35.4055H229.054ZM250.183 36C248.268 36 246.56 35.6861 245.058 35.0581C243.555 34.4302 242.284 33.5214 241.244 32.3317C240.205 31.142 239.404 29.7044 238.843 28.019C238.281 26.3336 238.001 24.4499 238.001 22.3679C238.001 20.2859 238.281 18.4022 238.843 16.7167C239.404 15.0313 240.205 13.602 241.244 12.4288C242.284 11.2556 243.555 10.3551 245.058 9.72718C246.56 9.09927 248.268 8.78532 250.183 8.78532C252.098 8.78532 253.806 9.09927 255.309 9.72718C256.811 10.3551 258.082 11.2556 259.122 12.4288C260.162 13.602 260.962 15.0313 261.524 16.7167C262.085 18.4022 262.365 20.2859 262.365 22.3679C262.365 24.4499 262.085 26.3336 261.524 28.019C260.962 29.7044 260.162 31.142 259.122 32.3317C258.082 33.5214 256.811 34.4302 255.309 35.0581C253.806 35.6861 252.098 36 250.183 36ZM250.183 30.2001C251.636 30.2001 252.758 29.754 253.551 28.8617C254.343 27.9694 254.739 26.6971 254.739 25.0447V19.7406C254.739 18.0882 254.343 16.8159 253.551 15.9236C252.758 15.0313 251.636 14.5852 250.183 14.5852C248.731 14.5852 247.608 15.0313 246.816 15.9236C246.023 16.8159 245.627 18.0882 245.627 19.7406V25.0447C245.627 26.6971 246.023 27.9694 246.816 28.8617C247.608 29.754 248.731 30.2001 250.183 30.2001ZM267.483 35.4055V9.37982H274.82V15.0311H275.068C275.2 14.304 275.431 13.6018 275.762 12.9243C276.092 12.2468 276.53 11.6436 277.075 11.1149C277.621 10.5861 278.273 10.1647 279.034 9.85076C279.794 9.5368 280.686 9.37982 281.711 9.37982H283V16.2209H281.165C279.017 16.2209 277.422 16.5018 276.381 17.0636C275.34 17.6254 274.82 18.6664 274.82 20.1867V35.4055H267.483ZM85.3671 36C82.8599 36 80.7486 35.5952 79.0332 34.7855C77.7364 34.1734 76.5433 33.3678 75.4539 32.3686L78.7363 26.978C79.66 28.0025 80.6826 28.8121 81.8043 29.407C82.9259 30.0019 84.1959 30.2993 85.6145 30.2993C87.066 30.2993 88.0721 30.0762 88.633 29.6301C89.1938 29.1839 89.4742 28.5808 89.4742 27.8207C89.4742 26.598 88.6 25.8709 86.8516 25.6396L84.031 25.2926C78.192 24.5655 75.2725 21.8887 75.2725 17.262C75.2725 16.0062 75.5116 14.8578 75.99 13.8168C76.4683 12.7758 77.1446 11.8835 78.0188 11.14C78.893 10.3964 79.9486 9.81806 81.1857 9.40496C82.4228 8.99187 83.8166 8.78532 85.3671 8.78532C86.7196 8.78532 87.9154 8.8762 88.9546 9.05796C89.9938 9.23973 90.9174 9.5041 91.7257 9.85111C92.5339 10.1981 93.2761 10.6277 93.9524 11.14C94.2951 11.3995 94.6356 11.6739 94.974 11.9631L91.7504 17.1629C90.9257 16.3367 89.9938 15.684 88.9546 15.2048C87.9154 14.7256 86.8516 14.486 85.7629 14.486C84.5093 14.486 83.6187 14.6843 83.0908 15.0809C82.563 15.4775 82.2991 16.0062 82.2991 16.6672C82.2991 17.3612 82.4888 17.8982 82.8682 18.2782C83.2475 18.6583 83.965 18.9309 85.0207 19.0962L87.9402 19.4927C93.6473 20.2528 96.5008 22.8636 96.5008 27.325C96.5008 28.5808 96.2369 29.7375 95.7091 30.795C95.1812 31.8525 94.4307 32.7696 93.4576 33.5462C92.4844 34.3228 91.3133 34.9259 89.9443 35.3556C88.5752 35.7852 87.0495 36 85.3671 36ZM210.332 35.4051C209.011 35.4051 207.912 34.9921 207.037 34.1659C206.161 33.3397 205.608 32.2326 205.377 30.8446H205.079C204.683 32.53 203.807 33.8106 202.453 34.6864C201.098 35.5621 199.43 36 197.448 36C194.838 36 192.839 35.306 191.452 33.918C190.064 32.53 189.37 30.6959 189.37 28.4156C189.37 25.6726 190.37 23.632 192.369 22.2935C194.367 20.9551 197.084 20.2859 200.52 20.2859H204.633V18.65C204.633 17.3942 204.303 16.3945 203.642 15.651C202.981 14.9074 201.875 14.5356 200.322 14.5356C198.868 14.5356 197.712 14.8495 196.853 15.4775C195.994 16.1054 195.284 16.8159 194.722 17.609L191.237 12.6047C192.125 11.5834 193.163 10.7481 194.351 10.099C195.953 9.2232 198.125 8.78532 200.867 8.78532C204.567 8.78532 207.342 9.59498 209.192 11.2143C211.042 12.8337 211.967 15.1965 211.967 18.303V29.7044H214.395V35.4051H210.332ZM200.173 30.8941C201.396 30.8941 202.445 30.6298 203.32 30.101C204.196 29.5722 204.633 28.713 204.633 27.5233V24.4499H201.065C198.191 24.4499 196.754 25.4248 196.754 27.3746V28.1182C196.754 29.0765 197.051 29.7788 197.646 30.2249C198.241 30.6711 199.083 30.8941 200.173 30.8941Z" fill="black"/>
<path fill-rule="evenodd" clip-rule="evenodd" d="M15.2527 15.5269C14.4933 15.0972 13.4204 14.585 12.1328 14.585C10.6472 14.585 9.52468 15.0725 8.76534 16.0474C8.006 17.0223 7.62634 18.3359 7.62634 19.9883V24.8463C7.62634 26.4987 8.006 27.8123 8.76534 28.7872C9.52468 29.7621 10.5481 30.2496 12.0338 30.2496C15.6324 30.2496 16.1047 26.8621 17.8857 21.8181C19.856 16.238 21.2943 8.78516 30.1422 8.78516C32.0571 8.78516 33.2373 9.09911 34.7395 9.72701C36.2416 10.3549 37.5127 11.2555 38.5526 12.4287C39.5926 13.6018 40.3932 15.0311 40.9544 16.7166C41.5157 18.402 41.7963 20.2857 41.7963 22.3677C41.7963 24.4497 41.5157 26.3334 40.9544 28.0188C40.3932 29.7043 39.5926 31.1418 38.5526 32.3316C37.5127 33.5213 36.2416 34.4301 34.7395 35.058C33.2373 35.6859 31.5288 35.9998 29.614 35.9998C26.9613 35.9998 25.6508 35.3385 24.1666 34.776L26.7102 29.411C27.4251 29.8211 28.4106 30.2 29.614 30.2C32.7123 30.2 34.236 28.0519 34.236 25.0446L34.17 19.7404C34.17 18.088 33.7738 16.8157 32.9815 15.9234C32.1891 15.0311 31.2647 14.585 29.8121 14.585C26.1475 14.585 25.5106 19.2422 23.6856 24.3014C21.7414 29.6911 20.6175 35.9998 12.2649 35.9998C10.317 35.9998 8.45171 35.6776 6.93304 35.0332C5.41436 34.3888 4.14332 33.48 3.11987 32.3068C2.09641 31.1336 1.32058 29.7043 0.792347 28.0188C0.264113 26.3334 0 24.4497 0 22.3677C0 20.2857 0.264113 18.4103 0.792347 16.7414C1.32058 15.0724 2.09641 13.6432 3.11987 12.4534C4.14332 11.2637 5.41436 10.3549 6.93304 9.72701C8.45171 9.09911 9.92477 8.78516 12.1328 8.78516C14.3409 8.78516 16.4689 9.34985 17.9556 10.1486L15.2527 15.5269Z" fill="url(#paint0_linear_949_32145)"/>
</g>
<defs>
<linearGradient id="paint0_linear_949_32145" x1="0" y1="8.78516" x2="28.9284" y2="39.7815" gradientUnits="userSpaceOnUse">
<stop stop-color="#C60FE9"/>
<stop offset="0.520015" stop-color="#0C6AF7"/>
<stop offset="1" stop-color="#2BE4FC"/>
</linearGradient>
<clipPath id="clip0_949_32145">
<rect width="283" height="36" fill="white"/>
</clipPath>
</defs>
</svg>
