<svg width="239" height="90" viewBox="0 0 239 90" fill="none" xmlns="http://www.w3.org/2000/svg">
<path d="M234.923 44.7287L234.869 44.6927C231.109 42.2434 228.258 40.3523 226.386 39.0855L226.35 39.0617C222.159 36.7142 218.521 35.5076 215.543 35.4835H215.519H215.495C208.735 36.0599 203.362 38.7014 199.514 43.3238C197.353 45.9595 196.242 48.6129 196.224 51.2123C196.212 52.7972 196.663 54.262 197.563 55.5647C197.599 56.213 197.887 56.7354 198.398 57.0896C199.826 58.7825 201.922 60.3914 204.623 61.8742C205.956 62.5946 208.369 63.7111 211.797 65.188C214.24 66.2446 216.702 67.2951 219.103 68.2916C221.804 69.6065 223.954 70.9331 225.515 72.2359V72.314C225.515 72.404 225.502 72.458 225.497 72.476L225.281 72.6202C224.962 72.644 224.668 72.7343 224.392 72.8902C224.206 72.9984 223.936 73.0643 223.599 73.1003L223.515 73.1125C222.032 73.4966 219.805 73.5987 216.882 73.4185C214.258 73.2745 211.605 72.9442 208.987 72.428C203.074 71.2873 198.704 69.9006 195.99 68.3157L195.834 68.1236L196.008 68.0396L196.086 67.9316C196.158 67.8295 196.374 67.6013 197.047 67.2231L197.299 67.0791V66.7848C197.305 66.3827 197.401 66.0466 197.593 65.7584L197.623 65.7044C197.755 65.4461 197.767 65.17 197.659 64.9178C197.491 64.5337 197.083 64.2455 196.338 64.0054C196.218 63.7952 195.978 63.5912 195.498 63.4771L195.444 63.4652C195.036 63.417 194.537 63.4109 193.907 63.453C192.676 63.5671 191.806 63.7653 191.259 64.0533C190.155 64.0835 188.462 64.5877 188.438 67.3973C188.432 67.9375 188.486 68.2736 188.606 68.4959C188.936 69.3244 189.489 70.1227 190.239 70.8791C185.605 73.6226 181.138 74.1749 173.934 74.1209C168.951 72.3079 166.718 68.9041 167.246 63.9093C167.499 62.9427 167.985 62.4626 168.711 62.4684C175.069 63.6512 178.371 64.2815 178.611 64.3595C181.996 64.6298 184.824 63.7232 187.093 61.646C190.989 58.0501 192.953 54.5201 192.982 51.0501C193.018 46.6977 189.909 42.4835 183.653 38.4013C182.129 37.5006 179.637 36.5522 176.179 35.5616C174.648 35.1473 173.202 34.9313 171.833 34.9192C170.542 34.9073 169.293 35.0634 168.081 35.3755C164.593 37.6869 161.591 40.5624 159.064 44.0083C155.396 49.1412 153.541 54.3641 153.499 59.6829C153.475 62.6005 153.985 65.242 155.024 67.6254C148.96 71.7976 141.846 73.8568 133.676 73.7909C128.693 71.9778 126.46 68.5738 126.988 63.5792C127.24 62.6126 127.726 62.1323 128.453 62.1383C134.81 63.3209 138.112 63.9514 138.352 64.0295C141.738 64.2995 144.566 63.3929 146.841 61.316C150.737 57.7198 152.7 54.19 152.73 50.72C152.766 46.3676 149.656 42.1534 143.401 38.071C141.876 37.1705 139.385 36.2219 135.927 35.2315C134.396 34.8173 132.949 34.601 131.581 34.5891C130.29 34.5772 129.041 34.7331 127.829 35.0454C124.341 37.3566 121.339 40.2323 118.811 43.6782C115.744 47.9705 113.949 52.329 113.415 56.7534C111.247 54.1958 107.105 52.1308 100.982 50.5459C98.9705 50.0477 95.3507 49.3334 90.1156 48.4028C85.5292 47.5624 81.9452 46.7639 79.3757 46.0193V45.6593C80.7446 45.4312 85.3072 44.5366 93.0634 42.9877C98.5504 41.9012 103.077 40.8925 106.631 39.95C117.857 36.8164 123.17 32.9502 122.564 28.3517C120.192 22.6904 116.836 18.5903 112.508 16.0569C109.458 14.1778 104.074 12.0407 96.3592 9.63932C87.7565 6.90782 77.1246 5.49703 64.4697 5.39497C44.7188 5.23288 24.7097 7.97641 4.43045 13.6195C3.94418 13.6135 3.2778 13.9317 2.42534 14.5681C1.57287 15.2104 1.14664 15.6907 1.14664 16.0088C0.408227 17.5337 0.0240134 20.0311 0 23.495C0.474262 24.3894 1.60288 25.158 3.36787 25.8182L3.96819 26.0643C4.93472 26.0704 5.82323 25.9984 6.62767 25.8422L7.11992 25.1218C7.11992 24.9598 7.52816 24.4434 8.33861 23.5609C8.35661 21.5499 9.82143 19.7429 12.733 18.158C15.0023 16.9694 17.3856 16.219 19.883 15.9188C20.6094 15.9248 22.0982 15.6967 24.3614 15.2284C32.7541 13.7636 43.1998 13.1633 55.6927 13.4274C67.8614 13.6075 77.929 15.0183 85.8895 17.6598C87.3362 18.3201 89.1792 19.2206 91.4305 20.3673C96.4071 22.9908 99.3249 25.6321 100.195 28.2976C100.67 29.6724 99.8892 30.9572 97.866 32.1458C95.4346 33.8988 92.1989 35.3635 88.1586 36.5401C77.4128 39.5958 64.9438 41.1929 50.758 41.3189C48.5008 41.3848 47.3783 40.8866 47.3841 39.842L47.3902 38.8756C47.4021 37.1046 47.4561 35.3696 47.5522 33.6765C47.6483 31.9836 47.2581 30.2907 46.3815 28.5917L45.8474 19.6408L45.8532 18.6743L42.4796 17.0774L41.8671 17.6778C39.922 18.7944 38.7034 20.5173 38.1991 22.8466C37.863 24.1374 37.7249 26.3284 37.7849 29.4323C37.8389 32.536 37.7008 34.7331 37.3707 36.0179C36.7884 38.3531 35.5217 40.0762 33.5826 41.1868L27.0509 41.1328C25.9164 41.4449 25.3521 41.763 25.3521 42.0872C24.7876 42.0812 24.4636 42.1592 24.3855 42.3215C24.3855 42.4054 24.4636 42.4835 24.6256 42.5676L25.346 43.0597C25.34 43.9482 25.8984 44.6747 27.0209 45.251L27.5011 45.9775C27.6633 46.1395 27.9815 46.3436 28.4616 46.5897C28.6238 46.7517 29.5002 47.244 31.1092 48.0605C32.3158 48.7148 32.9162 49.2431 32.9101 49.6454L32.8682 54.6042L29.9806 68.0036L29.9626 70.543C29.6383 70.9453 28.87 71.1372 27.6572 71.1314C26.6128 70.8011 25.7663 70.5909 25.1239 70.507L23.0708 70.489C22.5065 70.6449 22.2183 71.1674 22.2123 72.0559C22.7646 73.0283 23.5269 73.8388 24.4874 74.4931C24.5655 74.5772 25.49 75.1055 27.2552 76.0901C28.2996 76.4202 28.8218 76.9485 28.816 77.6748L28.762 84.3265C28.7498 85.6954 29.6683 86.95 31.5115 88.0966C33.1144 89.1532 34.6811 89.7715 36.212 89.9456C37.4967 90.1137 38.6314 89.8856 39.6038 89.2493C40.0061 89.2553 40.2102 88.9732 40.2163 88.4089L40.2221 87.6824L40.8465 85.0289C40.8586 83.7383 41.0267 82.7717 41.3507 82.1294L43.65 81.541L45.9434 81.7993C53.9158 82.9877 63.9052 83.4742 75.9179 83.2519C86.0755 83.0118 95.6448 81.3549 104.614 78.2812C107.771 76.6124 110.119 75.1415 111.662 73.8629C113.583 72.1398 114.783 70.3088 115.264 68.3697C116.53 70.8071 118.385 72.9442 120.847 74.7813C122.528 76.0841 125.703 77.3627 130.368 78.6054C135.357 79.9322 139.139 80.4063 141.72 80.0283C147.609 79.2658 152.178 77.651 155.42 75.1836C156.614 74.325 157.515 73.4005 158.127 72.4161C158.998 73.3766 159.982 74.271 161.099 75.1055C162.78 76.4083 165.955 77.687 170.62 78.9296C175.609 80.2562 179.391 80.7305 181.972 80.3523C187.862 79.59 192.43 77.975 195.672 75.5076C196.05 75.2376 196.368 74.9854 196.65 74.7392C202.444 77.2127 209.239 78.7436 216.894 79.2899C218.485 79.3979 219.961 79.4458 221.324 79.4458C223.641 79.4458 225.623 79.2957 227.25 78.9897C228.665 78.7015 230.13 78.125 231.584 77.2847C233.829 76.006 234.97 74.4632 234.988 72.7041C234.999 71.2873 234.117 69.9485 232.364 68.7119C226.296 64.5938 218.437 60.5955 209.005 56.8254C206.13 55.6847 204.677 54.3459 204.689 52.8391C204.707 50.678 206.856 48.4147 211.088 46.1035C213.67 44.6986 215.945 43.7261 217.878 43.2039L218.365 43.0478L218.869 43.0538C218.971 43.1618 219.097 43.264 219.235 43.354C219.295 43.7081 219.457 43.9363 219.625 44.0803C220.093 45.0048 220.796 46.0495 221.726 47.2022C223.635 49.4954 226.661 50.5639 230.713 50.3778C234.25 50.1798 236.122 49.2672 236.435 47.5804C236.603 46.6797 236.111 45.7433 234.923 44.7287ZM176.6 43.1978L177.446 42.9638L179.619 43.2219L180.099 43.8283C181.3 45.0469 182.014 46.0193 182.254 46.7459C182.213 52.2269 180.85 55.8829 178.178 57.7139L177.812 58.3142C176.762 58.6263 175.795 58.6205 174.913 58.2902C172.661 57.5459 171.545 56.0449 171.563 53.7877C171.587 50.4138 173.262 46.8838 176.6 43.1978ZM136.341 42.8736L137.188 42.6396L139.361 42.8977L139.841 43.5041C141.042 44.7227 141.756 45.6953 141.996 46.4216C141.954 51.9026 140.592 55.5587 137.92 57.3897L137.554 57.99C136.503 58.3023 135.537 58.2962 134.654 57.9659C132.403 57.2216 131.286 55.7209 131.304 53.4635C131.322 50.0896 133.003 46.5598 136.341 42.8736ZM98.0762 64.5758C95.0744 66.6469 91.4724 68.3517 87.2761 69.6905C79.1957 72.1218 69.8366 73.4606 59.1928 73.6948C55.4825 73.8269 50.8901 73.7909 45.4091 73.5866C42.9118 73.4846 41.7051 72.9503 41.7951 71.9837C41.9692 70.453 42.0592 69.2884 42.0653 68.4779C42.6116 60.8237 43.4221 55.3485 44.4964 52.0527L44.9829 51.6925L46.6819 51.1043L52.2407 51.1462L73.8828 51.3203C84.0283 52.9352 91.4245 54.8083 96.0831 56.9395C98.8146 58.1702 100.171 59.5508 100.159 61.0817C100.153 62.2164 99.457 63.3749 98.0762 64.5758Z" fill="#8F9BB3"/>
<path d="M153.001 24.2655C153.025 24.4397 153.037 24.5898 153.037 24.7158C153.037 25.5201 152.449 26.1085 151.266 26.4867C150.666 26.6609 150.036 26.7268 149.387 26.6728C148.757 26.6249 148.193 26.4087 147.694 26.0304C147.016 25.5262 146.602 25.0281 146.452 24.5236L146.188 24.2595C146.188 24.1335 146.049 24.0734 145.773 24.0734C145.773 24.0975 145.731 24.1274 145.641 24.1695C145.551 24.2055 145.509 24.2415 145.509 24.2655C145.107 24.5657 144.693 24.878 144.267 25.2081C143.84 25.5323 143.402 25.7483 142.952 25.8504C142.628 25.9285 142.171 25.9645 141.595 25.9645C140.238 25.7904 139.098 25.2261 138.173 24.2716C137.369 23.2931 136.918 22.2905 136.816 21.2639C136.642 19.3608 137.507 17.5118 139.41 15.7348C140.31 14.9064 141.313 14.18 142.417 13.5496C143.018 13.3215 143.582 13.2134 144.11 13.2134C145.065 13.2134 145.941 13.5136 146.746 14.1139C147.898 15.0144 148.577 16.035 148.775 17.1636C148.775 17.2657 148.823 17.3137 148.925 17.3137C148.925 17.5178 149.135 17.6139 149.567 17.6139C149.867 17.7399 150.318 17.902 150.924 18.1001C150.924 18.1482 151.05 18.2622 151.302 18.4363L151.452 18.5504V18.8145L151.302 19.0006C151.176 19.1027 151.002 19.2768 150.774 19.5289C150.546 19.655 150.378 19.8411 150.264 20.0932C150.15 20.3454 150.042 20.5975 149.946 20.8437C149.898 21.3179 149.772 21.9122 149.567 22.6147C149.465 22.8908 149.417 23.1549 149.417 23.4072C149.417 23.7312 149.507 24.0194 149.681 24.2716C149.856 24.896 150.156 25.2501 150.582 25.3221C150.93 25.4002 151.344 25.3221 151.825 25.094C152.299 24.8658 152.539 24.5776 152.539 24.2295C152.539 24.0554 152.401 23.9535 152.125 23.9294C152.251 23.8812 152.365 23.8513 152.461 23.8513C152.821 23.8513 153.001 23.9895 153.001 24.2655ZM146.188 19.709C146.188 19.583 146.139 19.4569 146.038 19.3308L145.887 19.2528L145.095 18.4243C145.071 18.3463 144.993 18.2202 144.867 18.0281C144.741 17.842 144.681 17.6979 144.681 17.5959C144.729 17.5718 144.783 17.4398 144.831 17.1996C144.879 16.9595 144.969 16.8394 145.095 16.8394C145.095 16.7614 145.035 16.7254 144.909 16.7254C144.783 16.7494 144.657 16.7614 144.531 16.7614C141.769 18.9406 140.394 20.8256 140.394 22.4045C140.394 22.8066 140.521 23.1669 140.773 23.4972C140.947 23.5752 141.049 23.6112 141.073 23.6112C141.121 23.6112 141.211 23.5991 141.337 23.5752C141.463 23.5512 141.547 23.5392 141.601 23.5392C142.405 23.2629 143.18 22.7648 143.936 22.0323C144.134 21.8042 144.753 21.1018 145.779 19.9251L146.188 19.709Z" fill="#8F9BB3"/>
<path d="M158.731 10.5695C158.93 10.7196 159.032 10.8817 159.032 11.0557C159.032 11.3799 158.816 11.7701 158.395 12.2204C157.693 13.0008 157.063 13.4751 156.516 13.6492L156.252 13.7272C155.976 13.8293 155.676 13.8773 155.352 13.8773C155.147 13.8773 154.949 13.8653 154.751 13.8413C153.544 13.289 152.908 12.7727 152.83 12.2984C152.752 11.8242 152.92 11.1578 153.317 10.3053C153.617 9.92712 154.007 9.69298 154.481 9.59094H155.532C156.738 9.59094 157.627 9.70499 158.203 9.92711C158.557 10.0532 158.731 10.2633 158.731 10.5695ZM161.403 24.1129C161.529 24.3651 161.589 24.5991 161.589 24.8273C161.589 25.4818 161.199 26.0699 160.424 26.5982C159.95 26.8984 159.386 27.1146 158.731 27.2348C158.179 27.3126 157.525 27.2467 156.774 27.0485C154.193 26.3701 152.95 24.8513 153.052 22.4981C153.1 21.5195 153.238 20.5049 153.467 19.4484C153.569 18.9201 153.617 18.4338 153.617 17.9836C153.617 17.5093 153.557 17.053 153.431 16.6268V16.4407C153.431 16.4167 153.454 16.3927 153.508 16.3627C153.557 16.3386 153.587 16.2846 153.587 16.2126C153.911 16.0625 154.175 15.9845 154.379 15.9845C154.481 15.9845 154.565 16.0085 154.643 16.0625H155.021C155.772 16.1406 156.876 16.3267 158.329 16.6268L158.593 16.8129C158.821 16.963 158.906 17.1371 158.857 17.3412C158.809 17.5693 158.683 17.7194 158.479 17.7915C157.729 18.9201 157.327 20.1748 157.273 21.5555C157.249 22.9364 157.513 24.191 158.065 25.3196L158.479 25.5837C158.479 25.6618 158.515 25.6978 158.593 25.6978C158.767 25.6978 159.194 25.5117 159.872 25.1335C160.712 24.6232 161.229 24.287 161.403 24.1129Z" fill="#8F9BB3"/>
<path d="M174.498 24.7168C174.522 24.8428 174.534 24.9688 174.534 25.0951C174.534 25.8695 174.12 26.4637 173.291 26.866C172.565 27.2141 171.808 27.3282 171.034 27.2022C168.698 26.848 167.258 25.8335 166.705 24.1525C166.453 23.426 166.339 22.6756 166.369 21.8952C166.393 21.1208 166.405 20.3884 166.405 19.71L165.877 19.8601V20.5745C165.301 23.156 164.07 25.1671 162.191 26.5958C161.915 26.848 161.453 27.022 160.798 27.1241C160.144 27.2263 159.718 27.0762 159.52 26.6739C159.52 26.3197 159.556 25.9595 159.634 25.5813C161.765 23.3 162.995 21.2949 163.32 19.5599C163.422 19.0316 163.331 18.4193 163.055 17.7169C162.731 16.8644 162.569 16.1861 162.569 15.6878C162.545 14.9374 162.683 14.271 162.983 13.6947C163.362 12.9683 163.896 12.6021 164.598 12.6021C165.102 12.6021 165.739 12.8542 166.519 13.3525L166.783 13.7307C166.783 14.7333 166.531 15.7899 166.033 16.8885V16.9665C166.033 17.2907 166.231 17.3807 166.633 17.2306H166.783C167.912 16.7564 168.639 16.5163 168.969 16.5163C170.073 16.5163 170.914 16.8404 171.49 17.4948C171.79 17.819 171.94 18.1732 171.94 18.5454C171.94 18.8215 171.79 19.2118 171.49 19.71C171.238 20.0882 171.004 20.4604 170.776 20.8386C170.301 21.7691 170.061 22.6216 170.061 23.3961C170.061 24.1766 170.301 24.8008 170.776 25.2751V25.4611C170.95 25.5392 171.076 25.5874 171.154 25.6112C171.232 25.6353 171.304 25.6472 171.382 25.6472C171.46 25.6472 171.52 25.6234 171.568 25.5694H171.832C172.427 25.107 173.321 24.8188 174.498 24.7168Z" fill="#8F9BB3"/>
<path d="M185.059 4.28636C185.059 4.58653 184.987 4.91072 184.831 5.26491C183.228 9.05301 180.569 14.2038 176.853 20.7295C176.648 21.0536 176.588 21.4558 176.666 21.9361C176.84 23.2389 177.579 24.4215 178.888 25.472L179.002 25.6581C179.128 25.6822 179.278 25.7063 179.452 25.7362C179.626 25.7603 179.83 25.7603 180.052 25.7362C180.857 25.7121 181.517 25.5382 182.045 25.2079C182.346 25.0099 182.874 24.5295 183.624 23.7791C183.876 24.1573 184.002 24.5416 184.002 24.9437C184.002 25.544 183.69 26.1205 183.06 26.6726C182.105 27.5492 181.163 27.9875 180.238 27.9875C179.458 27.9875 178.624 27.7234 177.717 27.1951C177.165 26.8709 176.588 26.5527 175.988 26.2526C173.857 25.4241 172.674 23.719 172.452 21.1377C172.404 20.4353 172.374 19.8109 172.374 19.2586C172.374 15.4946 173.076 10.896 174.481 5.45101L175.76 0.672368C175.784 0.624341 175.862 0.558306 175.988 0.486268C175.988 0.360198 176.024 0.294163 176.102 0.282157C176.18 0.270151 176.258 0.234128 176.348 0.168092C176.438 0.108059 176.528 0.0600316 176.63 0.0360184C176.732 0.0120052 176.894 0 177.117 0C179.272 0.0480265 181.571 0.864473 184.002 2.44334C184.453 2.99565 184.681 3.29582 184.681 3.34384C184.759 3.54796 184.885 3.86012 185.059 4.28636ZM181.673 3.87214C181.469 3.72206 181.271 3.64401 181.073 3.64401C180.749 3.64401 180.418 3.83011 180.094 4.20831C179.692 4.65856 179.38 5.19887 179.152 5.8232C178.978 6.80175 178.569 8.23655 177.927 10.1336C177.285 12.0306 176.883 13.4654 176.703 14.444C176.576 14.6181 176.552 14.8102 176.624 15.0083C176.672 15.2124 176.703 15.3745 176.703 15.4946L176.853 15.6446C177.027 15.7707 177.783 14.6181 179.11 12.1807C179.614 11.2802 180.064 10.4638 180.467 9.73737L180.995 8.72282C181.445 8.09847 181.757 7.29403 181.937 6.31548C182.039 5.86523 182.075 5.427 182.051 5.00076C181.997 4.57452 181.871 4.19632 181.673 3.87214Z" fill="#8F9BB3"/>
<path d="M188.473 10.5707C188.671 10.7207 188.773 10.8828 188.773 11.0569C188.773 11.3811 188.557 11.7713 188.137 12.2216C187.434 13.002 186.804 13.4763 186.258 13.6503L185.994 13.7284C185.718 13.8305 185.417 13.8785 185.093 13.8785C184.889 13.8785 184.691 13.8665 184.493 13.8425C183.286 13.2902 182.65 12.7739 182.572 12.2996C182.5 11.8253 182.662 11.159 183.058 10.3065C183.358 9.9283 183.748 9.69416 184.223 9.5921H185.273C186.48 9.5921 187.368 9.70618 187.945 9.9283C188.299 10.0544 188.473 10.2645 188.473 10.5707ZM191.145 24.1141C191.271 24.3663 191.331 24.6003 191.331 24.8285C191.331 25.483 190.94 26.0711 190.166 26.5994C189.692 26.8996 189.127 27.1158 188.473 27.2357C187.921 27.3138 187.266 27.2479 186.516 27.0497C183.934 26.3713 182.692 24.8525 182.794 22.4992C182.842 21.5207 182.98 20.5061 183.208 19.4496C183.31 18.9213 183.358 18.435 183.358 17.9847C183.358 17.5105 183.298 17.0542 183.172 16.628V16.4419C183.172 16.4179 183.196 16.3939 183.244 16.3638C183.292 16.3398 183.322 16.2858 183.322 16.2138C183.646 16.0637 183.911 15.9856 184.115 15.9856C184.217 15.9856 184.301 16.0096 184.379 16.0637H184.757C185.507 16.1417 186.612 16.3278 188.065 16.628L188.329 16.8141C188.557 16.9642 188.641 17.1383 188.593 17.3424C188.545 17.5705 188.419 17.7206 188.215 17.7926C187.464 18.9213 187.062 20.176 187.008 21.5567C186.984 22.9376 187.248 24.1922 187.801 25.3208L188.215 25.5849C188.215 25.663 188.251 25.699 188.329 25.699C188.503 25.699 188.929 25.5129 189.608 25.1347C190.454 24.6244 190.97 24.2882 191.145 24.1141Z" fill="#8F9BB3"/>
<path d="M207.031 22.8379C207.283 23.1621 207.409 23.4924 207.409 23.8164C207.409 24.819 206.743 25.4855 205.416 25.8097C204.461 26.1578 203.621 26.338 202.894 26.338C201.892 26.338 201.027 26.0617 200.301 25.5095C199.496 24.8852 198.794 23.7804 198.194 22.2016L198.044 21.9375L197.516 22.2016C197.437 22.3037 197.089 22.9641 196.465 24.1946C196.039 25.0231 195.588 25.5874 195.108 25.8878C195.06 25.8878 194.988 25.9058 194.904 25.9418C194.814 25.9778 194.748 25.9958 194.7 25.9958C194.526 26.1218 194.4 26.1818 194.322 26.1818H193.757C193.655 26.1818 193.517 26.1519 193.343 26.0858C193.169 26.0257 193.019 25.9897 192.893 25.9897L192.629 25.8756C190.672 25.2213 189.645 23.8826 189.543 21.8474C189.519 21.1691 189.567 20.3286 189.693 19.326C189.867 18.1494 189.957 17.3449 189.957 16.9187C189.981 16.4684 189.945 16.1143 189.843 15.8681C189.843 15.616 189.711 15.3278 189.447 15.0037C189.183 14.6795 189.051 14.4634 189.051 14.3673C189.051 14.0911 189.525 13.9771 190.48 14.0311C192.587 14.1332 193.787 14.9616 194.093 16.5165C194.142 16.8407 194.172 17.1828 194.172 17.5311C194.172 17.8552 194.129 18.3475 194.039 18.9959C193.949 19.6502 193.907 20.1605 193.907 20.5387L194.021 20.6888C194.021 20.7908 194.069 20.8389 194.172 20.8389C194.274 20.8389 194.322 20.7908 194.322 20.6888L194.436 20.5387C194.712 19.8603 194.976 19.2 195.228 18.5456C195.552 17.7952 195.918 17.1889 196.321 16.7386C197.047 15.9102 197.966 15.4959 199.07 15.4959C199.647 15.4959 200.325 15.622 201.099 15.8741C201.778 16.2283 202.114 16.6906 202.114 17.2669C202.264 17.7952 202.324 18.2935 202.3 18.7737C202.276 19.278 202.252 19.7763 202.222 20.2806C202.198 21.5353 202.348 22.5377 202.672 23.2883C203.051 24.2187 203.561 24.6811 204.215 24.6811C204.689 24.6811 205.218 24.4408 205.794 23.9667C206.19 23.6364 206.604 23.2643 207.031 22.8379Z" fill="#8F9BB3"/>
<path d="M220.833 21.8948C221.085 22.3211 221.211 22.7112 221.211 23.0595C221.211 23.7619 220.833 24.3863 220.083 24.9384C219.08 25.7129 217.663 26.2293 215.832 26.4813C215.028 26.6075 213.851 26.4693 212.296 26.067C210.844 25.6888 209.853 25.3047 209.325 24.9024C207.722 23.7259 206.917 22.129 206.917 20.1238C206.917 18.4669 207.482 16.84 208.61 15.2311C209.385 14.1505 210.315 13.2501 211.396 12.5237C211.774 12.4216 212.158 12.3736 212.56 12.3736C212.987 12.3736 213.437 12.4336 213.917 12.5597C214.998 12.8598 215.772 13.148 216.252 13.4242C218.21 14.6788 219.188 15.9816 219.188 17.3383C219.188 18.4189 218.588 19.5175 217.381 20.6461C216.679 21.3005 215.802 21.5887 214.746 21.5106C214.674 21.4866 213.641 21.3005 211.66 20.9463C211.432 20.9463 211.282 21.0964 211.21 21.3965C211.06 22.9515 211.762 24.0081 213.317 24.5544C216.265 24.5663 218.774 23.6778 220.833 21.8948ZM215.826 16.0236C215.748 15.7955 215.526 15.4953 215.148 15.1231L214.998 14.937L214.32 14.8589L214.055 14.937C213.029 16.0896 212.513 17.1942 212.513 18.2448C212.513 18.9472 212.861 19.4094 213.563 19.6376C213.839 19.7396 214.14 19.7396 214.464 19.6376L214.578 19.4515C215.412 18.8751 215.826 17.7285 215.826 16.0236Z" fill="#8F9BB3"/>
</svg>
