<svg width="206" height="90" viewBox="0 0 206 90" fill="none" xmlns="http://www.w3.org/2000/svg">
<g clip-path="url(#clip0_826_43085)">
<path d="M204.917 77.8048C205.104 77.6556 205.254 77.4646 205.355 77.2471C205.461 76.9471 205.507 76.6295 205.492 76.3117V45.6944C205.507 45.371 205.46 45.0479 205.355 44.7419C205.258 44.5292 205.107 44.3457 204.917 44.2098C204.454 43.8551 203.378 43.6778 201.691 43.6778C200.003 43.6778 198.91 43.8551 198.413 44.2098C198.223 44.3457 198.072 44.5292 197.975 44.7419C197.878 45.0496 197.841 45.3727 197.863 45.6944V76.3289C197.836 76.6003 197.87 76.8744 197.962 77.1312C198.054 77.388 198.202 77.621 198.395 77.8134C198.859 78.1681 199.951 78.3454 201.673 78.3454C203.395 78.3454 204.477 78.1652 204.917 77.8048ZM182.074 77.9765C183.668 77.4589 185.131 76.6043 186.365 75.4708C187.485 74.4335 188.344 73.1455 188.87 71.7123C189.408 70.1826 189.675 68.571 189.66 66.9497V45.6944C189.693 45.42 189.662 45.1417 189.57 44.8812C189.477 44.6207 189.326 44.3851 189.128 44.1927C188.624 43.838 187.549 43.6606 185.901 43.6606C184.254 43.6606 183.161 43.838 182.623 44.1927C182.425 44.3214 182.269 44.5067 182.177 44.7247C182.063 45.0351 182.005 45.3635 182.006 45.6944V66.8553C182 67.7315 181.852 68.6009 181.568 69.4297C181.223 70.3688 180.541 71.1458 179.654 71.6093C178.451 72.233 177.104 72.529 175.75 72.4674C174.779 72.488 173.811 72.3518 172.884 72.0641C172.159 71.8364 171.495 71.446 170.944 70.9228C170.435 70.4257 170.053 69.8136 169.829 69.1379C169.587 68.3985 169.468 67.6246 169.477 66.8468V45.6944C169.51 45.42 169.479 45.1417 169.387 44.8812C169.295 44.6207 169.143 44.3851 168.945 44.1927C168.442 43.838 167.366 43.6606 165.719 43.6606C164.071 43.6606 162.978 43.838 162.441 44.1927C162.242 44.3214 162.087 44.5067 161.994 44.7247C161.903 45.0393 161.868 45.3676 161.891 45.6944V66.9412C161.876 68.5624 162.144 70.174 162.681 71.7037C163.193 73.1458 164.04 74.4458 165.152 75.4965C166.389 76.6177 167.852 77.4605 169.443 77.9679C173.562 79.1692 177.938 79.1692 182.057 77.9679L182.074 77.9765ZM144.643 77.8048C144.828 77.6569 144.972 77.4652 145.064 77.2471C145.163 76.9455 145.206 76.6287 145.193 76.3117V50.1823H152.83C153.293 50.195 153.755 50.1401 154.203 50.0192C154.379 49.9606 154.542 49.8675 154.682 49.7452C154.822 49.6229 154.936 49.4739 155.018 49.307C155.292 48.7122 155.472 48.0781 155.55 47.4277C155.66 46.7925 155.723 46.1501 155.739 45.5056C155.749 45.1961 155.715 44.8868 155.636 44.5874C155.569 44.3676 155.426 44.1788 155.232 44.0554C155.068 43.9612 154.888 43.8972 154.7 43.8666C154.368 43.8189 154.032 43.7988 153.696 43.8065H129.918C129.455 43.7938 128.993 43.8487 128.545 43.9696C128.361 44.0235 128.19 44.1146 128.043 44.237C127.895 44.3595 127.774 44.5109 127.687 44.6818C127.422 45.1988 127.243 45.7551 127.155 46.3294C127.029 47.0288 126.965 47.7381 126.966 48.4489C126.968 48.7718 127.017 49.0928 127.112 49.4014C127.18 49.6255 127.33 49.8156 127.533 49.9334C128.014 50.1411 128.538 50.2266 129.06 50.1823H137.564V76.2946C137.53 76.5728 137.564 76.8551 137.665 77.1169C137.765 77.3787 137.928 77.6119 138.139 77.7962C138.602 78.1509 139.695 78.3283 141.417 78.3283C143.139 78.3283 144.211 78.1567 144.635 77.8134L144.643 77.8048Z" fill="#8F9BB3"/>
<path d="M5.31182 25.0654H32.0763C34.7192 25.0654 36.6757 25.9235 37.448 29.622C38.3061 33.7666 37.9801 36.6499 33.2948 36.976L24.8853 37.5766C31.0809 76.6207 67.2073 89.355 86.8838 47.2819C90.1446 40.3226 91.1743 39.0526 94.7698 39.9364C99.601 41.1378 100.262 43.6435 97.9448 50.6371C80.9628 102.501 23.7955 107.701 12.58 38.4605L5.7752 38.9496C0.223223 39.3444 0.000114452 34.6591 0.000114452 32.0847C-0.0170477 26.9103 1.89654 25.0654 5.31182 25.0654Z" fill="#8F9BB3"/>
<path d="M102.57 19.8395C108.049 19.8395 112.49 15.3983 112.49 9.91975C112.49 4.44122 108.049 0 102.57 0C97.0916 0 92.6504 4.44122 92.6504 9.91975C92.6504 15.3983 97.0916 19.8395 102.57 19.8395Z" fill="#8F9BB3"/>
</g>
<defs>
<clipPath id="clip0_826_43085">
<rect width="205.494" height="90" fill="white"/>
</clipPath>
</defs>
</svg>
