<svg width="228" height="90" viewBox="0 0 228 90" fill="none" xmlns="http://www.w3.org/2000/svg">
<path d="M0 23.5761C0 21.5945 1.09352 20.6037 2.98289 20.6037H34.9165C36.9051 20.6037 37.8994 21.5945 37.8973 23.5761V26.0658C37.8973 28.0516 36.9051 29.1398 34.9165 29.1398H9.05844V50.442H29.4468C31.4333 50.442 32.4276 51.4328 32.4297 53.4166V55.8957C32.4297 57.8794 31.4333 58.9697 29.4468 58.9697H9.05844V81.4744H34.9165C36.9135 81.4744 37.8973 82.5626 37.8973 84.5464V87.0234C37.8973 89.0071 36.9051 89.9979 34.9165 89.9979H2.99133C1.10196 89.9979 0.00844413 89.0071 0.00844413 87.0255L0 23.5761ZM56.4912 20.6037H59.4741C61.4712 20.6037 62.5583 21.5945 62.5583 23.5761V54.31L85.8304 22.6869C86.7255 21.3954 87.7198 20.6037 89.7084 20.6037H93.9895C95.881 20.6037 96.4784 22.8944 95.482 24.1731L75.7903 49.5528L95.9823 86.5301C96.7761 88.0163 96.0795 89.9979 94.0888 89.9979H90.2044C88.1145 89.9979 87.1223 89.4051 86.2272 87.6204L70.0145 57.0855L62.5583 66.803V87.0255C62.5583 89.0071 61.4648 89.9979 59.4741 89.9979H56.4912C54.6019 89.9979 53.5084 89.0071 53.5084 87.0255V23.5761C53.5084 21.5945 54.6019 20.6037 56.4912 20.6037ZM120.236 29.1271C120.236 29.1271 109.305 29.1271 107.308 29.1271C105.311 29.1271 104.323 28.0389 104.323 26.0552V23.5782C104.323 21.5945 105.317 20.6037 107.308 20.6037H142.315C144.306 20.6037 145.3 21.5945 145.298 23.5761V26.0658C145.298 28.0516 144.306 29.1398 142.315 29.1398H129.284V87.0255C129.284 89.0071 128.29 89.9979 126.299 89.9979H123.32C121.321 89.9979 120.238 89.0071 120.238 87.0255L120.236 29.1271ZM157.027 40.8283C157.027 26.6522 165.978 19.5133 177.914 19.5133C189.847 19.5133 198.798 26.6522 198.798 40.8283V87.0276C198.798 89.0092 197.806 90 195.815 90H192.83C190.842 90 189.847 89.0092 189.847 87.0276V66.604H165.978V87.0255C165.978 89.0071 164.986 89.9979 162.995 89.9979H160.014C158.026 89.9979 157.029 89.0071 157.027 87.0255V40.8283ZM165.978 58.0784H189.847V41.7217C189.847 31.5109 184.477 28.041 177.914 28.041C171.348 28.041 165.978 31.5109 165.978 41.7217V58.0784ZM215.355 6.00118e-05C212.874 0.0172893 210.454 0.771362 208.4 2.16705C206.347 3.56274 204.751 5.53744 203.816 7.84179C203.116 9.56421 202.805 11.4205 202.905 13.2776C203.005 15.1347 203.513 16.9467 204.393 18.5838C205.273 20.2208 206.503 21.6424 207.996 22.7467C209.488 23.851 211.205 24.6106 213.024 24.9712C215.458 25.4514 217.98 25.197 220.27 24.2402C222.559 23.2834 224.515 21.6672 225.889 19.5959C227.265 17.5254 228 15.0928 228 12.6031C227.987 9.25008 226.647 6.0393 224.276 3.67534C223.103 2.50507 221.711 1.57814 220.18 0.947516C218.649 0.316896 217.01 -0.00505532 215.355 6.00118e-05ZM215.355 20.0913C213.881 20.0816 212.444 19.6342 211.224 18.8056C210.004 17.977 209.056 16.8044 208.5 15.4358C207.945 14.0674 207.805 12.5648 208.098 11.1168C208.391 9.66884 209.105 8.34014 210.149 7.2977C210.93 6.5186 211.873 5.9227 212.91 5.55285C213.948 5.183 215.055 5.0484 216.15 5.15874C217.246 5.26907 218.304 5.6216 219.248 6.19096C220.191 6.76032 220.997 7.53235 221.608 8.45151C222.425 9.67943 222.862 11.1254 222.864 12.6031C222.858 14.0887 222.414 15.5393 221.588 16.7721C220.761 18.0049 219.589 18.9646 218.22 19.5303C217.312 19.905 216.337 20.0956 215.355 20.0913Z" fill="white"/>
</svg>
