<svg width="209" height="74" viewBox="0 0 209 74" fill="none" xmlns="http://www.w3.org/2000/svg">
<path d="M38.2153 44.5792C43.2358 44.5792 47.3057 40.5263 47.3057 35.5269C47.3057 30.5275 43.2358 26.4746 38.2153 26.4746C33.1949 26.4746 29.125 30.5275 29.125 35.5269C29.125 40.5263 33.1949 44.5792 38.2153 44.5792Z" fill="#314E81"/>
<path d="M51.1077 28.9185C54.207 28.9185 56.7194 26.4166 56.7194 23.3303C56.7194 20.2441 54.207 17.7422 51.1077 17.7422C48.0085 17.7422 45.4961 20.2441 45.4961 23.3303C45.4961 26.4166 48.0085 28.9185 51.1077 28.9185Z" fill="#314E81"/>
<path d="M38.2152 23.6665C41.3144 23.6665 43.8268 21.1646 43.8268 18.0784C43.8268 14.9921 41.3144 12.4902 38.2152 12.4902C35.1159 12.4902 32.6035 14.9921 32.6035 18.0784C32.6035 21.1646 35.1159 23.6665 38.2152 23.6665Z" fill="#314E81"/>
<path d="M25.5264 28.9172C28.6757 28.9172 31.2286 26.375 31.2286 23.2389C31.2286 20.1028 28.6757 17.5605 25.5264 17.5605C22.3772 17.5605 19.8242 20.1028 19.8242 23.2389C19.8242 26.375 22.3772 28.9172 25.5264 28.9172Z" fill="#314E81"/>
<path d="M19.8226 41.1158C22.9218 41.1158 25.4342 38.6139 25.4342 35.5276C25.4342 32.4414 22.9218 29.9395 19.8226 29.9395C16.7234 29.9395 14.2109 32.4414 14.2109 35.5276C14.2109 38.6139 16.7234 41.1158 19.8226 41.1158Z" fill="#314E81"/>
<path d="M25.1537 54.4279C28.2837 54.4279 30.8211 51.9012 30.8211 48.7843C30.8211 45.6674 28.2837 43.1406 25.1537 43.1406C22.0237 43.1406 19.4863 45.6674 19.4863 48.7843C19.4863 51.9012 22.0237 54.4279 25.1537 54.4279Z" fill="#314E81"/>
<path d="M38.2152 59.4009C41.3144 59.4009 43.8268 56.899 43.8268 53.8128C43.8268 50.7265 41.3144 48.2246 38.2152 48.2246C35.1159 48.2246 32.6035 50.7265 32.6035 53.8128C32.6035 56.899 35.1159 59.4009 38.2152 59.4009Z" fill="#314E81"/>
<path d="M50.7991 54.149C53.8984 54.149 56.4108 51.6471 56.4108 48.5608C56.4108 45.4746 53.8984 42.9727 50.7991 42.9727C47.6999 42.9727 45.1875 45.4746 45.1875 48.5608C45.1875 51.6471 47.6999 54.149 50.7991 54.149Z" fill="#314E81"/>
<path d="M59.9647 62.7422C62.3938 62.7422 64.363 60.7812 64.363 58.3623C64.363 55.9434 62.3938 53.9824 59.9647 53.9824C57.5356 53.9824 55.5664 55.9434 55.5664 58.3623C55.5664 60.7812 57.5356 62.7422 59.9647 62.7422Z" fill="#314E81"/>
<path d="M38.215 71.6037C40.6723 71.6037 42.6644 69.62 42.6644 67.1729C42.6644 64.7259 40.6723 62.7422 38.215 62.7422C35.7577 62.7422 33.7656 64.7259 33.7656 67.1729C33.7656 69.62 35.7577 71.6037 38.215 71.6037Z" fill="#314E81"/>
<path d="M15.5978 62.7873C18.0551 62.7873 20.0472 60.8036 20.0472 58.3565C20.0472 55.9095 18.0551 53.9258 15.5978 53.9258C13.1405 53.9258 11.1484 55.9095 11.1484 58.3565C11.1484 60.8036 13.1405 62.7873 15.5978 62.7873Z" fill="#314E81"/>
<path d="M6.50797 39.9572C8.96529 39.9572 10.9573 37.9735 10.9573 35.5265C10.9573 33.0794 8.96529 31.0957 6.50797 31.0957C4.05065 31.0957 2.05859 33.0794 2.05859 35.5265C2.05859 37.9735 4.05065 39.9572 6.50797 39.9572Z" fill="#314E81"/>
<path d="M15.4064 18.4728C17.8637 18.4728 19.8558 16.4891 19.8558 14.0421C19.8558 11.595 17.8637 9.61133 15.4064 9.61133C12.9491 9.61133 10.957 11.595 10.957 14.0421C10.957 16.4891 12.9491 18.4728 15.4064 18.4728Z" fill="#314E81"/>
<path d="M38.215 8.8615C40.6723 8.8615 42.6644 6.87779 42.6644 4.43075C42.6644 1.98371 40.6723 0 38.215 0C35.7577 0 33.7656 1.98371 33.7656 4.43075C33.7656 6.87779 35.7577 8.8615 38.215 8.8615Z" fill="#314E81"/>
<path d="M60.6369 18.1388C63.0942 18.1388 65.0863 16.1551 65.0863 13.7081C65.0863 11.2611 63.0942 9.27734 60.6369 9.27734C58.1796 9.27734 56.1875 11.2611 56.1875 13.7081C56.1875 16.1551 58.1796 18.1388 60.6369 18.1388Z" fill="#314E81"/>
<path d="M75.2812 50.378V21.0312H80.8546V50.378H75.2812Z" fill="#314E81"/>
<path d="M95.1874 50.378V25.5626H85.5664V21.0312H110.379V25.5626H100.76V50.378H95.1874Z" fill="#314E81"/>
<path d="M110.285 41.7113V37.75H121.715V41.7113H110.285Z" fill="#314E81"/>
<path d="M127.382 45.449V33.1731H123.572V29.1262H127.382V23.3184H132.383V29.1262H137.05V33.1731H132.383V44.3043C132.383 45.7565 133.144 46.8122 134.574 46.8122C135.526 46.8122 136.432 46.4653 136.812 46.0641L138.003 49.5398C137.098 50.3318 135.621 50.9042 133.287 50.9042C129.43 50.9053 127.382 48.9686 127.382 45.449Z" fill="#314E81"/>
<path d="M140.145 39.7308C140.145 33.6594 144.673 28.5996 151.955 28.5996C159.338 28.5996 163.814 33.6594 163.814 39.7308C163.814 45.8462 159.337 50.906 151.955 50.906C144.669 50.9071 140.145 45.8462 140.145 39.7308ZM158.624 39.7308C158.624 35.9915 156.242 32.6916 151.957 32.6916C147.718 32.6916 145.338 35.9915 145.338 39.7308C145.338 43.5152 147.72 46.814 151.957 46.814C156.242 46.8152 158.624 43.5152 158.624 39.7308Z" fill="#314E81"/>
<path d="M184.39 50.3772V47.5618C182.722 49.2776 179.861 50.9056 176.246 50.9056C171.292 50.9056 168.863 48.5295 168.863 44.174V29.1265H173.864V42.502C173.864 45.802 175.674 46.8137 178.484 46.8137C181.009 46.8137 183.2 45.4932 184.39 44.0387V29.123H189.391V50.3772H184.39Z" fill="#314E81"/>
<path d="M195.867 50.3789V29.1282H200.868V32.2501C202.583 30.2266 205.345 28.6426 208.346 28.6426V33.2179C207.827 33.122 207.301 33.0778 206.774 33.086C204.684 33.086 201.868 34.4065 200.868 35.9015V50.3789H195.867Z" fill="#314E81"/>
<path d="M75.4902 65.1573V58.2129H80.5573V65.1573H80.1382V58.6095H75.9094V65.1573H75.4902Z" fill="#314E81"/>
<path d="M82.0006 62.6462C81.9931 62.3081 82.0544 61.972 82.181 61.6582C82.3075 61.3445 82.4966 61.0595 82.7368 60.8205C82.9705 60.5847 83.2489 60.3975 83.5559 60.2697C83.8628 60.142 84.1922 60.0762 84.5249 60.0762C84.8576 60.0762 85.187 60.142 85.4939 60.2697C85.8009 60.3975 86.0793 60.5847 86.313 60.8205C86.5532 61.0595 86.7423 61.3445 86.8689 61.6582C86.9954 61.972 87.0567 62.3081 87.0492 62.6462C87.0568 62.9901 86.9957 63.3322 86.8693 63.6524C86.7429 63.9725 86.5538 64.2645 86.313 64.5112C86.0825 64.7526 85.8052 64.9448 85.4978 65.0761C85.1904 65.2075 84.8594 65.2752 84.5249 65.2752C84.1904 65.2752 83.8594 65.2075 83.552 65.0761C83.2446 64.9448 82.9673 64.7526 82.7368 64.5112C82.496 64.2645 82.3069 63.9725 82.1805 63.6524C82.0541 63.3322 81.993 62.9901 82.0006 62.6462V62.6462ZM82.4291 62.6462C82.4212 62.937 82.4709 63.2265 82.5755 63.4981C82.6802 63.7697 82.8375 64.0181 83.0387 64.2291C83.2294 64.4311 83.4597 64.5921 83.7153 64.7021C83.9709 64.8122 84.2464 64.8689 84.5249 64.8689C84.8034 64.8689 85.0789 64.8122 85.3345 64.7021C85.5901 64.5921 85.8204 64.4311 86.0111 64.2291C86.2123 64.0181 86.3697 63.7697 86.4743 63.4981C86.5789 63.2265 86.6286 62.937 86.6207 62.6462C86.6275 62.3623 86.577 62.0799 86.4723 61.8158C86.3676 61.5516 86.2108 61.3111 86.0111 61.1084C85.818 60.9105 85.5869 60.7531 85.3316 60.6457C85.0764 60.5383 84.802 60.483 84.5249 60.483C84.2478 60.483 83.9734 60.5383 83.7182 60.6457C83.4629 60.7531 83.2318 60.9105 83.0387 61.1084C82.8389 61.3111 82.6821 61.5516 82.5774 61.8157C82.4727 62.0799 82.4222 62.3623 82.4291 62.6462V62.6462Z" fill="#314E81"/>
<path d="M88.3926 65.1576V60.1973H88.8025V63.7284L88.7734 64.5378H88.7932C89.0207 64.2071 89.2057 63.9373 89.3482 63.7284L92.0083 60.1973H92.388V65.1576H91.9792V61.6148L92.0083 60.8413H91.9885C91.761 61.1496 91.5759 61.4075 91.4335 61.6148L88.7734 65.1564L88.3926 65.1576Z" fill="#314E81"/>
<path d="M94.4679 64.5558C93.9841 64.0764 93.7422 63.4532 93.7422 62.6862C93.7422 61.9192 93.9876 61.2925 94.4783 60.8061C94.7093 60.5702 94.9862 60.3838 95.2921 60.2584C95.598 60.1329 95.9264 60.071 96.2572 60.0765C96.5855 60.0769 96.9109 60.1373 97.2174 60.2546C97.518 60.364 97.7874 60.5445 98.0023 60.7807L97.7492 61.1183C97.5625 60.9183 97.3348 60.7605 97.0815 60.6558C96.822 60.5423 96.5418 60.4833 96.2583 60.4824C95.9824 60.4768 95.7084 60.5282 95.4534 60.6332C95.1984 60.7383 94.968 60.8948 94.7767 61.0929C94.3742 61.4999 94.173 62.0306 94.173 62.685C94.173 63.3395 94.3742 63.8652 94.7767 64.2621C94.9688 64.4588 95.1995 64.6139 95.4544 64.718C95.7092 64.822 95.9829 64.8727 96.2583 64.8669C96.5669 64.8662 96.8721 64.802 97.1547 64.6784C97.4354 64.561 97.6852 64.381 97.885 64.1523L98.0998 64.4992C97.879 64.7464 97.6041 64.9398 97.2963 65.0646C96.9681 65.2034 96.6149 65.2742 96.2583 65.2727C95.9266 65.2808 95.5967 65.2214 95.2888 65.0982C94.981 64.9749 94.7016 64.7903 94.4679 64.5558V64.5558Z" fill="#314E81"/>
<path d="M99.3438 65.1576V60.1973H99.7536V62.3941H100.601L102.199 60.1973H102.716L100.955 62.5583V62.578L102.914 65.1576H102.378L100.605 62.7769H99.7571V65.1576H99.3438Z" fill="#314E81"/>
<path d="M106.371 65.1576V60.1973H106.781V63.7284L106.752 64.5378H106.772C106.999 64.2071 107.184 63.9373 107.327 63.7284L109.987 60.1973H110.362V65.1576H109.953V61.6148L109.982 60.8413H109.962C109.735 61.1496 109.55 61.4075 109.407 61.6148L106.751 65.1576H106.371Z" fill="#314E81"/>
<path d="M114.282 62.3897C114.278 62.0182 114.301 61.6468 114.35 61.2785C114.397 60.9629 114.483 60.6544 114.608 60.3605C114.736 60.0576 114.927 59.7853 115.169 59.5615C115.449 59.3072 115.764 59.0935 116.105 58.9267L117.962 57.9844L118.147 58.3509L116.257 59.3037C115.678 59.595 115.274 59.9419 115.043 60.3443C114.792 60.8181 114.65 61.342 114.629 61.8775H114.657C115.044 61.0773 115.687 60.6773 116.586 60.6773C116.862 60.6689 117.135 60.7195 117.389 60.8256C117.643 60.9317 117.871 61.0909 118.058 61.2924C118.445 61.7025 118.638 62.2614 118.638 62.969C118.638 63.6504 118.438 64.2058 118.039 64.6351C117.843 64.847 117.604 65.0143 117.338 65.1256C117.071 65.237 116.784 65.2897 116.495 65.2803C115.754 65.2803 115.202 65.0159 114.838 64.4871C114.474 63.9583 114.289 63.2592 114.282 62.3897ZM114.769 62.9447C114.769 63.5398 114.933 64.0111 115.262 64.3588C115.42 64.5227 115.61 64.653 115.82 64.7421C116.03 64.8311 116.256 64.8771 116.484 64.8771C116.713 64.8771 116.939 64.8311 117.149 64.7421C117.359 64.653 117.549 64.5227 117.707 64.3588C118.035 64.015 118.199 63.5525 118.199 62.9713C118.199 62.3901 118.039 61.9276 117.717 61.5838C117.569 61.4183 117.386 61.2866 117.182 61.1977C116.977 61.1087 116.756 61.0645 116.533 61.0681C116.293 61.0596 116.055 61.1037 115.834 61.1972C115.613 61.2907 115.416 61.4314 115.256 61.6092C114.929 61.9763 114.756 62.4543 114.773 62.9447H114.769Z" fill="#314E81"/>
<path d="M120.021 67.1408V60.1964H120.431V60.7895L120.402 61.1861H120.422C120.559 60.852 120.797 60.5689 121.104 60.3768C121.424 60.176 121.797 60.0728 122.175 60.0796C122.47 60.0679 122.763 60.1261 123.031 60.2496C123.298 60.373 123.532 60.5581 123.714 60.7895C124.094 61.2659 124.284 61.8941 124.284 62.6742C124.284 63.4543 124.083 64.0825 123.68 64.5589C123.492 64.7889 123.254 64.9729 122.984 65.0968C122.714 65.2207 122.418 65.2811 122.121 65.2735C121.761 65.2767 121.408 65.1733 121.107 64.9763C120.798 64.7768 120.556 64.4902 120.41 64.1531H120.391C120.419 64.297 120.432 64.4435 120.43 64.5901V67.1397L120.021 67.1408ZM120.421 62.6869C120.408 63.2332 120.568 63.7697 120.878 64.2201C121.012 64.4246 121.196 64.5916 121.412 64.7053C121.629 64.819 121.871 64.8757 122.116 64.87C122.354 64.8726 122.59 64.8207 122.804 64.7183C123.019 64.6158 123.207 64.4656 123.354 64.2791C123.685 63.886 123.851 63.3518 123.851 62.6765C123.851 62.0152 123.693 61.4844 123.378 61.0844C123.237 60.8943 123.053 60.7407 122.84 60.6363C122.628 60.5319 122.393 60.4797 122.156 60.4843C121.921 60.4799 121.689 60.5269 121.475 60.6221C121.261 60.7172 121.071 60.8581 120.918 61.0347C120.587 61.4016 120.421 61.952 120.421 62.6858V62.6869Z" fill="#314E81"/>
<path d="M125.303 62.6462C125.296 62.3081 125.357 61.972 125.484 61.6582C125.61 61.3445 125.799 61.0595 126.04 60.8205C126.273 60.5847 126.552 60.3975 126.859 60.2697C127.166 60.142 127.495 60.0762 127.828 60.0762C128.16 60.0762 128.49 60.142 128.797 60.2697C129.104 60.3975 129.382 60.5847 129.616 60.8205C129.856 61.0595 130.045 61.3445 130.172 61.6582C130.298 61.972 130.359 62.3081 130.352 62.6462C130.36 62.9901 130.298 63.3322 130.172 63.6524C130.046 63.9725 129.857 64.2645 129.616 64.5112C129.385 64.7526 129.108 64.9448 128.801 65.0761C128.493 65.2075 128.162 65.2752 127.828 65.2752C127.493 65.2752 127.162 65.2075 126.855 65.0761C126.547 64.9448 126.27 64.7526 126.04 64.5112C125.799 64.2645 125.61 63.9725 125.483 63.6524C125.357 63.3322 125.296 62.9901 125.303 62.6462V62.6462ZM125.732 62.6462C125.724 62.937 125.774 63.2265 125.878 63.4981C125.983 63.7697 126.14 64.0181 126.341 64.2291C126.532 64.4311 126.762 64.5921 127.018 64.7021C127.274 64.8122 127.549 64.8689 127.828 64.8689C128.106 64.8689 128.382 64.8122 128.637 64.7021C128.893 64.5921 129.123 64.4311 129.314 64.2291C129.515 64.0181 129.672 63.7697 129.777 63.4981C129.881 63.2264 129.931 62.937 129.923 62.6462C129.93 62.3623 129.88 62.0799 129.775 61.8158C129.67 61.5516 129.514 61.3111 129.314 61.1084C129.121 60.9105 128.89 60.7531 128.634 60.6457C128.379 60.5383 128.105 60.483 127.828 60.483C127.551 60.483 127.276 60.5383 127.021 60.6457C126.766 60.7531 126.535 60.9105 126.341 61.1084C126.142 61.3111 125.985 61.5516 125.88 61.8157C125.775 62.0799 125.725 62.3623 125.732 62.6462V62.6462Z" fill="#314E81"/>
<path d="M131.695 65.1576V60.1973H132.105V62.4092H135.291V60.1973H135.7V65.1576H135.291V62.7954H132.105V65.1564L131.695 65.1576Z" fill="#314E81"/>
<path d="M137.395 65.1576V60.1973H137.804V63.7284L137.775 64.5378H137.795C138.023 64.2071 138.208 63.9373 138.35 63.7284L141.014 60.1973H141.393V65.1576H140.985V61.6148L141.014 60.8413H140.994C140.766 61.1496 140.581 61.4075 140.439 61.6148L137.779 65.1564L137.395 65.1576Z" fill="#314E81"/>
<path d="M143.086 67.1406V60.1961H143.496V60.7893L143.467 61.1859H143.487C143.623 60.8518 143.862 60.5687 144.168 60.3765C144.489 60.1758 144.861 60.0725 145.24 60.0793C145.534 60.0687 145.827 60.128 146.094 60.2522C146.361 60.3765 146.594 60.5621 146.775 60.7939C147.155 61.2703 147.345 61.8985 147.345 62.6786C147.345 63.4587 147.144 64.0869 146.741 64.5633C146.553 64.7933 146.315 64.9773 146.045 65.1011C145.775 65.225 145.479 65.2855 145.182 65.2778C144.822 65.281 144.469 65.1776 144.168 64.9807C143.859 64.7811 143.617 64.4946 143.471 64.1574H143.453C143.481 64.3014 143.495 64.4478 143.492 64.5945V67.144L143.086 67.1406ZM143.485 62.6867C143.472 63.2329 143.632 63.7694 143.943 64.2199C144.076 64.4243 144.26 64.5913 144.477 64.705C144.694 64.8188 144.936 64.8754 145.181 64.8697C145.419 64.8724 145.654 64.8205 145.869 64.718C146.083 64.6156 146.271 64.4653 146.418 64.2788C146.75 63.8857 146.915 63.3515 146.915 62.6763C146.915 62.0149 146.758 61.4842 146.443 61.0841C146.302 60.8941 146.117 60.7404 145.905 60.636C145.692 60.5316 145.457 60.4795 145.22 60.484C144.986 60.4796 144.753 60.5267 144.54 60.6218C144.326 60.7169 144.135 60.8578 143.982 61.0344C143.652 61.4013 143.487 61.9517 143.487 62.6855L143.485 62.6867Z" fill="#314E81"/>
<path d="M148.368 62.6462C148.36 62.3081 148.422 61.972 148.548 61.6582C148.675 61.3445 148.864 61.0595 149.104 60.8205C149.338 60.5847 149.616 60.3975 149.923 60.2697C150.23 60.142 150.559 60.0762 150.892 60.0762C151.225 60.0762 151.554 60.142 151.861 60.2697C152.168 60.3975 152.446 60.5847 152.68 60.8205C152.92 61.0595 153.11 61.3445 153.236 61.6582C153.363 61.972 153.424 62.3081 153.416 62.6462C153.424 62.9901 153.363 63.3322 153.236 63.6524C153.11 63.9725 152.921 64.2645 152.68 64.5112C152.45 64.7526 152.172 64.9448 151.865 65.0761C151.558 65.2075 151.227 65.2752 150.892 65.2752C150.558 65.2752 150.227 65.2075 149.919 65.0761C149.612 64.9448 149.334 64.7526 149.104 64.5112C148.863 64.2645 148.674 63.9725 148.548 63.6524C148.421 63.3322 148.36 62.9901 148.368 62.6462V62.6462ZM148.796 62.6462C148.788 62.937 148.838 63.2265 148.943 63.4981C149.047 63.7697 149.205 64.0181 149.406 64.2291C149.597 64.4311 149.827 64.5921 150.082 64.7021C150.338 64.8122 150.614 64.8689 150.892 64.8689C151.171 64.8689 151.446 64.8122 151.702 64.7021C151.957 64.5921 152.188 64.4311 152.378 64.2291C152.579 64.0181 152.737 63.7697 152.841 63.4981C152.946 63.2264 152.996 62.937 152.988 62.6462C152.995 62.3623 152.944 62.0799 152.84 61.8158C152.735 61.5516 152.578 61.3111 152.378 61.1084C152.185 60.9105 151.954 60.7531 151.699 60.6457C151.444 60.5383 151.169 60.483 150.892 60.483C150.615 60.483 150.341 60.5383 150.085 60.6457C149.83 60.7531 149.599 60.9105 149.406 61.1084C149.206 61.3109 149.048 61.5513 148.943 61.8155C148.838 62.0796 148.787 62.3621 148.794 62.6462H148.796Z" fill="#314E81"/>
<path d="M154.76 65.1576V60.1973H156.29C156.79 60.1973 157.181 60.3048 157.464 60.5199C157.747 60.7349 157.888 61.0475 157.888 61.4576C157.888 62.0064 157.628 62.3702 157.109 62.5491V62.5687C157.404 62.6156 157.674 62.7651 157.869 62.9908C158.058 63.2139 158.158 63.498 158.151 63.7897C158.157 63.9791 158.119 64.1672 158.04 64.3394C157.961 64.5115 157.842 64.663 157.694 64.7818C157.389 65.0331 156.963 65.1587 156.417 65.1587L154.76 65.1576ZM155.17 62.3999H156.31C157.07 62.3999 157.45 62.0858 157.45 61.4576C157.45 60.8687 157.057 60.5742 156.272 60.5742H155.171L155.17 62.3999ZM155.17 64.7714H156.378C157.275 64.7714 157.723 64.4442 157.723 63.7897C157.732 63.6458 157.705 63.5019 157.644 63.371C157.584 63.2402 157.491 63.1265 157.375 63.0405C157.142 62.8717 156.808 62.7873 156.371 62.7873H155.173L155.17 64.7714Z" fill="#314E81"/>
<path d="M159.057 63.8356C159.053 63.6204 159.096 63.4071 159.183 63.2101C159.257 63.0409 159.363 62.8876 159.496 62.7591C159.638 62.6314 159.801 62.5289 159.978 62.4562C160.152 62.3783 160.333 62.3153 160.519 62.2677C160.71 62.2231 160.904 62.1914 161.099 62.1729C161.327 62.1498 161.502 62.1367 161.625 62.1336C161.748 62.1305 161.898 62.1305 162.073 62.1336H162.395V61.9648C162.395 60.9796 161.95 60.4871 161.06 60.4871C160.554 60.4822 160.062 60.6504 159.666 60.9635L159.434 60.6258C159.648 60.4462 159.897 60.3114 160.165 60.2292C160.46 60.1305 160.769 60.0801 161.081 60.0801C161.646 60.0801 162.075 60.2389 162.367 60.5565C162.66 60.874 162.806 61.3404 162.806 61.9555V65.1595H162.397V64.5004L162.436 64.0541H162.416C162.286 64.3982 162.061 64.6991 161.768 64.9225C161.466 65.1552 161.092 65.2777 160.71 65.2694C160.292 65.2775 159.884 65.1465 159.549 64.897C159.221 64.6527 159.057 64.2989 159.057 63.8356ZM159.485 63.8055C159.486 63.9471 159.515 64.087 159.572 64.2167C159.629 64.3464 159.712 64.463 159.816 64.5594C159.939 64.6725 160.083 64.7598 160.241 64.816C160.398 64.8722 160.565 64.8962 160.732 64.8866C160.973 64.8899 161.21 64.8318 161.421 64.7181C161.633 64.6044 161.812 64.4387 161.941 64.2368C162.243 63.8124 162.403 63.3037 162.398 62.7834V62.5152H162.086C161.885 62.5152 161.721 62.5152 161.594 62.5152C161.467 62.5152 161.285 62.5283 161.048 62.5545C160.851 62.569 160.656 62.6078 160.468 62.6701C160.304 62.7316 160.144 62.8047 159.99 62.8886C159.832 62.971 159.701 63.0986 159.615 63.2552C159.526 63.4249 159.481 63.6149 159.486 63.8067L159.485 63.8055Z" fill="#314E81"/>
<path d="M164.455 65.1576V60.1973H164.865V62.4092H168.051V60.1973H168.46V65.1576H168.051V62.7954H164.865V65.1564L164.455 65.1576Z" fill="#314E81"/>
<path d="M170.158 65.1576V60.1973H170.568V63.7284L170.539 64.5378H170.559C170.786 64.2071 170.971 63.9373 171.114 63.7284L173.774 60.1973H174.154V65.1576H173.745V61.6148L173.774 60.8413H173.754C173.527 61.1496 173.342 61.4075 173.199 61.6148L170.539 65.1564L170.158 65.1576Z" fill="#314E81"/>
<path d="M175.506 62.6863C175.506 61.8792 175.738 61.2425 176.203 60.7761C176.419 60.5518 176.679 60.3743 176.967 60.2549C177.256 60.1355 177.566 60.0768 177.878 60.0824C178.508 60.0824 178.997 60.299 179.344 60.7322C179.701 61.1928 179.885 61.7627 179.866 62.344C179.866 62.4034 179.859 62.4928 179.846 62.6123H175.939C175.939 63.306 176.139 63.8568 176.538 64.2646C176.73 64.4634 176.961 64.6204 177.217 64.7255C177.473 64.8306 177.748 64.8816 178.024 64.8751C178.306 64.8807 178.585 64.828 178.845 64.7203C179.105 64.6127 179.339 64.4523 179.534 64.2495L179.758 64.5964C179.528 64.8114 179.258 64.9798 178.964 65.0924C178.665 65.2148 178.346 65.2787 178.023 65.2809C177.692 65.2884 177.362 65.2285 177.055 65.1048C176.747 64.9812 176.468 64.7964 176.235 64.5617C175.749 64.0784 175.506 63.4533 175.506 62.6863ZM175.963 62.2238H179.433C179.406 61.6487 179.247 61.2121 178.955 60.9137C178.815 60.7681 178.645 60.6532 178.457 60.5764C178.269 60.4995 178.067 60.4624 177.864 60.4674C177.406 60.4616 176.963 60.6266 176.622 60.9299C176.268 61.2344 176.049 61.6645 175.964 62.2203L175.963 62.2238Z" fill="#314E81"/>
<path d="M184.879 65.1568V60.5827H183.027V60.1953H187.14V60.5827H185.288V65.1556L184.879 65.1568Z" fill="#314E81"/>
<path d="M187.783 66.6052C187.947 66.757 188.163 66.8419 188.387 66.8434C188.774 66.8434 189.092 66.5458 189.341 65.9508L189.69 65.1275L187.673 60.1973H188.112L189.72 64.1551L189.895 64.6176H189.915C189.96 64.4634 190.016 64.3093 190.081 64.1551L191.689 60.1973H192.128L189.623 66.3184C189.37 66.9351 188.958 67.2434 188.386 67.2434C188.248 67.2432 188.111 67.2197 187.982 67.1741C187.878 67.1429 187.78 67.0957 187.691 67.0342L187.594 66.9648L187.783 66.6052Z" fill="#314E81"/>
<path d="M193.264 67.1406V60.1961H193.674V60.7893L193.645 61.1859H193.664C193.801 60.8518 194.039 60.5687 194.346 60.3765C194.666 60.1758 195.039 60.0725 195.418 60.0793C195.712 60.0687 196.005 60.128 196.272 60.2522C196.539 60.3765 196.772 60.5621 196.953 60.7939C197.333 61.2703 197.523 61.8985 197.523 62.6786C197.523 63.4587 197.321 64.0869 196.919 64.5633C196.731 64.7933 196.493 64.9773 196.223 65.1011C195.952 65.225 195.657 65.2855 195.359 65.2778C194.999 65.281 194.647 65.1776 194.346 64.9807C194.037 64.7811 193.794 64.4946 193.649 64.1574H193.629C193.658 64.3014 193.671 64.4478 193.669 64.5945V67.144L193.264 67.1406ZM193.663 62.6867C193.65 63.2329 193.81 63.7694 194.121 64.2199C194.254 64.4243 194.438 64.5913 194.655 64.705C194.871 64.8188 195.113 64.8754 195.358 64.8697C195.596 64.8724 195.832 64.8205 196.046 64.718C196.261 64.6156 196.449 64.4653 196.596 64.2788C196.927 63.8857 197.093 63.3515 197.093 62.6763C197.093 62.0149 196.936 61.4842 196.62 61.0841C196.48 60.8941 196.295 60.7404 196.082 60.636C195.87 60.5316 195.635 60.4795 195.398 60.484C195.164 60.4796 194.931 60.5267 194.717 60.6218C194.503 60.7169 194.313 60.8578 194.16 61.0344C193.832 61.4013 193.668 61.9517 193.668 62.6855L193.663 62.6867Z" fill="#314E81"/>
<path d="M198.551 62.6462C198.544 62.3081 198.605 61.972 198.732 61.6582C198.858 61.3445 199.047 61.0595 199.288 60.8205C199.521 60.5847 199.8 60.3975 200.107 60.2697C200.414 60.142 200.743 60.0762 201.076 60.0762C201.408 60.0762 201.738 60.142 202.045 60.2697C202.352 60.3975 202.63 60.5847 202.864 60.8205C203.104 61.0595 203.293 61.3445 203.42 61.6582C203.546 61.972 203.607 62.3081 203.6 62.6462C203.608 62.9901 203.546 63.3322 203.42 63.6524C203.294 63.9725 203.105 64.2645 202.864 64.5112C202.633 64.7526 202.356 64.9448 202.049 65.0761C201.741 65.2075 201.41 65.2752 201.076 65.2752C200.741 65.2752 200.41 65.2075 200.103 65.0761C199.795 64.9448 199.518 64.7526 199.288 64.5112C199.047 64.2645 198.858 63.9725 198.731 63.6524C198.605 63.3322 198.544 62.9901 198.551 62.6462V62.6462ZM198.98 62.6462C198.972 62.937 199.022 63.2265 199.126 63.4981C199.231 63.7697 199.388 64.0181 199.589 64.2291C199.78 64.4311 200.01 64.5921 200.266 64.7021C200.522 64.8122 200.797 64.8689 201.076 64.8689C201.354 64.8689 201.63 64.8122 201.885 64.7021C202.141 64.5921 202.371 64.4311 202.562 64.2291C202.763 64.0181 202.92 63.7697 203.025 63.4981C203.13 63.2264 203.179 62.937 203.171 62.6462C203.178 62.3623 203.128 62.0799 203.023 61.8158C202.918 61.5516 202.762 61.3111 202.562 61.1084C202.369 60.9105 202.138 60.7531 201.882 60.6457C201.627 60.5383 201.353 60.483 201.076 60.483C200.799 60.483 200.524 60.5383 200.269 60.6457C200.014 60.7531 199.783 60.9105 199.589 61.1084C199.39 61.3111 199.233 61.5516 199.128 61.8157C199.023 62.0799 198.973 62.3623 198.98 62.6462Z" fill="#314E81"/>
<path d="M204.943 65.1576V60.1973H206.474C206.974 60.1973 207.365 60.3048 207.648 60.5199C207.93 60.7349 208.071 61.0475 208.071 61.4576C208.071 62.0064 207.812 62.3702 207.292 62.5491V62.5687C207.588 62.6156 207.857 62.7651 208.053 62.9908C208.242 63.2139 208.342 63.498 208.335 63.7897C208.341 63.9791 208.303 64.1672 208.224 64.3394C208.144 64.5115 208.026 64.663 207.878 64.7818C207.573 65.0331 207.147 65.1587 206.6 65.1587L204.943 65.1576ZM205.353 62.3999H206.493C207.254 62.3999 207.634 62.0858 207.634 61.4576C207.634 60.8687 207.241 60.5742 206.455 60.5742H205.354L205.353 62.3999ZM205.353 64.7714H206.562C207.458 64.7714 207.907 64.4442 207.907 63.7897C207.916 63.6458 207.889 63.5019 207.828 63.371C207.767 63.2402 207.674 63.1265 207.558 63.0405C207.326 62.8717 206.992 62.7873 206.555 62.7873H205.352L205.353 64.7714Z" fill="#314E81"/>
</svg>
