<svg width="495" height="49" viewBox="0 0 495 49" fill="none" xmlns="http://www.w3.org/2000/svg">
<path fill-rule="evenodd" clip-rule="evenodd" d="M79.196 8.20438V40.0033H100.518V33.7048H87.1242V8.20438H79.196ZM123.287 40.0033V17.1178H115.835V30.3703C115.835 33.4696 114.6 35.087 112.137 35.087C109.809 35.087 108.865 33.7048 108.857 30.3703V17.1178H101.405V30.6553C101.405 34.4244 101.547 35.2794 102.54 36.9965C103.875 39.2836 106.487 40.6231 109.716 40.6231C112.328 40.6231 114.408 39.7111 116.26 37.7589L116.502 40.0033H123.287ZM139.605 8.20438H135.524C129.682 8.19725 127.446 10.4416 127.446 16.448V17.1178H124.217V22.1694H127.446V40.0033H134.906V22.1694H139.321V17.1178H134.906V16.448C134.906 13.9186 135.616 13.256 138.37 13.256H139.605V8.20438ZM143.594 9.96426V17.1178H140.457V22.1694H143.594V33.2773C143.601 37.9513 145.595 39.9961 150.003 40.0033H155.61V34.7593H154.141C151.288 34.7521 151.103 34.5669 151.054 31.2324V22.1694H155.277V17.1178H151.054V9.96426H143.594ZM157.278 8.20438V40.0033H164.731V27.0286C164.731 23.8865 165.966 22.262 168.436 22.262C170.714 22.262 171.708 23.744 171.708 27.0286V40.0033H179.125V26.7508C179.125 22.9318 178.983 21.977 177.982 20.2171C176.605 17.7875 174.086 16.448 170.956 16.448C168.053 16.448 166.108 17.4526 164.731 19.697V8.20438H157.278ZM205.692 17.1178V40.0033H213.152V27.0286C213.152 23.8865 214.38 22.262 216.8 22.262C219.128 22.262 220.079 23.6443 220.079 27.0286V40.0033H227.539V26.7508C227.539 22.9816 227.347 21.977 226.396 20.2171C225.069 17.8303 222.5 16.448 219.32 16.448C216.566 16.448 214.479 17.4526 212.719 19.697L212.485 17.1178H205.692ZM250.316 24.2641C250.124 21.7419 250.025 21.3571 249.365 20.2171C247.846 17.4526 244.9 16.163 240.145 16.163C233.359 16.163 229.221 19.1626 229.221 24.1216C229.221 27.7483 231.556 29.7005 236.965 30.6553L239.342 31.04C242.238 31.5601 243.473 32.3225 243.473 33.662C243.473 34.9445 242.146 35.7568 239.96 35.7568C237.44 35.7568 235.872 34.5669 235.872 32.6574V32.3724H228.611C228.611 37.9014 232.791 40.9509 240.436 40.9509C246.894 40.9509 251.025 37.8515 251.025 32.9923C251.025 29.0308 248.513 26.7508 243.097 25.8388L240.535 25.3614C238.058 24.9838 236.965 24.314 236.965 23.2168C236.965 22.0269 238.107 21.3144 239.96 21.3144C242.238 21.3144 243.14 22.1266 243.331 24.2641H250.316ZM188.494 24.4138H181.709C181.709 19.2196 185.747 16.163 192.49 16.163C199.56 16.163 203.08 19.1199 203.08 25.1263V36.8041C203.08 38.8063 203.08 38.8063 203.698 40.0033H196.806L196.38 38.0938C194.009 40.1885 191.965 40.9509 188.97 40.9509C183.945 40.9509 180.289 37.9513 180.282 33.8045C180.289 30.3703 182.518 27.9335 186.883 26.7009C187.55 26.5085 189.729 26.081 193.484 25.3614C195.095 25.0265 195.713 24.5064 195.713 23.4091C195.713 22.1266 194.385 21.2645 192.391 21.2645C189.971 21.2645 188.544 22.4116 188.494 24.4138ZM195.904 30.6553V29.0379C194.953 29.3229 194.669 29.4155 193.91 29.6578C193.008 29.8929 192.199 30.0853 191.206 30.2776C188.785 30.8975 187.593 31.8451 187.593 33.3271C187.593 34.802 188.736 35.6641 190.588 35.6641C194.194 35.6641 195.904 34.0396 195.904 30.6553ZM260.565 24.4138H253.73C253.786 19.2624 257.811 16.163 264.603 16.163C271.68 16.163 275.144 19.1199 275.144 25.1263V36.8041C275.144 38.7564 275.144 38.7564 275.761 40.0033H268.827L268.45 38.0938C265.696 40.331 264.078 40.9509 261.04 40.9509C255.965 40.9509 252.31 37.9513 252.31 33.8045C252.31 30.3703 254.539 27.9335 258.904 26.7009C259.564 26.5085 261.757 26.0311 265.498 25.3614C267.073 25.0265 267.741 24.5064 267.741 23.4091C267.741 22.1266 266.406 21.2645 264.461 21.2645C262.041 21.2645 260.565 22.4544 260.565 24.4138ZM267.975 30.6553V29.0379C267.024 29.3229 266.69 29.4155 265.931 29.6578C265.129 29.8003 264.22 29.9855 263.226 30.2776C260.806 30.8975 259.614 31.8451 259.614 33.3271C259.614 34.802 260.756 35.6641 262.651 35.6641C266.264 35.6641 267.975 34.0396 267.975 30.6553ZM8.70827 18.6496L8.14045 19.9321C6.91254 19.5046 5.58525 19.1199 4.96775 19.0273L4.63416 20.2171C7.19644 20.9795 10.3691 22.4971 14.2445 24.7344C24.0465 30.5769 25.9416 31.3321 36.6379 34.1394L38.5827 32.1871C37.731 32.2441 37.5393 32.2441 37.2057 32.2441C33.1813 32.2441 28.6884 30.3845 25.9842 27.677C28.9226 26.0169 31.8611 25.3471 36.354 25.3471C36.9715 25.3471 37.4967 25.3471 39.1008 25.4469L39.7396 24.6845C38.5614 24.5919 38.2065 24.5776 37.1631 24.5776C34.5157 24.5776 32.7838 24.6061 30.3635 24.8484L30.9668 23.6799C32.2941 23.4875 34.8138 23.402 36.8508 23.402C38.1355 23.402 39.8177 23.4661 40.6694 23.516L41.3011 22.718C40.0732 22.661 38.1497 22.5684 36.3966 22.5684C34.5583 22.5684 32.6632 22.6183 31.3856 22.718L31.9889 21.4854C33.4581 21.4426 34.2885 21.407 35.5165 21.407C37.7452 21.407 39.2002 21.4711 42.1812 21.5709L42.7845 20.8156C41.1379 20.6731 39.1576 20.6161 36.5953 20.6161C35.0835 20.6161 34.2673 20.609 32.3296 20.7088L32.8619 19.5118C33.6214 19.469 35.1119 19.4049 37.4328 19.4049C39.3705 19.4049 42.1174 19.64 43.5937 19.8324L44.2609 19.0273C41.0811 18.6496 38.6253 18.5071 35.7862 18.5071C32.4786 18.5071 29.6821 18.6924 27.5031 19.127C26.2752 22.6396 23.6206 24.6346 20.1214 24.6346C18.3683 24.6346 17.3746 24.2998 14.3439 22.7323L13.4921 22.262L13.9109 21.4141C15.9977 22.3618 17.6372 23.0386 18.9929 23.5516L19.22 23.117L8.70827 18.6496ZM24.806 0.260002C37.589 0.260002 48.0866 11.0473 48.0866 24.0646C48.0866 37.2245 37.5393 47.7695 24.3801 47.7695C11.3628 47.7695 0.758789 37.1818 0.758789 24.1145C0.758789 10.7623 11.3628 0.260002 24.806 0.260002ZM24.2381 2.58988C12.6404 2.58988 3.07265 12.2799 3.07265 24.0646C3.07265 35.8494 12.6404 45.4396 24.3801 45.4396C36.212 45.4396 45.7798 35.8993 45.7798 24.1145C45.7798 12.0448 36.3114 2.58988 24.2381 2.58988Z" fill="#8F9BB3"/>
<path fill-rule="evenodd" clip-rule="evenodd" d="M319.959 28.5654H316.85C316.85 28.5654 316.502 30.8454 315.885 32.1564C315.487 32.9901 315.196 33.4461 314.621 34.1799C314.124 34.8212 313.819 35.1774 313.195 35.6976C312.102 36.6238 311.328 37.0014 309.965 37.4289C309.085 37.7068 308.567 37.7781 307.651 37.8493C306.509 37.9419 305.841 37.9419 304.713 37.7282C304.01 37.5928 303.62 37.4717 302.945 37.2152C302.001 36.8661 301.462 36.6238 300.639 36.0396C299.681 35.3627 299.212 34.8568 298.495 33.9234C297.502 32.6124 297.168 31.6933 296.65 30.1329C296.075 28.3802 295.968 27.3186 295.848 25.4803C295.727 23.5566 295.763 22.4379 296.103 20.5427C296.288 19.5381 296.401 18.9681 296.728 18.0133C297.061 17.0443 297.267 16.4886 297.785 15.6051C298.524 14.3297 299.056 13.6457 300.177 12.6909C301.263 11.7647 301.987 11.3158 303.329 10.8313C303.918 10.6176 304.259 10.5249 304.876 10.4109C305.927 10.2114 306.544 10.2186 307.609 10.2827C308.617 10.3468 309.199 10.4323 310.171 10.7031C310.895 10.9097 311.307 11.0379 311.974 11.3799C313.031 11.9214 313.578 12.3632 314.366 13.2396C315.118 14.0589 315.48 14.6218 315.927 15.6407C316.154 16.1679 316.389 17.0443 316.389 17.0443L319.497 17.0586C319.497 17.0586 319.157 15.5409 318.781 14.6361C318.369 13.6243 318.085 13.0543 317.439 12.1851C316.836 11.3728 316.41 10.9667 315.629 10.3254C314.976 9.78395 314.572 9.50607 313.819 9.09995C312.747 8.51569 312.073 8.30195 310.881 8.0027C309.972 7.7747 309.433 7.70345 308.489 7.62507C307.396 7.53245 306.771 7.52532 305.678 7.62507C304.45 7.73195 303.748 7.85307 302.569 8.21645C301.483 8.55132 300.866 8.77932 299.879 9.35645C299.219 9.7412 298.878 10.0048 298.289 10.4893C296.856 11.6721 296.146 12.4986 295.173 14.0874C294.677 14.8997 294.442 15.3913 294.087 16.2819C293.655 17.3578 293.491 18.0062 293.243 19.1462C293.002 20.2862 292.931 20.9417 292.824 22.1031C292.696 23.5423 292.661 24.3688 292.739 25.8223C292.817 27.0264 292.888 27.7176 293.122 28.9003C293.321 29.9192 293.449 30.5034 293.789 31.4796C294.116 32.3987 294.336 32.9046 294.804 33.7596C295.273 34.6217 295.571 35.0991 296.181 35.8686C296.678 36.4813 296.983 36.8233 297.572 37.3506C298.36 38.0559 298.871 38.3908 299.801 38.9109C300.788 39.4667 301.398 39.7232 302.484 40.0509C303.386 40.3146 303.911 40.4072 304.833 40.5141C305.813 40.6281 306.374 40.6423 307.36 40.5996C308.418 40.5497 309.014 40.4927 310.043 40.2576C311.023 40.0367 311.569 39.8657 312.485 39.4596C313.493 39.0036 314.039 38.6829 314.912 38.0203C315.53 37.5572 315.863 37.2722 316.389 36.7164C317.255 35.7902 317.645 35.1703 318.234 34.0588C318.823 32.9473 319.05 32.2562 319.412 31.0592C319.682 30.1472 319.945 29.6342 319.959 28.6937V28.5654ZM339.485 37.2152C339.485 37.2152 338.108 37.7567 337.256 37.5572C336.908 37.4717 336.66 37.4717 336.411 37.2152C336.113 36.9017 336.177 36.1179 336.17 36.1179L336.163 19.1462H339.733V16.9517H336.163V10.1972H333.267V16.9517H329.988V19.1462H333.267L333.274 35.3912C333.274 35.3912 332.941 38.6331 334.318 39.6234C334.949 40.0794 335.439 40.1364 336.206 40.2576C337.469 40.4642 338.945 40.2362 339.47 39.8799C339.385 39.8799 339.485 37.2152 339.485 37.2152ZM344.602 47.8172C344.602 47.8172 346.064 48.1877 346.994 48.1093C347.966 48.0381 348.556 47.9027 349.393 47.3968C350.181 46.9123 350.522 46.4563 351.068 45.7082C351.821 44.6822 352.417 42.7513 352.417 42.7513L362.481 16.9517H359.55L353.588 32.7834L352.623 35.5337L352.417 37.3862L349.869 29.8551L345.355 16.9517H342.21L350.855 39.2458L350.06 41.3976C350.06 41.3976 349.563 42.9651 348.967 43.8058C348.605 44.3259 348.428 44.6964 347.874 45.0313C347.505 45.2593 347.257 45.3234 346.824 45.4089C346.057 45.5657 344.815 45.2807 344.815 45.2807L344.602 47.8172ZM397.012 28.5654C397.012 28.5654 396.664 30.8454 396.047 32.1564C395.649 32.9901 395.365 33.4461 394.79 34.1799C394.286 34.8212 393.981 35.1774 393.364 35.6976C392.264 36.6238 391.497 37.0014 390.127 37.4289C389.254 37.7068 388.729 37.7781 387.813 37.8493C386.671 37.9419 386.003 37.9419 384.875 37.7282C384.172 37.5928 383.782 37.4717 383.115 37.2152C382.163 36.8661 381.631 36.6238 380.808 36.0396C379.85 35.3627 379.374 34.8568 378.664 33.9234C377.663 32.6124 377.33 31.6933 376.812 30.1329C376.237 28.3802 376.13 27.3186 376.01 25.4803C375.896 23.5566 375.932 22.4379 376.272 20.5427C376.45 19.5381 376.57 18.9681 376.897 18.0133C377.23 17.0443 377.436 16.4886 377.947 15.6051C378.686 14.3297 379.225 13.6457 380.339 12.6909C381.432 11.7647 382.149 11.3158 383.491 10.8313C384.08 10.6176 384.428 10.5249 385.045 10.4109C386.096 10.2114 386.713 10.2186 387.771 10.2827C388.786 10.3468 389.361 10.4323 390.333 10.7031C391.057 10.9097 391.476 11.0379 392.143 11.3799C393.193 11.9214 393.74 12.3632 394.535 13.2396C395.287 14.0589 395.649 14.6218 396.089 15.6407C396.316 16.1679 396.551 17.0443 396.551 17.0443L399.737 16.9802C399.737 16.9802 399.333 15.5196 398.95 14.6361C398.517 13.6314 398.254 13.0543 397.601 12.1851C396.998 11.3728 396.579 10.9667 395.791 10.3254C395.138 9.78395 394.741 9.50607 393.988 9.09995C392.917 8.51569 392.242 8.30195 391.05 8.0027C390.134 7.7747 389.602 7.70345 388.658 7.62507C387.565 7.53245 386.933 7.52532 385.847 7.62507C384.612 7.73195 383.917 7.85307 382.731 8.21645C381.652 8.55132 381.028 8.77932 380.048 9.35645C379.388 9.7412 379.04 10.0048 378.451 10.4893C377.025 11.6721 376.308 12.4986 375.342 14.0874C374.846 14.8997 374.611 15.3913 374.249 16.2819C373.816 17.3578 373.66 18.0062 373.412 19.1462C373.163 20.2862 373.093 20.9417 372.993 22.1031C372.865 23.5423 372.823 24.3688 372.908 25.8223C372.979 27.0264 373.05 27.7176 373.291 28.9003C373.483 29.9192 373.611 30.5034 373.958 31.4796C374.278 32.3987 374.505 32.9046 374.966 33.7596C375.435 34.6217 375.74 35.0991 376.35 35.8686C376.847 36.4813 377.145 36.8233 377.742 37.3506C378.529 38.0559 379.04 38.3908 379.963 38.9109C380.957 39.4667 381.56 39.7232 382.653 40.0509C383.547 40.3146 384.073 40.4072 385.003 40.5141C385.982 40.6281 386.543 40.6423 387.522 40.5996C388.58 40.5497 389.183 40.4927 390.212 40.2576C391.185 40.0367 391.731 39.8657 392.647 39.4596C393.655 39.0036 394.201 38.6829 395.081 38.0203C395.692 37.5572 396.025 37.2722 396.551 36.7164C397.416 35.7902 397.807 35.1703 398.403 34.0588C398.992 32.9473 399.212 32.2562 399.574 31.0592C399.865 30.0831 400.163 28.5156 400.163 28.5156L397.012 28.5654ZM443.928 39.8586V25.8864C443.928 25.8793 444.027 23.5922 443.758 22.1672C443.58 21.2409 443.523 20.6781 443.083 19.8444C442.643 18.9966 442.267 18.5477 441.536 17.9492C440.919 17.4433 440.507 17.2296 439.762 16.9303C438.718 16.5028 438.044 16.4601 436.908 16.3817C435.929 16.3104 435.361 16.2891 434.389 16.4672C433.792 16.5741 433.452 16.6667 432.877 16.8876C431.897 17.2723 431.337 17.5573 430.57 18.2841C429.818 18.9966 429.058 20.4786 429.058 20.4786L429.016 16.8876H426.29V39.8586H429.143V27.3613L429.264 24.1907C429.271 24.1907 429.718 22.4451 430.357 21.5331C431.01 20.6211 431.521 20.1651 432.501 19.6307C433.232 19.2388 433.707 19.1106 434.516 18.9609C435.489 18.7757 436.078 18.7187 437.036 18.9182C438.079 19.1248 438.74 19.3243 439.513 20.0582C440.088 20.5997 440.301 21.0272 440.606 21.7468C441.16 23.0364 440.99 25.3307 440.99 25.3307V39.8586H443.928ZM456.654 39.7944V37.2152C456.654 37.2152 455.284 37.7567 454.426 37.5572C454.085 37.4717 453.851 37.4574 453.588 37.2152C453.361 37.0014 453.325 36.7948 453.212 36.5027C452.9 35.6691 453.169 34.2227 453.169 34.2227L453.34 19.1462H456.91V16.9517H453.34V10.1972H450.437V16.9517H447.165V19.1462H450.437L450.273 35.4482L450.479 38.2341C450.479 38.2341 450.962 39.2173 451.487 39.6234C452.105 40.1008 452.616 40.1436 453.382 40.2576C454.589 40.4428 456.491 39.8799 456.491 39.8799L456.697 39.8372L456.654 39.7944ZM486.763 39.8586V29.5558L487.011 25.3307C487.011 25.3307 487.423 23.3713 488.104 22.3382C488.793 21.3122 489.339 20.7707 490.418 20.1793C490.915 19.9086 491.213 19.7874 491.76 19.6307C492.569 19.4098 493.903 19.4241 493.903 19.4241L494.109 16.6382C494.109 16.6382 492.533 16.4672 491.547 16.6809C490.61 16.8804 490.085 17.1156 489.283 17.6499C488.665 18.0632 488.324 18.3339 487.856 18.9182C487.153 19.7803 486.642 21.4903 486.635 21.4903V16.8876H483.988V39.8586H486.763ZM420.122 32.7407H422.947C422.947 32.7407 422.181 35.2344 421.208 36.5383C420.356 37.6926 419.732 38.2839 418.518 39.0321C417.333 39.7802 416.538 40.0652 415.161 40.3431C413.571 40.6637 412.591 40.6779 411.002 40.3431C409.845 40.0937 409.185 39.8443 408.148 39.2458C406.935 38.5404 406.282 37.9918 405.416 36.8803C404.706 35.9612 404.422 35.3413 403.989 34.2654C403.336 32.6267 403.244 31.5864 403.109 29.8337C402.96 27.8244 402.981 26.6417 403.45 24.6823C403.691 23.6706 403.847 23.0863 404.287 22.1458C404.635 21.4048 404.855 20.9916 405.33 20.3289C405.82 19.6663 406.147 19.3172 406.764 18.7686C407.382 18.2199 407.765 17.9421 408.489 17.5431C409.263 17.1156 409.731 16.9232 410.583 16.7023C411.293 16.5099 411.704 16.4601 412.435 16.4031C413.152 16.3461 413.564 16.3389 414.281 16.4031C415.367 16.5028 415.998 16.6382 417.013 17.0443C417.808 17.3578 418.248 17.5858 418.944 18.0917C419.569 18.5477 419.909 18.8469 420.413 19.4454C420.917 20.0439 421.144 20.4358 421.506 21.1341C421.925 21.9321 422.088 22.4237 422.344 23.2858C422.628 24.2334 422.72 24.7963 422.848 25.7796C423.018 27.0763 422.99 29.1283 422.99 29.1354L405.877 29.1141C405.884 29.1141 405.948 31.0022 406.26 32.1564C406.551 33.2038 406.75 33.8166 407.353 34.7286C407.921 35.5836 408.333 36.0253 409.156 36.6309C409.994 37.2366 410.547 37.5216 411.548 37.7638C412.52 38.0061 413.124 38.0061 414.11 37.8992C415.218 37.7638 415.871 37.5857 416.843 37.0513C417.851 36.4884 418.397 36.0467 419.072 35.1062C419.661 34.2868 420.122 32.7407 420.122 32.7407ZM405.92 26.6203L420.236 26.6346C420.236 26.6346 419.994 24.3688 419.405 23.0792C418.951 22.0746 418.639 21.4832 417.851 20.7137C417.24 20.1081 416.822 19.8088 416.041 19.4454C415.012 18.9609 414.33 18.8398 413.188 18.8541C412.08 18.8683 411.42 19.0179 410.412 19.4882C409.327 19.9941 408.766 20.4643 407.985 21.3834C407.211 22.2883 406.92 22.9296 406.509 24.0482C406.154 25.0101 405.92 26.6203 405.92 26.6203ZM476.5 32.7407H479.381C479.381 32.7407 478.572 35.2344 477.593 36.5383C476.734 37.6854 476.116 38.2839 474.903 39.0321C473.71 39.7802 472.922 40.0652 471.545 40.3431C469.955 40.6637 468.976 40.6779 467.386 40.3431C466.222 40.0937 465.562 39.8443 464.526 39.2458C463.312 38.5404 462.666 37.9918 461.8 36.8803C461.09 35.9612 460.806 35.3413 460.373 34.2654C459.721 32.6267 459.621 31.5864 459.493 29.8337C459.344 27.8244 459.359 26.6417 459.827 24.6823C460.068 23.6706 460.232 23.0863 460.664 22.1458C461.012 21.4048 461.239 20.9916 461.715 20.3289C462.205 19.6663 462.531 19.3172 463.142 18.7686C463.766 18.2199 464.142 17.9421 464.866 17.5431C465.64 17.1156 466.116 16.9232 466.967 16.7023C467.67 16.5099 468.089 16.4601 468.813 16.4031C469.537 16.3461 469.941 16.3389 470.658 16.4031C471.751 16.5028 472.376 16.6382 473.391 17.0443C474.193 17.3578 474.626 17.5858 475.321 18.0917C475.953 18.5477 476.294 18.8469 476.798 19.4454C477.302 20.0439 477.529 20.4358 477.884 21.1341C478.302 21.9321 478.466 22.4237 478.721 23.2858C479.005 24.2334 479.112 24.7892 479.225 25.7796C479.388 27.0692 479.289 29.1212 479.289 29.1212L462.261 29.1141C462.261 29.1141 462.325 31.0022 462.638 32.1564C462.929 33.2038 463.135 33.8166 463.731 34.7286C464.299 35.5836 464.71 36.0253 465.541 36.6309C466.378 37.2366 466.932 37.5216 467.933 37.7638C468.905 38.0061 469.501 38.0061 470.495 37.8992C471.602 37.7638 472.248 37.5857 473.22 37.0513C474.228 36.4884 474.782 36.0467 475.449 35.1062C476.038 34.2868 476.5 32.7407 476.5 32.7407ZM462.304 26.6203L476.549 26.6274C476.549 26.6203 476.365 24.3688 475.783 23.0792C475.336 22.0674 475.023 21.4832 474.228 20.7137C473.618 20.1081 473.206 19.8088 472.425 19.4454C471.389 18.9609 470.708 18.8398 469.572 18.8541C468.458 18.8683 467.805 19.0179 466.797 19.4882C465.704 19.9941 465.143 20.4643 464.362 21.3834C463.596 22.2883 463.305 22.9296 462.893 24.0482C462.538 25.0101 462.304 26.6203 462.304 26.6203ZM323.486 8.0882H326.34V11.9708H323.486V8.0882ZM323.444 16.9517H326.34V39.9134H323.444V16.9517Z" fill="#8F9BB3"/>
</svg>
