<svg width="165" height="60" viewBox="0 0 165 60" fill="none" xmlns="http://www.w3.org/2000/svg">
<path d="M75.891 33.3732C75.891 33.3732 74.79 33.7032 73.247 33.3732C71.815 33.0432 70.383 32.4922 70.383 31.0602V17.8432H76L74.678 10.9042H70.382V0.660156L59.92 2.20216V18.9442C57.717 12.7762 51.769 8.26016 44.83 8.26016C38.001 8.26016 32.163 12.5562 29.85 18.6142V13.7682C29.85 13.7682 27.647 8.92216 17.293 8.92216C14.87 8.92216 12.557 9.25216 10.464 9.69316V0.660156L0 2.20216V39.8722H10.464V17.4022C12.777 16.9612 14.319 16.8512 16.412 17.2922C17.954 17.5122 19.276 18.1732 19.276 20.2662V39.9822H29.74V30.0692C32.053 36.1272 37.891 40.4232 44.72 40.4232C51.659 40.4232 57.607 36.0172 59.81 29.8492V37.1192C59.81 37.1192 63.775 39.9832 70.054 39.9832C76.333 39.9832 77.654 38.9922 77.654 38.9922L75.891 33.3732ZM44.83 31.7212C40.314 31.7212 38.331 27.9762 38.331 24.3412C38.331 20.7062 40.314 16.9612 44.83 16.9612C49.346 16.9612 51.329 20.7062 51.329 24.3412C51.328 27.9762 49.346 31.7212 44.83 31.7212Z" fill="#FFA726"/>
<path d="M96.3794 0C93.4054 0 90.9824 2.423 90.9824 5.397C90.9824 8.371 93.4054 10.794 96.3794 10.794C99.3534 10.794 101.776 8.371 101.776 5.397C101.776 2.423 99.3524 0 96.3794 0ZM91.0914 39.322H101.555V13.218H91.0914V39.322ZM77.9844 39.212H88.4484V0.661L77.9844 2.203V39.212ZM149.029 33.154C145.945 32.383 144.293 30.841 143.632 28.638H165V25.554C165 14.76 157.62 8.261 149.139 8.261C142.42 8.261 136.582 12.447 134.269 18.395V13.769C134.269 13.769 130.414 9.143 121.382 8.702C112.35 8.261 104.419 10.134 104.419 10.134V39.764H114.883V17.404C117.306 16.963 118.738 16.853 120.831 17.184C122.373 17.404 123.695 18.065 123.695 20.268V39.764H134.159V30.18C136.472 36.128 142.31 40.314 149.029 40.314C154.977 40.314 159.273 38.662 162.247 34.917L158.612 31.392C155.087 33.705 151.011 33.595 149.029 33.154ZM149.139 16.302C153.325 16.302 155.087 19.386 155.307 22.03H142.75C142.971 19.276 144.953 16.302 149.139 16.302Z" fill="#6F9FEC"/>
<path d="M0.0976562 53.8898L1.31466 53.6988C1.38266 54.1868 1.57366 54.5598 1.88566 54.8198C2.19766 55.0798 2.63466 55.2098 3.19466 55.2098C3.75966 55.2098 4.17866 55.0948 4.45266 54.8648C4.72666 54.6348 4.86266 54.3648 4.86266 54.0548C4.86266 53.7768 4.74166 53.5578 4.50066 53.3988C4.33266 53.2898 3.91266 53.1498 3.24266 52.9818C2.34066 52.7538 1.71466 52.5568 1.36666 52.3908C1.01866 52.2248 0.753656 51.9948 0.573656 51.7008C0.393656 51.4068 0.303656 51.0818 0.303656 50.7268C0.303656 50.4028 0.377656 50.1038 0.525656 49.8278C0.673656 49.5518 0.875656 49.3228 1.13066 49.1408C1.32166 48.9998 1.58266 48.8798 1.91366 48.7818C2.24466 48.6838 2.59866 48.6348 2.97666 48.6348C3.54666 48.6348 4.04666 48.7168 4.47666 48.8808C4.90666 49.0448 5.22566 49.2668 5.43066 49.5478C5.63566 49.8288 5.77666 50.2028 5.85466 50.6728L4.65066 50.8348C4.59566 50.4608 4.43766 50.1688 4.17566 49.9598C3.91366 49.7508 3.54366 49.6458 3.06466 49.6458C2.49966 49.6458 2.09666 49.7388 1.85466 49.9258C1.61266 50.1128 1.49266 50.3318 1.49266 50.5818C1.49266 50.7418 1.54266 50.8848 1.64266 51.0128C1.74266 51.1448 1.89966 51.2548 2.11466 51.3408C2.23766 51.3858 2.59966 51.4908 3.20166 51.6548C4.07266 51.8868 4.67966 52.0778 5.02366 52.2258C5.36766 52.3738 5.63766 52.5888 5.83366 52.8718C6.02966 53.1548 6.12766 53.5048 6.12766 53.9248C6.12766 54.3348 6.00766 54.7208 5.76866 55.0838C5.52966 55.4468 5.18466 55.7268 4.73266 55.9248C4.28066 56.1228 3.77166 56.2218 3.20166 56.2218C2.25866 56.2218 1.53966 56.0258 1.04466 55.6338C0.549656 55.2418 0.234656 54.6598 0.0976562 53.8898Z" fill="#FFA726"/>
<path d="M12.9102 56.0568V48.7968H14.0112V49.8158C14.2392 49.4608 14.5422 49.1738 14.9202 48.9578C15.2982 48.7418 15.7292 48.6328 16.2122 48.6328C16.7502 48.6328 17.1912 48.7448 17.5352 48.9678C17.8792 49.1908 18.1222 49.5038 18.2632 49.9048C18.8372 49.0568 19.5852 48.6338 20.5052 48.6338C21.2252 48.6338 21.7792 48.8328 22.1662 49.2318C22.5532 49.6308 22.7472 50.2448 22.7472 51.0738V56.0568H21.5232V51.4838C21.5232 50.9918 21.4832 50.6368 21.4032 50.4208C21.3232 50.2048 21.1782 50.0298 20.9692 49.8978C20.7602 49.7658 20.5142 49.6998 20.2312 49.6998C19.7212 49.6998 19.2972 49.8698 18.9602 50.2088C18.6232 50.5478 18.4542 51.0918 18.4542 51.8388V56.0568H17.2242V51.3398C17.2242 50.7928 17.1242 50.3828 16.9232 50.1098C16.7222 49.8368 16.3942 49.6998 15.9392 49.6998C15.5932 49.6998 15.2722 49.7908 14.9792 49.9728C14.6862 50.1548 14.4722 50.4218 14.3402 50.7728C14.2082 51.1238 14.1422 51.6298 14.1422 52.2908V56.0578H12.9102V56.0568Z" fill="#FFA726"/>
<path d="M34.6296 55.1618C34.1736 55.5488 33.7346 55.8228 33.3136 55.9818C32.8926 56.1408 32.4396 56.2208 31.9566 56.2208C31.1596 56.2208 30.5456 56.0258 30.1176 55.6368C29.6896 55.2478 29.4746 54.7488 29.4746 54.1428C29.4746 53.7878 29.5556 53.4628 29.7176 53.1688C29.8796 52.8748 30.0916 52.6388 30.3536 52.4608C30.6156 52.2828 30.9106 52.1488 31.2386 52.0578C31.4806 51.9938 31.8446 51.9328 32.3326 51.8728C33.3266 51.7538 34.0576 51.6128 34.5266 51.4488C34.5306 51.2808 34.5336 51.1728 34.5336 51.1278C34.5336 50.6268 34.4176 50.2738 34.1846 50.0678C33.8706 49.7898 33.4026 49.6508 32.7836 49.6508C32.2046 49.6508 31.7776 49.7528 31.5016 49.9548C31.2256 50.1568 31.0226 50.5168 30.8896 51.0318L29.6866 50.8678C29.7956 50.3528 29.9766 49.9368 30.2266 49.6198C30.4766 49.3028 30.8396 49.0588 31.3136 48.8888C31.7876 48.7188 32.3366 48.6328 32.9606 48.6328C33.5806 48.6328 34.0846 48.7058 34.4716 48.8518C34.8586 48.9978 35.1436 49.1808 35.3256 49.4018C35.5076 49.6228 35.6356 49.9018 35.7086 50.2388C35.7496 50.4478 35.7706 50.8268 35.7706 51.3738V53.0148C35.7706 54.1588 35.7966 54.8818 35.8496 55.1848C35.9026 55.4878 36.0056 55.7788 36.1606 56.0568H34.8756C34.7486 55.8018 34.6666 55.5038 34.6296 55.1618ZM34.5266 52.4138C34.0796 52.5958 33.4096 52.7508 32.5166 52.8788C32.0106 52.9518 31.6526 53.0338 31.4436 53.1248C31.2346 53.2158 31.0716 53.3498 30.9586 53.5248C30.8456 53.6998 30.7876 53.8948 30.7876 54.1088C30.7876 54.4368 30.9116 54.7108 31.1606 54.9288C31.4096 55.1468 31.7726 55.2568 32.2506 55.2568C32.7246 55.2568 33.1466 55.1528 33.5156 54.9458C33.8846 54.7388 34.1556 54.4548 34.3286 54.0948C34.4606 53.8168 34.5266 53.4068 34.5266 52.8648V52.4138Z" fill="#FFA726"/>
<path d="M42.9844 56.0568V48.7968H44.0914V49.8978C44.3744 49.3828 44.6344 49.0438 44.8744 48.8788C45.1144 48.7138 45.3764 48.6328 45.6644 48.6328C46.0794 48.6328 46.5004 48.7648 46.9294 49.0288L46.5054 50.1708C46.2044 49.9928 45.9034 49.9038 45.6034 49.9038C45.3344 49.9038 45.0934 49.9848 44.8784 50.1468C44.6634 50.3088 44.5114 50.5328 44.4204 50.8198C44.2834 51.2578 44.2154 51.7358 44.2154 52.2558V56.0568H42.9844Z" fill="#FFA726"/>
<path d="M55.6657 54.9567L55.8437 56.0437C55.4977 56.1167 55.1877 56.1527 54.9137 56.1527C54.4667 56.1527 54.1207 56.0817 53.8747 55.9407C53.6287 55.7997 53.4557 55.6137 53.3547 55.3837C53.2537 55.1537 53.2047 54.6697 53.2047 53.9307V49.7537H52.3027V48.7967H53.2047V46.9997L54.4287 46.2617V48.7977H55.6657V49.7547H54.4287V53.9997C54.4287 54.3507 54.4497 54.5767 54.4937 54.6767C54.5377 54.7767 54.6077 54.8567 54.7057 54.9157C54.8037 54.9747 54.9437 55.0047 55.1257 55.0047C55.2627 55.0047 55.4427 54.9887 55.6657 54.9567Z" fill="#FFA726"/>
<path d="M70.9082 53.8898L72.1252 53.6988C72.1932 54.1868 72.3842 54.5598 72.6962 54.8198C73.0082 55.0798 73.4452 55.2098 74.0052 55.2098C74.5702 55.2098 74.9892 55.0948 75.2632 54.8648C75.5372 54.6348 75.6732 54.3648 75.6732 54.0548C75.6732 53.7768 75.5522 53.5578 75.3112 53.3988C75.1432 53.2898 74.7232 53.1498 74.0532 52.9818C73.1512 52.7538 72.5252 52.5568 72.1772 52.3908C71.8292 52.2248 71.5642 51.9948 71.3842 51.7008C71.2042 51.4068 71.1142 51.0818 71.1142 50.7268C71.1142 50.4028 71.1882 50.1038 71.3362 49.8278C71.4842 49.5518 71.6862 49.3228 71.9412 49.1408C72.1322 48.9998 72.3932 48.8798 72.7242 48.7818C73.0552 48.6838 73.4092 48.6348 73.7872 48.6348C74.3572 48.6348 74.8572 48.7168 75.2872 48.8808C75.7172 49.0448 76.0362 49.2668 76.2412 49.5478C76.4462 49.8288 76.5872 50.2028 76.6652 50.6728L75.4622 50.8368C75.4072 50.4628 75.2492 50.1708 74.9872 49.9618C74.7252 49.7528 74.3552 49.6478 73.8762 49.6478C73.3112 49.6478 72.9082 49.7408 72.6662 49.9278C72.4242 50.1148 72.3042 50.3338 72.3042 50.5838C72.3042 50.7438 72.3542 50.8868 72.4542 51.0148C72.5542 51.1468 72.7112 51.2568 72.9262 51.3428C73.0492 51.3878 73.4112 51.4928 74.0132 51.6568C74.8842 51.8888 75.4912 52.0798 75.8352 52.2278C76.1792 52.3758 76.4492 52.5908 76.6452 52.8738C76.8412 53.1568 76.9392 53.5068 76.9392 53.9268C76.9392 54.3368 76.8192 54.7228 76.5802 55.0858C76.3412 55.4488 75.9962 55.7288 75.5442 55.9268C75.0922 56.1248 74.5832 56.2238 74.0132 56.2238C73.0702 56.2238 72.3512 56.0278 71.8562 55.6358C71.3612 55.2438 71.0442 54.6598 70.9082 53.8898Z" fill="#FFA726"/>
<path d="M83.7188 56.0562V46.0352H84.9487V49.6312C85.5227 48.9652 86.2477 48.6332 87.1227 48.6332C87.6607 48.6332 88.1278 48.7392 88.5238 48.9512C88.9198 49.1632 89.2037 49.4562 89.3747 49.8292C89.5457 50.2022 89.6307 50.7452 89.6307 51.4562V56.0572H88.4007V51.4562C88.4007 50.8412 88.2677 50.3932 88.0007 50.1132C87.7337 49.8332 87.3568 49.6932 86.8698 49.6932C86.5048 49.6932 86.1618 49.7882 85.8408 49.9772C85.5198 50.1662 85.2907 50.4222 85.1537 50.7462C85.0167 51.0702 84.9487 51.5162 84.9487 52.0862V56.0582H83.7188V56.0562Z" fill="#FFA726"/>
<path d="M96.3672 52.4268C96.3672 51.0828 96.7412 50.0868 97.4882 49.4398C98.1132 48.9018 98.8732 48.6328 99.7712 48.6328C100.769 48.6328 101.585 48.9598 102.218 49.6138C102.851 50.2678 103.168 51.1718 103.168 52.3238C103.168 53.2578 103.028 53.9928 102.748 54.5288C102.468 55.0648 102.06 55.4798 101.524 55.7768C100.988 56.0738 100.404 56.2208 99.7712 56.2208C98.7552 56.2208 97.9332 55.8948 97.3072 55.2428C96.6812 54.5908 96.3672 53.6528 96.3672 52.4268ZM97.6322 52.4268C97.6322 53.3568 97.8352 54.0528 98.2402 54.5148C98.6452 54.9768 99.1562 55.2088 99.7712 55.2088C100.382 55.2088 100.89 54.9768 101.295 54.5118C101.7 54.0468 101.903 53.3388 101.903 52.3858C101.903 51.4878 101.699 50.8078 101.291 50.3448C100.883 49.8818 100.376 49.6508 99.7702 49.6508C99.1552 49.6508 98.6452 49.8808 98.2392 50.3408C97.8332 50.8008 97.6322 51.4968 97.6322 52.4268Z" fill="#FFA726"/>
<path d="M109.932 58.8398V48.7978H111.053V49.7408C111.317 49.3718 111.616 49.0948 111.949 48.9098C112.282 48.7248 112.685 48.6328 113.159 48.6328C113.779 48.6328 114.326 48.7928 114.8 49.1118C115.274 49.4308 115.632 49.8808 115.873 50.4618C116.114 51.0428 116.235 51.6798 116.235 52.3728C116.235 53.1158 116.102 53.7848 115.835 54.3788C115.568 54.9728 115.181 55.4288 114.673 55.7458C114.165 56.0628 113.631 56.2208 113.07 56.2208C112.66 56.2208 112.292 56.1348 111.966 55.9608C111.64 55.7868 111.372 55.5688 111.163 55.3048V58.8388H109.932V58.8398ZM111.046 52.4688C111.046 53.4028 111.235 54.0938 111.613 54.5398C111.991 54.9858 112.449 55.2098 112.987 55.2098C113.534 55.2098 114.002 54.9788 114.392 54.5158C114.782 54.0528 114.976 53.3368 114.976 52.3658C114.976 51.4408 114.786 50.7478 114.405 50.2878C114.024 49.8278 113.57 49.5978 113.041 49.5978C112.517 49.5978 112.053 49.8428 111.65 50.3328C111.247 50.8228 111.046 51.5338 111.046 52.4688Z" fill="#FFA726"/>
<path d="M123.039 58.8398V48.7978H124.16V49.7408C124.424 49.3718 124.723 49.0948 125.056 48.9098C125.389 48.7248 125.792 48.6328 126.266 48.6328C126.886 48.6328 127.433 48.7928 127.907 49.1118C128.381 49.4308 128.739 49.8808 128.98 50.4618C129.221 51.0428 129.342 51.6798 129.342 52.3728C129.342 53.1158 129.209 53.7848 128.942 54.3788C128.675 54.9728 128.288 55.4288 127.78 55.7458C127.272 56.0628 126.738 56.2208 126.177 56.2208C125.767 56.2208 125.399 56.1348 125.073 55.9608C124.747 55.7868 124.479 55.5688 124.27 55.3048V58.8388H123.039V58.8398ZM124.153 52.4688C124.153 53.4028 124.342 54.0938 124.72 54.5398C125.098 54.9858 125.556 55.2098 126.094 55.2098C126.641 55.2098 127.109 54.9788 127.499 54.5158C127.889 54.0528 128.083 53.3368 128.083 52.3658C128.083 51.4408 127.893 50.7478 127.512 50.2878C127.131 49.8278 126.677 49.5978 126.148 49.5978C125.624 49.5978 125.16 49.8428 124.757 50.3328C124.354 50.8228 124.153 51.5338 124.153 52.4688Z" fill="#FFA726"/>
<path d="M136.15 47.4502V46.0352H137.38V47.4502H136.15ZM136.15 56.0562V48.7962H137.38V56.0562H136.15Z" fill="#FFA726"/>
<path d="M144.574 56.0568V48.7968H145.681V49.8288C146.214 49.0318 146.984 48.6328 147.992 48.6328C148.43 48.6328 148.832 48.7118 149.199 48.8688C149.566 49.0258 149.841 49.2318 150.023 49.4878C150.205 49.7438 150.333 50.0458 150.406 50.3968C150.451 50.6248 150.474 51.0228 150.474 51.5928V56.0568H149.244V51.6408C149.244 51.1398 149.196 50.7648 149.1 50.5158C149.004 50.2668 148.834 50.0688 148.591 49.9208C148.348 49.7728 148.061 49.6988 147.733 49.6988C147.209 49.6988 146.756 49.8658 146.376 50.1978C145.996 50.5298 145.805 51.1618 145.805 52.0918V56.0568H144.574Z" fill="#FFA726"/>
<path d="M157.455 56.6578L158.651 56.8358C158.701 57.2048 158.84 57.4738 159.068 57.6428C159.373 57.8708 159.79 57.9848 160.319 57.9848C160.889 57.9848 161.328 57.8708 161.638 57.6428C161.948 57.4148 162.158 57.0958 162.267 56.6858C162.331 56.4358 162.36 55.9088 162.356 55.1068C161.818 55.7398 161.148 56.0568 160.346 56.0568C159.348 56.0568 158.575 55.6968 158.029 54.9768C157.483 54.2568 157.209 53.3938 157.209 52.3858C157.209 51.6928 157.334 51.0538 157.585 50.4688C157.836 49.8838 158.199 49.4308 158.675 49.1118C159.151 48.7928 159.711 48.6328 160.353 48.6328C161.21 48.6328 161.916 48.9788 162.472 49.6718V48.7968H163.607V55.0718C163.607 56.2018 163.492 57.0028 163.262 57.4748C163.032 57.9468 162.667 58.3188 162.168 58.5928C161.669 58.8668 161.055 59.0028 160.326 59.0028C159.46 59.0028 158.761 58.8078 158.227 58.4188C157.693 58.0298 157.437 57.4418 157.455 56.6578ZM158.473 52.2968C158.473 53.2498 158.662 53.9438 159.04 54.3818C159.418 54.8198 159.892 55.0378 160.462 55.0378C161.027 55.0378 161.501 54.8198 161.884 54.3848C162.267 53.9498 162.458 53.2668 162.458 52.3378C162.458 51.4488 162.261 50.7788 161.867 50.3278C161.473 49.8768 160.998 49.6508 160.442 49.6508C159.895 49.6508 159.43 49.8728 159.047 50.3178C158.664 50.7628 158.473 51.4218 158.473 52.2968Z" fill="#FFA726"/>
</svg>
