<svg width="20" height="20" viewBox="0 0 20 20" fill="none" xmlns="http://www.w3.org/2000/svg">
<path fill-rule="evenodd" clip-rule="evenodd" d="M14.9507 19.1673C7.16632 19.1673 0.833984 12.835 0.833984 5.05065C0.833984 2.72507 2.72598 0.833984 5.05065 0.833984C5.28898 0.833984 5.52457 0.854151 5.75282 0.893568C5.97557 0.929318 6.20015 0.986151 6.4174 1.06132C6.71623 1.1649 6.9399 1.41515 7.01048 1.72315L8.26632 7.19015C8.33507 7.49082 8.24798 7.80615 8.0344 8.02982C7.90882 8.15998 7.90607 8.16273 6.7694 8.75765C7.68973 10.7505 9.28932 12.3446 11.2427 13.2337C11.8377 12.0962 11.8413 12.0925 11.9715 11.9678C12.1961 11.7533 12.5123 11.6699 12.8121 11.7359L18.2791 12.9908C18.5862 13.0614 18.8364 13.2851 18.94 13.583C19.0152 13.7993 19.0711 14.023 19.1087 14.2531C19.1472 14.4795 19.1673 14.7142 19.1673 14.9507C19.1673 17.2762 17.2762 19.1673 14.9507 19.1673" fill="#219653"/>
</svg>
