<svg width="31" height="30" viewBox="0 0 31 30" fill="none" xmlns="http://www.w3.org/2000/svg">
<g clip-path="url(#clip0_1634_236181)">
<path d="M15.5 30C23.7843 30 30.5 23.2843 30.5 15C30.5 6.71573 23.7843 0 15.5 0C7.21573 0 0.5 6.71573 0.5 15C0.5 23.2843 7.21573 30 15.5 30Z" fill="#745CEF"/>
<path d="M22.0083 8.22918C18.3572 7.34735 14.6996 6.31586 10.9554 7.62637C8.53111 8.53545 8.53111 11.1617 8.63213 13.384C8.63213 13.99 7.92508 14.7981 8.22807 15.5052C8.8341 17.5254 9.33918 19.5456 11.4604 20.5557C11.7634 20.7577 11.4604 21.1617 11.6624 21.4648C11.5614 21.4648 11.3594 21.5658 11.3594 21.6668C11.3594 22.1509 11.5766 22.8915 11.4323 23.3689L17.878 29.8119C24.5044 28.7566 29.6833 23.3626 30.412 16.6329L22.0083 8.22918Z" fill="#745CEF"/>
<path d="M23.4359 10.5423L23.4309 10.5225C23.0302 8.90222 21.2233 7.16362 19.5639 6.80192L19.5452 6.79806C16.8612 6.28606 14.1399 6.28606 11.4565 6.79806L11.4372 6.80192C9.77843 7.16362 7.97146 8.90233 7.57015 10.5225L7.56569 10.5423C7.07022 12.805 7.07022 15.0998 7.56569 17.3625L7.57015 17.3823C7.9544 18.9334 9.62673 20.5922 11.2242 21.0483V22.857C11.2242 23.5117 12.0219 23.8332 12.4756 23.3608L14.3081 21.4559C14.7056 21.4781 15.1033 21.4906 15.5008 21.4906C16.8518 21.4906 18.2034 21.3628 19.5451 21.1068L19.5638 21.103C21.2232 20.7413 23.0301 19.0026 23.4309 17.3824L23.4358 17.3626C23.9313 15.0998 23.9313 12.8051 23.4359 10.5423ZM21.9856 17.0344C21.718 18.0915 20.3461 19.4057 19.256 19.6485C17.829 19.9199 16.3906 20.0359 14.9536 19.9961C14.925 19.9952 14.8975 20.0064 14.8777 20.0269C14.6737 20.2362 13.5397 21.4004 13.5397 21.4004L12.1166 22.8611C12.0125 22.9696 11.8297 22.8957 11.8297 22.746V19.7497C11.8297 19.7002 11.7943 19.6582 11.7457 19.6486C11.7454 19.6485 11.7452 19.6485 11.7449 19.6484C10.6548 19.4056 9.28337 18.0915 9.0153 17.0344C8.56935 14.9891 8.56935 12.9157 9.0153 10.8704C9.28337 9.81335 10.6548 8.49921 11.7449 8.2564C14.2372 7.78237 16.7643 7.78237 19.2561 8.2564C20.3467 8.49921 21.7181 9.81335 21.9857 10.8704C22.4321 12.9158 22.4321 14.9892 21.9856 17.0344Z" fill="#F7F9FC"/>
<path d="M17.8724 18.4176C17.7048 18.3667 17.5451 18.3325 17.3967 18.2711C15.8597 17.6334 14.4453 16.8107 13.3249 15.5497C12.6878 14.8327 12.1891 14.0231 11.7675 13.1663C11.5676 12.76 11.3992 12.3379 11.2274 11.9183C11.0709 11.5358 11.3015 11.1407 11.5443 10.8524C11.7722 10.5819 12.0654 10.3749 12.383 10.2223C12.6309 10.1032 12.8753 10.1719 13.0564 10.3819C13.4477 10.8362 13.8072 11.3136 14.0982 11.8401C14.2772 12.1639 14.2281 12.5598 13.9036 12.7802C13.8248 12.8337 13.7529 12.8967 13.6795 12.9571C13.6151 13.0102 13.5545 13.0637 13.5103 13.1355C13.4296 13.2668 13.4257 13.4218 13.4777 13.5646C13.8777 14.6638 14.5519 15.5187 15.6585 15.9792C15.8355 16.0529 16.0133 16.1386 16.2173 16.1149C16.5589 16.075 16.6696 15.7002 16.909 15.5044C17.1429 15.3131 17.442 15.3106 17.694 15.4701C17.9461 15.6297 18.1905 15.8009 18.4334 15.9741C18.6719 16.144 18.9092 16.3101 19.1291 16.5039C19.3407 16.6901 19.4135 16.9345 19.2944 17.1872C19.0764 17.6501 18.7591 18.0352 18.3016 18.281C18.1724 18.3503 18.018 18.3727 17.8724 18.4176C17.7048 18.3667 18.018 18.3727 17.8724 18.4176Z" fill="#F7F9FC"/>
<path d="M15.5054 9.6922C17.5157 9.74857 19.1669 11.0827 19.5207 13.0702C19.581 13.4089 19.6025 13.755 19.6293 14.0988C19.6406 14.2434 19.5587 14.3807 19.4027 14.3826C19.2416 14.3846 19.1691 14.2497 19.1586 14.1053C19.1379 13.8192 19.1235 13.5318 19.0841 13.2482C18.876 11.7506 17.6819 10.5116 16.1913 10.2458C15.9669 10.2058 15.7374 10.1953 15.5102 10.1714C15.3666 10.1564 15.1785 10.1477 15.1466 9.96912C15.12 9.81941 15.2463 9.70023 15.3889 9.69255C15.4275 9.69027 15.4665 9.69208 15.5054 9.6922C17.5158 9.74857 15.4665 9.69208 15.5054 9.6922Z" fill="#F7F9FC"/>
<path d="M18.5605 13.6533C18.5572 13.6784 18.5555 13.7374 18.5407 13.793C18.4874 13.9948 18.1813 14.02 18.1109 13.8164C18.09 13.756 18.0869 13.6872 18.0868 13.6222C18.0861 13.1964 17.9935 12.7711 17.7788 12.4006C17.5581 12.0198 17.2208 11.6998 16.8254 11.506C16.5862 11.3889 16.3276 11.3161 16.0655 11.2728C15.9509 11.2538 15.8351 11.2424 15.72 11.2263C15.5805 11.2069 15.5059 11.1181 15.5126 10.9806C15.5188 10.8518 15.6129 10.7591 15.7533 10.7671C16.2146 10.7932 16.6603 10.8931 17.0705 11.1102C17.9045 11.5519 18.381 12.2491 18.5201 13.1801C18.5264 13.2223 18.5365 13.2641 18.5397 13.3064C18.5475 13.4108 18.5525 13.5154 18.5605 13.6533C18.5572 13.6783 18.5525 13.5154 18.5605 13.6533Z" fill="#F7F9FC"/>
<path d="M17.3094 13.6044C17.1412 13.6075 17.0512 13.5143 17.0338 13.3602C17.0218 13.2528 17.0122 13.1438 16.9865 13.0391C16.936 12.8331 16.8265 12.6422 16.6532 12.5159C16.5714 12.4563 16.4786 12.4129 16.3815 12.3848C16.2582 12.3491 16.13 12.3589 16.007 12.3288C15.8733 12.296 15.7994 12.1878 15.8204 12.0624C15.8395 11.9483 15.9505 11.8592 16.0753 11.8683C16.8547 11.9246 17.4117 12.3275 17.4912 13.2451C17.4969 13.3098 17.5035 13.3782 17.4891 13.4403C17.4644 13.5461 17.3859 13.5993 17.3094 13.6044C17.1411 13.6074 17.3859 13.5993 17.3094 13.6044Z" fill="#F7F9FC"/>
<path d="M23.4352 10.5424L23.4303 10.5226C23.2057 9.61436 22.539 8.669 21.7042 7.94971L20.5758 8.94978C21.2468 9.48445 21.8217 10.2251 21.9851 10.8705C22.4316 12.9158 22.4316 14.9892 21.9851 17.0345C21.7175 18.0916 20.3455 19.4058 19.2555 19.6486C17.8284 19.92 16.39 20.036 14.9531 19.9962C14.9245 19.9954 14.897 20.0065 14.8771 20.027C14.6732 20.2363 13.5392 21.4005 13.5392 21.4005L12.116 22.8612C12.012 22.9697 11.8292 22.8959 11.8292 22.7461V19.7498C11.8292 19.7003 11.7938 19.6583 11.7452 19.6487C11.7449 19.6487 11.7447 19.6486 11.7444 19.6486C11.1249 19.5106 10.4148 19.0264 9.86772 18.4403L8.75269 19.4284C9.44907 20.186 10.3473 20.7984 11.2235 21.0486V22.8572C11.2235 23.5119 12.0212 23.8334 12.4749 23.361L14.3074 21.4562C14.7049 21.4784 15.1024 21.4908 15.5001 21.4908C16.8511 21.4908 18.2027 21.363 19.5444 21.107L19.5631 21.1032C21.2225 20.7415 23.0294 19.0029 23.4302 17.3827L23.4351 17.3629C23.9306 15.0999 23.9306 12.8053 23.4352 10.5424Z" fill="#F7F9FC"/>
<path d="M17.8717 18.4185C18.0183 18.3733 17.703 18.3673 17.8717 18.4185V18.4185Z" fill="#745CEF"/>
<path d="M19.1291 16.5042C18.9092 16.3105 18.6717 16.1443 18.4334 15.9744C18.1904 15.8012 17.9461 15.63 17.694 15.4704C17.442 15.3109 17.143 15.3134 16.9089 15.5047C16.6695 15.7005 16.559 16.0753 16.2173 16.1152C16.0133 16.1389 15.8355 16.0531 15.6584 15.9795C14.9776 15.6963 14.4611 15.2632 14.0707 14.7163L13.241 15.4517C13.2692 15.4843 13.296 15.5178 13.3247 15.55C14.4451 16.811 15.8596 17.6337 17.3965 18.2714C17.5448 18.3329 17.7046 18.3671 17.8722 18.4179C17.7046 18.367 18.0179 18.3731 17.8722 18.4179C18.0179 18.3731 18.1722 18.3505 18.3015 18.2813C18.7592 18.0354 19.0763 17.6503 19.2943 17.1874C19.4135 16.9348 19.3406 16.6904 19.1291 16.5042Z" fill="#F7F9FC"/>
<path d="M15.5099 9.69458C15.508 9.69458 15.5062 9.69439 15.5043 9.69439C15.5024 9.69426 15.5048 9.69439 15.5099 9.69458Z" fill="#745CEF"/>
<path d="M15.5051 9.69287C15.5068 9.69287 15.5085 9.69305 15.5102 9.69305C15.6217 9.69703 17.4363 9.74701 15.5051 9.69287Z" fill="#745CEF"/>
<path d="M18.3877 10.8896L18.0339 11.2032C18.5898 11.744 18.9731 12.4608 19.0827 13.2496C19.1221 13.5333 19.1366 13.8206 19.1572 14.1066C19.1677 14.2512 19.2401 14.386 19.4014 14.3841C19.5574 14.3822 19.6393 14.2449 19.628 14.1003C19.6011 13.7566 19.5797 13.4103 19.5194 13.0717C19.3645 12.2017 18.961 11.4569 18.3877 10.8896Z" fill="#F7F9FC"/>
<path d="M18.5186 13.1801C18.4173 12.5017 18.1359 11.9481 17.6684 11.5264L17.3157 11.839C17.4981 12.0009 17.6559 12.191 17.7774 12.4007C17.9921 12.7712 18.0847 13.1966 18.0854 13.6223C18.0855 13.6874 18.0886 13.7562 18.1095 13.8167C18.18 14.0204 18.486 13.9952 18.5393 13.7932C18.5541 13.7376 18.5558 13.6786 18.5591 13.6536C18.5558 13.6787 18.551 13.5157 18.5591 13.6536C18.551 13.5157 18.5461 13.411 18.5382 13.3065C18.5351 13.264 18.5249 13.2223 18.5186 13.1801Z" fill="#F7F9FC"/>
<path d="M18.56 13.6519C18.5522 13.5161 18.5567 13.6766 18.56 13.6519V13.6519Z" fill="#745CEF"/>
<path d="M17.3088 13.6049C17.3115 13.6047 17.314 13.6033 17.3166 13.603C17.3094 13.603 17.2983 13.6032 17.2869 13.6036C17.2943 13.6038 17.301 13.6049 17.3088 13.6049Z" fill="#745CEF"/>
<path d="M17.3083 13.6052C17.3008 13.6053 17.2942 13.6042 17.2871 13.604C17.2512 13.605 17.2142 13.6069 17.3083 13.6052Z" fill="#745CEF"/>
<path d="M17.3157 13.6016C17.3133 13.6018 17.3109 13.6031 17.3086 13.6033C17.3269 13.602 17.3253 13.6016 17.3157 13.6016Z" fill="#745CEF"/>
<path d="M16.9538 12.1602L16.5947 12.4784C16.6145 12.4904 16.6339 12.503 16.6527 12.5166C16.8261 12.6429 16.9356 12.8338 16.9861 13.0399C17.0117 13.1445 17.0212 13.2534 17.0334 13.361C17.0499 13.5082 17.1336 13.5988 17.2874 13.604C17.2986 13.6037 17.3096 13.6035 17.3166 13.6034C17.3907 13.5952 17.4649 13.5433 17.4886 13.4409C17.503 13.379 17.4964 13.3105 17.4908 13.2457C17.4461 12.7327 17.2522 12.3808 16.9538 12.1602Z" fill="#F7F9FC"/>
</g>
<defs>
<clipPath id="clip0_1634_236181">
<rect width="30" height="30" fill="white" transform="translate(0.5)"/>
</clipPath>
</defs>
</svg>
