<svg width="31" height="32" viewBox="0 0 31 32" fill="none" xmlns="http://www.w3.org/2000/svg">
<path fill-rule="evenodd" clip-rule="evenodd" d="M12.3125 21.0396C13.25 21.6214 14.375 21.9122 15.5 21.9122C18.9687 21.9122 21.6875 19.0035 21.6875 15.61C21.6875 13.8648 21.125 12.3135 19.9063 11.0531C18.6875 9.88959 17.1875 9.2109 15.5 9.2109C12.125 9.2109 9.31249 12.1196 9.31249 15.61C9.31249 16.7735 9.59375 17.937 10.25 19.0035L10.4375 19.2944L9.78124 21.6214L12.125 20.9427L12.3125 21.0396ZM17.5625 16.4827C17.75 16.4827 18.6875 16.9674 18.875 17.0644C18.9042 17.0795 18.9334 17.0922 18.9622 17.1048C19.1186 17.1731 19.2646 17.2368 19.3438 17.6461C19.4375 17.6461 19.4375 18.034 19.25 18.5187C19.1563 18.9066 18.4063 19.3914 18.0313 19.3914C17.9677 19.3914 17.9069 19.3969 17.8419 19.4029C17.5233 19.432 17.105 19.4703 15.7812 18.9066C14.1383 18.2269 12.9992 16.5795 12.6794 16.1169C12.6342 16.0516 12.6053 16.0099 12.5937 15.9979C12.5778 15.9649 12.5455 15.9122 12.5029 15.8427C12.2955 15.504 11.8438 14.7663 11.8438 13.9618C11.8438 12.9922 12.3125 12.5074 12.5 12.3135C12.6875 12.1196 12.875 12.1196 12.9687 12.1196H13.3438C13.4375 12.1196 13.625 12.1196 13.7188 12.4105C13.9063 12.7983 14.2813 13.7679 14.2813 13.8648C14.2813 13.8971 14.2917 13.9295 14.3021 13.9618C14.3229 14.0264 14.3438 14.0911 14.2813 14.1557C14.2344 14.2042 14.2109 14.2526 14.1875 14.3011C14.1641 14.3496 14.1406 14.3981 14.0938 14.4466L13.8125 14.7374C13.7188 14.8344 13.625 14.9313 13.7188 15.1253C13.8125 15.3192 14.1875 15.9979 14.75 16.4827C15.3829 17.0554 15.8823 17.2829 16.1355 17.3982C16.1823 17.4196 16.2207 17.4371 16.25 17.4522C16.4375 17.4522 16.5313 17.4522 16.625 17.3553C16.6719 17.2583 16.7891 17.1129 16.9062 16.9674C17.0234 16.822 17.1406 16.6766 17.1875 16.5796C17.2812 16.3857 17.375 16.3857 17.5625 16.4827Z" fill="url(#paint0_linear_1634_236175)"/>
<path fill-rule="evenodd" clip-rule="evenodd" d="M0.5 15.5131C0.5 6.94545 7.21573 0 15.5 0C23.7843 0 30.5 6.94545 30.5 15.5131C30.5 24.0807 23.7843 31.0262 15.5 31.0262C7.21573 31.0262 0.5 24.0807 0.5 15.5131ZM15.5 7.75654C17.4687 7.75654 19.3438 8.5322 20.75 9.98655C22.1563 11.4409 23 13.38 23 15.4161C23 19.6822 19.625 23.1727 15.5 23.1727C14.2812 23.1727 13.0625 22.7848 11.9375 22.2031L8 23.2696L9.03126 19.3914C8.37501 18.2279 8 16.8705 8 15.5131C8 11.247 11.375 7.75654 15.5 7.75654Z" fill="url(#paint1_linear_1634_236175)"/>
<defs>
<linearGradient id="paint0_linear_1634_236175" x1="15.5" y1="0" x2="15.5" y2="31.0262" gradientUnits="userSpaceOnUse">
<stop stop-color="#5BF674"/>
<stop offset="1" stop-color="#01BE24"/>
</linearGradient>
<linearGradient id="paint1_linear_1634_236175" x1="15.5" y1="0" x2="15.5" y2="31.0262" gradientUnits="userSpaceOnUse">
<stop stop-color="#5BF674"/>
<stop offset="1" stop-color="#01BE24"/>
</linearGradient>
</defs>
</svg>
