<svg width="20" height="21" fill="none" xmlns="http://www.w3.org/2000/svg"><path fill-rule="evenodd" clip-rule="evenodd" d="M18.997 9.474H19a1 1 0 011 .997 9.932 9.932 0 01-2.909 7.08 9.935 9.935 0 01-7.062 2.949H10a9.932 9.932 0 01-7.051-2.909A9.935 9.935 0 010 10.529a9.93 9.93 0 012.909-7.08A9.935 9.935 0 019.971.5c.795.012 1.605.092 2.381.278a1 1 0 01-.469 1.945A8.817 8.817 0 009.977 2.5a7.946 7.946 0 00-5.65 2.359A7.947 7.947 0 002 10.523a7.948 7.948 0 002.359 5.65A7.949 7.949 0 0010 18.5h.023a7.946 7.946 0 005.65-2.359A7.949 7.949 0 0018 10.477a1 1 0 01.997-1.003zm-12.704.319a.999.999 0 011.414 0l2.244 2.244 6.297-7.196a1 1 0 011.504 1.318l-7 8a1.002 1.002 0 01-.719.34H10a1 1 0 01-.707-.292l-3-3a.999.999 0 010-1.414z" fill="#219653"/></svg>